M48
;Layer_Color=9474304
;FILE_FORMAT=2:5
INCH,LZ
;TYPE=PLATED
T1F00S00C0.00984
T2F00S00C0.01181
T3F00S00C0.01575
T4F00S00C0.01772
T6F00S00C0.03543
T7F00S00C0.09843
;TYPE=NON_PLATED
T8F00S00C0.02362
%
T01
X05005Y0279
Y0281
X05035
Y0279
X05215Y0277
X0524Y0281
X05375Y02475
X0365Y0249
X0368Y02425
X03595Y02585
X0352323Y0275823
X0342459Y0274959
X03405Y02695
X0333Y02725
X03305Y02675
X0314Y02795
Y02835
Y028726
X0314282Y0291
X03125Y0293
Y02965
X031437Y029483
X03135Y03065
X0317Y0312
X0328Y03085
X03305
X03345Y0311
X03435
X0368116Y030906
X0367Y0305
X0353476Y0286024
X0312Y02855
Y02815
X031233Y028967
X03075Y0291
X0308Y0294
X02995Y0295
Y0299064
X0298088Y0291088
X0298Y0287
X03005Y0309
X0305Y03095
X0308Y0312
X03105Y03185
X0305
X03145
X03165Y0328
X03355
X03345Y0315
X03435
X0323
T02
X0294Y02705
X0297Y0303
T03
X0472441Y0200787
X0484252
X0496063
X0507874
X0519685
X0531496
X052559Y0212598
X0513779
X0501968
X0490157
X0478346
X0484252Y0224409
X0496063
X0507874
X0519685
X0531496
X0543307
X0537401Y023622
X052559
X0513779
X0501968
X0490157
X0478346
X0472441Y0224409
X0490157Y0259842
X0501968
X0513779
X052559
X0543307Y0271654
X0549212Y0283465
X0537401
X0519685Y0295275
X0507874
X0496063
X0484252
X0472441
X0478346Y0307086
X0490157
X0501968
X0513779
X052559
X0478346Y0283465
X0466535
X0454724
X046063Y0295275
X0466535Y0307086
X0454724
Y0259842
X0466535
Y023622
X046063Y0224409
X0448819
X0437008
X0431102Y0212598
X0419291
X0454724
X0466535
X046063Y0200787
X0448819
X0437008Y0248031
X0425197
X0413386
X0401575
X0389764
X0377953
X0360236Y0283465
X0337405Y0289094
X0334453Y0286142
Y0292047
Y0297953
X0337405Y0295
X03315
X0328547Y0297953
X0325594Y0295
X0328547Y0292047
X0325594Y0289094
X0328547Y0286142
X03315Y0289094
X0312992Y0259842
X0318898Y0248031
X0324803Y023622
X0336614
X034252Y0224409
X0330709
X0318898
X0324803Y0212598
X0336614
X0348425
X0360236
X0366142Y0200787
X0354331
X034252
X0330709
X0318898
X0312992Y0212598
Y023622
X0383858Y0307086
X0307086Y0271654
X0301181Y0259842
X028937
X0295275Y0248031
X0307086
X0301181Y023622
X028937
X0295275Y0224409
X0307086
X0301181Y0212598
X0307086Y0200787
X0295275
X0283465Y0224409
Y0248031
Y0271654
X028937Y0283465
X0283465Y0295275
X0295275Y0318898
X0301181Y0330709
X028937
X0295275Y034252
X0307086
X0301181Y0354331
X0312992
X0324803
X0336614
X0348425
X0360236
X0372047
X0366142Y034252
X0354331
X034252
X0330709
X0318898
X0312992Y0330709
X0360236
X0366142Y0318898
X0389764Y034252
X0448819
X046063
X0466535Y0354331
X046063Y0318898
X0472441
X0484252
X0496063
X0507874
X0519685
X0531496
X0543307
X0531496Y034252
X0519685
X0507874
X0496063
X0484252
X0472441
X0478346Y0354331
X0490157
X0501968
X0513779
X052559
T04
X05085Y02795
T06
X03735Y0204
X03835
X03935
X04035
X04135
X04235
X04335
X04435
X04535
X0447Y0235
Y0245
Y0255
Y0265
Y0275
Y0285
Y0295
Y0305
Y0315
Y0325
X0449Y03565
X0459
X0439
X0429
X0419
X0409
X0399
X0389
X0379
T07
X0545Y0206709
X02835
Y0353
X0545
T08
X0534012Y0268476
Y0291232
M30
