G04*
G04 #@! TF.GenerationSoftware,Altium Limited,Altium Designer,23.1.1 (15)*
G04*
G04 Layer_Color=8421504*
%FSLAX25Y25*%
%MOIN*%
G70*
G04*
G04 #@! TF.SameCoordinates,379D8D2B-01B5-4923-9211-1CC0BA53C839*
G04*
G04*
G04 #@! TF.FilePolarity,Positive*
G04*
G01*
G75*
%ADD15R,0.04724X0.05512*%
G04:AMPARAMS|DCode=16|XSize=21.65mil|YSize=19.68mil|CornerRadius=2.46mil|HoleSize=0mil|Usage=FLASHONLY|Rotation=270.000|XOffset=0mil|YOffset=0mil|HoleType=Round|Shape=RoundedRectangle|*
%AMROUNDEDRECTD16*
21,1,0.02165,0.01476,0,0,270.0*
21,1,0.01673,0.01968,0,0,270.0*
1,1,0.00492,-0.00738,-0.00837*
1,1,0.00492,-0.00738,0.00837*
1,1,0.00492,0.00738,0.00837*
1,1,0.00492,0.00738,-0.00837*
%
%ADD16ROUNDEDRECTD16*%
G04:AMPARAMS|DCode=17|XSize=21.65mil|YSize=19.68mil|CornerRadius=2.46mil|HoleSize=0mil|Usage=FLASHONLY|Rotation=0.000|XOffset=0mil|YOffset=0mil|HoleType=Round|Shape=RoundedRectangle|*
%AMROUNDEDRECTD17*
21,1,0.02165,0.01476,0,0,0.0*
21,1,0.01673,0.01968,0,0,0.0*
1,1,0.00492,0.00837,-0.00738*
1,1,0.00492,-0.00837,-0.00738*
1,1,0.00492,-0.00837,0.00738*
1,1,0.00492,0.00837,0.00738*
%
%ADD17ROUNDEDRECTD17*%
%ADD18R,0.00866X0.02559*%
%ADD19R,0.02559X0.00866*%
%ADD20R,0.03937X0.03937*%
%ADD21R,0.02126X0.02284*%
%ADD22R,0.01378X0.00984*%
%ADD23R,0.00984X0.01378*%
G36*
X339374Y295984D02*
X335437D01*
Y299921D01*
X339374D01*
Y295984D01*
D02*
G37*
G36*
X333469D02*
X329532D01*
Y299921D01*
X333469D01*
Y295984D01*
D02*
G37*
G36*
X327563D02*
X323626D01*
Y299921D01*
X327563D01*
Y295984D01*
D02*
G37*
G36*
X339374Y290079D02*
X335437D01*
Y294016D01*
X339374D01*
Y290079D01*
D02*
G37*
G36*
X327563D02*
X323626D01*
Y294016D01*
X327563D01*
Y290079D01*
D02*
G37*
G36*
X339374Y284173D02*
X335437D01*
Y288110D01*
X339374D01*
Y284173D01*
D02*
G37*
G36*
X333469D02*
X329532D01*
Y288110D01*
X333469D01*
Y284173D01*
D02*
G37*
G36*
X327563D02*
X323626D01*
Y288110D01*
X327563D01*
Y284173D01*
D02*
G37*
D15*
X322850Y327831D02*
D03*
X329150D02*
D03*
X322850Y319169D02*
D03*
X329150D02*
D03*
D16*
X305272Y295094D02*
D03*
X301728D02*
D03*
X300728Y287000D02*
D03*
X304272D02*
D03*
X340772Y315000D02*
D03*
X337228D02*
D03*
X304272Y291000D02*
D03*
X300728D02*
D03*
X301728Y299095D02*
D03*
X305272D02*
D03*
X340772Y311000D02*
D03*
X337228D02*
D03*
X323772Y310500D02*
D03*
X320228D02*
D03*
D17*
X350000Y279366D02*
D03*
Y275823D02*
D03*
X330500Y273272D02*
D03*
Y269728D02*
D03*
X350000Y283323D02*
D03*
Y286866D02*
D03*
X314500Y312323D02*
D03*
Y315866D02*
D03*
X310500Y312323D02*
D03*
Y315866D02*
D03*
X316500Y321728D02*
D03*
Y325272D02*
D03*
X305000Y312228D02*
D03*
Y315772D02*
D03*
X335500Y325272D02*
D03*
Y321728D02*
D03*
D18*
X321264Y278563D02*
D03*
X322839D02*
D03*
X324413D02*
D03*
X325988D02*
D03*
X327563D02*
D03*
X329138D02*
D03*
X330713D02*
D03*
X332287D02*
D03*
X333862D02*
D03*
X335437D02*
D03*
X337012D02*
D03*
X338587D02*
D03*
X340161D02*
D03*
X341736D02*
D03*
Y305532D02*
D03*
X340161D02*
D03*
X338587D02*
D03*
X337012D02*
D03*
X335437D02*
D03*
X333862D02*
D03*
X332287D02*
D03*
X330713D02*
D03*
X329138D02*
D03*
X327563D02*
D03*
X325988D02*
D03*
X324413D02*
D03*
X322839D02*
D03*
X321264D02*
D03*
D19*
X318016Y302284D02*
D03*
Y300709D02*
D03*
Y299134D02*
D03*
Y297559D02*
D03*
Y295984D02*
D03*
Y294409D02*
D03*
Y292835D02*
D03*
Y291260D02*
D03*
Y289685D02*
D03*
Y288110D02*
D03*
Y286535D02*
D03*
Y284961D02*
D03*
Y283386D02*
D03*
Y281811D02*
D03*
X344984D02*
D03*
Y283386D02*
D03*
Y284961D02*
D03*
Y286535D02*
D03*
Y288110D02*
D03*
Y289685D02*
D03*
Y291260D02*
D03*
Y292835D02*
D03*
Y294409D02*
D03*
Y295984D02*
D03*
Y297559D02*
D03*
Y299134D02*
D03*
Y300709D02*
D03*
Y302284D02*
D03*
D20*
X331500Y292047D02*
D03*
D21*
X300500Y303059D02*
D03*
Y306130D02*
D03*
X310500Y303059D02*
D03*
Y306130D02*
D03*
D22*
X304279Y303095D02*
D03*
X306720D02*
D03*
D23*
X309000Y296779D02*
D03*
Y299220D02*
D03*
M02*
