G04*
G04 #@! TF.GenerationSoftware,Altium Limited,Altium Designer,23.1.1 (15)*
G04*
G04 Layer_Color=255*
%FSLAX25Y25*%
%MOIN*%
G70*
G04*
G04 #@! TF.SameCoordinates,379D8D2B-01B5-4923-9211-1CC0BA53C839*
G04*
G04*
G04 #@! TF.FilePolarity,Positive*
G04*
G01*
G75*
%ADD15R,0.04724X0.05512*%
G04:AMPARAMS|DCode=16|XSize=21.65mil|YSize=19.68mil|CornerRadius=2.46mil|HoleSize=0mil|Usage=FLASHONLY|Rotation=270.000|XOffset=0mil|YOffset=0mil|HoleType=Round|Shape=RoundedRectangle|*
%AMROUNDEDRECTD16*
21,1,0.02165,0.01476,0,0,270.0*
21,1,0.01673,0.01968,0,0,270.0*
1,1,0.00492,-0.00738,-0.00837*
1,1,0.00492,-0.00738,0.00837*
1,1,0.00492,0.00738,0.00837*
1,1,0.00492,0.00738,-0.00837*
%
%ADD16ROUNDEDRECTD16*%
G04:AMPARAMS|DCode=17|XSize=21.65mil|YSize=19.68mil|CornerRadius=2.46mil|HoleSize=0mil|Usage=FLASHONLY|Rotation=0.000|XOffset=0mil|YOffset=0mil|HoleType=Round|Shape=RoundedRectangle|*
%AMROUNDEDRECTD17*
21,1,0.02165,0.01476,0,0,0.0*
21,1,0.01673,0.01968,0,0,0.0*
1,1,0.00492,0.00837,-0.00738*
1,1,0.00492,-0.00837,-0.00738*
1,1,0.00492,-0.00837,0.00738*
1,1,0.00492,0.00837,0.00738*
%
%ADD17ROUNDEDRECTD17*%
%ADD18R,0.00866X0.02559*%
%ADD19R,0.02559X0.00866*%
%ADD21R,0.02126X0.02284*%
%ADD22R,0.01378X0.00984*%
%ADD23R,0.00984X0.01378*%
%ADD38R,0.16142X0.16142*%
%ADD41C,0.01968*%
%ADD42C,0.03543*%
%ADD43C,0.02362*%
%ADD44R,0.05906X0.05906*%
%ADD45C,0.05906*%
%ADD46R,0.05906X0.05906*%
%ADD47C,0.19685*%
D15*
X322850Y327831D02*
D03*
X329150D02*
D03*
X322850Y319169D02*
D03*
X329150D02*
D03*
D16*
X305272Y295094D02*
D03*
X301728D02*
D03*
X300728Y287000D02*
D03*
X304272D02*
D03*
X340772Y315000D02*
D03*
X337228D02*
D03*
X304272Y291000D02*
D03*
X300728D02*
D03*
X301728Y299095D02*
D03*
X305272D02*
D03*
X340772Y311000D02*
D03*
X337228D02*
D03*
X323772Y310500D02*
D03*
X320228D02*
D03*
D17*
X350000Y279366D02*
D03*
Y275823D02*
D03*
X330500Y273272D02*
D03*
Y269728D02*
D03*
X350000Y283323D02*
D03*
Y286866D02*
D03*
X314500Y312323D02*
D03*
Y315866D02*
D03*
X310500Y312323D02*
D03*
Y315866D02*
D03*
X316500Y321728D02*
D03*
Y325272D02*
D03*
X305000Y312228D02*
D03*
Y315772D02*
D03*
X335500Y325272D02*
D03*
Y321728D02*
D03*
D18*
X321264Y278563D02*
D03*
X322839D02*
D03*
X324413D02*
D03*
X325988D02*
D03*
X327563D02*
D03*
X329138D02*
D03*
X330713D02*
D03*
X332287D02*
D03*
X333862D02*
D03*
X335437D02*
D03*
X337012D02*
D03*
X338587D02*
D03*
X340161D02*
D03*
X341736D02*
D03*
Y305532D02*
D03*
X340161D02*
D03*
X338587D02*
D03*
X337012D02*
D03*
X335437D02*
D03*
X333862D02*
D03*
X332287D02*
D03*
X330713D02*
D03*
X329138D02*
D03*
X327563D02*
D03*
X325988D02*
D03*
X324413D02*
D03*
X322839D02*
D03*
X321264D02*
D03*
D19*
X318016Y302284D02*
D03*
Y300709D02*
D03*
Y299134D02*
D03*
Y297559D02*
D03*
Y295984D02*
D03*
Y294409D02*
D03*
Y292835D02*
D03*
Y291260D02*
D03*
Y289685D02*
D03*
Y288110D02*
D03*
Y286535D02*
D03*
Y284961D02*
D03*
Y283386D02*
D03*
Y281811D02*
D03*
X344984D02*
D03*
Y283386D02*
D03*
Y284961D02*
D03*
Y286535D02*
D03*
Y288110D02*
D03*
Y289685D02*
D03*
Y291260D02*
D03*
Y292835D02*
D03*
Y294409D02*
D03*
Y295984D02*
D03*
Y297559D02*
D03*
Y299134D02*
D03*
Y300709D02*
D03*
Y302284D02*
D03*
D21*
X300500Y303059D02*
D03*
Y306130D02*
D03*
X310500Y303059D02*
D03*
Y306130D02*
D03*
D22*
X304279Y303095D02*
D03*
X306720D02*
D03*
D23*
X309000Y296779D02*
D03*
Y299220D02*
D03*
D38*
X331500Y292047D02*
D03*
D41*
X328547Y297953D02*
D03*
X334453D02*
D03*
X325594Y295000D02*
D03*
X331500D02*
D03*
X337405D02*
D03*
X328547Y292047D02*
D03*
X334453D02*
D03*
X325594Y289094D02*
D03*
X331500D02*
D03*
X337405D02*
D03*
X328547Y286142D02*
D03*
X334453D02*
D03*
D42*
X548500Y262827D02*
D03*
Y296882D02*
D03*
X532083Y262827D02*
D03*
Y296882D02*
D03*
D43*
X534012Y268476D02*
D03*
Y291232D02*
D03*
D44*
X447000Y325000D02*
D03*
D45*
Y315000D02*
D03*
Y295000D02*
D03*
Y285000D02*
D03*
Y275000D02*
D03*
Y265000D02*
D03*
Y255000D02*
D03*
Y245000D02*
D03*
Y235000D02*
D03*
Y305000D02*
D03*
X389000Y356500D02*
D03*
X459000D02*
D03*
X449000D02*
D03*
X439000D02*
D03*
X429000D02*
D03*
X419000D02*
D03*
X409000D02*
D03*
X399000D02*
D03*
X383500Y204000D02*
D03*
X453500D02*
D03*
X443500D02*
D03*
X433500D02*
D03*
X423500D02*
D03*
X413500D02*
D03*
X403500D02*
D03*
X393500D02*
D03*
D46*
X379000Y356500D02*
D03*
X373500Y204000D02*
D03*
D47*
X545000Y353000D02*
D03*
X283500Y206709D02*
D03*
X545000D02*
D03*
X283500Y353000D02*
D03*
M02*
