G04*
G04 #@! TF.GenerationSoftware,Altium Limited,Altium Designer,23.1.1 (15)*
G04*
G04 Layer_Color=128*
%FSLAX25Y25*%
%MOIN*%
G70*
G04*
G04 #@! TF.SameCoordinates,379D8D2B-01B5-4923-9211-1CC0BA53C839*
G04*
G04*
G04 #@! TF.FilePolarity,Positive*
G04*
G01*
G75*
%ADD13C,0.00500*%
D13*
X327760Y297953D02*
X329335D01*
X328547Y297165D02*
Y298740D01*
X333665Y297953D02*
X335240D01*
X334453Y297165D02*
Y298740D01*
X324807Y295000D02*
X326382D01*
X325594Y294213D02*
Y295787D01*
X330713Y295000D02*
X332287D01*
X331500Y294213D02*
Y295787D01*
X336618Y295000D02*
X338193D01*
X337405Y294213D02*
Y295787D01*
X327760Y292047D02*
X329335D01*
X328547Y291260D02*
Y292835D01*
X333665Y292047D02*
X335240D01*
X334453Y291260D02*
Y292835D01*
X324807Y289094D02*
X326382D01*
X325594Y288307D02*
Y289882D01*
X330713Y289094D02*
X332287D01*
X331500Y288307D02*
Y289882D01*
X336618Y289094D02*
X338193D01*
X337405Y288307D02*
Y289882D01*
X327760Y286142D02*
X329335D01*
X328547Y285354D02*
Y286929D01*
X333665Y286142D02*
X335240D01*
X334453Y285354D02*
Y286929D01*
X547319Y262827D02*
X549681D01*
X548500Y261646D02*
Y264008D01*
X547319Y296882D02*
X549681D01*
X548500Y295701D02*
Y298063D01*
X530902Y262827D02*
X533264D01*
X532083Y261646D02*
Y264008D01*
X530902Y296882D02*
X533264D01*
X532083Y295701D02*
Y298063D01*
X532831Y268476D02*
X535193D01*
X534012Y267295D02*
Y269657D01*
X532831Y291232D02*
X535193D01*
X534012Y290051D02*
Y292413D01*
X445228Y325000D02*
X448772D01*
X447000Y323228D02*
Y326772D01*
X445228Y315000D02*
X448772D01*
X447000Y313228D02*
Y316772D01*
X445228Y295000D02*
X448772D01*
X447000Y293228D02*
Y296772D01*
X445228Y285000D02*
X448772D01*
X447000Y283228D02*
Y286772D01*
X445228Y275000D02*
X448772D01*
X447000Y273228D02*
Y276772D01*
X445228Y265000D02*
X448772D01*
X447000Y263228D02*
Y266772D01*
X445228Y255000D02*
X448772D01*
X447000Y253228D02*
Y256772D01*
X445228Y245000D02*
X448772D01*
X447000Y243228D02*
Y246772D01*
X445228Y235000D02*
X448772D01*
X447000Y233228D02*
Y236772D01*
X445228Y305000D02*
X448772D01*
X447000Y303228D02*
Y306772D01*
X387228Y356500D02*
X390772D01*
X389000Y354728D02*
Y358272D01*
X457228Y356500D02*
X460772D01*
X459000Y354728D02*
Y358272D01*
X447228Y356500D02*
X450772D01*
X449000Y354728D02*
Y358272D01*
X437228Y356500D02*
X440772D01*
X439000Y354728D02*
Y358272D01*
X427228Y356500D02*
X430772D01*
X429000Y354728D02*
Y358272D01*
X417228Y356500D02*
X420772D01*
X419000Y354728D02*
Y358272D01*
X407228Y356500D02*
X410772D01*
X409000Y354728D02*
Y358272D01*
X397228Y356500D02*
X400772D01*
X399000Y354728D02*
Y358272D01*
X377228Y356500D02*
X380772D01*
X379000Y354728D02*
Y358272D01*
X381728Y204000D02*
X385272D01*
X383500Y202228D02*
Y205772D01*
X451728Y204000D02*
X455272D01*
X453500Y202228D02*
Y205772D01*
X441728Y204000D02*
X445272D01*
X443500Y202228D02*
Y205772D01*
X431728Y204000D02*
X435272D01*
X433500Y202228D02*
Y205772D01*
X421728Y204000D02*
X425272D01*
X423500Y202228D02*
Y205772D01*
X411728Y204000D02*
X415272D01*
X413500Y202228D02*
Y205772D01*
X401728Y204000D02*
X405272D01*
X403500Y202228D02*
Y205772D01*
X391728Y204000D02*
X395272D01*
X393500Y202228D02*
Y205772D01*
X371728Y204000D02*
X375272D01*
X373500Y202228D02*
Y205772D01*
X540079Y353000D02*
X549921D01*
X545000Y348079D02*
Y357921D01*
X278579Y206709D02*
X288421D01*
X283500Y201787D02*
Y211630D01*
X540079Y206709D02*
X549921D01*
X545000Y201787D02*
Y211630D01*
X278579Y353000D02*
X288421D01*
X283500Y348079D02*
Y357921D01*
X542520Y318898D02*
X544094D01*
X543307Y318110D02*
Y319685D01*
X548425Y283465D02*
X550000D01*
X549212Y282677D02*
Y284252D01*
X542520Y271654D02*
X544094D01*
X543307Y270866D02*
Y272441D01*
X542520Y224409D02*
X544094D01*
X543307Y223622D02*
Y225197D01*
X530709Y342520D02*
X532283D01*
X531496Y341732D02*
Y343307D01*
X530709Y318898D02*
X532283D01*
X531496Y318110D02*
Y319685D01*
X536614Y283465D02*
X538189D01*
X537401Y282677D02*
Y284252D01*
X536614Y236220D02*
X538189D01*
X537401Y235433D02*
Y237008D01*
X530709Y224409D02*
X532283D01*
X531496Y223622D02*
Y225197D01*
X530709Y200787D02*
X532283D01*
X531496Y200000D02*
Y201575D01*
X524803Y354331D02*
X526378D01*
X525590Y353543D02*
Y355118D01*
X518897Y342520D02*
X520472D01*
X519685Y341732D02*
Y343307D01*
X518897Y318898D02*
X520472D01*
X519685Y318110D02*
Y319685D01*
X524803Y307086D02*
X526378D01*
X525590Y306299D02*
Y307874D01*
X518897Y295275D02*
X520472D01*
X519685Y294488D02*
Y296063D01*
X524803Y259842D02*
X526378D01*
X525590Y259055D02*
Y260630D01*
X524803Y236220D02*
X526378D01*
X525590Y235433D02*
Y237008D01*
X518897Y224409D02*
X520472D01*
X519685Y223622D02*
Y225197D01*
X524803Y212598D02*
X526378D01*
X525590Y211811D02*
Y213386D01*
X518897Y200787D02*
X520472D01*
X519685Y200000D02*
Y201575D01*
X512992Y354331D02*
X514567D01*
X513779Y353543D02*
Y355118D01*
X507087Y342520D02*
X508661D01*
X507874Y341732D02*
Y343307D01*
X507087Y318898D02*
X508661D01*
X507874Y318110D02*
Y319685D01*
X512992Y307086D02*
X514567D01*
X513779Y306299D02*
Y307874D01*
X507087Y295275D02*
X508661D01*
X507874Y294488D02*
Y296063D01*
X512992Y259842D02*
X514567D01*
X513779Y259055D02*
Y260630D01*
X512992Y236220D02*
X514567D01*
X513779Y235433D02*
Y237008D01*
X507087Y224409D02*
X508661D01*
X507874Y223622D02*
Y225197D01*
X512992Y212598D02*
X514567D01*
X513779Y211811D02*
Y213386D01*
X507087Y200787D02*
X508661D01*
X507874Y200000D02*
Y201575D01*
X501181Y354331D02*
X502756D01*
X501968Y353543D02*
Y355118D01*
X495275Y342520D02*
X496850D01*
X496063Y341732D02*
Y343307D01*
X495275Y318898D02*
X496850D01*
X496063Y318110D02*
Y319685D01*
X501181Y307086D02*
X502756D01*
X501968Y306299D02*
Y307874D01*
X495275Y295275D02*
X496850D01*
X496063Y294488D02*
Y296063D01*
X501181Y259842D02*
X502756D01*
X501968Y259055D02*
Y260630D01*
X501181Y236220D02*
X502756D01*
X501968Y235433D02*
Y237008D01*
X495275Y224409D02*
X496850D01*
X496063Y223622D02*
Y225197D01*
X501181Y212598D02*
X502756D01*
X501968Y211811D02*
Y213386D01*
X495275Y200787D02*
X496850D01*
X496063Y200000D02*
Y201575D01*
X489370Y354331D02*
X490945D01*
X490157Y353543D02*
Y355118D01*
X483464Y342520D02*
X485039D01*
X484252Y341732D02*
Y343307D01*
X483464Y318898D02*
X485039D01*
X484252Y318110D02*
Y319685D01*
X489370Y307086D02*
X490945D01*
X490157Y306299D02*
Y307874D01*
X483464Y295275D02*
X485039D01*
X484252Y294488D02*
Y296063D01*
X489370Y259842D02*
X490945D01*
X490157Y259055D02*
Y260630D01*
X489370Y236220D02*
X490945D01*
X490157Y235433D02*
Y237008D01*
X483464Y224409D02*
X485039D01*
X484252Y223622D02*
Y225197D01*
X489370Y212598D02*
X490945D01*
X490157Y211811D02*
Y213386D01*
X483464Y200787D02*
X485039D01*
X484252Y200000D02*
Y201575D01*
X477559Y354331D02*
X479134D01*
X478346Y353543D02*
Y355118D01*
X471653Y342520D02*
X473228D01*
X472441Y341732D02*
Y343307D01*
X471653Y318898D02*
X473228D01*
X472441Y318110D02*
Y319685D01*
X477559Y307086D02*
X479134D01*
X478346Y306299D02*
Y307874D01*
X471653Y295275D02*
X473228D01*
X472441Y294488D02*
Y296063D01*
X477559Y283465D02*
X479134D01*
X478346Y282677D02*
Y284252D01*
X477559Y236220D02*
X479134D01*
X478346Y235433D02*
Y237008D01*
X471653Y224409D02*
X473228D01*
X472441Y223622D02*
Y225197D01*
X477559Y212598D02*
X479134D01*
X478346Y211811D02*
Y213386D01*
X471653Y200787D02*
X473228D01*
X472441Y200000D02*
Y201575D01*
X465748Y354331D02*
X467323D01*
X466535Y353543D02*
Y355118D01*
X459842Y342520D02*
X461417D01*
X460630Y341732D02*
Y343307D01*
X459842Y318898D02*
X461417D01*
X460630Y318110D02*
Y319685D01*
X465748Y307086D02*
X467323D01*
X466535Y306299D02*
Y307874D01*
X459842Y295275D02*
X461417D01*
X460630Y294488D02*
Y296063D01*
X465748Y283465D02*
X467323D01*
X466535Y282677D02*
Y284252D01*
X465748Y259842D02*
X467323D01*
X466535Y259055D02*
Y260630D01*
X465748Y236220D02*
X467323D01*
X466535Y235433D02*
Y237008D01*
X459842Y224409D02*
X461417D01*
X460630Y223622D02*
Y225197D01*
X465748Y212598D02*
X467323D01*
X466535Y211811D02*
Y213386D01*
X459842Y200787D02*
X461417D01*
X460630Y200000D02*
Y201575D01*
X448031Y342520D02*
X449606D01*
X448819Y341732D02*
Y343307D01*
X453937Y307086D02*
X455512D01*
X454724Y306299D02*
Y307874D01*
X453937Y283465D02*
X455512D01*
X454724Y282677D02*
Y284252D01*
X453937Y259842D02*
X455512D01*
X454724Y259055D02*
Y260630D01*
X448031Y224409D02*
X449606D01*
X448819Y223622D02*
Y225197D01*
X453937Y212598D02*
X455512D01*
X454724Y211811D02*
Y213386D01*
X448031Y200787D02*
X449606D01*
X448819Y200000D02*
Y201575D01*
X436220Y248031D02*
X437795D01*
X437008Y247244D02*
Y248819D01*
X436220Y224409D02*
X437795D01*
X437008Y223622D02*
Y225197D01*
X424409Y248031D02*
X425984D01*
X425197Y247244D02*
Y248819D01*
X430315Y212598D02*
X431890D01*
X431102Y211811D02*
Y213386D01*
X412598Y248031D02*
X414173D01*
X413386Y247244D02*
Y248819D01*
X418504Y212598D02*
X420079D01*
X419291Y211811D02*
Y213386D01*
X400787Y248031D02*
X402362D01*
X401575Y247244D02*
Y248819D01*
X388976Y342520D02*
X390551D01*
X389764Y341732D02*
Y343307D01*
X388976Y248031D02*
X390551D01*
X389764Y247244D02*
Y248819D01*
X383071Y307086D02*
X384646D01*
X383858Y306299D02*
Y307874D01*
X377165Y248031D02*
X378740D01*
X377953Y247244D02*
Y248819D01*
X371260Y354331D02*
X372834D01*
X372047Y353543D02*
Y355118D01*
X365354Y342520D02*
X366929D01*
X366142Y341732D02*
Y343307D01*
X365354Y318898D02*
X366929D01*
X366142Y318110D02*
Y319685D01*
X365354Y200787D02*
X366929D01*
X366142Y200000D02*
Y201575D01*
X359449Y354331D02*
X361023D01*
X360236Y353543D02*
Y355118D01*
X353543Y342520D02*
X355118D01*
X354331Y341732D02*
Y343307D01*
X359449Y330709D02*
X361023D01*
X360236Y329921D02*
Y331496D01*
X359449Y283465D02*
X361023D01*
X360236Y282677D02*
Y284252D01*
X359449Y212598D02*
X361023D01*
X360236Y211811D02*
Y213386D01*
X353543Y200787D02*
X355118D01*
X354331Y200000D02*
Y201575D01*
X347638Y354331D02*
X349213D01*
X348425Y353543D02*
Y355118D01*
X341732Y342520D02*
X343307D01*
X342520Y341732D02*
Y343307D01*
X341732Y224409D02*
X343307D01*
X342520Y223622D02*
Y225197D01*
X347638Y212598D02*
X349213D01*
X348425Y211811D02*
Y213386D01*
X341732Y200787D02*
X343307D01*
X342520Y200000D02*
Y201575D01*
X335827Y354331D02*
X337402D01*
X336614Y353543D02*
Y355118D01*
X329921Y342520D02*
X331496D01*
X330709Y341732D02*
Y343307D01*
X335827Y236220D02*
X337402D01*
X336614Y235433D02*
Y237008D01*
X329921Y224409D02*
X331496D01*
X330709Y223622D02*
Y225197D01*
X335827Y212598D02*
X337402D01*
X336614Y211811D02*
Y213386D01*
X329921Y200787D02*
X331496D01*
X330709Y200000D02*
Y201575D01*
X324016Y354331D02*
X325590D01*
X324803Y353543D02*
Y355118D01*
X318110Y342520D02*
X319685D01*
X318898Y341732D02*
Y343307D01*
X318110Y248031D02*
X319685D01*
X318898Y247244D02*
Y248819D01*
X324016Y236220D02*
X325590D01*
X324803Y235433D02*
Y237008D01*
X318110Y224409D02*
X319685D01*
X318898Y223622D02*
Y225197D01*
X324016Y212598D02*
X325590D01*
X324803Y211811D02*
Y213386D01*
X318110Y200787D02*
X319685D01*
X318898Y200000D02*
Y201575D01*
X312205Y354331D02*
X313779D01*
X312992Y353543D02*
Y355118D01*
X306299Y342520D02*
X307874D01*
X307086Y341732D02*
Y343307D01*
X312205Y330709D02*
X313779D01*
X312992Y329921D02*
Y331496D01*
X306299Y271654D02*
X307874D01*
X307086Y270866D02*
Y272441D01*
X312205Y259842D02*
X313779D01*
X312992Y259055D02*
Y260630D01*
X306299Y248031D02*
X307874D01*
X307086Y247244D02*
Y248819D01*
X312205Y236220D02*
X313779D01*
X312992Y235433D02*
Y237008D01*
X306299Y224409D02*
X307874D01*
X307086Y223622D02*
Y225197D01*
X312205Y212598D02*
X313779D01*
X312992Y211811D02*
Y213386D01*
X306299Y200787D02*
X307874D01*
X307086Y200000D02*
Y201575D01*
X300394Y354331D02*
X301968D01*
X301181Y353543D02*
Y355118D01*
X294488Y342520D02*
X296063D01*
X295275Y341732D02*
Y343307D01*
X300394Y330709D02*
X301968D01*
X301181Y329921D02*
Y331496D01*
X294488Y318898D02*
X296063D01*
X295275Y318110D02*
Y319685D01*
X300394Y259842D02*
X301968D01*
X301181Y259055D02*
Y260630D01*
X294488Y248031D02*
X296063D01*
X295275Y247244D02*
Y248819D01*
X300394Y236220D02*
X301968D01*
X301181Y235433D02*
Y237008D01*
X294488Y224409D02*
X296063D01*
X295275Y223622D02*
Y225197D01*
X300394Y212598D02*
X301968D01*
X301181Y211811D02*
Y213386D01*
X294488Y200787D02*
X296063D01*
X295275Y200000D02*
Y201575D01*
X288583Y330709D02*
X290157D01*
X289370Y329921D02*
Y331496D01*
X282677Y295275D02*
X284252D01*
X283465Y294488D02*
Y296063D01*
X288583Y283465D02*
X290157D01*
X289370Y282677D02*
Y284252D01*
X282677Y271654D02*
X284252D01*
X283465Y270866D02*
Y272441D01*
X288583Y259842D02*
X290157D01*
X289370Y259055D02*
Y260630D01*
X282677Y248031D02*
X284252D01*
X283465Y247244D02*
Y248819D01*
X288583Y236220D02*
X290157D01*
X289370Y235433D02*
Y237008D01*
X282677Y224409D02*
X284252D01*
X283465Y223622D02*
Y225197D01*
X330008Y267500D02*
X330992D01*
X330500Y267008D02*
Y267992D01*
X359008Y258500D02*
X359992D01*
X359500Y258008D02*
Y258992D01*
X296410Y303000D02*
X297590D01*
X297000Y302410D02*
Y303590D01*
X313008Y306500D02*
X313992D01*
X313500Y306008D02*
Y306992D01*
X327508Y308500D02*
X328492D01*
X328000Y308008D02*
Y308992D01*
X322508Y315000D02*
X323492D01*
X323000Y314508D02*
Y315492D01*
X330008Y308500D02*
X330992D01*
X330500Y308008D02*
Y308992D01*
X299008Y295000D02*
X299992D01*
X299500Y294508D02*
Y295492D01*
X297508Y287000D02*
X298492D01*
X298000Y286508D02*
Y287492D01*
X351831Y275823D02*
X352815D01*
X352323Y275331D02*
Y276315D01*
X332508Y272500D02*
X333492D01*
X333000Y272008D02*
Y272992D01*
X304508Y309500D02*
X305492D01*
X305000Y309008D02*
Y309992D01*
X312008Y296500D02*
X312992D01*
X312500Y296008D02*
Y296992D01*
X299008Y299064D02*
X299992D01*
X299500Y298572D02*
Y299557D01*
X307508Y294000D02*
X308492D01*
X308000Y293508D02*
Y294492D01*
X313878Y294830D02*
X314862D01*
X314370Y294338D02*
Y295322D01*
X313790Y291000D02*
X314774D01*
X314282Y290508D02*
Y291492D01*
X312008Y293000D02*
X312992D01*
X312500Y292508D02*
Y293492D01*
X343008Y315000D02*
X343992D01*
X343500Y314508D02*
Y315492D01*
X293409Y270500D02*
X294590D01*
X294000Y269910D02*
Y271091D01*
X300008Y309000D02*
X300992D01*
X300500Y308508D02*
Y309492D01*
X297596Y291088D02*
X298580D01*
X298088Y290596D02*
Y291580D01*
X364508Y249000D02*
X365492D01*
X365000Y248508D02*
Y249492D01*
X367624Y309060D02*
X368608D01*
X368116Y308568D02*
Y309552D01*
X366508Y305000D02*
X367492D01*
X367000Y304508D02*
Y305492D01*
X343008Y311000D02*
X343992D01*
X343500Y310508D02*
Y311492D01*
X311508Y281500D02*
X312492D01*
X312000Y281008D02*
Y281992D01*
X311838Y289670D02*
X312822D01*
X312330Y289178D02*
Y290162D01*
X311508Y285500D02*
X312492D01*
X312000Y285008D02*
Y285992D01*
X307008Y291000D02*
X307992D01*
X307500Y290508D02*
Y291492D01*
X340008Y269500D02*
X340992D01*
X340500Y269008D02*
Y269992D01*
X537008Y247500D02*
X537992D01*
X537500Y247008D02*
Y247992D01*
X341967Y274959D02*
X342951D01*
X342459Y274467D02*
Y275451D01*
X334008Y311000D02*
X334992D01*
X334500Y310508D02*
Y311492D01*
X334008Y315000D02*
X334992D01*
X334500Y314508D02*
Y315492D01*
X304508Y318500D02*
X305492D01*
X305000Y318008D02*
Y318992D01*
X307508Y312000D02*
X308492D01*
X308000Y311508D02*
Y312492D01*
X316508Y312000D02*
X317492D01*
X317000Y311508D02*
Y312492D01*
X352984Y286024D02*
X353968D01*
X353476Y285532D02*
Y286516D01*
X367508Y242500D02*
X368492D01*
X368000Y242008D02*
Y242992D01*
X313508Y279500D02*
X314492D01*
X314000Y279008D02*
Y279992D01*
X313508Y283500D02*
X314492D01*
X314000Y283008D02*
Y283992D01*
X313508Y287260D02*
X314492D01*
X314000Y286768D02*
Y287752D01*
X310008Y318500D02*
X310992D01*
X310500Y318008D02*
Y318992D01*
X314008Y318500D02*
X314992D01*
X314500Y318008D02*
Y318992D01*
X316008Y328000D02*
X316992D01*
X316500Y327508D02*
Y328492D01*
X335008Y328000D02*
X335992D01*
X335500Y327508D02*
Y328492D01*
X503008Y279000D02*
X503992D01*
X503500Y278508D02*
Y279492D01*
X500008Y279000D02*
X500992D01*
X500500Y278508D02*
Y279492D01*
X500008Y281000D02*
X500992D01*
X500500Y280508D02*
Y281492D01*
X507614Y279500D02*
X509386D01*
X508500Y278614D02*
Y280386D01*
X503008Y281000D02*
X503992D01*
X503500Y280508D02*
Y281492D01*
X523508Y281000D02*
X524492D01*
X524000Y280508D02*
Y281492D01*
X521008Y277000D02*
X521992D01*
X521500Y276508D02*
Y277492D01*
M02*
