G04*
G04 #@! TF.GenerationSoftware,Altium Limited,Altium Designer,23.1.1 (15)*
G04*
G04 Layer_Color=128*
%FSLAX25Y25*%
%MOIN*%
G70*
G04*
G04 #@! TF.SameCoordinates,379D8D2B-01B5-4923-9211-1CC0BA53C839*
G04*
G04*
G04 #@! TF.FilePolarity,Positive*
G04*
G01*
G75*
G04:AMPARAMS|DCode=16|XSize=21.65mil|YSize=19.68mil|CornerRadius=2.46mil|HoleSize=0mil|Usage=FLASHONLY|Rotation=270.000|XOffset=0mil|YOffset=0mil|HoleType=Round|Shape=RoundedRectangle|*
%AMROUNDEDRECTD16*
21,1,0.02165,0.01476,0,0,270.0*
21,1,0.01673,0.01968,0,0,270.0*
1,1,0.00492,-0.00738,-0.00837*
1,1,0.00492,-0.00738,0.00837*
1,1,0.00492,0.00738,0.00837*
1,1,0.00492,0.00738,-0.00837*
%
%ADD16ROUNDEDRECTD16*%
G04:AMPARAMS|DCode=17|XSize=21.65mil|YSize=19.68mil|CornerRadius=2.46mil|HoleSize=0mil|Usage=FLASHONLY|Rotation=0.000|XOffset=0mil|YOffset=0mil|HoleType=Round|Shape=RoundedRectangle|*
%AMROUNDEDRECTD17*
21,1,0.02165,0.01476,0,0,0.0*
21,1,0.01673,0.01968,0,0,0.0*
1,1,0.00492,0.00837,-0.00738*
1,1,0.00492,-0.00837,-0.00738*
1,1,0.00492,-0.00837,0.00738*
1,1,0.00492,0.00837,0.00738*
%
%ADD17ROUNDEDRECTD17*%
%ADD51R,0.03937X0.01181*%
%ADD52R,0.03740X0.03543*%
%ADD53R,0.06721X0.02425*%
G04:AMPARAMS|DCode=54|XSize=67.21mil|YSize=24.25mil|CornerRadius=12.12mil|HoleSize=0mil|Usage=FLASHONLY|Rotation=180.000|XOffset=0mil|YOffset=0mil|HoleType=Round|Shape=RoundedRectangle|*
%AMROUNDEDRECTD54*
21,1,0.06721,0.00000,0,0,180.0*
21,1,0.04296,0.02425,0,0,180.0*
1,1,0.02425,-0.02148,0.00000*
1,1,0.02425,0.02148,0.00000*
1,1,0.02425,0.02148,0.00000*
1,1,0.02425,-0.02148,0.00000*
%
%ADD54ROUNDEDRECTD54*%
%ADD55R,0.06299X0.03150*%
%ADD56R,0.03543X0.05906*%
%ADD57R,0.04488X0.02362*%
%ADD58R,0.04488X0.01181*%
%ADD59R,0.02559X0.04134*%
%ADD60R,0.05118X0.07874*%
D16*
X493728Y283500D02*
D03*
X497272D02*
D03*
D17*
X344500Y256772D02*
D03*
Y253228D02*
D03*
X365000Y255272D02*
D03*
X524500Y272772D02*
D03*
Y269228D02*
D03*
X524000Y287272D02*
D03*
Y283728D02*
D03*
X365000Y251728D02*
D03*
D51*
X371559Y255248D02*
D03*
Y241469D02*
D03*
Y243437D02*
D03*
Y245406D02*
D03*
Y247374D02*
D03*
Y249342D02*
D03*
Y251311D02*
D03*
Y253279D02*
D03*
Y257217D02*
D03*
Y259185D02*
D03*
Y261154D02*
D03*
Y263122D02*
D03*
Y265090D02*
D03*
Y267059D02*
D03*
Y269028D02*
D03*
Y270996D02*
D03*
Y272965D02*
D03*
Y274933D02*
D03*
Y276902D02*
D03*
Y278870D02*
D03*
Y280839D02*
D03*
Y282807D02*
D03*
Y284776D02*
D03*
Y286744D02*
D03*
Y288713D02*
D03*
Y290681D02*
D03*
Y292650D02*
D03*
Y294618D02*
D03*
Y296587D02*
D03*
Y298555D02*
D03*
Y300524D02*
D03*
Y302492D02*
D03*
Y304461D02*
D03*
Y306429D02*
D03*
Y308398D02*
D03*
Y310366D02*
D03*
Y312335D02*
D03*
Y314303D02*
D03*
Y316272D02*
D03*
Y318240D02*
D03*
D52*
X349579Y258740D02*
D03*
Y251260D02*
D03*
X359421Y255000D02*
D03*
D53*
X513581Y283594D02*
D03*
D54*
Y279854D02*
D03*
Y276114D02*
D03*
X504128D02*
D03*
Y283594D02*
D03*
D55*
X283000Y303307D02*
D03*
Y316693D02*
D03*
D56*
X289996Y289500D02*
D03*
X277004D02*
D03*
Y270209D02*
D03*
X289996D02*
D03*
D57*
X529799Y267256D02*
D03*
Y270406D02*
D03*
Y289303D02*
D03*
Y292453D02*
D03*
D58*
Y272965D02*
D03*
Y274933D02*
D03*
Y276902D02*
D03*
Y278870D02*
D03*
Y286744D02*
D03*
Y284776D02*
D03*
Y282807D02*
D03*
Y280839D02*
D03*
D59*
X540268Y326539D02*
D03*
Y310201D02*
D03*
X548732Y326539D02*
D03*
Y310201D02*
D03*
X540268Y247799D02*
D03*
Y231461D02*
D03*
X548732Y247799D02*
D03*
Y231461D02*
D03*
D60*
X382189Y232413D02*
D03*
Y327295D02*
D03*
M02*
