G04*
G04 #@! TF.GenerationSoftware,Altium Limited,Altium Designer,23.1.1 (15)*
G04*
G04 Layer_Color=8388736*
%FSLAX25Y25*%
%MOIN*%
G70*
G04*
G04 #@! TF.SameCoordinates,379D8D2B-01B5-4923-9211-1CC0BA53C839*
G04*
G04*
G04 #@! TF.FilePolarity,Negative*
G04*
G01*
G75*
%ADD24R,0.05315X0.06102*%
G04:AMPARAMS|DCode=25|XSize=27.56mil|YSize=25.59mil|CornerRadius=5.41mil|HoleSize=0mil|Usage=FLASHONLY|Rotation=270.000|XOffset=0mil|YOffset=0mil|HoleType=Round|Shape=RoundedRectangle|*
%AMROUNDEDRECTD25*
21,1,0.02756,0.01476,0,0,270.0*
21,1,0.01673,0.02559,0,0,270.0*
1,1,0.01083,-0.00738,-0.00837*
1,1,0.01083,-0.00738,0.00837*
1,1,0.01083,0.00738,0.00837*
1,1,0.01083,0.00738,-0.00837*
%
%ADD25ROUNDEDRECTD25*%
G04:AMPARAMS|DCode=26|XSize=27.56mil|YSize=25.59mil|CornerRadius=5.41mil|HoleSize=0mil|Usage=FLASHONLY|Rotation=0.000|XOffset=0mil|YOffset=0mil|HoleType=Round|Shape=RoundedRectangle|*
%AMROUNDEDRECTD26*
21,1,0.02756,0.01476,0,0,0.0*
21,1,0.01673,0.02559,0,0,0.0*
1,1,0.01083,0.00837,-0.00738*
1,1,0.01083,-0.00837,-0.00738*
1,1,0.01083,-0.00837,0.00738*
1,1,0.01083,0.00837,0.00738*
%
%ADD26ROUNDEDRECTD26*%
%ADD27R,0.01260X0.02953*%
%ADD28R,0.02953X0.01260*%
%ADD29R,0.16732X0.16732*%
%ADD30R,0.02717X0.02874*%
%ADD31R,0.01968X0.01575*%
%ADD32R,0.01575X0.01968*%
%ADD33C,0.02953*%
%ADD34R,0.06496X0.06496*%
%ADD35C,0.06496*%
%ADD36R,0.06496X0.06496*%
%ADD37C,0.20276*%
G36*
X527953Y262724D02*
X527961Y262622D01*
X527972Y262520D01*
X527992Y262417D01*
X528016Y262319D01*
X528043Y262216D01*
X528079Y262122D01*
X528118Y262028D01*
X528161Y261933D01*
X528213Y261842D01*
X528268Y261756D01*
X528323Y261669D01*
X528386Y261587D01*
X528453Y261508D01*
X528524Y261433D01*
X528598Y261362D01*
X528677Y261295D01*
X528760Y261232D01*
X528847Y261177D01*
X528933Y261122D01*
X529024Y261071D01*
X529118Y261028D01*
X529213Y260988D01*
X529307Y260953D01*
X529410Y260925D01*
X529508Y260902D01*
X529610Y260882D01*
X529713Y260870D01*
X529815Y260862D01*
X529917Y260858D01*
X534248D01*
X534350Y260862D01*
X534453Y260870D01*
X534555Y260882D01*
X534657Y260902D01*
X534756Y260925D01*
X534858Y260953D01*
X534953Y260988D01*
X535047Y261028D01*
X535142Y261071D01*
X535232Y261122D01*
X535319Y261177D01*
X535405Y261232D01*
X535488Y261295D01*
X535567Y261362D01*
X535642Y261433D01*
X535713Y261508D01*
X535779Y261587D01*
X535843Y261669D01*
X535898Y261756D01*
X535953Y261842D01*
X536004Y261933D01*
X536047Y262028D01*
X536087Y262122D01*
X536122Y262216D01*
X536150Y262319D01*
X536173Y262417D01*
X536193Y262520D01*
X536205Y262622D01*
X536213Y262724D01*
X536216Y262827D01*
X536213Y262945D01*
X536201Y263051D01*
X536185Y263154D01*
X536165Y263256D01*
X536138Y263354D01*
X536110Y263453D01*
X536071Y263551D01*
X536031Y263646D01*
X535984Y263740D01*
X535933Y263831D01*
X535878Y263917D01*
X535815Y264004D01*
X535752Y264087D01*
X535681Y264161D01*
X535610Y264236D01*
X535532Y264307D01*
X535453Y264374D01*
X535370Y264437D01*
X535284Y264492D01*
X535193Y264547D01*
X535098Y264595D01*
X535004Y264638D01*
X534909Y264677D01*
X534811Y264709D01*
X534709Y264736D01*
X534606Y264760D01*
X534504Y264776D01*
X534402Y264787D01*
X534299Y264795D01*
X534209D01*
X529878D01*
X529760Y264791D01*
X529661Y264779D01*
X529559Y264768D01*
X529461Y264744D01*
X529362Y264721D01*
X529264Y264689D01*
X529169Y264653D01*
X529075Y264614D01*
X528984Y264567D01*
X528894Y264516D01*
X528807Y264461D01*
X528724Y264402D01*
X528646Y264339D01*
X528567Y264272D01*
X528496Y264201D01*
X528425Y264126D01*
X528362Y264047D01*
X528299Y263965D01*
X528244Y263878D01*
X528193Y263791D01*
X528146Y263701D01*
X528102Y263606D01*
X528067Y263512D01*
X528035Y263417D01*
X528008Y263319D01*
X527984Y263216D01*
X527969Y263118D01*
X527957Y263016D01*
X527949Y262913D01*
Y262827D01*
X527953Y262724D01*
D02*
G37*
G36*
X544961D02*
X544969Y262622D01*
X544980Y262520D01*
X545000Y262417D01*
X545024Y262319D01*
X545051Y262216D01*
X545087Y262122D01*
X545126Y262028D01*
X545169Y261933D01*
X545221Y261842D01*
X545276Y261756D01*
X545331Y261669D01*
X545394Y261587D01*
X545461Y261508D01*
X545532Y261433D01*
X545606Y261362D01*
X545685Y261295D01*
X545768Y261232D01*
X545854Y261177D01*
X545941Y261122D01*
X546032Y261071D01*
X546126Y261028D01*
X546220Y260988D01*
X546315Y260953D01*
X546417Y260925D01*
X546516Y260902D01*
X546618Y260882D01*
X546721Y260870D01*
X546823Y260862D01*
X546925Y260858D01*
X550075D01*
X550177Y260862D01*
X550280Y260870D01*
X550382Y260882D01*
X550484Y260902D01*
X550583Y260925D01*
X550685Y260953D01*
X550779Y260988D01*
X550874Y261028D01*
X550969Y261071D01*
X551059Y261122D01*
X551146Y261177D01*
X551232Y261232D01*
X551315Y261295D01*
X551394Y261362D01*
X551469Y261433D01*
X551539Y261508D01*
X551606Y261587D01*
X551669Y261669D01*
X551724Y261756D01*
X551780Y261842D01*
X551831Y261933D01*
X551874Y262028D01*
X551913Y262122D01*
X551949Y262216D01*
X551976Y262319D01*
X552000Y262417D01*
X552020Y262520D01*
X552032Y262622D01*
X552039Y262724D01*
X552043Y262827D01*
X552039Y262929D01*
X552032Y263032D01*
X552020Y263134D01*
X552000Y263236D01*
X551976Y263335D01*
X551949Y263437D01*
X551913Y263531D01*
X551874Y263626D01*
X551831Y263720D01*
X551780Y263811D01*
X551724Y263898D01*
X551669Y263984D01*
X551606Y264067D01*
X551539Y264146D01*
X551469Y264220D01*
X551394Y264291D01*
X551315Y264358D01*
X551232Y264421D01*
X551146Y264476D01*
X551059Y264531D01*
X550969Y264583D01*
X550874Y264626D01*
X550779Y264665D01*
X550685Y264701D01*
X550583Y264728D01*
X550484Y264752D01*
X550382Y264772D01*
X550280Y264784D01*
X550177Y264791D01*
X550075Y264795D01*
X546925D01*
X546823Y264791D01*
X546721Y264784D01*
X546618Y264772D01*
X546516Y264752D01*
X546417Y264728D01*
X546315Y264701D01*
X546220Y264665D01*
X546126Y264626D01*
X546032Y264583D01*
X545941Y264531D01*
X545854Y264476D01*
X545768Y264421D01*
X545685Y264358D01*
X545606Y264291D01*
X545532Y264220D01*
X545461Y264146D01*
X545394Y264067D01*
X545331Y263984D01*
X545276Y263898D01*
X545221Y263811D01*
X545169Y263720D01*
X545126Y263626D01*
X545087Y263531D01*
X545051Y263437D01*
X545024Y263335D01*
X545000Y263236D01*
X544980Y263134D01*
X544969Y263032D01*
X544961Y262929D01*
X544957Y262827D01*
X544961Y262724D01*
D02*
G37*
G36*
X527953Y296779D02*
X527961Y296677D01*
X527972Y296575D01*
X527992Y296472D01*
X528016Y296374D01*
X528043Y296272D01*
X528079Y296177D01*
X528118Y296083D01*
X528161Y295988D01*
X528213Y295898D01*
X528268Y295811D01*
X528323Y295724D01*
X528386Y295642D01*
X528453Y295563D01*
X528524Y295488D01*
X528598Y295417D01*
X528677Y295350D01*
X528760Y295287D01*
X528847Y295232D01*
X528933Y295177D01*
X529024Y295126D01*
X529118Y295083D01*
X529213Y295043D01*
X529307Y295008D01*
X529410Y294980D01*
X529508Y294957D01*
X529610Y294937D01*
X529713Y294925D01*
X529815Y294917D01*
X529917Y294913D01*
X534248D01*
X534350Y294917D01*
X534453Y294925D01*
X534555Y294937D01*
X534657Y294957D01*
X534756Y294980D01*
X534858Y295008D01*
X534953Y295043D01*
X535047Y295083D01*
X535142Y295126D01*
X535232Y295177D01*
X535319Y295232D01*
X535405Y295287D01*
X535488Y295350D01*
X535567Y295417D01*
X535642Y295488D01*
X535713Y295563D01*
X535779Y295642D01*
X535843Y295724D01*
X535898Y295811D01*
X535953Y295898D01*
X536004Y295988D01*
X536047Y296083D01*
X536087Y296177D01*
X536122Y296272D01*
X536150Y296374D01*
X536173Y296472D01*
X536193Y296575D01*
X536205Y296677D01*
X536213Y296779D01*
X536216Y296882D01*
X536213Y296984D01*
X536205Y297087D01*
X536193Y297189D01*
X536173Y297291D01*
X536150Y297390D01*
X536122Y297492D01*
X536087Y297587D01*
X536047Y297681D01*
X536004Y297776D01*
X535953Y297866D01*
X535898Y297953D01*
X535843Y298039D01*
X535779Y298122D01*
X535713Y298201D01*
X535642Y298276D01*
X535567Y298346D01*
X535488Y298413D01*
X535405Y298476D01*
X535319Y298532D01*
X535232Y298587D01*
X535142Y298638D01*
X535047Y298681D01*
X534953Y298721D01*
X534858Y298756D01*
X534756Y298783D01*
X534657Y298807D01*
X534555Y298827D01*
X534453Y298839D01*
X534350Y298847D01*
X534248Y298850D01*
X529917D01*
X529815Y298847D01*
X529713Y298839D01*
X529610Y298827D01*
X529508Y298807D01*
X529410Y298783D01*
X529307Y298756D01*
X529213Y298721D01*
X529118Y298681D01*
X529024Y298638D01*
X528933Y298587D01*
X528847Y298532D01*
X528760Y298476D01*
X528677Y298413D01*
X528598Y298346D01*
X528524Y298276D01*
X528453Y298201D01*
X528386Y298122D01*
X528323Y298039D01*
X528268Y297953D01*
X528213Y297866D01*
X528161Y297776D01*
X528118Y297681D01*
X528079Y297587D01*
X528043Y297492D01*
X528016Y297390D01*
X527992Y297291D01*
X527972Y297189D01*
X527961Y297087D01*
X527953Y296984D01*
X527949Y296882D01*
X527953Y296779D01*
D02*
G37*
G36*
X544961D02*
X544969Y296677D01*
X544980Y296575D01*
X545000Y296472D01*
X545024Y296374D01*
X545051Y296272D01*
X545087Y296177D01*
X545126Y296083D01*
X545169Y295988D01*
X545221Y295898D01*
X545276Y295811D01*
X545331Y295724D01*
X545394Y295642D01*
X545461Y295563D01*
X545532Y295488D01*
X545606Y295417D01*
X545685Y295350D01*
X545768Y295287D01*
X545854Y295232D01*
X545941Y295177D01*
X546032Y295126D01*
X546126Y295083D01*
X546220Y295043D01*
X546315Y295008D01*
X546417Y294980D01*
X546516Y294957D01*
X546618Y294937D01*
X546721Y294925D01*
X546823Y294917D01*
X546925Y294913D01*
X550075D01*
X550177Y294917D01*
X550280Y294925D01*
X550382Y294937D01*
X550484Y294957D01*
X550583Y294980D01*
X550685Y295008D01*
X550779Y295043D01*
X550874Y295083D01*
X550969Y295126D01*
X551059Y295177D01*
X551146Y295232D01*
X551232Y295287D01*
X551315Y295350D01*
X551394Y295417D01*
X551469Y295488D01*
X551539Y295563D01*
X551606Y295642D01*
X551669Y295724D01*
X551724Y295811D01*
X551780Y295898D01*
X551831Y295988D01*
X551874Y296083D01*
X551913Y296177D01*
X551949Y296272D01*
X551976Y296374D01*
X552000Y296472D01*
X552020Y296575D01*
X552032Y296677D01*
X552039Y296779D01*
X552043Y296882D01*
X552039Y296984D01*
X552032Y297087D01*
X552020Y297189D01*
X552000Y297291D01*
X551976Y297390D01*
X551949Y297492D01*
X551913Y297587D01*
X551874Y297681D01*
X551831Y297776D01*
X551780Y297866D01*
X551724Y297953D01*
X551669Y298039D01*
X551606Y298122D01*
X551539Y298201D01*
X551469Y298276D01*
X551394Y298346D01*
X551315Y298413D01*
X551232Y298476D01*
X551146Y298532D01*
X551059Y298587D01*
X550969Y298638D01*
X550874Y298681D01*
X550779Y298721D01*
X550685Y298756D01*
X550583Y298783D01*
X550484Y298807D01*
X550382Y298827D01*
X550280Y298839D01*
X550177Y298847D01*
X550075Y298850D01*
X546925D01*
X546823Y298847D01*
X546721Y298839D01*
X546618Y298827D01*
X546516Y298807D01*
X546417Y298783D01*
X546315Y298756D01*
X546220Y298721D01*
X546126Y298681D01*
X546032Y298638D01*
X545941Y298587D01*
X545854Y298532D01*
X545768Y298476D01*
X545685Y298413D01*
X545606Y298346D01*
X545532Y298276D01*
X545461Y298201D01*
X545394Y298122D01*
X545331Y298039D01*
X545276Y297953D01*
X545221Y297866D01*
X545169Y297776D01*
X545126Y297681D01*
X545087Y297587D01*
X545051Y297492D01*
X545024Y297390D01*
X545000Y297291D01*
X544980Y297189D01*
X544969Y297087D01*
X544961Y296984D01*
X544957Y296882D01*
X544961Y296779D01*
D02*
G37*
D24*
X322850Y327831D02*
D03*
X329150D02*
D03*
X322850Y319169D02*
D03*
X329150D02*
D03*
D25*
X305272Y295094D02*
D03*
X301728D02*
D03*
X300728Y287000D02*
D03*
X304272D02*
D03*
X340772Y315000D02*
D03*
X337228D02*
D03*
X304272Y291000D02*
D03*
X300728D02*
D03*
X301728Y299095D02*
D03*
X305272D02*
D03*
X340772Y311000D02*
D03*
X337228D02*
D03*
X323772Y310500D02*
D03*
X320228D02*
D03*
D26*
X350000Y279366D02*
D03*
Y275823D02*
D03*
X330500Y273272D02*
D03*
Y269728D02*
D03*
X350000Y283323D02*
D03*
Y286866D02*
D03*
X314500Y312323D02*
D03*
Y315866D02*
D03*
X310500Y312323D02*
D03*
Y315866D02*
D03*
X316500Y321728D02*
D03*
Y325272D02*
D03*
X305000Y312228D02*
D03*
Y315772D02*
D03*
X335500Y325272D02*
D03*
Y321728D02*
D03*
D27*
X321264Y278563D02*
D03*
X322839D02*
D03*
X324413D02*
D03*
X325988D02*
D03*
X327563D02*
D03*
X329138D02*
D03*
X330713D02*
D03*
X332287D02*
D03*
X333862D02*
D03*
X335437D02*
D03*
X337012D02*
D03*
X338587D02*
D03*
X340161D02*
D03*
X341736D02*
D03*
Y305532D02*
D03*
X340161D02*
D03*
X338587D02*
D03*
X337012D02*
D03*
X335437D02*
D03*
X333862D02*
D03*
X332287D02*
D03*
X330713D02*
D03*
X329138D02*
D03*
X327563D02*
D03*
X325988D02*
D03*
X324413D02*
D03*
X322839D02*
D03*
X321264D02*
D03*
D28*
X318016Y302284D02*
D03*
Y300709D02*
D03*
Y299134D02*
D03*
Y297559D02*
D03*
Y295984D02*
D03*
Y294409D02*
D03*
Y292835D02*
D03*
Y291260D02*
D03*
Y289685D02*
D03*
Y288110D02*
D03*
Y286535D02*
D03*
Y284961D02*
D03*
Y283386D02*
D03*
Y281811D02*
D03*
X344984D02*
D03*
Y283386D02*
D03*
Y284961D02*
D03*
Y286535D02*
D03*
Y288110D02*
D03*
Y289685D02*
D03*
Y291260D02*
D03*
Y292835D02*
D03*
Y294409D02*
D03*
Y295984D02*
D03*
Y297559D02*
D03*
Y299134D02*
D03*
Y300709D02*
D03*
Y302284D02*
D03*
D29*
X331500Y292047D02*
D03*
D30*
X300500Y303059D02*
D03*
Y306130D02*
D03*
X310500Y303059D02*
D03*
Y306130D02*
D03*
D31*
X304279Y303095D02*
D03*
X306720D02*
D03*
D32*
X309000Y296779D02*
D03*
Y299220D02*
D03*
D33*
X534012Y268476D02*
D03*
Y291232D02*
D03*
D34*
X447000Y325000D02*
D03*
D35*
Y315000D02*
D03*
Y295000D02*
D03*
Y285000D02*
D03*
Y275000D02*
D03*
Y265000D02*
D03*
Y255000D02*
D03*
Y245000D02*
D03*
Y235000D02*
D03*
Y305000D02*
D03*
X389000Y356500D02*
D03*
X459000D02*
D03*
X449000D02*
D03*
X439000D02*
D03*
X429000D02*
D03*
X419000D02*
D03*
X409000D02*
D03*
X399000D02*
D03*
X383500Y204000D02*
D03*
X453500D02*
D03*
X443500D02*
D03*
X433500D02*
D03*
X423500D02*
D03*
X413500D02*
D03*
X403500D02*
D03*
X393500D02*
D03*
D36*
X379000Y356500D02*
D03*
X373500Y204000D02*
D03*
D37*
X545000Y353000D02*
D03*
X283500Y206709D02*
D03*
X545000D02*
D03*
X283500Y353000D02*
D03*
M02*
