G04*
G04 #@! TF.GenerationSoftware,Altium Limited,Altium Designer,23.1.1 (15)*
G04*
G04 Layer_Color=32896*
%FSLAX25Y25*%
%MOIN*%
G70*
G04*
G04 #@! TF.SameCoordinates,379D8D2B-01B5-4923-9211-1CC0BA53C839*
G04*
G04*
G04 #@! TF.FilePolarity,Positive*
G04*
G01*
G75*
%ADD11C,0.00787*%
%ADD12C,0.00591*%
%ADD13C,0.00500*%
%ADD14C,0.00492*%
%ADD66C,0.00984*%
D11*
X525272Y292453D02*
G03*
X525272Y292453I-394J0D01*
G01*
X503342Y272965D02*
X514366D01*
X503342Y286744D02*
X514366D01*
X286543Y306405D02*
Y313595D01*
X279457Y306405D02*
Y313595D01*
X280350Y289697D02*
X286650D01*
X280350Y270012D02*
X286650D01*
X293146D02*
X293342D01*
X293146Y289697D02*
X293342D01*
X273657D02*
X273854D01*
X273657Y270012D02*
X273854D01*
X273657D02*
Y289697D01*
X293342Y270012D02*
Y289697D01*
X538201Y313744D02*
Y322996D01*
X543024Y310102D02*
X545976D01*
X550799Y313744D02*
Y322996D01*
X543024Y326638D02*
X545976D01*
X359421Y258347D02*
Y260118D01*
Y249882D02*
Y251654D01*
X353024Y249882D02*
X359421D01*
X353024Y260118D02*
X359421D01*
X370575Y328870D02*
X378153D01*
X386224D02*
X392032D01*
Y230839D02*
Y328870D01*
X370575Y230839D02*
X378153D01*
X386224D02*
X392032D01*
X370575D02*
Y239402D01*
Y320307D02*
Y328870D01*
X538201Y235004D02*
Y244256D01*
X543024Y231362D02*
X545976D01*
X550799Y235004D02*
Y244256D01*
X543024Y247898D02*
X545976D01*
X532277Y246715D02*
X536213D01*
Y244748D01*
X535557Y244092D01*
X534901D01*
X534245Y244748D01*
Y246715D01*
Y244748D01*
X533589Y244092D01*
X532933D01*
X532277Y244748D01*
Y246715D01*
Y240812D02*
Y242124D01*
X532933Y242780D01*
X535557D01*
X536213Y242124D01*
Y240812D01*
X535557Y240156D01*
X532933D01*
X532277Y240812D01*
Y236876D02*
Y238188D01*
X532933Y238844D01*
X535557D01*
X536213Y238188D01*
Y236876D01*
X535557Y236220D01*
X532933D01*
X532277Y236876D01*
Y234908D02*
Y232284D01*
Y233596D01*
X536213D01*
X536213Y327683D02*
X532277D01*
Y325715D01*
X532933Y325060D01*
X534245D01*
X534901Y325715D01*
Y327683D01*
Y326372D02*
X536213Y325060D01*
X532277Y321124D02*
Y323748D01*
X536213D01*
Y321124D01*
X534245Y323748D02*
Y322436D01*
X532933Y317188D02*
X532277Y317844D01*
Y319156D01*
X532933Y319812D01*
X533589D01*
X534245Y319156D01*
Y317844D01*
X534901Y317188D01*
X535557D01*
X536213Y317844D01*
Y319156D01*
X535557Y319812D01*
X532277Y313252D02*
Y315876D01*
X536213D01*
Y313252D01*
X534245Y315876D02*
Y314564D01*
X532277Y311940D02*
Y309317D01*
Y310629D01*
X536213D01*
D12*
X343713Y255000D02*
X345287D01*
X523713Y271000D02*
X525287D01*
X523213Y285500D02*
X524787D01*
X364213Y253500D02*
X365787D01*
X495500Y282713D02*
Y284287D01*
D13*
X558736Y262256D02*
Y297453D01*
X553106D02*
X558736D01*
X537280D02*
X543894D01*
X553106Y262256D02*
X558736D01*
X537280D02*
X543894D01*
D14*
X346860Y255984D02*
Y254016D01*
X347844D01*
X348172Y254344D01*
Y255000D01*
X347844Y255328D01*
X346860D01*
X347516D02*
X348172Y255984D01*
X350140Y254016D02*
X348828D01*
Y255000D01*
X349484Y254672D01*
X349812D01*
X350140Y255000D01*
Y255656D01*
X349812Y255984D01*
X349156D01*
X348828Y255656D01*
X366148Y260656D02*
X366476Y260984D01*
X367132D01*
X367460Y260656D01*
Y259344D01*
X367132Y259016D01*
X366476D01*
X366148Y259344D01*
X365492Y259016D02*
X364836D01*
X365164D01*
Y260984D01*
X365492Y260656D01*
X363852Y260984D02*
X362540D01*
Y260656D01*
X363852Y259344D01*
Y259016D01*
X522484Y272640D02*
X520516D01*
Y271656D01*
X520844Y271328D01*
X521500D01*
X521828Y271656D01*
Y272640D01*
Y271984D02*
X522484Y271328D01*
Y269688D02*
X520516D01*
X521500Y270672D01*
Y269360D01*
X521484Y288140D02*
X519516D01*
Y287156D01*
X519844Y286828D01*
X520500D01*
X520828Y287156D01*
Y288140D01*
Y287484D02*
X521484Y286828D01*
X519844Y286172D02*
X519516Y285844D01*
Y285188D01*
X519844Y284860D01*
X520172D01*
X520500Y285188D01*
Y285516D01*
Y285188D01*
X520828Y284860D01*
X521156D01*
X521484Y285188D01*
Y285844D01*
X521156Y286172D01*
X496648Y287656D02*
X496976Y287984D01*
X497632D01*
X497960Y287656D01*
Y286344D01*
X497632Y286016D01*
X496976D01*
X496648Y286344D01*
X495992Y286016D02*
X495336D01*
X495664D01*
Y287984D01*
X495992Y287656D01*
X493040Y287984D02*
X493696Y287656D01*
X494352Y287000D01*
Y286344D01*
X494024Y286016D01*
X493368D01*
X493040Y286344D01*
Y286672D01*
X493368Y287000D01*
X494352D01*
D66*
X520977Y283594D02*
G03*
X520977Y283594I-492J0D01*
G01*
X283492Y299567D02*
G03*
X283492Y299567I-492J0D01*
G01*
X290488Y265090D02*
G03*
X290488Y265090I-492J0D01*
G01*
X540760Y330772D02*
G03*
X540760Y330772I-492J0D01*
G01*
X367917Y318240D02*
G03*
X367917Y318240I-492J0D01*
G01*
X540760Y252031D02*
G03*
X540760Y252031I-492J0D01*
G01*
M02*
