G04*
G04 #@! TF.GenerationSoftware,Altium Limited,Altium Designer,23.1.1 (15)*
G04*
G04 Layer_Physical_Order=1*
G04 Layer_Color=255*
%FSLAX25Y25*%
%MOIN*%
G70*
G04*
G04 #@! TF.SameCoordinates,379D8D2B-01B5-4923-9211-1CC0BA53C839*
G04*
G04*
G04 #@! TF.FilePolarity,Positive*
G04*
G01*
G75*
%ADD11C,0.00787*%
%ADD15R,0.04724X0.05512*%
G04:AMPARAMS|DCode=16|XSize=21.65mil|YSize=19.68mil|CornerRadius=2.46mil|HoleSize=0mil|Usage=FLASHONLY|Rotation=270.000|XOffset=0mil|YOffset=0mil|HoleType=Round|Shape=RoundedRectangle|*
%AMROUNDEDRECTD16*
21,1,0.02165,0.01476,0,0,270.0*
21,1,0.01673,0.01968,0,0,270.0*
1,1,0.00492,-0.00738,-0.00837*
1,1,0.00492,-0.00738,0.00837*
1,1,0.00492,0.00738,0.00837*
1,1,0.00492,0.00738,-0.00837*
%
%ADD16ROUNDEDRECTD16*%
G04:AMPARAMS|DCode=17|XSize=21.65mil|YSize=19.68mil|CornerRadius=2.46mil|HoleSize=0mil|Usage=FLASHONLY|Rotation=0.000|XOffset=0mil|YOffset=0mil|HoleType=Round|Shape=RoundedRectangle|*
%AMROUNDEDRECTD17*
21,1,0.02165,0.01476,0,0,0.0*
21,1,0.01673,0.01968,0,0,0.0*
1,1,0.00492,0.00837,-0.00738*
1,1,0.00492,-0.00837,-0.00738*
1,1,0.00492,-0.00837,0.00738*
1,1,0.00492,0.00837,0.00738*
%
%ADD17ROUNDEDRECTD17*%
%ADD18R,0.00866X0.02559*%
%ADD19R,0.02559X0.00866*%
%ADD21R,0.02126X0.02284*%
%ADD22R,0.01378X0.00984*%
%ADD23R,0.00984X0.01378*%
%ADD33C,0.02953*%
%ADD38R,0.16142X0.16142*%
%ADD39C,0.01181*%
%ADD40C,0.01968*%
%ADD41C,0.01968*%
%ADD42C,0.03543*%
%ADD43C,0.02362*%
%ADD44R,0.05906X0.05906*%
%ADD45C,0.05906*%
%ADD46R,0.05906X0.05906*%
%ADD47C,0.19685*%
%ADD48C,0.03150*%
%ADD49C,0.01772*%
G36*
X282263Y363197D02*
X280512Y362849D01*
X278648Y362077D01*
X276971Y360956D01*
X275544Y359529D01*
X274423Y357852D01*
X273651Y355988D01*
X273303Y354237D01*
X272803Y354286D01*
Y359913D01*
X272964Y360724D01*
X273281Y361488D01*
X273740Y362175D01*
X274324Y362760D01*
X275012Y363219D01*
X275776Y363536D01*
X276587Y363697D01*
X282214D01*
X282263Y363197D01*
D02*
G37*
G36*
X552724Y363536D02*
X553488Y363219D01*
X554176Y362760D01*
X554760Y362175D01*
X555220Y361488D01*
X555536Y360724D01*
X555697Y359913D01*
Y354286D01*
X555197Y354237D01*
X554849Y355988D01*
X554077Y357852D01*
X552956Y359529D01*
X551529Y360956D01*
X549852Y362077D01*
X547988Y362849D01*
X546237Y363197D01*
X546286Y363697D01*
X551913D01*
X552724Y363536D01*
D02*
G37*
G36*
X543763Y363197D02*
X542012Y362849D01*
X540148Y362077D01*
X538471Y360956D01*
X537044Y359529D01*
X535923Y357852D01*
X535151Y355988D01*
X534758Y354009D01*
Y351991D01*
X535151Y350012D01*
X535923Y348148D01*
X537044Y346471D01*
X538471Y345044D01*
X540148Y343923D01*
X542012Y343151D01*
X543991Y342758D01*
X546009D01*
X547988Y343151D01*
X549852Y343923D01*
X551529Y345044D01*
X552956Y346471D01*
X554077Y348148D01*
X554849Y350012D01*
X555197Y351764D01*
X555697Y351714D01*
Y207995D01*
X555197Y207945D01*
X554849Y209696D01*
X554077Y211560D01*
X552956Y213238D01*
X551529Y214665D01*
X549852Y215786D01*
X547988Y216558D01*
X546009Y216951D01*
X543991D01*
X542012Y216558D01*
X540148Y215786D01*
X538471Y214665D01*
X537044Y213238D01*
X535923Y211560D01*
X535151Y209696D01*
X534758Y207717D01*
Y205700D01*
X535151Y203721D01*
X535923Y201857D01*
X537044Y200179D01*
X538471Y198753D01*
X540148Y197632D01*
X542012Y196860D01*
X543763Y196511D01*
X543714Y196011D01*
X284786D01*
X284736Y196511D01*
X286488Y196860D01*
X288352Y197632D01*
X290029Y198753D01*
X291456Y200179D01*
X292577Y201857D01*
X293349Y203721D01*
X293742Y205700D01*
Y207717D01*
X293349Y209696D01*
X292577Y211560D01*
X291456Y213238D01*
X290029Y214665D01*
X288352Y215786D01*
X286488Y216558D01*
X284509Y216951D01*
X282491D01*
X280512Y216558D01*
X278648Y215786D01*
X276971Y214665D01*
X275544Y213238D01*
X274423Y211560D01*
X273651Y209696D01*
X273303Y207945D01*
X272803Y207995D01*
Y301500D01*
X296228D01*
X296666Y301319D01*
X297334D01*
X297772Y301500D01*
X314427D01*
X314557Y301474D01*
X314557Y301474D01*
X316336D01*
Y300367D01*
X311234D01*
X311234Y300367D01*
X310924Y300305D01*
X310661Y300130D01*
X310503Y299971D01*
X309892D01*
Y300309D01*
X308108D01*
Y299904D01*
X306669D01*
Y299931D01*
X306618Y300183D01*
X306476Y300397D01*
X306262Y300540D01*
X306010Y300590D01*
X304534D01*
X304281Y300540D01*
X304068Y300397D01*
X303925Y300183D01*
X303875Y299931D01*
Y298258D01*
X303925Y298006D01*
X304068Y297792D01*
X304281Y297649D01*
X304534Y297599D01*
X306010D01*
X306262Y297649D01*
X306476Y297792D01*
X306618Y298006D01*
X306669Y298258D01*
Y298285D01*
X307907D01*
X308108Y297868D01*
Y297227D01*
X308067Y297166D01*
X307990Y296779D01*
Y295476D01*
X307706D01*
X307164Y295252D01*
X306669Y295445D01*
Y295931D01*
X306618Y296183D01*
X306476Y296397D01*
X306262Y296540D01*
X306010Y296590D01*
X304534D01*
X304281Y296540D01*
X304068Y296397D01*
X303925Y296183D01*
X303875Y295931D01*
Y294258D01*
X303925Y294006D01*
X304068Y293792D01*
X304281Y293649D01*
X304534Y293599D01*
X305339D01*
X305539Y293399D01*
X305867Y293180D01*
X306253Y293103D01*
X306554D01*
X306814Y292814D01*
X306703Y292268D01*
X306664Y292252D01*
X306248Y291836D01*
X306237Y291809D01*
X305669D01*
Y291837D01*
X305618Y292089D01*
X305476Y292302D01*
X305262Y292445D01*
X305010Y292495D01*
X303534D01*
X303281Y292445D01*
X303068Y292302D01*
X302925Y292089D01*
X302875Y291837D01*
Y290163D01*
X302925Y289911D01*
X303068Y289698D01*
X303281Y289555D01*
X303462Y289519D01*
Y288481D01*
X303281Y288445D01*
X303068Y288302D01*
X302925Y288089D01*
X302875Y287837D01*
Y286163D01*
X302925Y285911D01*
X303068Y285698D01*
X303281Y285555D01*
X303534Y285505D01*
X305010D01*
X305262Y285555D01*
X305476Y285698D01*
X305618Y285911D01*
X305669Y286163D01*
Y287837D01*
X305618Y288089D01*
X305476Y288302D01*
X305262Y288445D01*
X305081Y288481D01*
Y289519D01*
X305262Y289555D01*
X305476Y289698D01*
X305618Y289911D01*
X305669Y290163D01*
Y290191D01*
X306237D01*
X306248Y290164D01*
X306664Y289748D01*
X307206Y289524D01*
X307794D01*
X308336Y289748D01*
X308752Y290164D01*
X308976Y290706D01*
Y291187D01*
X310524Y292735D01*
X310688Y292725D01*
X311076Y292580D01*
X311248Y292164D01*
X311664Y291748D01*
X311973Y291620D01*
X311987Y291515D01*
X311923Y291100D01*
X311493Y290922D01*
X311078Y290507D01*
X310853Y289964D01*
Y289377D01*
X311078Y288834D01*
X311493Y288419D01*
X312036Y288194D01*
X312248D01*
X312582Y287694D01*
X312524Y287554D01*
Y287422D01*
X312294Y286976D01*
X311706D01*
X311164Y286752D01*
X310748Y286336D01*
X310524Y285794D01*
Y285206D01*
X310748Y284664D01*
X311164Y284248D01*
X311706Y284024D01*
X312078D01*
X312352Y283882D01*
X312510Y283397D01*
X312372Y283128D01*
X312078Y282976D01*
X311706D01*
X311164Y282752D01*
X310748Y282336D01*
X310524Y281794D01*
Y281206D01*
X310748Y280664D01*
X311164Y280248D01*
X311706Y280024D01*
X312078D01*
X312372Y279872D01*
X312524Y279578D01*
Y279206D01*
X312748Y278664D01*
X313164Y278248D01*
X313706Y278024D01*
X314294D01*
X314836Y278248D01*
X315252Y278664D01*
X315370Y278950D01*
X315619Y279116D01*
X317481Y280978D01*
X319695D01*
Y284128D01*
Y288852D01*
Y293576D01*
Y298301D01*
Y303116D01*
X319500D01*
Y305500D01*
X317000Y308000D01*
X306295D01*
X306088Y308500D01*
X306252Y308664D01*
X306476Y309206D01*
Y309794D01*
X306252Y310336D01*
X306192Y310395D01*
X306174Y310481D01*
X306283Y311008D01*
X306337Y311028D01*
X306876Y311036D01*
X307164Y310748D01*
X307706Y310524D01*
X308294D01*
X308836Y310748D01*
X309203Y311115D01*
X309411Y310976D01*
X309663Y310926D01*
X311337D01*
X311589Y310976D01*
X311802Y311119D01*
X311945Y311333D01*
X311981Y311514D01*
X313019D01*
X313055Y311333D01*
X313198Y311119D01*
X313411Y310976D01*
X313663Y310926D01*
X314851D01*
X319932Y305845D01*
X320194Y305670D01*
X320431Y305623D01*
Y303852D01*
X342569D01*
Y306067D01*
X346194Y309691D01*
X363000D01*
X363000Y309691D01*
X363310Y309752D01*
X363572Y309928D01*
X407271Y353627D01*
X407706Y353376D01*
X408559Y353147D01*
X409441D01*
X410294Y353376D01*
X411059Y353817D01*
X411683Y354441D01*
X412124Y355206D01*
X412353Y356059D01*
Y356941D01*
X412124Y357794D01*
X411683Y358559D01*
X411059Y359183D01*
X410294Y359624D01*
X409441Y359853D01*
X408559D01*
X407706Y359624D01*
X406941Y359183D01*
X406317Y358559D01*
X405876Y357794D01*
X405647Y356941D01*
Y356059D01*
X405876Y355206D01*
X406127Y354771D01*
X362665Y311309D01*
X345858D01*
X345858Y311309D01*
X345549Y311248D01*
X345393Y311143D01*
X345031Y311225D01*
X344844Y311337D01*
X344804Y311540D01*
X344498Y311998D01*
X344040Y312304D01*
X343500Y312411D01*
X341812D01*
X341762Y312445D01*
X341510Y312495D01*
X340972D01*
Y311000D01*
Y309505D01*
X341510D01*
X341762Y309555D01*
X341812Y309589D01*
X343095D01*
X343302Y309089D01*
X341425Y307211D01*
X337860D01*
Y309505D01*
X337966D01*
X338219Y309555D01*
X338432Y309698D01*
X338575Y309911D01*
X338625Y310163D01*
Y311837D01*
X338575Y312089D01*
X338432Y312302D01*
X338219Y312445D01*
X338038Y312481D01*
Y313519D01*
X338219Y313555D01*
X338432Y313698D01*
X338575Y313911D01*
X338625Y314163D01*
Y315837D01*
X338575Y316089D01*
X338432Y316302D01*
X338219Y316445D01*
X337966Y316495D01*
X336490D01*
X336238Y316445D01*
X336024Y316302D01*
X336012Y316283D01*
X335481Y316174D01*
X335395Y316193D01*
X335336Y316252D01*
X334794Y316476D01*
X334206D01*
X333664Y316252D01*
X333248Y315836D01*
X333024Y315294D01*
Y314706D01*
X333248Y314164D01*
X333664Y313748D01*
X334206Y313524D01*
X334794D01*
X335336Y313748D01*
X335395Y313808D01*
X335481Y313826D01*
X336012Y313717D01*
X336024Y313698D01*
X336238Y313555D01*
X336419Y313519D01*
Y312481D01*
X336238Y312445D01*
X336024Y312302D01*
X336012Y312283D01*
X335481Y312174D01*
X335395Y312193D01*
X335336Y312252D01*
X334794Y312476D01*
X334206D01*
X333664Y312252D01*
X333248Y311836D01*
X333024Y311294D01*
Y310706D01*
X333248Y310164D01*
X333664Y309748D01*
X334206Y309524D01*
X334794D01*
X335336Y309748D01*
X335395Y309807D01*
X335481Y309826D01*
X336012Y309717D01*
X336024Y309698D01*
X336238Y309555D01*
X336242Y309554D01*
Y307211D01*
X332006D01*
X331855Y307480D01*
X331771Y307711D01*
X331976Y308206D01*
Y308794D01*
X331752Y309336D01*
X331336Y309752D01*
X330794Y309976D01*
X330206D01*
X329664Y309752D01*
X329250Y309338D01*
X328836Y309752D01*
X328294Y309976D01*
X327706D01*
X327689Y309969D01*
X327127Y310278D01*
X327096Y310451D01*
X329722Y313077D01*
X329722Y313077D01*
X329897Y313340D01*
X329959Y313650D01*
Y316013D01*
X331912D01*
Y318360D01*
X332842D01*
X332842Y318360D01*
X333152Y318422D01*
X333415Y318597D01*
X335149Y320331D01*
X336337D01*
X336589Y320382D01*
X336802Y320524D01*
X336945Y320738D01*
X336995Y320990D01*
Y322466D01*
X336945Y322719D01*
X336802Y322932D01*
X336589Y323075D01*
X336337Y323125D01*
X334663D01*
X334411Y323075D01*
X334198Y322932D01*
X334055Y322719D01*
X334005Y322466D01*
Y321476D01*
X332507Y319978D01*
X331912D01*
Y322325D01*
X326387D01*
Y316013D01*
X328340D01*
Y313985D01*
X325669Y311313D01*
X325517Y311320D01*
X325138Y311490D01*
X325118Y311589D01*
X324976Y311802D01*
X324762Y311945D01*
X324510Y311995D01*
X323033D01*
X322781Y311945D01*
X322568Y311802D01*
X322425Y311589D01*
X322375Y311337D01*
Y309663D01*
X322425Y309411D01*
X322568Y309198D01*
X322781Y309055D01*
X323033Y309005D01*
X323191D01*
Y308500D01*
X323191Y308500D01*
X323252Y308190D01*
X323428Y307928D01*
X323604Y307751D01*
Y307211D01*
X321303D01*
X321224Y307227D01*
X321224Y307227D01*
X320839D01*
X319561Y308505D01*
X319768Y309005D01*
X320967D01*
X321219Y309055D01*
X321432Y309198D01*
X321575Y309411D01*
X321625Y309663D01*
Y311337D01*
X321575Y311589D01*
X321432Y311802D01*
X321219Y311945D01*
X321038Y311981D01*
Y314299D01*
X320976Y314609D01*
X320801Y314872D01*
X320801Y314872D01*
X320159Y315513D01*
X320366Y316013D01*
X320464Y316013D01*
X320464Y316013D01*
X320473Y316013D01*
X321990D01*
Y315000D01*
X322067Y314614D01*
X322286Y314286D01*
X322614Y314067D01*
X323000Y313990D01*
X323387Y314067D01*
X323714Y314286D01*
X323933Y314614D01*
X324010Y315000D01*
Y316013D01*
X325613D01*
Y318969D01*
X322850D01*
X320088D01*
X320088Y316398D01*
Y316389D01*
D01*
X320088Y316291D01*
X319921Y316221D01*
X319588Y316084D01*
X317309Y318363D01*
Y320331D01*
X317337D01*
X317589Y320382D01*
X317802Y320524D01*
X317945Y320738D01*
X317995Y320990D01*
Y321562D01*
X318042Y321571D01*
X318304Y321747D01*
X321233Y324675D01*
X325613D01*
Y330987D01*
X320088D01*
Y325819D01*
X318401Y324132D01*
X317970Y324409D01*
X317995Y324534D01*
Y325072D01*
X316700D01*
Y323875D01*
X317337D01*
X317461Y323900D01*
X317738Y323469D01*
X317397Y323128D01*
X317091D01*
X317076Y323125D01*
X315663D01*
X315411Y323075D01*
X315198Y322932D01*
X315055Y322719D01*
X315005Y322466D01*
Y320990D01*
X315055Y320738D01*
X315198Y320524D01*
X315411Y320382D01*
X315663Y320331D01*
X315691D01*
Y319401D01*
X315324Y319257D01*
X315191Y319230D01*
X314886Y319433D01*
X314500Y319510D01*
X314113Y319433D01*
X313786Y319214D01*
X313567Y318886D01*
X313490Y318500D01*
Y317229D01*
X313411Y317213D01*
X313198Y317070D01*
X313055Y316856D01*
X313005Y316604D01*
Y316066D01*
X314500D01*
X315995D01*
Y316604D01*
X315976Y316700D01*
X316437Y316946D01*
X319419Y313964D01*
Y311981D01*
X319238Y311945D01*
X319024Y311802D01*
X318976Y311731D01*
X318476Y311882D01*
Y312294D01*
X318252Y312836D01*
X317836Y313252D01*
X317294Y313476D01*
X316706D01*
X316444Y313368D01*
X316066Y313326D01*
X315802Y313527D01*
X315589Y313670D01*
X315337Y313720D01*
X313663D01*
X313411Y313670D01*
X313198Y313527D01*
X313055Y313313D01*
X313019Y313132D01*
X311981D01*
X311945Y313313D01*
X311802Y313527D01*
X311589Y313670D01*
X311337Y313720D01*
X309663D01*
X309411Y313670D01*
X309198Y313527D01*
X308934Y313326D01*
X308556Y313368D01*
X308294Y313476D01*
X307706D01*
X307164Y313252D01*
X306984Y313072D01*
X306445Y313219D01*
X306302Y313432D01*
X306089Y313575D01*
X305837Y313625D01*
X304163D01*
X303911Y313575D01*
X303698Y313432D01*
X303555Y313219D01*
X303505Y312966D01*
Y311490D01*
X303555Y311238D01*
X303698Y311024D01*
X303717Y311012D01*
X303826Y310481D01*
X303807Y310395D01*
X303748Y310336D01*
X303524Y309794D01*
Y309206D01*
X303748Y308664D01*
X303912Y308500D01*
X303705Y308000D01*
X301510Y308000D01*
Y309000D01*
X301433Y309386D01*
X301214Y309714D01*
X300887Y309933D01*
X300500Y310010D01*
X300114Y309933D01*
X299786Y309714D01*
X299567Y309386D01*
X299490Y309000D01*
Y308000D01*
X289500D01*
X287500Y310000D01*
Y320500D01*
X272803D01*
Y351714D01*
X273303Y351764D01*
X273651Y350012D01*
X274423Y348148D01*
X275544Y346471D01*
X276971Y345044D01*
X278648Y343923D01*
X280512Y343151D01*
X282491Y342758D01*
X284509D01*
X286488Y343151D01*
X288352Y343923D01*
X290029Y345044D01*
X291456Y346471D01*
X292577Y348148D01*
X293349Y350012D01*
X293742Y351991D01*
Y354009D01*
X293349Y355988D01*
X292577Y357852D01*
X291456Y359529D01*
X290029Y360956D01*
X288352Y362077D01*
X286488Y362849D01*
X284736Y363197D01*
X284786Y363697D01*
X543714D01*
X543763Y363197D01*
D02*
G37*
G36*
X555697Y205423D02*
Y199795D01*
X555536Y198984D01*
X555220Y198221D01*
X554760Y197533D01*
X554176Y196948D01*
X553488Y196489D01*
X552724Y196173D01*
X551913Y196011D01*
X546286D01*
X546237Y196511D01*
X547988Y196860D01*
X549852Y197632D01*
X551529Y198753D01*
X552956Y200179D01*
X554077Y201857D01*
X554849Y203721D01*
X555197Y205472D01*
X555697Y205423D01*
D02*
G37*
G36*
X273651Y203721D02*
X274423Y201857D01*
X275544Y200179D01*
X276971Y198753D01*
X278648Y197632D01*
X280512Y196860D01*
X282263Y196511D01*
X282214Y196011D01*
X276587D01*
X275776Y196173D01*
X275012Y196489D01*
X274324Y196948D01*
X273740Y197533D01*
X273281Y198221D01*
X272964Y198984D01*
X272803Y199795D01*
Y205423D01*
X273303Y205472D01*
X273651Y203721D01*
D02*
G37*
%LPC*%
G36*
X382353Y359853D02*
X379200D01*
Y356700D01*
X382353D01*
Y359853D01*
D02*
G37*
G36*
X378800D02*
X375647D01*
Y356700D01*
X378800D01*
Y359853D01*
D02*
G37*
G36*
X459441D02*
X458559D01*
X457706Y359624D01*
X456941Y359183D01*
X456317Y358559D01*
X455876Y357794D01*
X455647Y356941D01*
Y356059D01*
X455876Y355206D01*
X456127Y354771D01*
X394665Y293309D01*
X351335D01*
X348395Y296250D01*
X348602Y296750D01*
X350106D01*
X351428Y295428D01*
X351690Y295252D01*
X352000Y295191D01*
X352000Y295191D01*
X388500D01*
X388500Y295191D01*
X388810Y295252D01*
X389072Y295428D01*
X447271Y353627D01*
X447706Y353376D01*
X448559Y353147D01*
X449441D01*
X450294Y353376D01*
X451059Y353817D01*
X451683Y354441D01*
X452124Y355206D01*
X452353Y356059D01*
Y356941D01*
X452124Y357794D01*
X451683Y358559D01*
X451059Y359183D01*
X450294Y359624D01*
X449441Y359853D01*
X448559D01*
X447706Y359624D01*
X446941Y359183D01*
X446317Y358559D01*
X445876Y357794D01*
X445647Y356941D01*
Y356059D01*
X445876Y355206D01*
X446127Y354771D01*
X388165Y296809D01*
X352335D01*
X351320Y297825D01*
X351527Y298325D01*
X381634D01*
X381634Y298325D01*
X381943Y298386D01*
X382206Y298562D01*
X437271Y353627D01*
X437706Y353376D01*
X438559Y353147D01*
X439441D01*
X440294Y353376D01*
X441059Y353817D01*
X441683Y354441D01*
X442124Y355206D01*
X442353Y356059D01*
Y356941D01*
X442124Y357794D01*
X441683Y358559D01*
X441059Y359183D01*
X440294Y359624D01*
X439441Y359853D01*
X438559D01*
X437706Y359624D01*
X436941Y359183D01*
X436317Y358559D01*
X435876Y357794D01*
X435647Y356941D01*
Y356059D01*
X435876Y355206D01*
X436127Y354771D01*
X381299Y299943D01*
X351295D01*
X351088Y300443D01*
X352335Y301691D01*
X375000D01*
X375000Y301691D01*
X375310Y301752D01*
X375572Y301928D01*
X427271Y353627D01*
X427706Y353376D01*
X428559Y353147D01*
X429441D01*
X430294Y353376D01*
X431059Y353817D01*
X431683Y354441D01*
X432124Y355206D01*
X432353Y356059D01*
Y356941D01*
X432124Y357794D01*
X431683Y358559D01*
X431059Y359183D01*
X430294Y359624D01*
X429441Y359853D01*
X428559D01*
X427706Y359624D01*
X426941Y359183D01*
X426317Y358559D01*
X425876Y357794D01*
X425647Y356941D01*
Y356059D01*
X425876Y355206D01*
X426127Y354771D01*
X374665Y303309D01*
X368050D01*
X367947Y303522D01*
X367897Y303809D01*
X368252Y304164D01*
X368476Y304706D01*
Y305294D01*
X368252Y305836D01*
X368207Y305881D01*
X368414Y306381D01*
X369690D01*
X369690Y306381D01*
X370000Y306442D01*
X370262Y306618D01*
X417271Y353627D01*
X417706Y353376D01*
X418559Y353147D01*
X419441D01*
X420294Y353376D01*
X421059Y353817D01*
X421683Y354441D01*
X422124Y355206D01*
X422353Y356059D01*
Y356941D01*
X422124Y357794D01*
X421683Y358559D01*
X421059Y359183D01*
X420294Y359624D01*
X419441Y359853D01*
X418559D01*
X417706Y359624D01*
X416941Y359183D01*
X416317Y358559D01*
X415876Y357794D01*
X415647Y356941D01*
Y356059D01*
X415876Y355206D01*
X416127Y354771D01*
X369355Y307999D01*
X353190D01*
X353190Y307999D01*
X352881Y307938D01*
X352618Y307762D01*
X352618Y307762D01*
X347948Y303093D01*
X346664D01*
Y303116D01*
X343305D01*
Y299876D01*
Y295151D01*
Y290427D01*
Y285702D01*
Y280978D01*
X346664D01*
Y281002D01*
X348390D01*
X348390Y281002D01*
X348466Y281017D01*
X348663Y280637D01*
X348685Y280551D01*
X348555Y280356D01*
X348505Y280104D01*
Y278628D01*
X348555Y278376D01*
X348698Y278162D01*
X348911Y278019D01*
X349163Y277969D01*
X350837D01*
X351089Y278019D01*
X351302Y278162D01*
X351445Y278376D01*
X351495Y278628D01*
Y280104D01*
X351445Y280356D01*
X351302Y280570D01*
X351089Y280713D01*
X350837Y280763D01*
X350809D01*
Y281926D01*
X350837D01*
X351089Y281976D01*
X351302Y282119D01*
X351445Y282333D01*
X351495Y282585D01*
Y284061D01*
X351445Y284313D01*
X351302Y284527D01*
X351089Y284670D01*
X350837Y284720D01*
X349163D01*
X348911Y284670D01*
X348698Y284527D01*
X348555Y284313D01*
X348505Y284061D01*
Y283070D01*
X348055Y282620D01*
X346664D01*
Y285702D01*
Y290427D01*
Y295175D01*
X347181D01*
X350428Y291928D01*
X350428Y291928D01*
X350690Y291752D01*
X351000Y291691D01*
X395000D01*
X395000Y291691D01*
X395310Y291752D01*
X395572Y291928D01*
X457271Y353627D01*
X457706Y353376D01*
X458559Y353147D01*
X459441D01*
X460294Y353376D01*
X461059Y353817D01*
X461683Y354441D01*
X462124Y355206D01*
X462353Y356059D01*
Y356941D01*
X462124Y357794D01*
X461683Y358559D01*
X461059Y359183D01*
X460294Y359624D01*
X459441Y359853D01*
D02*
G37*
G36*
X399441D02*
X398559D01*
X397706Y359624D01*
X396941Y359183D01*
X396317Y358559D01*
X395876Y357794D01*
X395647Y356941D01*
Y356059D01*
X395876Y355206D01*
X396317Y354441D01*
X396941Y353817D01*
X397706Y353376D01*
X398559Y353147D01*
X399441D01*
X400294Y353376D01*
X401059Y353817D01*
X401683Y354441D01*
X402124Y355206D01*
X402353Y356059D01*
Y356941D01*
X402124Y357794D01*
X401683Y358559D01*
X401059Y359183D01*
X400294Y359624D01*
X399441Y359853D01*
D02*
G37*
G36*
X389441D02*
X388559D01*
X387706Y359624D01*
X386941Y359183D01*
X386317Y358559D01*
X385876Y357794D01*
X385647Y356941D01*
Y356059D01*
X385876Y355206D01*
X386317Y354441D01*
X386941Y353817D01*
X387706Y353376D01*
X388559Y353147D01*
X389441D01*
X390294Y353376D01*
X391059Y353817D01*
X391683Y354441D01*
X392124Y355206D01*
X392353Y356059D01*
Y356941D01*
X392124Y357794D01*
X391683Y358559D01*
X391059Y359183D01*
X390294Y359624D01*
X389441Y359853D01*
D02*
G37*
G36*
X382353Y356300D02*
X379200D01*
Y353147D01*
X382353D01*
Y356300D01*
D02*
G37*
G36*
X378800D02*
X375647D01*
Y353147D01*
X378800D01*
Y356300D01*
D02*
G37*
G36*
X328950Y330987D02*
X326387D01*
Y328031D01*
X328950D01*
Y330987D01*
D02*
G37*
G36*
X331912D02*
X329350D01*
Y327831D01*
Y324675D01*
X331912D01*
Y326990D01*
X334068D01*
X334219Y326490D01*
X334198Y326476D01*
X334055Y326262D01*
X334005Y326010D01*
Y325472D01*
X336995D01*
Y326010D01*
X336945Y326262D01*
X336802Y326476D01*
X336589Y326618D01*
X336510Y326634D01*
Y328000D01*
X336433Y328386D01*
X336214Y328714D01*
X335887Y328933D01*
X335500Y329010D01*
X331912D01*
Y330987D01*
D02*
G37*
G36*
X316500Y329010D02*
X316113Y328933D01*
X315786Y328714D01*
X315567Y328386D01*
X315490Y328000D01*
Y326634D01*
X315411Y326618D01*
X315198Y326476D01*
X315055Y326262D01*
X315005Y326010D01*
Y325472D01*
X317995D01*
Y326010D01*
X317945Y326262D01*
X317802Y326476D01*
X317589Y326618D01*
X317510Y326634D01*
Y328000D01*
X317433Y328386D01*
X317214Y328714D01*
X316886Y328933D01*
X316500Y329010D01*
D02*
G37*
G36*
X328950Y327631D02*
X326387D01*
Y324675D01*
X328950D01*
Y327631D01*
D02*
G37*
G36*
X336995Y325072D02*
X335700D01*
Y323875D01*
X336337D01*
X336589Y323925D01*
X336802Y324068D01*
X336945Y324281D01*
X336995Y324534D01*
Y325072D01*
D02*
G37*
G36*
X335300D02*
X334005D01*
Y324534D01*
X334055Y324281D01*
X334198Y324068D01*
X334411Y323925D01*
X334663Y323875D01*
X335300D01*
Y325072D01*
D02*
G37*
G36*
X316300D02*
X315005D01*
Y324534D01*
X315055Y324281D01*
X315198Y324068D01*
X315411Y323925D01*
X315663Y323875D01*
X316300D01*
Y325072D01*
D02*
G37*
G36*
X450353Y328353D02*
X443647D01*
Y321647D01*
X450353D01*
Y328353D01*
D02*
G37*
G36*
X325613Y322325D02*
X323050D01*
Y319369D01*
X325613D01*
Y322325D01*
D02*
G37*
G36*
X322650D02*
X320088D01*
Y319369D01*
X322650D01*
Y322325D01*
D02*
G37*
G36*
X310500Y319510D02*
X310114Y319433D01*
X309786Y319214D01*
X309567Y318886D01*
X309490Y318500D01*
Y317229D01*
X309411Y317213D01*
X309198Y317070D01*
X309055Y316856D01*
X309005Y316604D01*
Y316066D01*
X310500D01*
X311995D01*
Y316604D01*
X311945Y316856D01*
X311802Y317070D01*
X311589Y317213D01*
X311510Y317229D01*
Y318500D01*
X311433Y318886D01*
X311214Y319214D01*
X310887Y319433D01*
X310500Y319510D01*
D02*
G37*
G36*
X305000Y319911D02*
X304460Y319804D01*
X304002Y319498D01*
X303696Y319040D01*
X303589Y318500D01*
Y316812D01*
X303555Y316762D01*
X303505Y316510D01*
Y315972D01*
X305000D01*
X306495D01*
Y316510D01*
X306445Y316762D01*
X306411Y316812D01*
Y318500D01*
X306304Y319040D01*
X305998Y319498D01*
X305540Y319804D01*
X305000Y319911D01*
D02*
G37*
G36*
X315995Y315666D02*
X314700D01*
Y314469D01*
X315337D01*
X315589Y314519D01*
X315802Y314662D01*
X315945Y314876D01*
X315995Y315128D01*
Y315666D01*
D02*
G37*
G36*
X314300D02*
X313005D01*
Y315128D01*
X313055Y314876D01*
X313198Y314662D01*
X313411Y314519D01*
X313663Y314469D01*
X314300D01*
Y315666D01*
D02*
G37*
G36*
X311995D02*
X310700D01*
Y314469D01*
X311337D01*
X311589Y314519D01*
X311802Y314662D01*
X311945Y314876D01*
X311995Y315128D01*
Y315666D01*
D02*
G37*
G36*
X310300D02*
X309005D01*
Y315128D01*
X309055Y314876D01*
X309198Y314662D01*
X309411Y314519D01*
X309663Y314469D01*
X310300D01*
Y315666D01*
D02*
G37*
G36*
X306495Y315572D02*
X305000D01*
X303505D01*
Y315034D01*
X303555Y314781D01*
X303698Y314568D01*
X303911Y314425D01*
X304163Y314375D01*
X304927D01*
X305000Y314360D01*
X305073Y314375D01*
X305837D01*
X306089Y314425D01*
X306302Y314568D01*
X306445Y314781D01*
X306495Y315034D01*
Y315572D01*
D02*
G37*
G36*
X341510Y316495D02*
X340972D01*
Y315000D01*
Y313505D01*
X341510D01*
X341762Y313555D01*
X341812Y313589D01*
X343500D01*
X344040Y313696D01*
X344498Y314002D01*
X344804Y314460D01*
X344911Y315000D01*
X344804Y315540D01*
X344498Y315998D01*
X344040Y316304D01*
X343500Y316411D01*
X341812D01*
X341762Y316445D01*
X341510Y316495D01*
D02*
G37*
G36*
X340572D02*
X340034D01*
X339781Y316445D01*
X339568Y316302D01*
X339425Y316089D01*
X339375Y315837D01*
Y315073D01*
X339360Y315000D01*
X339375Y314927D01*
Y314163D01*
X339425Y313911D01*
X339568Y313698D01*
X339781Y313555D01*
X340034Y313505D01*
X340572D01*
Y315000D01*
Y316495D01*
D02*
G37*
G36*
X447441Y318353D02*
X446559D01*
X445706Y318124D01*
X444941Y317683D01*
X444317Y317059D01*
X443876Y316294D01*
X443647Y315441D01*
Y314559D01*
X443876Y313706D01*
X444317Y312941D01*
X444941Y312317D01*
X445706Y311876D01*
X446559Y311647D01*
X447441D01*
X448294Y311876D01*
X449059Y312317D01*
X449683Y312941D01*
X450124Y313706D01*
X450353Y314559D01*
Y315441D01*
X450124Y316294D01*
X449683Y317059D01*
X449059Y317683D01*
X448294Y318124D01*
X447441Y318353D01*
D02*
G37*
G36*
X340572Y312495D02*
X340034D01*
X339781Y312445D01*
X339568Y312302D01*
X339425Y312089D01*
X339375Y311837D01*
Y311073D01*
X339360Y311000D01*
X339375Y310927D01*
Y310163D01*
X339425Y309911D01*
X339568Y309698D01*
X339781Y309555D01*
X340034Y309505D01*
X340572D01*
Y311000D01*
Y312495D01*
D02*
G37*
G36*
X447441Y308353D02*
X446559D01*
X445706Y308124D01*
X444941Y307683D01*
X444317Y307059D01*
X443876Y306294D01*
X443647Y305441D01*
Y304559D01*
X443876Y303706D01*
X444317Y302941D01*
X444941Y302317D01*
X445706Y301876D01*
X446559Y301647D01*
X447441D01*
X448294Y301876D01*
X449059Y302317D01*
X449683Y302941D01*
X450124Y303706D01*
X450353Y304559D01*
Y305441D01*
X450124Y306294D01*
X449683Y307059D01*
X449059Y307683D01*
X448294Y308124D01*
X447441Y308353D01*
D02*
G37*
G36*
X302467Y300590D02*
X301928D01*
Y299294D01*
X303125D01*
Y299931D01*
X303075Y300183D01*
X302932Y300397D01*
X302719Y300540D01*
X302467Y300590D01*
D02*
G37*
G36*
X550075Y299086D02*
X546925D01*
X546916Y299083D01*
X546907Y299086D01*
X546813Y299082D01*
X546812Y299082D01*
X546812Y299082D01*
X546721Y299078D01*
X546695Y299066D01*
X546666Y299072D01*
X546577Y299057D01*
X546484Y299041D01*
X546473Y299034D01*
X546459Y299036D01*
X546373Y299017D01*
X546359Y299007D01*
X546342Y299009D01*
X546252Y298981D01*
X546242Y298973D01*
X546230Y298974D01*
X546143Y298942D01*
X546137Y298936D01*
X546127Y298936D01*
X546041Y298901D01*
X546032Y298892D01*
X546019Y298891D01*
X545936Y298851D01*
X545930Y298845D01*
X545921Y298844D01*
X545838Y298801D01*
X545825Y298784D01*
X545803Y298780D01*
X545725Y298729D01*
X545725D01*
X545646Y298678D01*
X545635Y298662D01*
X545616Y298657D01*
X545545Y298602D01*
X545538Y298588D01*
X545523Y298583D01*
X545452Y298520D01*
X545450Y298515D01*
X545443Y298512D01*
X545376Y298449D01*
X545371Y298436D01*
X545358Y298431D01*
X545295Y298364D01*
X545293Y298358D01*
X545287Y298355D01*
X545224Y298284D01*
X545219Y298269D01*
X545205Y298262D01*
X545150Y298191D01*
X545145Y298172D01*
X545129Y298161D01*
X545078Y298082D01*
Y298082D01*
X545078Y298082D01*
X545027Y298004D01*
X545023Y297982D01*
X545006Y297969D01*
X544963Y297886D01*
X544962Y297877D01*
X544956Y297871D01*
X544916Y297789D01*
X544915Y297776D01*
X544906Y297766D01*
X544871Y297680D01*
X544871Y297671D01*
X544865Y297664D01*
X544833Y297577D01*
X544834Y297565D01*
X544826Y297555D01*
X544798Y297465D01*
X544800Y297448D01*
X544790Y297435D01*
X544771Y297348D01*
X544773Y297335D01*
X544766Y297323D01*
X544750Y297230D01*
X544735Y297141D01*
X544741Y297112D01*
X544729Y297086D01*
X544725Y296995D01*
X544725Y296995D01*
X544725Y296994D01*
X544721Y296900D01*
X544728Y296882D01*
X544721Y296864D01*
X544725Y296769D01*
X544725Y296769D01*
X544725Y296769D01*
X544729Y296678D01*
X544741Y296651D01*
X544735Y296623D01*
X544751Y296532D01*
X544766Y296441D01*
X544773Y296429D01*
X544771Y296416D01*
X544790Y296329D01*
X544800Y296316D01*
X544798Y296299D01*
X544826Y296209D01*
X544834Y296199D01*
X544833Y296187D01*
X544865Y296100D01*
X544871Y296093D01*
X544871Y296084D01*
X544906Y295997D01*
X544915Y295988D01*
X544916Y295975D01*
X544956Y295893D01*
X544962Y295887D01*
X544963Y295878D01*
X545006Y295795D01*
X545023Y295781D01*
X545027Y295760D01*
X545078Y295681D01*
X545078Y295681D01*
X545129Y295603D01*
X545145Y295592D01*
X545150Y295573D01*
X545205Y295502D01*
X545219Y295494D01*
X545224Y295480D01*
X545287Y295409D01*
X545293Y295406D01*
X545295Y295400D01*
X545358Y295333D01*
X545371Y295327D01*
X545376Y295315D01*
X545443Y295252D01*
X545450Y295249D01*
X545452Y295243D01*
X545523Y295180D01*
X545538Y295175D01*
X545545Y295162D01*
X545616Y295107D01*
X545635Y295102D01*
X545646Y295086D01*
X545725Y295035D01*
X545725Y295035D01*
X545803Y294983D01*
X545825Y294980D01*
X545838Y294963D01*
X545921Y294920D01*
X545930Y294919D01*
X545936Y294912D01*
X546019Y294873D01*
X546032Y294872D01*
X546041Y294863D01*
X546127Y294828D01*
X546137Y294828D01*
X546143Y294822D01*
X546230Y294790D01*
X546242Y294791D01*
X546252Y294783D01*
X546342Y294755D01*
X546359Y294757D01*
X546373Y294747D01*
X546459Y294727D01*
X546473Y294730D01*
X546484Y294723D01*
X546577Y294707D01*
X546666Y294692D01*
X546695Y294698D01*
X546721Y294686D01*
X546812Y294682D01*
X546812Y294682D01*
X546813Y294682D01*
X546907Y294678D01*
X546916Y294681D01*
X546925Y294677D01*
X550075D01*
X550084Y294681D01*
X550093Y294678D01*
X550187Y294682D01*
X550188Y294682D01*
X550188Y294682D01*
X550279Y294686D01*
X550305Y294698D01*
X550334Y294692D01*
X550423Y294707D01*
X550516Y294723D01*
X550527Y294730D01*
X550541Y294727D01*
X550627Y294747D01*
X550641Y294757D01*
X550658Y294755D01*
X550748Y294783D01*
X550758Y294791D01*
X550770Y294790D01*
X550857Y294822D01*
X550863Y294828D01*
X550873Y294828D01*
X550959Y294863D01*
X550968Y294872D01*
X550981Y294873D01*
X551064Y294912D01*
X551070Y294919D01*
X551079Y294920D01*
X551161Y294963D01*
X551175Y294980D01*
X551197Y294983D01*
X551275Y295035D01*
X551275D01*
X551354Y295086D01*
X551365Y295102D01*
X551384Y295107D01*
X551455Y295162D01*
X551462Y295175D01*
X551477Y295180D01*
X551547Y295243D01*
X551550Y295249D01*
X551557Y295252D01*
X551623Y295315D01*
X551629Y295327D01*
X551642Y295333D01*
X551705Y295400D01*
X551707Y295406D01*
X551713Y295409D01*
X551776Y295480D01*
X551781Y295494D01*
X551794Y295502D01*
X551850Y295573D01*
X551855Y295592D01*
X551871Y295603D01*
X551922Y295681D01*
Y295681D01*
X551922Y295681D01*
X551973Y295760D01*
X551977Y295781D01*
X551994Y295795D01*
X552037Y295878D01*
X552038Y295887D01*
X552044Y295893D01*
X552084Y295975D01*
X552084Y295988D01*
X552094Y295997D01*
X552129Y296084D01*
X552129Y296093D01*
X552135Y296100D01*
X552167Y296187D01*
X552166Y296199D01*
X552174Y296209D01*
X552202Y296299D01*
X552200Y296316D01*
X552210Y296329D01*
X552229Y296416D01*
X552227Y296429D01*
X552234Y296441D01*
X552250Y296534D01*
X552265Y296623D01*
X552259Y296651D01*
X552271Y296678D01*
X552275Y296769D01*
X552275Y296769D01*
X552275Y296769D01*
X552279Y296864D01*
X552272Y296882D01*
X552279Y296900D01*
X552275Y296994D01*
X552275Y296995D01*
X552275Y296995D01*
X552271Y297086D01*
X552259Y297112D01*
X552265Y297141D01*
X552249Y297231D01*
X552234Y297323D01*
X552227Y297335D01*
X552229Y297348D01*
X552210Y297435D01*
X552200Y297448D01*
X552202Y297465D01*
X552174Y297555D01*
X552166Y297565D01*
X552167Y297577D01*
X552135Y297664D01*
X552129Y297671D01*
X552129Y297680D01*
X552094Y297766D01*
X552084Y297776D01*
X552084Y297789D01*
X552044Y297871D01*
X552038Y297877D01*
X552037Y297886D01*
X551994Y297969D01*
X551977Y297982D01*
X551973Y298004D01*
X551922Y298082D01*
X551922Y298082D01*
X551871Y298161D01*
X551855Y298172D01*
X551850Y298191D01*
X551794Y298262D01*
X551781Y298269D01*
X551776Y298284D01*
X551713Y298355D01*
X551707Y298358D01*
X551705Y298364D01*
X551642Y298431D01*
X551629Y298436D01*
X551623Y298449D01*
X551557Y298512D01*
X551550Y298515D01*
X551547Y298520D01*
X551477Y298583D01*
X551462Y298588D01*
X551455Y298602D01*
X551384Y298657D01*
X551365Y298662D01*
X551354Y298678D01*
X551275Y298729D01*
X551275Y298729D01*
X551197Y298780D01*
X551175Y298784D01*
X551161Y298801D01*
X551079Y298844D01*
X551070Y298845D01*
X551064Y298851D01*
X550981Y298891D01*
X550968Y298892D01*
X550959Y298901D01*
X550873Y298936D01*
X550863Y298936D01*
X550857Y298942D01*
X550770Y298974D01*
X550758Y298973D01*
X550748Y298981D01*
X550658Y299009D01*
X550641Y299007D01*
X550627Y299017D01*
X550541Y299036D01*
X550527Y299034D01*
X550516Y299041D01*
X550423Y299057D01*
X550334Y299072D01*
X550305Y299066D01*
X550279Y299078D01*
X550188Y299082D01*
X550188Y299082D01*
X550187Y299082D01*
X550093Y299086D01*
X550084Y299083D01*
X550075Y299086D01*
D02*
G37*
G36*
X534248D02*
X529917D01*
X529908Y299083D01*
X529899Y299086D01*
X529805Y299082D01*
X529804Y299082D01*
X529804Y299082D01*
X529713Y299078D01*
X529687Y299066D01*
X529658Y299072D01*
X529569Y299057D01*
X529476Y299041D01*
X529465Y299034D01*
X529451Y299036D01*
X529365Y299017D01*
X529351Y299007D01*
X529335Y299009D01*
X529244Y298981D01*
X529235Y298973D01*
X529222Y298974D01*
X529136Y298942D01*
X529129Y298936D01*
X529119Y298936D01*
X529033Y298901D01*
X529024Y298892D01*
X529011Y298891D01*
X528928Y298851D01*
X528922Y298845D01*
X528913Y298844D01*
X528831Y298801D01*
X528817Y298784D01*
X528795Y298780D01*
X528717Y298729D01*
X528717D01*
X528638Y298678D01*
X528627Y298662D01*
X528608Y298657D01*
X528537Y298602D01*
X528530Y298588D01*
X528515Y298583D01*
X528445Y298520D01*
X528442Y298515D01*
X528436Y298512D01*
X528369Y298449D01*
X528363Y298436D01*
X528350Y298431D01*
X528287Y298364D01*
X528285Y298358D01*
X528279Y298355D01*
X528216Y298284D01*
X528211Y298269D01*
X528198Y298262D01*
X528142Y298191D01*
X528137Y298172D01*
X528121Y298161D01*
X528070Y298082D01*
X528070Y298082D01*
X528019Y298004D01*
X528015Y297983D01*
X527998Y297969D01*
X527955Y297886D01*
X527954Y297877D01*
X527948Y297871D01*
X527908Y297789D01*
X527908Y297776D01*
X527899Y297766D01*
X527863Y297680D01*
X527863Y297671D01*
X527857Y297664D01*
X527825Y297577D01*
X527826Y297565D01*
X527818Y297555D01*
X527790Y297465D01*
X527792Y297448D01*
X527782Y297434D01*
X527763Y297348D01*
X527765Y297335D01*
X527758Y297323D01*
X527742Y297230D01*
X527727Y297141D01*
X527733Y297112D01*
X527721Y297086D01*
X527717Y296995D01*
X527717Y296995D01*
X527717Y296994D01*
X527713Y296900D01*
X527720Y296882D01*
X527713Y296864D01*
X527717Y296769D01*
X527717Y296769D01*
X527717Y296769D01*
X527721Y296678D01*
X527733Y296651D01*
X527727Y296623D01*
X527742Y296533D01*
X527758Y296441D01*
X527765Y296429D01*
X527763Y296416D01*
X527782Y296329D01*
X527792Y296316D01*
X527790Y296299D01*
X527818Y296209D01*
X527826Y296199D01*
X527825Y296187D01*
X527857Y296100D01*
X527863Y296093D01*
X527863Y296084D01*
X527899Y295998D01*
X527908Y295988D01*
X527908Y295975D01*
X527948Y295893D01*
X527954Y295887D01*
X527955Y295878D01*
X527998Y295795D01*
X528015Y295781D01*
X528019Y295760D01*
X528070Y295681D01*
Y295681D01*
X528121Y295603D01*
X528137Y295592D01*
X528142Y295573D01*
X528198Y295502D01*
X528211Y295494D01*
X528216Y295480D01*
X528279Y295409D01*
X528285Y295406D01*
X528287Y295400D01*
X528350Y295333D01*
X528363Y295327D01*
X528369Y295315D01*
X528436Y295252D01*
X528442Y295249D01*
X528445Y295243D01*
X528515Y295180D01*
X528530Y295175D01*
X528537Y295162D01*
X528608Y295107D01*
X528627Y295102D01*
X528638Y295086D01*
X528717Y295035D01*
X528717Y295035D01*
X528796Y294983D01*
X528817Y294980D01*
X528831Y294963D01*
X528913Y294920D01*
X528922Y294919D01*
X528928Y294912D01*
X529011Y294873D01*
X529024Y294872D01*
X529033Y294863D01*
X529119Y294828D01*
X529129Y294828D01*
X529136Y294822D01*
X529222Y294790D01*
X529235Y294791D01*
X529244Y294783D01*
X529335Y294755D01*
X529351Y294757D01*
X529365Y294747D01*
X529451Y294727D01*
X529465Y294730D01*
X529476Y294723D01*
X529569Y294707D01*
X529658Y294692D01*
X529687Y294698D01*
X529713Y294686D01*
X529804Y294682D01*
X529804Y294682D01*
X529805Y294682D01*
X529899Y294678D01*
X529908Y294681D01*
X529917Y294677D01*
X534248D01*
X534257Y294681D01*
X534266Y294678D01*
X534361Y294682D01*
X534361Y294682D01*
X534361Y294682D01*
X534452Y294686D01*
X534479Y294698D01*
X534507Y294692D01*
X534596Y294707D01*
X534689Y294723D01*
X534701Y294730D01*
X534714Y294727D01*
X534801Y294747D01*
X534814Y294757D01*
X534831Y294755D01*
X534921Y294783D01*
X534931Y294791D01*
X534943Y294790D01*
X535030Y294822D01*
X535037Y294828D01*
X535046Y294828D01*
X535132Y294863D01*
X535142Y294872D01*
X535155Y294873D01*
X535237Y294912D01*
X535243Y294919D01*
X535252Y294920D01*
X535335Y294963D01*
X535349Y294980D01*
X535370Y294983D01*
X535449Y295035D01*
X535449D01*
X535527Y295086D01*
X535538Y295102D01*
X535557Y295107D01*
X535628Y295162D01*
X535636Y295175D01*
X535650Y295180D01*
X535721Y295243D01*
X535724Y295249D01*
X535730Y295252D01*
X535797Y295315D01*
X535803Y295327D01*
X535815Y295333D01*
X535878Y295400D01*
X535881Y295406D01*
X535887Y295409D01*
X535950Y295480D01*
X535955Y295494D01*
X535968Y295502D01*
X536023Y295573D01*
X536028Y295592D01*
X536044Y295603D01*
X536095Y295681D01*
X536095Y295681D01*
X536146Y295760D01*
X536150Y295781D01*
X536167Y295795D01*
X536210Y295878D01*
X536211Y295887D01*
X536218Y295893D01*
X536257Y295975D01*
X536258Y295988D01*
X536267Y295998D01*
X536302Y296084D01*
X536302Y296093D01*
X536308Y296100D01*
X536340Y296187D01*
X536339Y296199D01*
X536347Y296209D01*
X536375Y296299D01*
X536373Y296316D01*
X536383Y296329D01*
X536403Y296416D01*
X536400Y296429D01*
X536407Y296441D01*
X536423Y296533D01*
X536438Y296623D01*
X536432Y296651D01*
X536444Y296678D01*
X536448Y296769D01*
X536448Y296769D01*
X536448Y296769D01*
X536452Y296864D01*
X536446Y296882D01*
X536452Y296900D01*
X536448Y296994D01*
X536448Y296995D01*
X536448Y296995D01*
X536444Y297086D01*
X536432Y297112D01*
X536438Y297141D01*
X536423Y297230D01*
X536407Y297323D01*
X536400Y297335D01*
X536403Y297348D01*
X536383Y297434D01*
X536373Y297448D01*
X536375Y297465D01*
X536347Y297555D01*
X536339Y297565D01*
X536340Y297577D01*
X536308Y297664D01*
X536302Y297671D01*
X536302Y297680D01*
X536267Y297766D01*
X536258Y297776D01*
X536257Y297789D01*
X536218Y297871D01*
X536211Y297877D01*
X536210Y297886D01*
X536167Y297969D01*
X536150Y297983D01*
X536146Y298004D01*
X536095Y298082D01*
Y298082D01*
X536044Y298161D01*
X536028Y298172D01*
X536023Y298191D01*
X535968Y298262D01*
X535955Y298269D01*
X535950Y298284D01*
X535887Y298355D01*
X535881Y298358D01*
X535878Y298364D01*
X535815Y298431D01*
X535803Y298436D01*
X535797Y298449D01*
X535730Y298512D01*
X535724Y298515D01*
X535721Y298520D01*
X535650Y298583D01*
X535636Y298588D01*
X535628Y298602D01*
X535557Y298657D01*
X535538Y298662D01*
X535527Y298678D01*
X535449Y298729D01*
X535449Y298729D01*
X535370Y298780D01*
X535349Y298784D01*
X535335Y298801D01*
X535252Y298844D01*
X535243Y298845D01*
X535237Y298851D01*
X535155Y298891D01*
X535142Y298892D01*
X535132Y298901D01*
X535046Y298936D01*
X535037Y298936D01*
X535030Y298942D01*
X534943Y298974D01*
X534931Y298973D01*
X534921Y298981D01*
X534831Y299009D01*
X534814Y299007D01*
X534801Y299017D01*
X534714Y299036D01*
X534701Y299034D01*
X534689Y299041D01*
X534596Y299057D01*
X534507Y299072D01*
X534479Y299066D01*
X534452Y299078D01*
X534361Y299082D01*
X534361Y299082D01*
X534361Y299082D01*
X534266Y299086D01*
X534257Y299083D01*
X534248Y299086D01*
D02*
G37*
G36*
X303125Y298895D02*
X301928D01*
Y297599D01*
X302467D01*
X302719Y297649D01*
X302932Y297792D01*
X303075Y298006D01*
X303125Y298258D01*
Y298895D01*
D02*
G37*
G36*
X301528Y300590D02*
X300990D01*
X300738Y300540D01*
X300524Y300397D01*
X300382Y300183D01*
X300331Y299931D01*
Y299889D01*
X299515D01*
X299205Y299827D01*
X298943Y299652D01*
X298943Y299652D01*
X298928Y299637D01*
X298752Y299374D01*
X298691Y299064D01*
X298752Y298755D01*
X298928Y298492D01*
X299190Y298317D01*
X299500Y298255D01*
X299575Y298270D01*
X300331D01*
Y298258D01*
X300382Y298006D01*
X300524Y297792D01*
X300738Y297649D01*
X300990Y297599D01*
X301528D01*
Y299095D01*
Y300590D01*
D02*
G37*
G36*
Y296590D02*
X300990D01*
X300738Y296540D01*
X300524Y296397D01*
X300382Y296183D01*
X300331Y295931D01*
Y295856D01*
X299547D01*
X299547Y295856D01*
X299238Y295795D01*
X298975Y295620D01*
X298975Y295619D01*
X298928Y295572D01*
X298752Y295310D01*
X298691Y295000D01*
X298752Y294690D01*
X298928Y294428D01*
X299190Y294252D01*
X299500Y294191D01*
X299738Y294238D01*
X300335D01*
X300382Y294006D01*
X300524Y293792D01*
X300738Y293649D01*
X300990Y293599D01*
X301528D01*
Y295094D01*
Y296590D01*
D02*
G37*
G36*
X302467D02*
X301928D01*
Y295294D01*
X303125D01*
Y295931D01*
X303075Y296183D01*
X302932Y296397D01*
X302719Y296540D01*
X302467Y296590D01*
D02*
G37*
G36*
X303125Y294895D02*
X301928D01*
Y293599D01*
X302467D01*
X302719Y293649D01*
X302932Y293792D01*
X303075Y294006D01*
X303125Y294258D01*
Y294895D01*
D02*
G37*
G36*
X339971Y300518D02*
X331700D01*
Y292247D01*
X339971D01*
Y300518D01*
D02*
G37*
G36*
X331300D02*
X323029D01*
Y292247D01*
X331300D01*
Y300518D01*
D02*
G37*
G36*
X300528Y292495D02*
X299990D01*
X299738Y292445D01*
X299524Y292302D01*
X299382Y292089D01*
X299335Y291853D01*
X298309D01*
X298088Y291897D01*
X297778Y291836D01*
X297516Y291660D01*
X297340Y291398D01*
X297279Y291088D01*
X297340Y290778D01*
X297516Y290516D01*
X297560Y290472D01*
X297822Y290296D01*
X298132Y290235D01*
X298132Y290235D01*
X299331D01*
Y290163D01*
X299382Y289911D01*
X299524Y289698D01*
X299738Y289555D01*
X299990Y289505D01*
X300528D01*
Y291000D01*
Y292495D01*
D02*
G37*
G36*
X447441Y298353D02*
X446559D01*
X445706Y298124D01*
X444941Y297683D01*
X444317Y297059D01*
X443876Y296294D01*
X443647Y295441D01*
Y294559D01*
X443876Y293706D01*
X444317Y292941D01*
X444941Y292317D01*
X445706Y291876D01*
X446559Y291647D01*
X447441D01*
X448294Y291876D01*
X449059Y292317D01*
X449683Y292941D01*
X450124Y293706D01*
X450353Y294559D01*
Y295441D01*
X450124Y296294D01*
X449683Y297059D01*
X449059Y297683D01*
X448294Y298124D01*
X447441Y298353D01*
D02*
G37*
G36*
X301466Y292495D02*
X300928D01*
Y291200D01*
X302125D01*
Y291837D01*
X302075Y292089D01*
X301932Y292302D01*
X301719Y292445D01*
X301466Y292495D01*
D02*
G37*
G36*
X302125Y290800D02*
X300928D01*
Y289505D01*
X301466D01*
X301719Y289555D01*
X301932Y289698D01*
X302075Y289911D01*
X302125Y290163D01*
Y290800D01*
D02*
G37*
G36*
X534443Y293398D02*
X533581D01*
X532785Y293068D01*
X532176Y292459D01*
X531847Y291663D01*
Y290802D01*
X532176Y290006D01*
X532785Y289397D01*
X533581Y289067D01*
X534443D01*
X535238Y289397D01*
X535848Y290006D01*
X536177Y290802D01*
Y291663D01*
X535848Y292459D01*
X535238Y293068D01*
X534443Y293398D01*
D02*
G37*
G36*
X301466Y288495D02*
X299990D01*
X299738Y288445D01*
X299524Y288302D01*
X299512Y288283D01*
X298981Y288174D01*
X298895Y288193D01*
X298836Y288252D01*
X298294Y288476D01*
X297706D01*
X297164Y288252D01*
X296748Y287836D01*
X296524Y287294D01*
Y286706D01*
X296748Y286164D01*
X297164Y285748D01*
X297706Y285524D01*
X298294D01*
X298836Y285748D01*
X298895Y285807D01*
X298981Y285826D01*
X299512Y285717D01*
X299524Y285698D01*
X299738Y285555D01*
X299990Y285505D01*
X301466D01*
X301719Y285555D01*
X301932Y285698D01*
X302075Y285911D01*
X302125Y286163D01*
Y287837D01*
X302075Y288089D01*
X301932Y288302D01*
X301719Y288445D01*
X301466Y288495D01*
D02*
G37*
G36*
X352634Y288278D02*
X350000D01*
X349927Y288263D01*
X349163D01*
X348911Y288213D01*
X348698Y288070D01*
X348555Y287856D01*
X348505Y287604D01*
Y287066D01*
X350000D01*
Y286666D01*
X348505D01*
Y286128D01*
X348555Y285876D01*
X348698Y285662D01*
X348911Y285519D01*
X349163Y285469D01*
X349927D01*
X350000Y285455D01*
X352049D01*
X352478Y285026D01*
X352936Y284720D01*
X353476Y284613D01*
X354016Y284720D01*
X354474Y285026D01*
X354780Y285484D01*
X354887Y286024D01*
X354780Y286564D01*
X354474Y287022D01*
X353632Y287864D01*
X353174Y288170D01*
X352634Y288278D01*
D02*
G37*
G36*
X339971Y291847D02*
X331700D01*
Y283576D01*
X339971D01*
Y291847D01*
D02*
G37*
G36*
X331300D02*
X323029D01*
Y283576D01*
X331300D01*
Y291847D01*
D02*
G37*
G36*
X503794Y282476D02*
X503206D01*
X502664Y282252D01*
X502280Y281868D01*
X502000Y281851D01*
X501720Y281868D01*
X501336Y282252D01*
X500794Y282476D01*
X500206D01*
X499664Y282252D01*
X499248Y281836D01*
X499024Y281294D01*
Y280706D01*
X499248Y280164D01*
X499412Y280000D01*
X499248Y279836D01*
X499024Y279294D01*
Y278706D01*
X499248Y278164D01*
X499664Y277748D01*
X500206Y277524D01*
X500794D01*
X501336Y277748D01*
X501720Y278132D01*
X502000Y278149D01*
X502280Y278132D01*
X502664Y277748D01*
X503206Y277524D01*
X503794D01*
X504336Y277748D01*
X504752Y278164D01*
X504976Y278706D01*
Y279294D01*
X504752Y279836D01*
X504588Y280000D01*
X504752Y280164D01*
X504976Y280706D01*
Y281294D01*
X504752Y281836D01*
X504336Y282252D01*
X503794Y282476D01*
D02*
G37*
G36*
X447441Y288353D02*
X446559D01*
X445706Y288124D01*
X444941Y287683D01*
X444317Y287059D01*
X443876Y286294D01*
X443647Y285441D01*
Y284559D01*
X443876Y283706D01*
X444317Y282941D01*
X444941Y282317D01*
X445706Y281876D01*
X446559Y281647D01*
X447441D01*
X448294Y281876D01*
X449059Y282317D01*
X449683Y282941D01*
X450124Y283706D01*
X450353Y284559D01*
Y285441D01*
X450124Y286294D01*
X449683Y287059D01*
X449059Y287683D01*
X448294Y288124D01*
X447441Y288353D01*
D02*
G37*
G36*
X524294Y282476D02*
X523706D01*
X523164Y282252D01*
X522748Y281836D01*
X522524Y281294D01*
Y280706D01*
X522748Y280164D01*
X523164Y279748D01*
X523191Y279737D01*
Y278050D01*
X522978Y277946D01*
X522691Y277897D01*
X522336Y278252D01*
X521794Y278476D01*
X521206D01*
X520664Y278252D01*
X520248Y277836D01*
X520024Y277294D01*
Y276706D01*
X520035Y276679D01*
X515418Y272063D01*
X449511D01*
X449304Y272563D01*
X449683Y272941D01*
X450124Y273706D01*
X450353Y274559D01*
Y275441D01*
X450124Y276294D01*
X449683Y277059D01*
X449059Y277683D01*
X448294Y278124D01*
X447441Y278353D01*
X446559D01*
X445706Y278124D01*
X444941Y277683D01*
X444317Y277059D01*
X443876Y276294D01*
X443647Y275441D01*
Y274559D01*
X443876Y273706D01*
X444317Y272941D01*
X444696Y272563D01*
X444489Y272063D01*
X343855D01*
X342897Y273021D01*
X343028Y273597D01*
X343296Y273708D01*
X343711Y274123D01*
X343936Y274665D01*
Y275253D01*
X343711Y275796D01*
X343296Y276211D01*
X342753Y276436D01*
X342695D01*
X342569Y276884D01*
X342569D01*
Y280242D01*
X320431D01*
Y276884D01*
X320455D01*
Y257236D01*
X320455Y257236D01*
X320516Y256926D01*
X320692Y256664D01*
X367928Y209428D01*
X367928Y209428D01*
X368190Y209252D01*
X368500Y209191D01*
X387165D01*
X390627Y205729D01*
X390376Y205294D01*
X390147Y204441D01*
Y203559D01*
X390376Y202706D01*
X390817Y201941D01*
X391441Y201317D01*
X392206Y200876D01*
X393059Y200647D01*
X393941D01*
X394794Y200876D01*
X395559Y201317D01*
X396183Y201941D01*
X396624Y202706D01*
X396853Y203559D01*
Y204441D01*
X396624Y205294D01*
X396183Y206059D01*
X395559Y206683D01*
X394794Y207124D01*
X393941Y207353D01*
X393059D01*
X392206Y207124D01*
X391771Y206873D01*
X388072Y210572D01*
X387810Y210748D01*
X387500Y210809D01*
X387500Y210809D01*
X368835D01*
X322073Y257571D01*
Y258575D01*
X322573Y258783D01*
X368928Y212428D01*
X368928Y212428D01*
X369190Y212252D01*
X369500Y212191D01*
X394165D01*
X400627Y205729D01*
X400376Y205294D01*
X400147Y204441D01*
Y203559D01*
X400376Y202706D01*
X400817Y201941D01*
X401441Y201317D01*
X402206Y200876D01*
X403059Y200647D01*
X403941D01*
X404794Y200876D01*
X405559Y201317D01*
X406183Y201941D01*
X406624Y202706D01*
X406853Y203559D01*
Y204441D01*
X406624Y205294D01*
X406183Y206059D01*
X405559Y206683D01*
X404794Y207124D01*
X403941Y207353D01*
X403059D01*
X402206Y207124D01*
X401771Y206873D01*
X395072Y213572D01*
X394810Y213748D01*
X394500Y213809D01*
X394500Y213809D01*
X369835D01*
X323648Y259997D01*
Y261001D01*
X324148Y261208D01*
X369928Y215428D01*
X370190Y215252D01*
X370500Y215191D01*
X370500Y215191D01*
X401165D01*
X410627Y205729D01*
X410376Y205294D01*
X410147Y204441D01*
Y203559D01*
X410376Y202706D01*
X410817Y201941D01*
X411441Y201317D01*
X412206Y200876D01*
X413059Y200647D01*
X413941D01*
X414794Y200876D01*
X415559Y201317D01*
X416183Y201941D01*
X416624Y202706D01*
X416853Y203559D01*
Y204441D01*
X416624Y205294D01*
X416183Y206059D01*
X415559Y206683D01*
X414794Y207124D01*
X413941Y207353D01*
X413059D01*
X412206Y207124D01*
X411771Y206873D01*
X402072Y216572D01*
X401810Y216748D01*
X401500Y216809D01*
X401500Y216809D01*
X370835D01*
X325223Y262422D01*
Y263926D01*
X325723Y264133D01*
X371428Y218428D01*
X371428Y218428D01*
X371690Y218252D01*
X372000Y218191D01*
X372000Y218191D01*
X408165D01*
X420627Y205729D01*
X420376Y205294D01*
X420147Y204441D01*
Y203559D01*
X420376Y202706D01*
X420817Y201941D01*
X421441Y201317D01*
X422206Y200876D01*
X423059Y200647D01*
X423941D01*
X424794Y200876D01*
X425559Y201317D01*
X426183Y201941D01*
X426624Y202706D01*
X426853Y203559D01*
Y204441D01*
X426624Y205294D01*
X426183Y206059D01*
X425559Y206683D01*
X424794Y207124D01*
X423941Y207353D01*
X423059D01*
X422206Y207124D01*
X421771Y206873D01*
X409072Y219572D01*
X408810Y219748D01*
X408500Y219809D01*
X408500Y219809D01*
X372335D01*
X326797Y265347D01*
Y266706D01*
X327297Y266913D01*
X372783Y221428D01*
X373046Y221252D01*
X373355Y221191D01*
X373355Y221191D01*
X415165D01*
X430627Y205729D01*
X430376Y205294D01*
X430147Y204441D01*
Y203559D01*
X430376Y202706D01*
X430817Y201941D01*
X431441Y201317D01*
X432206Y200876D01*
X433059Y200647D01*
X433941D01*
X434794Y200876D01*
X435559Y201317D01*
X436183Y201941D01*
X436624Y202706D01*
X436853Y203559D01*
Y204441D01*
X436624Y205294D01*
X436183Y206059D01*
X435559Y206683D01*
X434794Y207124D01*
X433941Y207353D01*
X433059D01*
X432206Y207124D01*
X431771Y206873D01*
X416072Y222572D01*
X415810Y222748D01*
X415500Y222809D01*
X415500Y222809D01*
X373691D01*
X330484Y266016D01*
X330485Y266046D01*
X330681Y266526D01*
X330887Y266567D01*
X331214Y266786D01*
X331433Y267113D01*
X331510Y267500D01*
Y268366D01*
X331589Y268382D01*
X331802Y268524D01*
X331945Y268738D01*
X331995Y268990D01*
Y269528D01*
X330500D01*
Y269928D01*
X331995D01*
Y270466D01*
X331956Y270662D01*
X331945Y270719D01*
X331932Y270827D01*
X332372Y271162D01*
X332706Y271024D01*
X333294D01*
X333561Y271134D01*
X334061Y270820D01*
Y265130D01*
X334061Y265130D01*
X334122Y264820D01*
X334298Y264558D01*
X373928Y224928D01*
X374190Y224752D01*
X374500Y224691D01*
X374500Y224691D01*
X421665D01*
X440627Y205729D01*
X440376Y205294D01*
X440147Y204441D01*
Y203559D01*
X440376Y202706D01*
X440817Y201941D01*
X441441Y201317D01*
X442206Y200876D01*
X443059Y200647D01*
X443941D01*
X444794Y200876D01*
X445559Y201317D01*
X446183Y201941D01*
X446624Y202706D01*
X446853Y203559D01*
Y204441D01*
X446624Y205294D01*
X446183Y206059D01*
X445559Y206683D01*
X444794Y207124D01*
X443941Y207353D01*
X443059D01*
X442206Y207124D01*
X441771Y206873D01*
X422572Y226072D01*
X422310Y226248D01*
X422000Y226309D01*
X422000Y226309D01*
X374835D01*
X335679Y265465D01*
Y273270D01*
X336141Y273461D01*
X337691Y271911D01*
Y266500D01*
X337691Y266500D01*
X337752Y266190D01*
X337928Y265928D01*
X374928Y228928D01*
X374928Y228928D01*
X375190Y228752D01*
X375500Y228691D01*
X427665D01*
X450627Y205729D01*
X450376Y205294D01*
X450147Y204441D01*
Y203559D01*
X450376Y202706D01*
X450817Y201941D01*
X451441Y201317D01*
X452206Y200876D01*
X453059Y200647D01*
X453941D01*
X454794Y200876D01*
X455559Y201317D01*
X456183Y201941D01*
X456624Y202706D01*
X456853Y203559D01*
Y204441D01*
X456624Y205294D01*
X456183Y206059D01*
X455559Y206683D01*
X454794Y207124D01*
X453941Y207353D01*
X453059D01*
X452206Y207124D01*
X451771Y206873D01*
X428572Y230072D01*
X428310Y230248D01*
X428000Y230309D01*
X428000Y230309D01*
X375835D01*
X339309Y266835D01*
Y267950D01*
X339809Y268188D01*
X340206Y268024D01*
X340794D01*
X340821Y268035D01*
X349058Y259798D01*
X349058Y259798D01*
X349320Y259622D01*
X349630Y259561D01*
X349630Y259561D01*
X357820D01*
X358134Y259061D01*
X358024Y258794D01*
Y258206D01*
X358248Y257664D01*
X358664Y257248D01*
X359206Y257024D01*
X359794D01*
X360336Y257248D01*
X360752Y257664D01*
X360976Y258206D01*
Y258794D01*
X360866Y259061D01*
X361180Y259561D01*
X446593D01*
X447301Y258853D01*
X447094Y258353D01*
X446559D01*
X445706Y258124D01*
X444941Y257683D01*
X444317Y257059D01*
X443876Y256294D01*
X443647Y255441D01*
Y254559D01*
X443876Y253706D01*
X444317Y252941D01*
X444941Y252317D01*
X445706Y251876D01*
X446559Y251647D01*
X447441D01*
X448294Y251876D01*
X449059Y252317D01*
X449683Y252941D01*
X450124Y253706D01*
X450353Y254559D01*
Y255094D01*
X450853Y255301D01*
X459226Y246928D01*
X459226Y246928D01*
X459489Y246752D01*
X459798Y246691D01*
X536237D01*
X536248Y246664D01*
X536664Y246248D01*
X537206Y246024D01*
X537794D01*
X538336Y246248D01*
X538752Y246664D01*
X538976Y247206D01*
Y247794D01*
X538752Y248336D01*
X538336Y248752D01*
X537794Y248976D01*
X537206D01*
X536664Y248752D01*
X536248Y248336D01*
X536237Y248309D01*
X460134D01*
X447500Y260942D01*
X447238Y261118D01*
X447089Y261147D01*
X447139Y261647D01*
X447441D01*
X448294Y261876D01*
X449059Y262317D01*
X449683Y262941D01*
X450124Y263706D01*
X450353Y264559D01*
Y265441D01*
X450124Y266294D01*
X449683Y267059D01*
X449059Y267683D01*
X448294Y268124D01*
X448046Y268191D01*
X448112Y268691D01*
X517000D01*
X517000Y268691D01*
X517310Y268752D01*
X517572Y268928D01*
X524572Y275928D01*
X524572Y275928D01*
X524748Y276190D01*
X524809Y276500D01*
Y279737D01*
X524836Y279748D01*
X525252Y280164D01*
X525476Y280706D01*
Y281294D01*
X525252Y281836D01*
X524836Y282252D01*
X524294Y282476D01*
D02*
G37*
G36*
X352323Y277234D02*
X350000D01*
X349927Y277220D01*
X349163D01*
X348911Y277170D01*
X348698Y277027D01*
X348555Y276813D01*
X348505Y276561D01*
Y276023D01*
X350000D01*
Y275623D01*
X348505D01*
Y275085D01*
X348555Y274833D01*
X348698Y274619D01*
X348911Y274476D01*
X349163Y274426D01*
X349927D01*
X350000Y274412D01*
X352323D01*
X352863Y274519D01*
X353321Y274825D01*
X353627Y275283D01*
X353734Y275823D01*
X353627Y276363D01*
X353321Y276821D01*
X352863Y277127D01*
X352323Y277234D01*
D02*
G37*
G36*
X294334Y272181D02*
X293666D01*
X293048Y271925D01*
X292575Y271452D01*
X292319Y270834D01*
Y270166D01*
X292575Y269548D01*
X293048Y269075D01*
X293666Y268819D01*
X294334D01*
X294952Y269075D01*
X295425Y269548D01*
X295681Y270166D01*
Y270834D01*
X295425Y271452D01*
X294952Y271925D01*
X294334Y272181D01*
D02*
G37*
G36*
X534443Y270642D02*
X533581D01*
X532785Y270312D01*
X532176Y269703D01*
X531847Y268907D01*
Y268046D01*
X532176Y267250D01*
X532785Y266641D01*
X533581Y266311D01*
X534443D01*
X535238Y266641D01*
X535848Y267250D01*
X536177Y268046D01*
Y268907D01*
X535848Y269703D01*
X535238Y270312D01*
X534443Y270642D01*
D02*
G37*
G36*
X550075Y265031D02*
X546925D01*
X546916Y265028D01*
X546907Y265031D01*
X546813Y265027D01*
X546812Y265027D01*
X546812Y265027D01*
X546721Y265023D01*
X546695Y265011D01*
X546666Y265017D01*
X546577Y265002D01*
X546484Y264986D01*
X546473Y264979D01*
X546459Y264981D01*
X546373Y264962D01*
X546359Y264952D01*
X546342Y264954D01*
X546252Y264926D01*
X546242Y264918D01*
X546230Y264919D01*
X546143Y264887D01*
X546137Y264881D01*
X546127Y264881D01*
X546041Y264846D01*
X546032Y264837D01*
X546019Y264836D01*
X545936Y264796D01*
X545930Y264790D01*
X545921Y264789D01*
X545838Y264746D01*
X545825Y264729D01*
X545803Y264725D01*
X545725Y264674D01*
X545725D01*
X545646Y264623D01*
X545635Y264607D01*
X545616Y264602D01*
X545545Y264546D01*
X545538Y264533D01*
X545523Y264528D01*
X545452Y264465D01*
X545450Y264459D01*
X545443Y264457D01*
X545376Y264394D01*
X545371Y264381D01*
X545358Y264375D01*
X545295Y264309D01*
X545293Y264302D01*
X545287Y264300D01*
X545224Y264229D01*
X545219Y264214D01*
X545205Y264207D01*
X545150Y264136D01*
X545145Y264117D01*
X545129Y264106D01*
X545078Y264027D01*
Y264027D01*
X545078Y264027D01*
X545027Y263948D01*
X545023Y263927D01*
X545006Y263913D01*
X544963Y263831D01*
X544962Y263822D01*
X544956Y263816D01*
X544916Y263733D01*
X544915Y263720D01*
X544906Y263711D01*
X544871Y263625D01*
X544871Y263615D01*
X544865Y263609D01*
X544833Y263522D01*
X544834Y263510D01*
X544826Y263500D01*
X544798Y263409D01*
X544800Y263393D01*
X544790Y263379D01*
X544771Y263293D01*
X544773Y263280D01*
X544766Y263268D01*
X544750Y263175D01*
X544735Y263086D01*
X544741Y263057D01*
X544729Y263031D01*
X544725Y262940D01*
X544725Y262940D01*
X544725Y262939D01*
X544721Y262845D01*
X544728Y262827D01*
X544721Y262809D01*
X544725Y262714D01*
X544725Y262714D01*
X544725Y262714D01*
X544729Y262623D01*
X544741Y262596D01*
X544735Y262567D01*
X544751Y262477D01*
X544766Y262386D01*
X544773Y262374D01*
X544771Y262361D01*
X544790Y262274D01*
X544800Y262261D01*
X544798Y262244D01*
X544826Y262154D01*
X544834Y262144D01*
X544833Y262132D01*
X544865Y262045D01*
X544871Y262038D01*
X544871Y262029D01*
X544906Y261942D01*
X544915Y261933D01*
X544916Y261920D01*
X544956Y261838D01*
X544962Y261832D01*
X544963Y261823D01*
X545006Y261740D01*
X545023Y261726D01*
X545027Y261705D01*
X545078Y261626D01*
X545078Y261626D01*
X545129Y261547D01*
X545145Y261537D01*
X545150Y261518D01*
X545205Y261447D01*
X545219Y261439D01*
X545224Y261425D01*
X545287Y261354D01*
X545293Y261351D01*
X545295Y261345D01*
X545358Y261278D01*
X545371Y261272D01*
X545376Y261260D01*
X545443Y261196D01*
X545450Y261194D01*
X545452Y261188D01*
X545523Y261125D01*
X545538Y261120D01*
X545545Y261107D01*
X545616Y261052D01*
X545635Y261047D01*
X545646Y261031D01*
X545725Y260980D01*
X545725Y260980D01*
X545803Y260928D01*
X545825Y260924D01*
X545838Y260908D01*
X545921Y260864D01*
X545930Y260864D01*
X545936Y260857D01*
X546019Y260818D01*
X546032Y260817D01*
X546041Y260808D01*
X546127Y260772D01*
X546137Y260772D01*
X546143Y260766D01*
X546230Y260735D01*
X546242Y260735D01*
X546252Y260728D01*
X546342Y260700D01*
X546359Y260702D01*
X546373Y260692D01*
X546459Y260672D01*
X546473Y260675D01*
X546484Y260667D01*
X546577Y260652D01*
X546666Y260636D01*
X546695Y260643D01*
X546721Y260630D01*
X546812Y260627D01*
X546812Y260627D01*
X546813Y260627D01*
X546907Y260623D01*
X546916Y260626D01*
X546925Y260622D01*
X550075D01*
X550084Y260626D01*
X550093Y260623D01*
X550187Y260627D01*
X550188Y260627D01*
X550188Y260627D01*
X550279Y260630D01*
X550305Y260643D01*
X550334Y260636D01*
X550423Y260652D01*
X550516Y260667D01*
X550527Y260675D01*
X550541Y260672D01*
X550627Y260692D01*
X550641Y260702D01*
X550658Y260700D01*
X550748Y260728D01*
X550758Y260735D01*
X550770Y260735D01*
X550857Y260766D01*
X550863Y260772D01*
X550873Y260772D01*
X550959Y260808D01*
X550968Y260817D01*
X550981Y260818D01*
X551064Y260857D01*
X551070Y260864D01*
X551079Y260864D01*
X551161Y260908D01*
X551175Y260924D01*
X551197Y260928D01*
X551275Y260980D01*
X551275D01*
X551354Y261031D01*
X551365Y261047D01*
X551384Y261052D01*
X551455Y261107D01*
X551462Y261120D01*
X551477Y261125D01*
X551547Y261188D01*
X551550Y261194D01*
X551557Y261196D01*
X551623Y261260D01*
X551629Y261272D01*
X551642Y261278D01*
X551705Y261345D01*
X551707Y261351D01*
X551713Y261354D01*
X551776Y261425D01*
X551781Y261439D01*
X551794Y261447D01*
X551850Y261518D01*
X551855Y261537D01*
X551871Y261547D01*
X551922Y261626D01*
Y261626D01*
X551922Y261626D01*
X551973Y261705D01*
X551977Y261726D01*
X551994Y261740D01*
X552037Y261823D01*
X552038Y261832D01*
X552044Y261838D01*
X552084Y261920D01*
X552084Y261933D01*
X552094Y261942D01*
X552129Y262029D01*
X552129Y262038D01*
X552135Y262045D01*
X552167Y262132D01*
X552166Y262144D01*
X552174Y262154D01*
X552202Y262244D01*
X552200Y262261D01*
X552210Y262274D01*
X552229Y262361D01*
X552227Y262374D01*
X552234Y262386D01*
X552250Y262479D01*
X552265Y262567D01*
X552259Y262596D01*
X552271Y262623D01*
X552275Y262714D01*
X552275Y262714D01*
X552275Y262714D01*
X552279Y262809D01*
X552272Y262827D01*
X552279Y262845D01*
X552275Y262939D01*
X552275Y262940D01*
X552275Y262940D01*
X552271Y263031D01*
X552259Y263057D01*
X552265Y263086D01*
X552249Y263176D01*
X552234Y263268D01*
X552227Y263280D01*
X552229Y263293D01*
X552210Y263379D01*
X552200Y263393D01*
X552202Y263409D01*
X552174Y263500D01*
X552166Y263510D01*
X552167Y263522D01*
X552135Y263609D01*
X552129Y263615D01*
X552129Y263625D01*
X552094Y263711D01*
X552084Y263720D01*
X552084Y263733D01*
X552044Y263816D01*
X552038Y263822D01*
X552037Y263831D01*
X551994Y263913D01*
X551977Y263927D01*
X551973Y263949D01*
X551922Y264027D01*
X551922Y264027D01*
X551871Y264106D01*
X551855Y264117D01*
X551850Y264136D01*
X551794Y264207D01*
X551781Y264214D01*
X551776Y264229D01*
X551713Y264300D01*
X551707Y264302D01*
X551705Y264309D01*
X551642Y264375D01*
X551629Y264381D01*
X551623Y264394D01*
X551557Y264457D01*
X551550Y264459D01*
X551547Y264465D01*
X551477Y264528D01*
X551462Y264533D01*
X551455Y264546D01*
X551384Y264602D01*
X551365Y264607D01*
X551354Y264623D01*
X551275Y264674D01*
X551275Y264674D01*
X551197Y264725D01*
X551175Y264729D01*
X551161Y264746D01*
X551079Y264789D01*
X551070Y264790D01*
X551064Y264796D01*
X550981Y264836D01*
X550968Y264837D01*
X550959Y264846D01*
X550873Y264881D01*
X550863Y264881D01*
X550857Y264887D01*
X550770Y264919D01*
X550758Y264918D01*
X550748Y264926D01*
X550658Y264954D01*
X550641Y264952D01*
X550627Y264962D01*
X550541Y264981D01*
X550527Y264979D01*
X550516Y264986D01*
X550423Y265002D01*
X550334Y265017D01*
X550305Y265011D01*
X550279Y265023D01*
X550188Y265027D01*
X550188Y265027D01*
X550187Y265027D01*
X550093Y265031D01*
X550084Y265028D01*
X550075Y265031D01*
D02*
G37*
G36*
X534248D02*
X529917D01*
X529908Y265028D01*
X529899Y265031D01*
X529805Y265027D01*
X529804Y265027D01*
X529804Y265027D01*
X529713Y265023D01*
X529687Y265011D01*
X529658Y265017D01*
X529569Y265002D01*
X529476Y264986D01*
X529465Y264979D01*
X529451Y264981D01*
X529365Y264962D01*
X529351Y264952D01*
X529335Y264954D01*
X529244Y264926D01*
X529235Y264918D01*
X529222Y264919D01*
X529136Y264887D01*
X529129Y264881D01*
X529119Y264881D01*
X529033Y264846D01*
X529024Y264837D01*
X529011Y264836D01*
X528928Y264796D01*
X528922Y264790D01*
X528913Y264789D01*
X528831Y264746D01*
X528817Y264729D01*
X528795Y264725D01*
X528717Y264674D01*
X528717D01*
X528638Y264623D01*
X528627Y264607D01*
X528608Y264602D01*
X528537Y264546D01*
X528530Y264533D01*
X528515Y264528D01*
X528445Y264465D01*
X528442Y264459D01*
X528436Y264457D01*
X528369Y264394D01*
X528363Y264381D01*
X528350Y264375D01*
X528287Y264309D01*
X528285Y264302D01*
X528279Y264299D01*
X528216Y264229D01*
X528211Y264214D01*
X528198Y264207D01*
X528142Y264136D01*
X528137Y264117D01*
X528121Y264106D01*
X528070Y264027D01*
X528070Y264027D01*
X528019Y263948D01*
X528015Y263927D01*
X527998Y263913D01*
X527955Y263831D01*
X527954Y263822D01*
X527948Y263816D01*
X527908Y263733D01*
X527908Y263720D01*
X527899Y263711D01*
X527863Y263625D01*
X527863Y263615D01*
X527857Y263609D01*
X527825Y263522D01*
X527826Y263510D01*
X527818Y263500D01*
X527790Y263409D01*
X527792Y263393D01*
X527782Y263379D01*
X527763Y263293D01*
X527765Y263280D01*
X527758Y263268D01*
X527742Y263175D01*
X527727Y263086D01*
X527733Y263057D01*
X527721Y263031D01*
X527717Y262940D01*
X527717Y262940D01*
X527717Y262939D01*
X527713Y262845D01*
X527720Y262827D01*
X527713Y262809D01*
X527717Y262714D01*
X527717Y262714D01*
X527717Y262714D01*
X527721Y262623D01*
X527733Y262596D01*
X527727Y262567D01*
X527742Y262478D01*
X527758Y262386D01*
X527765Y262374D01*
X527763Y262361D01*
X527782Y262274D01*
X527792Y262261D01*
X527790Y262244D01*
X527818Y262154D01*
X527826Y262144D01*
X527825Y262132D01*
X527857Y262045D01*
X527863Y262038D01*
X527863Y262029D01*
X527899Y261942D01*
X527908Y261933D01*
X527908Y261920D01*
X527948Y261838D01*
X527954Y261831D01*
X527955Y261823D01*
X527998Y261740D01*
X528015Y261726D01*
X528019Y261705D01*
X528070Y261626D01*
Y261626D01*
X528121Y261547D01*
X528137Y261537D01*
X528142Y261518D01*
X528198Y261447D01*
X528211Y261439D01*
X528216Y261425D01*
X528279Y261354D01*
X528285Y261351D01*
X528287Y261345D01*
X528350Y261278D01*
X528363Y261272D01*
X528369Y261260D01*
X528436Y261196D01*
X528442Y261194D01*
X528445Y261188D01*
X528515Y261125D01*
X528530Y261120D01*
X528537Y261107D01*
X528608Y261052D01*
X528627Y261047D01*
X528638Y261031D01*
X528717Y260980D01*
X528717Y260980D01*
X528796Y260928D01*
X528817Y260924D01*
X528831Y260908D01*
X528913Y260864D01*
X528922Y260864D01*
X528928Y260857D01*
X529011Y260818D01*
X529024Y260817D01*
X529033Y260808D01*
X529119Y260772D01*
X529129Y260772D01*
X529136Y260766D01*
X529222Y260735D01*
X529235Y260735D01*
X529244Y260728D01*
X529335Y260700D01*
X529351Y260702D01*
X529365Y260692D01*
X529451Y260672D01*
X529465Y260675D01*
X529476Y260667D01*
X529569Y260652D01*
X529658Y260636D01*
X529687Y260643D01*
X529713Y260630D01*
X529804Y260627D01*
X529804Y260627D01*
X529805Y260627D01*
X529899Y260623D01*
X529908Y260626D01*
X529917Y260622D01*
X534248D01*
X534257Y260626D01*
X534266Y260623D01*
X534361Y260627D01*
X534361Y260627D01*
X534361Y260627D01*
X534452Y260630D01*
X534479Y260643D01*
X534507Y260636D01*
X534596Y260652D01*
X534689Y260667D01*
X534701Y260675D01*
X534714Y260672D01*
X534801Y260692D01*
X534814Y260702D01*
X534831Y260700D01*
X534921Y260728D01*
X534931Y260735D01*
X534943Y260735D01*
X535030Y260766D01*
X535037Y260772D01*
X535046Y260772D01*
X535132Y260808D01*
X535142Y260817D01*
X535155Y260818D01*
X535237Y260857D01*
X535243Y260864D01*
X535252Y260864D01*
X535335Y260908D01*
X535349Y260924D01*
X535370Y260928D01*
X535449Y260980D01*
X535449D01*
X535527Y261031D01*
X535538Y261047D01*
X535557Y261052D01*
X535628Y261107D01*
X535636Y261120D01*
X535650Y261125D01*
X535721Y261188D01*
X535724Y261194D01*
X535730Y261196D01*
X535797Y261260D01*
X535803Y261272D01*
X535815Y261278D01*
X535878Y261345D01*
X535881Y261351D01*
X535887Y261354D01*
X535950Y261425D01*
X535955Y261439D01*
X535968Y261447D01*
X536023Y261518D01*
X536028Y261537D01*
X536044Y261547D01*
X536095Y261626D01*
X536095Y261626D01*
X536146Y261705D01*
X536150Y261726D01*
X536167Y261740D01*
X536210Y261823D01*
X536211Y261832D01*
X536218Y261838D01*
X536257Y261920D01*
X536258Y261933D01*
X536267Y261942D01*
X536302Y262029D01*
X536302Y262038D01*
X536308Y262045D01*
X536340Y262132D01*
X536339Y262144D01*
X536347Y262154D01*
X536375Y262244D01*
X536373Y262261D01*
X536383Y262274D01*
X536403Y262361D01*
X536400Y262374D01*
X536407Y262386D01*
X536423Y262478D01*
X536438Y262567D01*
X536432Y262596D01*
X536444Y262623D01*
X536448Y262714D01*
X536448Y262714D01*
X536448Y262714D01*
X536452Y262809D01*
X536446Y262827D01*
X536452Y262845D01*
X536448Y262939D01*
X536448Y262940D01*
X536448Y262940D01*
X536444Y263031D01*
X536432Y263057D01*
X536438Y263086D01*
X536423Y263175D01*
X536407Y263268D01*
X536400Y263280D01*
X536403Y263293D01*
X536383Y263379D01*
X536373Y263393D01*
X536375Y263409D01*
X536347Y263500D01*
X536339Y263510D01*
X536340Y263522D01*
X536308Y263609D01*
X536302Y263615D01*
X536302Y263625D01*
X536267Y263711D01*
X536258Y263720D01*
X536257Y263733D01*
X536218Y263816D01*
X536211Y263822D01*
X536210Y263831D01*
X536167Y263913D01*
X536150Y263927D01*
X536146Y263949D01*
X536095Y264027D01*
Y264027D01*
X536044Y264106D01*
X536028Y264117D01*
X536023Y264136D01*
X535968Y264207D01*
X535955Y264214D01*
X535950Y264229D01*
X535887Y264299D01*
X535881Y264302D01*
X535878Y264309D01*
X535815Y264375D01*
X535803Y264381D01*
X535797Y264394D01*
X535730Y264457D01*
X535724Y264459D01*
X535721Y264465D01*
X535650Y264528D01*
X535636Y264533D01*
X535628Y264546D01*
X535557Y264602D01*
X535538Y264607D01*
X535527Y264623D01*
X535449Y264674D01*
X535449Y264674D01*
X535370Y264725D01*
X535349Y264729D01*
X535335Y264746D01*
X535252Y264789D01*
X535243Y264790D01*
X535237Y264796D01*
X535155Y264836D01*
X535142Y264837D01*
X535132Y264846D01*
X535046Y264881D01*
X535037Y264881D01*
X535030Y264887D01*
X534943Y264919D01*
X534931Y264918D01*
X534921Y264926D01*
X534831Y264954D01*
X534814Y264952D01*
X534801Y264962D01*
X534714Y264981D01*
X534701Y264979D01*
X534689Y264986D01*
X534596Y265002D01*
X534507Y265017D01*
X534479Y265011D01*
X534452Y265023D01*
X534361Y265027D01*
X534361Y265027D01*
X534361Y265027D01*
X534266Y265031D01*
X534257Y265028D01*
X534248Y265031D01*
D02*
G37*
G36*
X447441Y248353D02*
X446559D01*
X445706Y248124D01*
X444941Y247683D01*
X444317Y247059D01*
X443876Y246294D01*
X443647Y245441D01*
Y244559D01*
X443876Y243706D01*
X444317Y242941D01*
X444941Y242317D01*
X445706Y241876D01*
X446559Y241647D01*
X447441D01*
X448294Y241876D01*
X449059Y242317D01*
X449683Y242941D01*
X450124Y243706D01*
X450353Y244559D01*
Y245441D01*
X450124Y246294D01*
X449683Y247059D01*
X449059Y247683D01*
X448294Y248124D01*
X447441Y248353D01*
D02*
G37*
G36*
X368294Y243976D02*
X367706D01*
X367164Y243752D01*
X366748Y243336D01*
X366524Y242794D01*
Y242206D01*
X366748Y241664D01*
X367164Y241248D01*
X367706Y241024D01*
X368294D01*
X368836Y241248D01*
X369252Y241664D01*
X369476Y242206D01*
Y242794D01*
X369252Y243336D01*
X368836Y243752D01*
X368294Y243976D01*
D02*
G37*
G36*
X447441Y238353D02*
X446559D01*
X445706Y238124D01*
X444941Y237683D01*
X444317Y237059D01*
X443876Y236294D01*
X443647Y235441D01*
Y234559D01*
X443876Y233706D01*
X444317Y232941D01*
X444941Y232317D01*
X445706Y231876D01*
X446559Y231647D01*
X447441D01*
X448294Y231876D01*
X449059Y232317D01*
X449683Y232941D01*
X450124Y233706D01*
X450353Y234559D01*
Y235441D01*
X450124Y236294D01*
X449683Y237059D01*
X449059Y237683D01*
X448294Y238124D01*
X447441Y238353D01*
D02*
G37*
G36*
X376853Y207353D02*
X373700D01*
Y204200D01*
X376853D01*
Y207353D01*
D02*
G37*
G36*
X373300D02*
X370147D01*
Y204200D01*
X373300D01*
Y207353D01*
D02*
G37*
G36*
X383941D02*
X383059D01*
X382206Y207124D01*
X381441Y206683D01*
X380817Y206059D01*
X380376Y205294D01*
X380147Y204441D01*
Y203559D01*
X380376Y202706D01*
X380817Y201941D01*
X381441Y201317D01*
X382206Y200876D01*
X383059Y200647D01*
X383941D01*
X384794Y200876D01*
X385559Y201317D01*
X386183Y201941D01*
X386624Y202706D01*
X386853Y203559D01*
Y204441D01*
X386624Y205294D01*
X386183Y206059D01*
X385559Y206683D01*
X384794Y207124D01*
X383941Y207353D01*
D02*
G37*
G36*
X376853Y203800D02*
X373700D01*
Y200647D01*
X376853D01*
Y203800D01*
D02*
G37*
G36*
X373300D02*
X370147D01*
Y200647D01*
X373300D01*
Y203800D01*
D02*
G37*
%LPD*%
G36*
X365793Y305881D02*
X365748Y305836D01*
X365524Y305294D01*
Y304706D01*
X365748Y304164D01*
X366103Y303809D01*
X366054Y303522D01*
X365950Y303309D01*
X352000D01*
X352000Y303309D01*
X351690Y303248D01*
X351428Y303072D01*
X351428Y303072D01*
X349873Y301518D01*
X349370D01*
X349162Y302018D01*
X353525Y306381D01*
X365586D01*
X365793Y305881D01*
D02*
G37*
G36*
X550169Y298650D02*
X550260Y298646D01*
X550350Y298630D01*
X550445Y298614D01*
X550531Y298594D01*
X550622Y298567D01*
X550709Y298535D01*
X550795Y298500D01*
X550878Y298461D01*
X550961Y298417D01*
X551039Y298366D01*
X551118Y298315D01*
X551189Y298260D01*
X551260Y298197D01*
X551327Y298134D01*
X551390Y298067D01*
X551453Y297996D01*
X551508Y297925D01*
X551559Y297847D01*
X551610Y297768D01*
X551653Y297685D01*
X551693Y297602D01*
X551728Y297516D01*
X551760Y297429D01*
X551787Y297339D01*
X551807Y297252D01*
X551823Y297158D01*
X551839Y297067D01*
X551842Y296976D01*
X551847Y296882D01*
X551842Y296787D01*
X551839Y296697D01*
X551823Y296606D01*
X551807Y296512D01*
X551787Y296425D01*
X551760Y296335D01*
X551728Y296248D01*
X551693Y296161D01*
X551653Y296079D01*
X551610Y295996D01*
X551559Y295917D01*
X551508Y295839D01*
X551453Y295768D01*
X551390Y295697D01*
X551327Y295630D01*
X551260Y295567D01*
X551189Y295504D01*
X551118Y295449D01*
X551039Y295398D01*
X550961Y295346D01*
X550878Y295303D01*
X550795Y295264D01*
X550709Y295228D01*
X550622Y295197D01*
X550531Y295169D01*
X550445Y295150D01*
X550350Y295134D01*
X550260Y295118D01*
X550169Y295114D01*
X550075Y295110D01*
X546925D01*
X546831Y295114D01*
X546740Y295118D01*
X546650Y295134D01*
X546555Y295150D01*
X546468Y295169D01*
X546378Y295197D01*
X546291Y295228D01*
X546205Y295264D01*
X546122Y295303D01*
X546039Y295346D01*
X545961Y295398D01*
X545882Y295449D01*
X545811Y295504D01*
X545740Y295567D01*
X545673Y295630D01*
X545610Y295697D01*
X545547Y295768D01*
X545492Y295839D01*
X545441Y295917D01*
X545390Y295996D01*
X545346Y296079D01*
X545307Y296161D01*
X545272Y296248D01*
X545240Y296335D01*
X545213Y296425D01*
X545193Y296512D01*
X545177Y296606D01*
X545161Y296697D01*
X545157Y296787D01*
X545154Y296882D01*
X545157Y296976D01*
X545161Y297067D01*
X545177Y297158D01*
X545193Y297252D01*
X545213Y297339D01*
X545240Y297429D01*
X545272Y297516D01*
X545307Y297602D01*
X545346Y297685D01*
X545390Y297768D01*
X545441Y297847D01*
X545492Y297925D01*
X545547Y297996D01*
X545610Y298067D01*
X545673Y298134D01*
X545740Y298197D01*
X545811Y298260D01*
X545882Y298315D01*
X545961Y298366D01*
X546039Y298417D01*
X546122Y298461D01*
X546205Y298500D01*
X546291Y298535D01*
X546378Y298567D01*
X546468Y298594D01*
X546555Y298614D01*
X546650Y298630D01*
X546740Y298646D01*
X546831Y298650D01*
X546925Y298654D01*
X550075D01*
X550169Y298650D01*
D02*
G37*
G36*
X534342D02*
X534433Y298646D01*
X534524Y298630D01*
X534618Y298614D01*
X534705Y298594D01*
X534795Y298567D01*
X534882Y298535D01*
X534969Y298500D01*
X535051Y298461D01*
X535134Y298417D01*
X535213Y298366D01*
X535291Y298315D01*
X535362Y298260D01*
X535433Y298197D01*
X535500Y298134D01*
X535563Y298067D01*
X535626Y297996D01*
X535681Y297925D01*
X535732Y297847D01*
X535783Y297768D01*
X535827Y297685D01*
X535866Y297602D01*
X535902Y297516D01*
X535933Y297429D01*
X535961Y297339D01*
X535980Y297252D01*
X535996Y297158D01*
X536012Y297067D01*
X536016Y296976D01*
X536020Y296882D01*
X536016Y296787D01*
X536012Y296697D01*
X535996Y296606D01*
X535980Y296512D01*
X535961Y296425D01*
X535933Y296335D01*
X535902Y296248D01*
X535866Y296161D01*
X535827Y296079D01*
X535783Y295996D01*
X535732Y295917D01*
X535681Y295839D01*
X535626Y295768D01*
X535563Y295697D01*
X535500Y295630D01*
X535433Y295567D01*
X535362Y295504D01*
X535291Y295449D01*
X535213Y295398D01*
X535134Y295346D01*
X535051Y295303D01*
X534969Y295264D01*
X534882Y295228D01*
X534795Y295197D01*
X534705Y295169D01*
X534618Y295150D01*
X534524Y295134D01*
X534433Y295118D01*
X534342Y295114D01*
X534248Y295110D01*
X529917D01*
X529823Y295114D01*
X529732Y295118D01*
X529642Y295134D01*
X529547Y295150D01*
X529461Y295169D01*
X529370Y295197D01*
X529284Y295228D01*
X529197Y295264D01*
X529114Y295303D01*
X529032Y295346D01*
X528953Y295398D01*
X528874Y295449D01*
X528803Y295504D01*
X528732Y295567D01*
X528665Y295630D01*
X528602Y295697D01*
X528539Y295768D01*
X528484Y295839D01*
X528433Y295917D01*
X528382Y295996D01*
X528339Y296079D01*
X528299Y296161D01*
X528264Y296248D01*
X528232Y296335D01*
X528205Y296425D01*
X528185Y296512D01*
X528169Y296606D01*
X528154Y296697D01*
X528150Y296787D01*
X528146Y296882D01*
X528150Y296976D01*
X528154Y297067D01*
X528169Y297158D01*
X528185Y297252D01*
X528205Y297339D01*
X528232Y297429D01*
X528264Y297516D01*
X528299Y297602D01*
X528339Y297685D01*
X528382Y297768D01*
X528433Y297847D01*
X528484Y297925D01*
X528539Y297996D01*
X528602Y298067D01*
X528665Y298134D01*
X528732Y298197D01*
X528803Y298260D01*
X528874Y298315D01*
X528953Y298366D01*
X529032Y298417D01*
X529114Y298461D01*
X529197Y298500D01*
X529284Y298535D01*
X529370Y298567D01*
X529461Y298594D01*
X529547Y298614D01*
X529642Y298630D01*
X529732Y298646D01*
X529823Y298650D01*
X529917Y298654D01*
X534248D01*
X534342Y298650D01*
D02*
G37*
G36*
X343022Y268928D02*
X343285Y268752D01*
X343595Y268691D01*
X445888D01*
X445954Y268191D01*
X445706Y268124D01*
X444941Y267683D01*
X444317Y267059D01*
X443876Y266294D01*
X443647Y265441D01*
Y264559D01*
X443876Y263706D01*
X444317Y262941D01*
X444941Y262317D01*
X445706Y261876D01*
X446439Y261679D01*
X446373Y261179D01*
X349965D01*
X342289Y268855D01*
X342306Y268937D01*
X342848Y269102D01*
X343022Y268928D01*
D02*
G37*
G36*
X550169Y264595D02*
X550260Y264591D01*
X550350Y264575D01*
X550445Y264559D01*
X550531Y264539D01*
X550622Y264512D01*
X550709Y264480D01*
X550795Y264445D01*
X550878Y264405D01*
X550961Y264362D01*
X551039Y264311D01*
X551118Y264260D01*
X551189Y264205D01*
X551260Y264142D01*
X551327Y264079D01*
X551390Y264012D01*
X551453Y263941D01*
X551508Y263870D01*
X551559Y263791D01*
X551610Y263713D01*
X551653Y263630D01*
X551693Y263547D01*
X551728Y263461D01*
X551760Y263374D01*
X551787Y263283D01*
X551807Y263197D01*
X551823Y263102D01*
X551839Y263012D01*
X551842Y262921D01*
X551847Y262827D01*
X551842Y262732D01*
X551839Y262642D01*
X551823Y262551D01*
X551807Y262457D01*
X551787Y262370D01*
X551760Y262280D01*
X551728Y262193D01*
X551693Y262106D01*
X551653Y262024D01*
X551610Y261941D01*
X551559Y261862D01*
X551508Y261784D01*
X551453Y261713D01*
X551390Y261642D01*
X551327Y261575D01*
X551260Y261512D01*
X551189Y261449D01*
X551118Y261394D01*
X551039Y261343D01*
X550961Y261291D01*
X550878Y261248D01*
X550795Y261209D01*
X550709Y261173D01*
X550622Y261142D01*
X550531Y261114D01*
X550445Y261094D01*
X550350Y261079D01*
X550260Y261063D01*
X550169Y261059D01*
X550075Y261055D01*
X546925D01*
X546831Y261059D01*
X546740Y261063D01*
X546650Y261079D01*
X546555Y261094D01*
X546468Y261114D01*
X546378Y261142D01*
X546291Y261173D01*
X546205Y261209D01*
X546122Y261248D01*
X546039Y261291D01*
X545961Y261343D01*
X545882Y261394D01*
X545811Y261449D01*
X545740Y261512D01*
X545673Y261575D01*
X545610Y261642D01*
X545547Y261713D01*
X545492Y261784D01*
X545441Y261862D01*
X545390Y261941D01*
X545346Y262024D01*
X545307Y262106D01*
X545272Y262193D01*
X545240Y262280D01*
X545213Y262370D01*
X545193Y262457D01*
X545177Y262551D01*
X545161Y262642D01*
X545157Y262732D01*
X545154Y262827D01*
X545157Y262921D01*
X545161Y263012D01*
X545177Y263102D01*
X545193Y263197D01*
X545213Y263283D01*
X545240Y263374D01*
X545272Y263461D01*
X545307Y263547D01*
X545346Y263630D01*
X545390Y263713D01*
X545441Y263791D01*
X545492Y263870D01*
X545547Y263941D01*
X545610Y264012D01*
X545673Y264079D01*
X545740Y264142D01*
X545811Y264205D01*
X545882Y264260D01*
X545961Y264311D01*
X546039Y264362D01*
X546122Y264405D01*
X546205Y264445D01*
X546291Y264480D01*
X546378Y264512D01*
X546468Y264539D01*
X546555Y264559D01*
X546650Y264575D01*
X546740Y264591D01*
X546831Y264595D01*
X546925Y264598D01*
X550075D01*
X550169Y264595D01*
D02*
G37*
G36*
X534342D02*
X534433Y264591D01*
X534524Y264575D01*
X534618Y264559D01*
X534705Y264539D01*
X534795Y264512D01*
X534882Y264480D01*
X534969Y264445D01*
X535051Y264405D01*
X535134Y264362D01*
X535213Y264311D01*
X535291Y264260D01*
X535362Y264205D01*
X535433Y264142D01*
X535500Y264079D01*
X535563Y264012D01*
X535626Y263941D01*
X535681Y263870D01*
X535732Y263791D01*
X535783Y263713D01*
X535827Y263630D01*
X535866Y263547D01*
X535902Y263461D01*
X535933Y263374D01*
X535961Y263283D01*
X535980Y263197D01*
X535996Y263102D01*
X536012Y263012D01*
X536016Y262921D01*
X536020Y262827D01*
X536016Y262732D01*
X536012Y262642D01*
X535996Y262551D01*
X535980Y262457D01*
X535961Y262370D01*
X535933Y262280D01*
X535902Y262193D01*
X535866Y262106D01*
X535827Y262024D01*
X535783Y261941D01*
X535732Y261862D01*
X535681Y261784D01*
X535626Y261713D01*
X535563Y261642D01*
X535500Y261575D01*
X535433Y261512D01*
X535362Y261449D01*
X535291Y261394D01*
X535213Y261343D01*
X535134Y261291D01*
X535051Y261248D01*
X534969Y261209D01*
X534882Y261173D01*
X534795Y261142D01*
X534705Y261114D01*
X534618Y261094D01*
X534524Y261079D01*
X534433Y261063D01*
X534342Y261059D01*
X534248Y261055D01*
X529917D01*
X529823Y261059D01*
X529732Y261063D01*
X529642Y261079D01*
X529547Y261094D01*
X529461Y261114D01*
X529370Y261142D01*
X529284Y261173D01*
X529197Y261209D01*
X529114Y261248D01*
X529032Y261291D01*
X528953Y261343D01*
X528874Y261394D01*
X528803Y261449D01*
X528732Y261512D01*
X528665Y261575D01*
X528602Y261642D01*
X528539Y261713D01*
X528484Y261784D01*
X528433Y261862D01*
X528382Y261941D01*
X528339Y262024D01*
X528299Y262106D01*
X528264Y262193D01*
X528232Y262280D01*
X528205Y262370D01*
X528185Y262457D01*
X528169Y262551D01*
X528154Y262642D01*
X528150Y262732D01*
X528146Y262827D01*
X528150Y262921D01*
X528154Y263012D01*
X528169Y263102D01*
X528185Y263197D01*
X528205Y263283D01*
X528232Y263374D01*
X528264Y263461D01*
X528299Y263547D01*
X528339Y263630D01*
X528382Y263713D01*
X528433Y263791D01*
X528484Y263870D01*
X528539Y263941D01*
X528602Y264012D01*
X528665Y264079D01*
X528732Y264142D01*
X528803Y264205D01*
X528874Y264260D01*
X528953Y264311D01*
X529032Y264362D01*
X529114Y264405D01*
X529197Y264445D01*
X529284Y264480D01*
X529370Y264512D01*
X529461Y264539D01*
X529547Y264559D01*
X529642Y264575D01*
X529732Y264591D01*
X529823Y264595D01*
X529917Y264598D01*
X534248D01*
X534342Y264595D01*
D02*
G37*
D11*
X327563Y267792D02*
Y278563D01*
Y267792D02*
X373355Y222000D01*
X415500D01*
X341736Y306378D02*
X345858Y310500D01*
X363000D02*
X409000Y356500D01*
X345858Y310500D02*
X363000D01*
X341736Y305532D02*
Y306378D01*
X348284Y302284D02*
X353190Y307190D01*
X369690D01*
X344984Y302284D02*
X348284D01*
X369690Y307190D02*
X419000Y356500D01*
X344984Y300709D02*
X350209D01*
X352000Y302500D02*
X375000D01*
X350209Y300709D02*
X352000Y302500D01*
X375000D02*
X429000Y356500D01*
X344984Y299134D02*
X381634D01*
X439000Y356500D01*
X352000Y296000D02*
X388500D01*
X449000Y356500D01*
X350441Y297559D02*
X352000Y296000D01*
X344984Y297559D02*
X350441D01*
X395000Y292500D02*
X459000Y356500D01*
X351000Y292500D02*
X395000D01*
X344984Y295984D02*
X347516D01*
X351000Y292500D01*
X329177Y305571D02*
Y306911D01*
X330500Y308234D01*
X329138Y305532D02*
X329177Y305571D01*
X330500Y308234D02*
Y308500D01*
X328000Y308234D02*
Y308500D01*
X327602Y307836D02*
X328000Y308234D01*
X327602Y305571D02*
Y307836D01*
X325988Y305532D02*
Y310488D01*
X329150Y313650D01*
X327563Y305532D02*
X327602Y305571D01*
X329150Y313650D02*
Y319169D01*
X299547Y295047D02*
X301681D01*
X299500Y295000D02*
X299547Y295047D01*
X301681D02*
X301728Y295094D01*
X298000Y287000D02*
X300728D01*
X330500Y273272D02*
X331083Y272688D01*
X332812D01*
X333000Y272500D01*
X305000Y309500D02*
Y312228D01*
X313781Y303059D02*
X314557Y302284D01*
X310500Y303059D02*
X313781D01*
X314557Y302284D02*
X318016D01*
X312500Y296500D02*
X312766D01*
X313136Y296870D01*
X301713Y299079D02*
X301728Y299095D01*
X299500Y299064D02*
X299515Y299079D01*
X301713D01*
X323772Y310500D02*
X324000Y310272D01*
Y308500D02*
Y310272D01*
X324413Y305532D02*
Y308087D01*
X324000Y308500D02*
X324413Y308087D01*
X337228Y311000D02*
Y315000D01*
X337051Y305571D02*
Y310823D01*
X337228Y311000D01*
X337012Y305532D02*
X337051Y305571D01*
X307645Y291000D02*
X310384Y293740D01*
X304272Y291000D02*
X307500D01*
X307645D01*
X314437Y294830D02*
X314857Y294409D01*
X318016D01*
X312626Y292874D02*
X317976D01*
X314808Y291260D02*
X318016D01*
X314282Y291000D02*
X314548D01*
X312500Y293000D02*
X312626Y292874D01*
X317976D02*
X318016Y292835D01*
X314548Y291000D02*
X314808Y291260D01*
X314370Y294830D02*
X314437D01*
X310384Y293740D02*
Y297029D01*
X298088Y291088D02*
X298132Y291044D01*
X300684D02*
X300728Y291000D01*
X298132Y291044D02*
X300684D01*
X312000Y281500D02*
X314870D01*
X312000Y285500D02*
X312110Y285390D01*
X315335D01*
X349630Y260370D02*
X446928D01*
X340500Y269500D02*
X349630Y260370D01*
X446928D02*
X459798Y247500D01*
X537500D01*
X343595Y269500D02*
X517000D01*
X337012Y276083D02*
X343595Y269500D01*
X517000D02*
X524000Y276500D01*
X338587Y276187D02*
X343520Y271253D01*
X515754D01*
X338500Y266500D02*
X375500Y229500D01*
X333862Y275205D02*
X334870Y274197D01*
X335437Y275310D02*
Y278563D01*
X333862Y275205D02*
Y278563D01*
X335437Y275310D02*
X338500Y272247D01*
X334870Y265130D02*
Y274197D01*
X338500Y266500D02*
Y272247D01*
X334870Y265130D02*
X374500Y225500D01*
X341353Y275148D02*
X342271D01*
X342459Y274959D01*
X340161Y276339D02*
X341353Y275148D01*
X338587Y276187D02*
Y278563D01*
X340161Y276339D02*
Y278563D01*
X337012Y276083D02*
Y278563D01*
X515754Y271253D02*
X521500Y277000D01*
X334500Y311000D02*
X337228D01*
X334500Y315000D02*
X337228D01*
X310500Y312323D02*
X314500D01*
X308161Y312161D02*
X310339D01*
X308000Y312000D02*
X308161Y312161D01*
X310339D02*
X310500Y312323D01*
X314760Y312161D02*
X316839D01*
X314661D02*
X314760D01*
X320504Y306417D01*
X316839Y312161D02*
X317000Y312000D01*
X314500Y312323D02*
X314661Y312161D01*
X320504Y306417D02*
X321224D01*
X321264Y306378D01*
Y305532D02*
Y306378D01*
Y305532D02*
X322839D01*
X304272Y287000D02*
Y291000D01*
X375500Y229500D02*
X428000D01*
X374500Y225500D02*
X422000D01*
X428000Y229500D02*
X453500Y204000D01*
X422000Y225500D02*
X443500Y204000D01*
X325988Y265012D02*
Y278563D01*
Y265012D02*
X372000Y219000D01*
X408500D01*
X370500Y216000D02*
X401500D01*
X324413Y262087D02*
X370500Y216000D01*
X324413Y262087D02*
Y278563D01*
X415500Y222000D02*
X433500Y204000D01*
X401500Y216000D02*
X413500Y204000D01*
X408500Y219000D02*
X423500Y204000D01*
X369500Y213000D02*
X394500D01*
X403500Y204000D01*
X322839Y259661D02*
X369500Y213000D01*
X368500Y210000D02*
X387500D01*
X393500Y204000D01*
X321264Y257236D02*
X368500Y210000D01*
X330500Y273272D02*
Y275500D01*
X329177Y276823D02*
X330500Y275500D01*
X329138Y278563D02*
X329177Y278524D01*
Y276823D02*
Y278524D01*
X322839Y259661D02*
Y278563D01*
X321264Y257236D02*
Y278563D01*
X314870Y281500D02*
X316407Y283038D01*
X316821D02*
X317169Y283386D01*
X314188Y279688D02*
X315047D01*
X317169Y283386D02*
X318016D01*
X314000Y279500D02*
X314188Y279688D01*
X315335Y285390D02*
X316442Y286496D01*
X315715Y287448D02*
X316337Y288071D01*
X314000Y287260D02*
X314188Y287448D01*
X314000Y283500D02*
X314188Y283688D01*
Y287448D02*
X315715D01*
X314188Y283688D02*
X315379D01*
X316612Y284921D01*
X310384Y297029D02*
X311725Y298370D01*
X308902Y299095D02*
X309000Y299193D01*
X305272Y299095D02*
X308902D01*
X309000Y299193D02*
Y299220D01*
X316746Y299557D02*
X317169Y299134D01*
X309058Y299162D02*
X310838D01*
X317169Y299134D02*
X318016D01*
X311234Y299557D02*
X316746D01*
X310838Y299162D02*
X311234Y299557D01*
X309000Y299220D02*
X309058Y299162D01*
X318016Y299134D02*
Y300709D01*
X311725Y298370D02*
X314042D01*
X314354Y298058D01*
X316266D02*
X316417Y297907D01*
X314354Y298058D02*
X316266D01*
X316417Y297907D02*
X316821D01*
X317169Y297559D01*
X318016D01*
X313136Y296870D02*
X315775D01*
X316621Y296024D01*
X317976D01*
X315047Y279688D02*
X317169Y281811D01*
X318016D01*
X316407Y283038D02*
X316821D01*
X316612Y284921D02*
X317976D01*
X318016Y284961D01*
X316337Y288071D02*
X317976D01*
X316442Y286496D02*
X317976D01*
X318016Y286535D01*
X313136Y289130D02*
X315775D01*
X317976Y288071D02*
X318016Y288110D01*
X316290Y289646D02*
X317976D01*
X318016Y289685D01*
X315775Y289130D02*
X316290Y289646D01*
X317976Y296024D02*
X318016Y295984D01*
X316500Y318028D02*
X320228Y314299D01*
Y310500D02*
Y314299D01*
X335402Y321728D02*
X335500D01*
X329150Y319169D02*
X332842D01*
X335402Y321728D01*
X317091Y322319D02*
X317732D01*
X322850Y327437D01*
Y327831D01*
X316500Y321728D02*
X317091Y322319D01*
X316500Y318028D02*
Y321728D01*
X348390Y281811D02*
X349902Y283323D01*
X350000D01*
X344984Y281811D02*
X348390D01*
X350000Y279366D02*
Y283323D01*
X524000Y276500D02*
Y281000D01*
D15*
X322850Y327831D02*
D03*
X329150D02*
D03*
X322850Y319169D02*
D03*
X329150D02*
D03*
D16*
X305272Y295094D02*
D03*
X301728D02*
D03*
X300728Y287000D02*
D03*
X304272D02*
D03*
X340772Y315000D02*
D03*
X337228D02*
D03*
X304272Y291000D02*
D03*
X300728D02*
D03*
X301728Y299095D02*
D03*
X305272D02*
D03*
X340772Y311000D02*
D03*
X337228D02*
D03*
X323772Y310500D02*
D03*
X320228D02*
D03*
D17*
X350000Y279366D02*
D03*
Y275823D02*
D03*
X330500Y273272D02*
D03*
Y269728D02*
D03*
X350000Y283323D02*
D03*
Y286866D02*
D03*
X314500Y312323D02*
D03*
Y315866D02*
D03*
X310500Y312323D02*
D03*
Y315866D02*
D03*
X316500Y321728D02*
D03*
Y325272D02*
D03*
X305000Y312228D02*
D03*
Y315772D02*
D03*
X335500Y325272D02*
D03*
Y321728D02*
D03*
D18*
X321264Y278563D02*
D03*
X322839D02*
D03*
X324413D02*
D03*
X325988D02*
D03*
X327563D02*
D03*
X329138D02*
D03*
X330713D02*
D03*
X332287D02*
D03*
X333862D02*
D03*
X335437D02*
D03*
X337012D02*
D03*
X338587D02*
D03*
X340161D02*
D03*
X341736D02*
D03*
Y305532D02*
D03*
X340161D02*
D03*
X338587D02*
D03*
X337012D02*
D03*
X335437D02*
D03*
X333862D02*
D03*
X332287D02*
D03*
X330713D02*
D03*
X329138D02*
D03*
X327563D02*
D03*
X325988D02*
D03*
X324413D02*
D03*
X322839D02*
D03*
X321264D02*
D03*
D19*
X318016Y302284D02*
D03*
Y300709D02*
D03*
Y299134D02*
D03*
Y297559D02*
D03*
Y295984D02*
D03*
Y294409D02*
D03*
Y292835D02*
D03*
Y291260D02*
D03*
Y289685D02*
D03*
Y288110D02*
D03*
Y286535D02*
D03*
Y284961D02*
D03*
Y283386D02*
D03*
Y281811D02*
D03*
X344984D02*
D03*
Y283386D02*
D03*
Y284961D02*
D03*
Y286535D02*
D03*
Y288110D02*
D03*
Y289685D02*
D03*
Y291260D02*
D03*
Y292835D02*
D03*
Y294409D02*
D03*
Y295984D02*
D03*
Y297559D02*
D03*
Y299134D02*
D03*
Y300709D02*
D03*
Y302284D02*
D03*
D21*
X300500Y303059D02*
D03*
Y306130D02*
D03*
X310500Y303059D02*
D03*
Y306130D02*
D03*
D22*
X304279Y303095D02*
D03*
X306720D02*
D03*
D23*
X309000Y296779D02*
D03*
Y299220D02*
D03*
D33*
X508500Y279500D02*
D03*
D38*
X331500Y292047D02*
D03*
D39*
X330500Y267500D02*
Y269728D01*
X310757Y306387D02*
X313387D01*
X313500Y306500D01*
X310500Y306130D02*
X310757Y306387D01*
X323000Y315000D02*
Y319020D01*
X300470Y303029D02*
X300500Y303059D01*
X297029Y303029D02*
X300470D01*
X297000Y303000D02*
X297029Y303029D01*
X300518Y303077D02*
X304262D01*
X300500Y303059D02*
X300518Y303077D01*
X304262D02*
X304279Y303095D01*
X306738Y303077D02*
X310482D01*
X306720Y303095D02*
X306738Y303077D01*
X310482D02*
X310500Y303059D01*
X305764Y294602D02*
X306253Y294113D01*
X307887D01*
X308000Y294000D01*
X305665Y294602D02*
X305764D01*
X305272Y294996D02*
X305665Y294602D01*
X300500Y306130D02*
Y309000D01*
X305272Y294996D02*
Y295094D01*
X309000Y295000D02*
Y296779D01*
X308000Y294000D02*
X309000Y295000D01*
X310500Y315866D02*
Y318500D01*
X314500Y315866D02*
Y318500D01*
X322850Y319169D02*
X323000Y319020D01*
X329150Y327831D02*
X329319Y328000D01*
X335500D01*
Y325272D02*
Y328000D01*
X316500Y325272D02*
Y328000D01*
D40*
X350000Y275823D02*
X352323D01*
X340772Y315000D02*
X343500D01*
X340772Y311000D02*
X343500D01*
X305000Y315772D02*
Y318500D01*
X352634Y286866D02*
X353476Y286024D01*
X350000Y286866D02*
X352634D01*
D41*
X328547Y297953D02*
D03*
X334453D02*
D03*
X325594Y295000D02*
D03*
X331500D02*
D03*
X337405D02*
D03*
X328547Y292047D02*
D03*
X334453D02*
D03*
X325594Y289094D02*
D03*
X331500D02*
D03*
X337405D02*
D03*
X328547Y286142D02*
D03*
X334453D02*
D03*
D42*
X548500Y262827D02*
D03*
Y296882D02*
D03*
X532083Y262827D02*
D03*
Y296882D02*
D03*
D43*
X534012Y268476D02*
D03*
Y291232D02*
D03*
X297000Y303000D02*
D03*
X294000Y270500D02*
D03*
D44*
X447000Y325000D02*
D03*
D45*
Y315000D02*
D03*
Y295000D02*
D03*
Y285000D02*
D03*
Y275000D02*
D03*
Y265000D02*
D03*
Y255000D02*
D03*
Y245000D02*
D03*
Y235000D02*
D03*
Y305000D02*
D03*
X389000Y356500D02*
D03*
X459000D02*
D03*
X449000D02*
D03*
X439000D02*
D03*
X429000D02*
D03*
X419000D02*
D03*
X409000D02*
D03*
X399000D02*
D03*
X383500Y204000D02*
D03*
X453500D02*
D03*
X443500D02*
D03*
X433500D02*
D03*
X423500D02*
D03*
X413500D02*
D03*
X403500D02*
D03*
X393500D02*
D03*
D46*
X379000Y356500D02*
D03*
X373500Y204000D02*
D03*
D47*
X545000Y353000D02*
D03*
X283500Y206709D02*
D03*
X545000D02*
D03*
X283500Y353000D02*
D03*
D48*
X543307Y318898D02*
D03*
X549212Y283465D02*
D03*
X543307Y271654D02*
D03*
Y224409D02*
D03*
X531496Y342520D02*
D03*
Y318898D02*
D03*
X537401Y283465D02*
D03*
Y236220D02*
D03*
X531496Y224409D02*
D03*
Y200787D02*
D03*
X525590Y354331D02*
D03*
X519685Y342520D02*
D03*
Y318898D02*
D03*
X525590Y307086D02*
D03*
X519685Y295275D02*
D03*
X525590Y259842D02*
D03*
Y236220D02*
D03*
X519685Y224409D02*
D03*
X525590Y212598D02*
D03*
X519685Y200787D02*
D03*
X513779Y354331D02*
D03*
X507874Y342520D02*
D03*
Y318898D02*
D03*
X513779Y307086D02*
D03*
X507874Y295275D02*
D03*
X513779Y259842D02*
D03*
Y236220D02*
D03*
X507874Y224409D02*
D03*
X513779Y212598D02*
D03*
X507874Y200787D02*
D03*
X501968Y354331D02*
D03*
X496063Y342520D02*
D03*
Y318898D02*
D03*
X501968Y307086D02*
D03*
X496063Y295275D02*
D03*
X501968Y259842D02*
D03*
Y236220D02*
D03*
X496063Y224409D02*
D03*
X501968Y212598D02*
D03*
X496063Y200787D02*
D03*
X490157Y354331D02*
D03*
X484252Y342520D02*
D03*
Y318898D02*
D03*
X490157Y307086D02*
D03*
X484252Y295275D02*
D03*
X490157Y259842D02*
D03*
Y236220D02*
D03*
X484252Y224409D02*
D03*
X490157Y212598D02*
D03*
X484252Y200787D02*
D03*
X478346Y354331D02*
D03*
X472441Y342520D02*
D03*
Y318898D02*
D03*
X478346Y307086D02*
D03*
X472441Y295275D02*
D03*
X478346Y283465D02*
D03*
Y236220D02*
D03*
X472441Y224409D02*
D03*
X478346Y212598D02*
D03*
X472441Y200787D02*
D03*
X466535Y354331D02*
D03*
X460630Y342520D02*
D03*
Y318898D02*
D03*
X466535Y307086D02*
D03*
X460630Y295275D02*
D03*
X466535Y283465D02*
D03*
Y259842D02*
D03*
Y236220D02*
D03*
X460630Y224409D02*
D03*
X466535Y212598D02*
D03*
X460630Y200787D02*
D03*
X448819Y342520D02*
D03*
X454724Y307086D02*
D03*
Y283465D02*
D03*
Y259842D02*
D03*
X448819Y224409D02*
D03*
X454724Y212598D02*
D03*
X448819Y200787D02*
D03*
X437008Y248031D02*
D03*
Y224409D02*
D03*
X425197Y248031D02*
D03*
X431102Y212598D02*
D03*
X413386Y248031D02*
D03*
X419291Y212598D02*
D03*
X401575Y248031D02*
D03*
X389764Y342520D02*
D03*
Y248031D02*
D03*
X383858Y307086D02*
D03*
X377953Y248031D02*
D03*
X372047Y354331D02*
D03*
X366142Y342520D02*
D03*
Y318898D02*
D03*
Y200787D02*
D03*
X360236Y354331D02*
D03*
X354331Y342520D02*
D03*
X360236Y330709D02*
D03*
Y283465D02*
D03*
Y212598D02*
D03*
X354331Y200787D02*
D03*
X348425Y354331D02*
D03*
X342520Y342520D02*
D03*
Y224409D02*
D03*
X348425Y212598D02*
D03*
X342520Y200787D02*
D03*
X336614Y354331D02*
D03*
X330709Y342520D02*
D03*
X336614Y236220D02*
D03*
X330709Y224409D02*
D03*
X336614Y212598D02*
D03*
X330709Y200787D02*
D03*
X324803Y354331D02*
D03*
X318898Y342520D02*
D03*
Y248031D02*
D03*
X324803Y236220D02*
D03*
X318898Y224409D02*
D03*
X324803Y212598D02*
D03*
X318898Y200787D02*
D03*
X312992Y354331D02*
D03*
X307086Y342520D02*
D03*
X312992Y330709D02*
D03*
X307086Y271654D02*
D03*
X312992Y259842D02*
D03*
X307086Y248031D02*
D03*
X312992Y236220D02*
D03*
X307086Y224409D02*
D03*
X312992Y212598D02*
D03*
X307086Y200787D02*
D03*
X301181Y354331D02*
D03*
X295275Y342520D02*
D03*
X301181Y330709D02*
D03*
X295275Y318898D02*
D03*
X301181Y259842D02*
D03*
X295275Y248031D02*
D03*
X301181Y236220D02*
D03*
X295275Y224409D02*
D03*
X301181Y212598D02*
D03*
X295275Y200787D02*
D03*
X289370Y330709D02*
D03*
X283465Y295275D02*
D03*
X289370Y283465D02*
D03*
X283465Y271654D02*
D03*
X289370Y259842D02*
D03*
X283465Y248031D02*
D03*
X289370Y236220D02*
D03*
X283465Y224409D02*
D03*
D49*
X330500Y267500D02*
D03*
X359500Y258500D02*
D03*
X313500Y306500D02*
D03*
X328000Y308500D02*
D03*
X323000Y315000D02*
D03*
X330500Y308500D02*
D03*
X299500Y295000D02*
D03*
X298000Y287000D02*
D03*
X352323Y275823D02*
D03*
X333000Y272500D02*
D03*
X305000Y309500D02*
D03*
X312500Y296500D02*
D03*
X299500Y299064D02*
D03*
X308000Y294000D02*
D03*
X314370Y294830D02*
D03*
X314282Y291000D02*
D03*
X312500Y293000D02*
D03*
X343500Y315000D02*
D03*
X300500Y309000D02*
D03*
X298088Y291088D02*
D03*
X365000Y249000D02*
D03*
X368116Y309060D02*
D03*
X367000Y305000D02*
D03*
X343500Y311000D02*
D03*
X312000Y281500D02*
D03*
X312330Y289670D02*
D03*
X312000Y285500D02*
D03*
X307500Y291000D02*
D03*
X340500Y269500D02*
D03*
X537500Y247500D02*
D03*
X342459Y274959D02*
D03*
X334500Y311000D02*
D03*
Y315000D02*
D03*
X305000Y318500D02*
D03*
X308000Y312000D02*
D03*
X317000D02*
D03*
X353476Y286024D02*
D03*
X368000Y242500D02*
D03*
X314000Y279500D02*
D03*
Y283500D02*
D03*
Y287260D02*
D03*
X310500Y318500D02*
D03*
X314500D02*
D03*
X316500Y328000D02*
D03*
X335500D02*
D03*
X503500Y279000D02*
D03*
X500500D02*
D03*
Y281000D02*
D03*
X503500D02*
D03*
X524000D02*
D03*
X521500Y277000D02*
D03*
M02*
