G04*
G04 #@! TF.GenerationSoftware,Altium Limited,Altium Designer,23.1.1 (15)*
G04*
G04 Layer_Color=32896*
%FSLAX25Y25*%
%MOIN*%
G70*
G04*
G04 #@! TF.SameCoordinates,379D8D2B-01B5-4923-9211-1CC0BA53C839*
G04*
G04*
G04 #@! TF.FilePolarity,Positive*
G04*
G01*
G75*
G36*
X345000Y259799D02*
X344331D01*
Y259542D01*
X344333Y259518D01*
Y259501D01*
X344335Y259486D01*
X344337Y259475D01*
Y259466D01*
X344339Y259461D01*
Y259459D01*
X344350Y259424D01*
X344357Y259409D01*
X344363Y259396D01*
X344370Y259383D01*
X344374Y259374D01*
X344376Y259370D01*
X344379Y259368D01*
X344392Y259350D01*
X344407Y259333D01*
X344440Y259300D01*
X344455Y259285D01*
X344468Y259274D01*
X344477Y259267D01*
X344479Y259265D01*
X344510Y259243D01*
X344542Y259220D01*
X344577Y259196D01*
X344610Y259172D01*
X344640Y259152D01*
X344664Y259137D01*
X344673Y259130D01*
X344679Y259126D01*
X344684Y259121D01*
X344686D01*
X345000Y258923D01*
Y258675D01*
X344590Y258934D01*
X344547Y258964D01*
X344507Y258993D01*
X344475Y259021D01*
X344444Y259045D01*
X344422Y259067D01*
X344405Y259084D01*
X344394Y259095D01*
X344390Y259100D01*
X344376Y259117D01*
X344361Y259137D01*
X344337Y259176D01*
X344329Y259193D01*
X344320Y259207D01*
X344316Y259215D01*
X344313Y259220D01*
X344307Y259180D01*
X344300Y259143D01*
X344289Y259111D01*
X344281Y259078D01*
X344270Y259050D01*
X344257Y259023D01*
X344246Y258999D01*
X344235Y258978D01*
X344222Y258960D01*
X344211Y258943D01*
X344202Y258930D01*
X344193Y258919D01*
X344187Y258910D01*
X344180Y258904D01*
X344178Y258901D01*
X344176Y258899D01*
X344154Y258882D01*
X344132Y258864D01*
X344087Y258838D01*
X344041Y258821D01*
X343997Y258807D01*
X343960Y258799D01*
X343945Y258797D01*
X343930D01*
X343919Y258794D01*
X343910D01*
X343906D01*
X343903D01*
X343858Y258797D01*
X343816Y258803D01*
X343777Y258814D01*
X343744Y258825D01*
X343716Y258838D01*
X343694Y258847D01*
X343681Y258856D01*
X343679Y258858D01*
X343677D01*
X343642Y258884D01*
X343611Y258910D01*
X343585Y258938D01*
X343566Y258964D01*
X343550Y258988D01*
X343542Y259008D01*
X343535Y259021D01*
X343533Y259023D01*
Y259026D01*
X343526Y259045D01*
X343520Y259069D01*
X343509Y259117D01*
X343502Y259169D01*
X343496Y259217D01*
X343494Y259263D01*
Y259283D01*
X343491Y259300D01*
Y260000D01*
X345000D01*
Y259799D01*
D02*
G37*
G36*
X344640Y258553D02*
X344673Y258546D01*
X344734Y258526D01*
X344786Y258502D01*
X344810Y258489D01*
X344830Y258476D01*
X344850Y258465D01*
X344867Y258452D01*
X344880Y258441D01*
X344891Y258430D01*
X344900Y258422D01*
X344908Y258417D01*
X344911Y258413D01*
X344913Y258411D01*
X344932Y258385D01*
X344950Y258359D01*
X344965Y258330D01*
X344978Y258302D01*
X344998Y258247D01*
X345011Y258193D01*
X345017Y258169D01*
X345020Y258145D01*
X345022Y258125D01*
X345024Y258108D01*
X345026Y258092D01*
Y258073D01*
X345024Y258027D01*
X345017Y257983D01*
X345009Y257942D01*
X344998Y257905D01*
X344983Y257870D01*
X344967Y257837D01*
X344952Y257807D01*
X344935Y257781D01*
X344917Y257757D01*
X344902Y257735D01*
X344884Y257717D01*
X344871Y257702D01*
X344861Y257691D01*
X344852Y257683D01*
X344845Y257678D01*
X344843Y257676D01*
X344815Y257654D01*
X344784Y257637D01*
X344756Y257619D01*
X344725Y257606D01*
X344667Y257585D01*
X344610Y257572D01*
X344586Y257567D01*
X344562Y257563D01*
X344542Y257561D01*
X344525Y257558D01*
X344510Y257556D01*
X344499D01*
X344492D01*
X344490D01*
X344451Y257558D01*
X344414Y257563D01*
X344376Y257569D01*
X344344Y257578D01*
X344313Y257589D01*
X344283Y257600D01*
X344257Y257613D01*
X344233Y257624D01*
X344211Y257637D01*
X344191Y257650D01*
X344176Y257661D01*
X344161Y257672D01*
X344150Y257681D01*
X344143Y257687D01*
X344139Y257691D01*
X344137Y257694D01*
X344113Y257720D01*
X344091Y257746D01*
X344074Y257774D01*
X344058Y257803D01*
X344043Y257831D01*
X344032Y257859D01*
X344017Y257912D01*
X344010Y257936D01*
X344006Y257957D01*
X344004Y257977D01*
X344002Y257994D01*
X343999Y258008D01*
Y258055D01*
X344004Y258082D01*
X344015Y258134D01*
X344030Y258182D01*
X344047Y258225D01*
X344065Y258260D01*
X344074Y258276D01*
X344080Y258289D01*
X344087Y258300D01*
X344091Y258306D01*
X344093Y258311D01*
X344095Y258313D01*
X343688Y258232D01*
Y257628D01*
X343511D01*
Y258378D01*
X344287Y258524D01*
X344311Y258350D01*
X344287Y258334D01*
X344268Y258315D01*
X344248Y258297D01*
X344233Y258280D01*
X344222Y258262D01*
X344211Y258249D01*
X344207Y258241D01*
X344204Y258239D01*
X344191Y258210D01*
X344180Y258182D01*
X344174Y258156D01*
X344167Y258130D01*
X344165Y258108D01*
X344163Y258090D01*
Y258049D01*
X344167Y258023D01*
X344178Y257977D01*
X344193Y257938D01*
X344209Y257903D01*
X344226Y257877D01*
X344241Y257857D01*
X344252Y257846D01*
X344254Y257842D01*
X344257D01*
X344294Y257811D01*
X344333Y257789D01*
X344374Y257774D01*
X344416Y257763D01*
X344451Y257757D01*
X344466Y257755D01*
X344479D01*
X344490Y257752D01*
X344499D01*
X344503D01*
X344505D01*
X344536D01*
X344564Y257757D01*
X344619Y257768D01*
X344664Y257783D01*
X344701Y257798D01*
X344732Y257816D01*
X344756Y257831D01*
X344762Y257837D01*
X344769Y257842D01*
X344771Y257844D01*
X344773Y257846D01*
X344791Y257864D01*
X344806Y257881D01*
X344832Y257920D01*
X344850Y257957D01*
X344861Y257994D01*
X344869Y258025D01*
X344871Y258051D01*
X344874Y258060D01*
Y258073D01*
X344871Y258114D01*
X344863Y258151D01*
X344852Y258184D01*
X344839Y258210D01*
X344826Y258234D01*
X344815Y258252D01*
X344806Y258260D01*
X344804Y258265D01*
X344773Y258291D01*
X344741Y258313D01*
X344704Y258330D01*
X344671Y258343D01*
X344638Y258352D01*
X344614Y258359D01*
X344603Y258361D01*
X344597Y258363D01*
X344592D01*
X344590D01*
X344605Y258557D01*
X344640Y258553D01*
D02*
G37*
G36*
X524500Y290299D02*
X523831D01*
Y290042D01*
X523833Y290018D01*
Y290001D01*
X523835Y289985D01*
X523837Y289975D01*
Y289966D01*
X523840Y289962D01*
Y289959D01*
X523850Y289925D01*
X523857Y289909D01*
X523863Y289896D01*
X523870Y289883D01*
X523874Y289874D01*
X523876Y289870D01*
X523879Y289868D01*
X523892Y289850D01*
X523907Y289833D01*
X523940Y289800D01*
X523955Y289785D01*
X523968Y289774D01*
X523977Y289768D01*
X523979Y289765D01*
X524010Y289743D01*
X524042Y289720D01*
X524077Y289696D01*
X524110Y289672D01*
X524140Y289652D01*
X524164Y289637D01*
X524173Y289630D01*
X524180Y289626D01*
X524184Y289621D01*
X524186D01*
X524500Y289423D01*
Y289175D01*
X524090Y289434D01*
X524047Y289464D01*
X524007Y289493D01*
X523975Y289521D01*
X523944Y289545D01*
X523922Y289567D01*
X523905Y289584D01*
X523894Y289595D01*
X523890Y289600D01*
X523876Y289617D01*
X523861Y289637D01*
X523837Y289676D01*
X523829Y289693D01*
X523820Y289706D01*
X523815Y289715D01*
X523813Y289720D01*
X523807Y289680D01*
X523800Y289643D01*
X523789Y289611D01*
X523781Y289578D01*
X523770Y289549D01*
X523757Y289523D01*
X523746Y289499D01*
X523735Y289478D01*
X523722Y289460D01*
X523711Y289443D01*
X523702Y289430D01*
X523693Y289419D01*
X523687Y289410D01*
X523680Y289404D01*
X523678Y289401D01*
X523676Y289399D01*
X523654Y289382D01*
X523632Y289364D01*
X523587Y289338D01*
X523541Y289321D01*
X523497Y289307D01*
X523460Y289299D01*
X523445Y289297D01*
X523430D01*
X523419Y289295D01*
X523410D01*
X523406D01*
X523404D01*
X523358Y289297D01*
X523316Y289303D01*
X523277Y289314D01*
X523244Y289325D01*
X523216Y289338D01*
X523194Y289347D01*
X523181Y289355D01*
X523179Y289358D01*
X523177D01*
X523142Y289384D01*
X523111Y289410D01*
X523085Y289438D01*
X523066Y289464D01*
X523050Y289489D01*
X523042Y289508D01*
X523035Y289521D01*
X523033Y289523D01*
Y289526D01*
X523026Y289545D01*
X523020Y289569D01*
X523009Y289617D01*
X523002Y289669D01*
X522996Y289717D01*
X522994Y289763D01*
Y289783D01*
X522991Y289800D01*
Y290500D01*
X524500D01*
Y290299D01*
D02*
G37*
G36*
X524136Y289050D02*
X524169Y289044D01*
X524230Y289024D01*
X524282Y289000D01*
X524304Y288987D01*
X524326Y288974D01*
X524345Y288961D01*
X524361Y288948D01*
X524376Y288937D01*
X524387Y288926D01*
X524395Y288919D01*
X524402Y288913D01*
X524406Y288909D01*
X524408Y288906D01*
X524428Y288880D01*
X524448Y288854D01*
X524463Y288828D01*
X524476Y288800D01*
X524498Y288745D01*
X524511Y288693D01*
X524515Y288669D01*
X524520Y288647D01*
X524522Y288627D01*
X524524Y288610D01*
X524526Y288597D01*
Y288577D01*
X524524Y288536D01*
X524520Y288499D01*
X524513Y288462D01*
X524504Y288427D01*
X524494Y288394D01*
X524483Y288366D01*
X524470Y288337D01*
X524456Y288314D01*
X524445Y288289D01*
X524432Y288270D01*
X524422Y288252D01*
X524411Y288239D01*
X524402Y288228D01*
X524395Y288220D01*
X524391Y288215D01*
X524389Y288213D01*
X524363Y288187D01*
X524334Y288165D01*
X524306Y288146D01*
X524278Y288128D01*
X524252Y288115D01*
X524223Y288102D01*
X524171Y288085D01*
X524147Y288080D01*
X524125Y288076D01*
X524105Y288071D01*
X524088Y288069D01*
X524075Y288067D01*
X524064D01*
X524057D01*
X524055D01*
X524003Y288069D01*
X523955Y288078D01*
X523914Y288091D01*
X523879Y288104D01*
X523850Y288117D01*
X523829Y288130D01*
X523815Y288139D01*
X523811Y288141D01*
X523778Y288172D01*
X523750Y288205D01*
X523728Y288239D01*
X523711Y288274D01*
X523698Y288305D01*
X523689Y288329D01*
X523687Y288337D01*
X523685Y288344D01*
X523682Y288348D01*
Y288351D01*
X523663Y288314D01*
X523643Y288283D01*
X523622Y288257D01*
X523602Y288235D01*
X523584Y288217D01*
X523569Y288205D01*
X523560Y288198D01*
X523556Y288196D01*
X523525Y288178D01*
X523495Y288165D01*
X523464Y288154D01*
X523436Y288148D01*
X523412Y288143D01*
X523395Y288141D01*
X523382D01*
X523377D01*
X523340Y288143D01*
X523303Y288150D01*
X523271Y288159D01*
X523242Y288170D01*
X523218Y288180D01*
X523199Y288189D01*
X523188Y288196D01*
X523183Y288198D01*
X523151Y288220D01*
X523122Y288246D01*
X523098Y288272D01*
X523076Y288298D01*
X523061Y288320D01*
X523048Y288340D01*
X523042Y288353D01*
X523039Y288355D01*
Y288357D01*
X523022Y288396D01*
X523009Y288436D01*
X522998Y288475D01*
X522991Y288510D01*
X522987Y288538D01*
X522985Y288562D01*
Y288616D01*
X522989Y288647D01*
X523000Y288706D01*
X523018Y288756D01*
X523035Y288800D01*
X523046Y288819D01*
X523055Y288835D01*
X523063Y288850D01*
X523072Y288861D01*
X523079Y288869D01*
X523083Y288876D01*
X523085Y288880D01*
X523087Y288882D01*
X523129Y288924D01*
X523175Y288957D01*
X523222Y288983D01*
X523271Y289004D01*
X523312Y289018D01*
X523329Y289024D01*
X523345Y289029D01*
X523358Y289031D01*
X523366Y289033D01*
X523373Y289035D01*
X523375D01*
X523408Y288850D01*
X523360Y288841D01*
X523318Y288828D01*
X523284Y288813D01*
X523255Y288797D01*
X523233Y288782D01*
X523218Y288769D01*
X523207Y288760D01*
X523205Y288758D01*
X523183Y288730D01*
X523166Y288699D01*
X523155Y288671D01*
X523146Y288643D01*
X523142Y288616D01*
X523138Y288597D01*
Y288579D01*
X523140Y288540D01*
X523148Y288505D01*
X523159Y288475D01*
X523170Y288449D01*
X523183Y288429D01*
X523194Y288414D01*
X523203Y288403D01*
X523205Y288401D01*
X523231Y288377D01*
X523260Y288359D01*
X523288Y288348D01*
X523314Y288340D01*
X523338Y288335D01*
X523355Y288331D01*
X523369D01*
X523371D01*
X523373D01*
X523397D01*
X523419Y288335D01*
X523456Y288346D01*
X523489Y288361D01*
X523517Y288379D01*
X523536Y288396D01*
X523552Y288412D01*
X523560Y288422D01*
X523563Y288425D01*
Y288427D01*
X523582Y288464D01*
X523597Y288499D01*
X523608Y288536D01*
X523615Y288568D01*
X523619Y288597D01*
X523624Y288621D01*
Y288649D01*
X523622Y288658D01*
Y288669D01*
X523785Y288691D01*
X523778Y288662D01*
X523774Y288636D01*
X523770Y288614D01*
X523768Y288595D01*
X523765Y288579D01*
Y288560D01*
X523770Y288514D01*
X523778Y288473D01*
X523792Y288436D01*
X523807Y288405D01*
X523822Y288381D01*
X523835Y288364D01*
X523844Y288353D01*
X523848Y288348D01*
X523881Y288320D01*
X523916Y288298D01*
X523951Y288283D01*
X523985Y288274D01*
X524014Y288268D01*
X524038Y288265D01*
X524047Y288263D01*
X524053D01*
X524057D01*
X524060D01*
X524108Y288268D01*
X524151Y288279D01*
X524188Y288292D01*
X524221Y288309D01*
X524247Y288327D01*
X524267Y288340D01*
X524280Y288351D01*
X524284Y288355D01*
X524315Y288390D01*
X524336Y288427D01*
X524352Y288464D01*
X524363Y288499D01*
X524369Y288529D01*
X524371Y288553D01*
X524374Y288562D01*
Y288575D01*
X524371Y288614D01*
X524363Y288651D01*
X524352Y288684D01*
X524339Y288710D01*
X524328Y288732D01*
X524317Y288750D01*
X524308Y288758D01*
X524306Y288762D01*
X524275Y288789D01*
X524241Y288810D01*
X524203Y288830D01*
X524164Y288845D01*
X524132Y288856D01*
X524116Y288861D01*
X524103Y288863D01*
X524092Y288865D01*
X524084Y288867D01*
X524079Y288869D01*
X524077D01*
X524101Y289055D01*
X524136Y289050D01*
D02*
G37*
G36*
X364813Y258496D02*
X364890Y258487D01*
X364957Y258476D01*
X364990Y258467D01*
X365018Y258461D01*
X365044Y258454D01*
X365068Y258446D01*
X365090Y258439D01*
X365108Y258435D01*
X365121Y258428D01*
X365132Y258426D01*
X365138Y258421D01*
X365140D01*
X365206Y258389D01*
X365265Y258352D01*
X365315Y258313D01*
X365334Y258293D01*
X365354Y258276D01*
X365371Y258258D01*
X365387Y258241D01*
X365400Y258225D01*
X365408Y258212D01*
X365417Y258204D01*
X365424Y258195D01*
X365426Y258190D01*
X365428Y258188D01*
X365445Y258158D01*
X365461Y258127D01*
X365485Y258062D01*
X365502Y257996D01*
X365513Y257933D01*
X365517Y257903D01*
X365522Y257876D01*
X365524Y257853D01*
Y257833D01*
X365526Y257816D01*
Y257791D01*
X365524Y257748D01*
X365520Y257706D01*
X365515Y257667D01*
X365507Y257630D01*
X365496Y257595D01*
X365485Y257563D01*
X365474Y257532D01*
X365461Y257504D01*
X365450Y257480D01*
X365439Y257456D01*
X365428Y257438D01*
X365417Y257421D01*
X365408Y257410D01*
X365404Y257399D01*
X365400Y257395D01*
X365398Y257393D01*
X365371Y257362D01*
X365345Y257336D01*
X365315Y257312D01*
X365284Y257288D01*
X365223Y257249D01*
X365162Y257218D01*
X365134Y257205D01*
X365108Y257194D01*
X365084Y257186D01*
X365064Y257179D01*
X365047Y257172D01*
X365034Y257168D01*
X365025Y257166D01*
X365023D01*
X364972Y257366D01*
X365007Y257375D01*
X365040Y257386D01*
X365071Y257397D01*
X365099Y257408D01*
X365125Y257421D01*
X365147Y257434D01*
X365169Y257449D01*
X365188Y257462D01*
X365206Y257473D01*
X365219Y257486D01*
X365232Y257497D01*
X365243Y257506D01*
X365249Y257515D01*
X365256Y257521D01*
X365258Y257523D01*
X365260Y257525D01*
X365278Y257547D01*
X365291Y257571D01*
X365315Y257619D01*
X365332Y257665D01*
X365343Y257711D01*
X365352Y257750D01*
X365354Y257765D01*
Y257781D01*
X365356Y257794D01*
Y257809D01*
X365354Y257859D01*
X365345Y257907D01*
X365334Y257951D01*
X365321Y257990D01*
X365308Y258020D01*
X365302Y258033D01*
X365297Y258044D01*
X365293Y258053D01*
X365288Y258060D01*
X365286Y258064D01*
Y258066D01*
X365256Y258108D01*
X365223Y258142D01*
X365186Y258173D01*
X365151Y258197D01*
X365121Y258217D01*
X365094Y258230D01*
X365084Y258234D01*
X365077Y258238D01*
X365073Y258241D01*
X365071D01*
X365014Y258258D01*
X364957Y258271D01*
X364900Y258282D01*
X364848Y258289D01*
X364824Y258291D01*
X364802Y258293D01*
X364783D01*
X364768Y258295D01*
X364754D01*
X364743D01*
X364737D01*
X364735D01*
X364678Y258293D01*
X364626Y258289D01*
X364578Y258280D01*
X364534Y258271D01*
X364497Y258265D01*
X364482Y258260D01*
X364469Y258256D01*
X364458Y258254D01*
X364451Y258252D01*
X364447Y258249D01*
X364445D01*
X364395Y258227D01*
X364349Y258204D01*
X364312Y258177D01*
X364279Y258149D01*
X364253Y258125D01*
X364236Y258105D01*
X364225Y258090D01*
X364220Y258088D01*
Y258086D01*
X364192Y258040D01*
X364170Y257990D01*
X364155Y257942D01*
X364146Y257896D01*
X364140Y257855D01*
X364138Y257837D01*
Y257822D01*
X364135Y257811D01*
Y257794D01*
X364138Y257739D01*
X364146Y257689D01*
X364159Y257648D01*
X364172Y257611D01*
X364188Y257582D01*
X364198Y257560D01*
X364207Y257547D01*
X364212Y257543D01*
X364244Y257508D01*
X364281Y257475D01*
X364321Y257449D01*
X364360Y257427D01*
X364395Y257410D01*
X364412Y257403D01*
X364425Y257399D01*
X364436Y257395D01*
X364445Y257390D01*
X364449Y257388D01*
X364451D01*
X364406Y257192D01*
X364366Y257205D01*
X364332Y257218D01*
X364299Y257236D01*
X364266Y257251D01*
X364238Y257268D01*
X364212Y257288D01*
X364186Y257305D01*
X364164Y257323D01*
X364146Y257340D01*
X364129Y257355D01*
X364113Y257371D01*
X364103Y257382D01*
X364092Y257393D01*
X364085Y257401D01*
X364083Y257406D01*
X364081Y257408D01*
X364061Y257438D01*
X364042Y257469D01*
X364026Y257499D01*
X364013Y257532D01*
X363994Y257597D01*
X363981Y257656D01*
X363974Y257685D01*
X363972Y257709D01*
X363970Y257733D01*
X363967Y257752D01*
X363965Y257768D01*
Y257789D01*
X363970Y257861D01*
X363981Y257931D01*
X363994Y257992D01*
X364002Y258020D01*
X364011Y258047D01*
X364020Y258070D01*
X364029Y258092D01*
X364035Y258110D01*
X364042Y258127D01*
X364048Y258138D01*
X364053Y258147D01*
X364055Y258153D01*
X364057Y258156D01*
X364094Y258214D01*
X364138Y258265D01*
X364181Y258308D01*
X364225Y258345D01*
X364264Y258374D01*
X364281Y258384D01*
X364297Y258393D01*
X364307Y258402D01*
X364316Y258406D01*
X364323Y258408D01*
X364325Y258411D01*
X364393Y258441D01*
X364462Y258463D01*
X364532Y258478D01*
X364595Y258489D01*
X364624Y258493D01*
X364652Y258496D01*
X364674Y258498D01*
X364696D01*
X364711Y258500D01*
X364724D01*
X364733D01*
X364735D01*
X364813Y258496D01*
D02*
G37*
G36*
X364530Y256821D02*
X364515Y256789D01*
X364499Y256756D01*
X364484Y256726D01*
X364471Y256699D01*
X364460Y256678D01*
X364451Y256664D01*
X364449Y256662D01*
Y256660D01*
X364425Y256621D01*
X364401Y256586D01*
X364380Y256555D01*
X364360Y256532D01*
X364345Y256510D01*
X364332Y256497D01*
X364323Y256486D01*
X364321Y256484D01*
X365500D01*
Y256298D01*
X363985D01*
Y256418D01*
X364022Y256440D01*
X364057Y256464D01*
X364092Y256492D01*
X364122Y256518D01*
X364148Y256544D01*
X364170Y256564D01*
X364177Y256573D01*
X364183Y256579D01*
X364186Y256582D01*
X364188Y256584D01*
X364225Y256630D01*
X364260Y256675D01*
X364290Y256719D01*
X364314Y256763D01*
X364336Y256800D01*
X364345Y256815D01*
X364351Y256828D01*
X364358Y256839D01*
X364360Y256848D01*
X364364Y256852D01*
Y256854D01*
X364543D01*
X364530Y256821D01*
D02*
G37*
G36*
X364190Y255071D02*
X364253Y255123D01*
X364321Y255173D01*
X364386Y255217D01*
X364449Y255258D01*
X364478Y255276D01*
X364504Y255291D01*
X364528Y255306D01*
X364547Y255317D01*
X364565Y255326D01*
X364576Y255332D01*
X364584Y255337D01*
X364587Y255339D01*
X364674Y255383D01*
X364761Y255422D01*
X364844Y255454D01*
X364881Y255468D01*
X364918Y255481D01*
X364951Y255494D01*
X364981Y255503D01*
X365007Y255511D01*
X365029Y255518D01*
X365049Y255524D01*
X365062Y255529D01*
X365071Y255531D01*
X365073D01*
X365162Y255553D01*
X365206Y255561D01*
X365245Y255568D01*
X365282Y255574D01*
X365319Y255581D01*
X365350Y255585D01*
X365380Y255590D01*
X365406Y255592D01*
X365430Y255594D01*
X365452Y255596D01*
X365470D01*
X365483Y255598D01*
X365491D01*
X365498D01*
X365500D01*
Y255409D01*
X365417Y255402D01*
X365341Y255391D01*
X365271Y255380D01*
X365238Y255374D01*
X365208Y255367D01*
X365182Y255363D01*
X365158Y255356D01*
X365136Y255352D01*
X365119Y255348D01*
X365105Y255343D01*
X365094Y255341D01*
X365088Y255339D01*
X365086D01*
X364985Y255306D01*
X364892Y255271D01*
X364846Y255254D01*
X364802Y255237D01*
X364763Y255217D01*
X364724Y255200D01*
X364689Y255184D01*
X364658Y255169D01*
X364632Y255156D01*
X364608Y255145D01*
X364589Y255134D01*
X364576Y255128D01*
X364567Y255123D01*
X364565Y255121D01*
X364519Y255095D01*
X364473Y255069D01*
X364432Y255043D01*
X364393Y255016D01*
X364358Y254992D01*
X364323Y254968D01*
X364292Y254944D01*
X364266Y254925D01*
X364240Y254905D01*
X364218Y254888D01*
X364201Y254870D01*
X364186Y254857D01*
X364172Y254849D01*
X364164Y254840D01*
X364159Y254835D01*
X364157Y254833D01*
X364011D01*
Y255810D01*
X364190D01*
Y255071D01*
D02*
G37*
G36*
X498440Y284478D02*
X498464Y284443D01*
X498492Y284408D01*
X498518Y284378D01*
X498545Y284352D01*
X498564Y284330D01*
X498573Y284323D01*
X498579Y284317D01*
X498582Y284314D01*
X498584Y284312D01*
X498630Y284275D01*
X498675Y284240D01*
X498719Y284210D01*
X498763Y284186D01*
X498800Y284164D01*
X498815Y284155D01*
X498828Y284149D01*
X498839Y284142D01*
X498848Y284140D01*
X498852Y284136D01*
X498854D01*
Y283957D01*
X498821Y283970D01*
X498789Y283985D01*
X498756Y284001D01*
X498726Y284016D01*
X498699Y284029D01*
X498677Y284040D01*
X498664Y284049D01*
X498662Y284051D01*
X498660D01*
X498621Y284075D01*
X498586Y284099D01*
X498555Y284120D01*
X498531Y284140D01*
X498510Y284155D01*
X498497Y284169D01*
X498486Y284177D01*
X498484Y284179D01*
Y283000D01*
X498298D01*
Y284515D01*
X498418D01*
X498440Y284478D01*
D02*
G37*
G36*
X497332Y284513D02*
X497374Y284509D01*
X497413Y284500D01*
X497450Y284489D01*
X497483Y284474D01*
X497516Y284461D01*
X497544Y284443D01*
X497570Y284428D01*
X497592Y284413D01*
X497614Y284395D01*
X497631Y284382D01*
X497644Y284369D01*
X497655Y284356D01*
X497664Y284347D01*
X497668Y284343D01*
X497670Y284341D01*
X497699Y284301D01*
X497723Y284256D01*
X497745Y284208D01*
X497764Y284158D01*
X497779Y284105D01*
X497792Y284053D01*
X497803Y283998D01*
X497812Y283948D01*
X497819Y283898D01*
X497823Y283852D01*
X497827Y283811D01*
X497829Y283776D01*
Y283746D01*
X497832Y283724D01*
Y283715D01*
Y283709D01*
Y283706D01*
Y283704D01*
X497829Y283634D01*
X497825Y283569D01*
X497819Y283508D01*
X497808Y283451D01*
X497797Y283401D01*
X497786Y283355D01*
X497773Y283314D01*
X497758Y283277D01*
X497745Y283246D01*
X497731Y283218D01*
X497720Y283196D01*
X497707Y283177D01*
X497699Y283161D01*
X497692Y283153D01*
X497688Y283146D01*
X497686Y283144D01*
X497657Y283113D01*
X497627Y283087D01*
X497596Y283065D01*
X497566Y283046D01*
X497533Y283028D01*
X497503Y283015D01*
X497472Y283004D01*
X497441Y282996D01*
X497415Y282989D01*
X497389Y282983D01*
X497367Y282978D01*
X497348Y282976D01*
X497330D01*
X497319Y282974D01*
X497308D01*
X497258Y282976D01*
X497213Y282985D01*
X497171Y282994D01*
X497134Y283007D01*
X497106Y283017D01*
X497084Y283028D01*
X497075Y283031D01*
X497069Y283035D01*
X497066Y283037D01*
X497064D01*
X497027Y283063D01*
X496992Y283094D01*
X496964Y283124D01*
X496940Y283155D01*
X496920Y283183D01*
X496907Y283205D01*
X496903Y283214D01*
X496899Y283220D01*
X496897Y283222D01*
Y283225D01*
X496875Y283270D01*
X496859Y283318D01*
X496848Y283362D01*
X496842Y283403D01*
X496835Y283438D01*
Y283451D01*
X496833Y283464D01*
Y283475D01*
Y283482D01*
Y283486D01*
Y283488D01*
X496835Y283528D01*
X496840Y283565D01*
X496846Y283602D01*
X496853Y283634D01*
X496864Y283665D01*
X496875Y283695D01*
X496886Y283722D01*
X496899Y283746D01*
X496912Y283767D01*
X496923Y283787D01*
X496934Y283802D01*
X496944Y283818D01*
X496951Y283828D01*
X496957Y283835D01*
X496962Y283839D01*
X496964Y283841D01*
X496988Y283865D01*
X497014Y283887D01*
X497043Y283905D01*
X497069Y283920D01*
X497095Y283935D01*
X497121Y283946D01*
X497171Y283961D01*
X497193Y283968D01*
X497215Y283972D01*
X497232Y283975D01*
X497250Y283977D01*
X497263Y283979D01*
X497280D01*
X497319Y283977D01*
X497356Y283970D01*
X497391Y283964D01*
X497422Y283955D01*
X497448Y283944D01*
X497468Y283937D01*
X497481Y283931D01*
X497483Y283929D01*
X497485D01*
X497520Y283907D01*
X497550Y283883D01*
X497579Y283859D01*
X497601Y283833D01*
X497620Y283811D01*
X497636Y283793D01*
X497644Y283780D01*
X497646Y283778D01*
Y283818D01*
X497644Y283857D01*
X497642Y283892D01*
X497638Y283927D01*
X497636Y283957D01*
X497631Y283985D01*
X497627Y284012D01*
X497620Y284035D01*
X497616Y284057D01*
X497612Y284075D01*
X497607Y284090D01*
X497605Y284103D01*
X497601Y284112D01*
X497598Y284118D01*
X497596Y284123D01*
Y284125D01*
X497574Y284169D01*
X497553Y284208D01*
X497529Y284238D01*
X497507Y284264D01*
X497487Y284286D01*
X497472Y284301D01*
X497461Y284310D01*
X497457Y284312D01*
X497431Y284330D01*
X497404Y284341D01*
X497378Y284349D01*
X497352Y284356D01*
X497332Y284360D01*
X497315Y284363D01*
X497300D01*
X497261Y284358D01*
X497224Y284349D01*
X497193Y284336D01*
X497165Y284323D01*
X497143Y284308D01*
X497127Y284295D01*
X497119Y284286D01*
X497115Y284282D01*
X497099Y284262D01*
X497084Y284238D01*
X497071Y284212D01*
X497062Y284186D01*
X497053Y284162D01*
X497047Y284142D01*
X497045Y284129D01*
X497043Y284127D01*
Y284125D01*
X496857Y284140D01*
X496870Y284201D01*
X496890Y284256D01*
X496912Y284304D01*
X496936Y284343D01*
X496960Y284373D01*
X496968Y284386D01*
X496979Y284397D01*
X496986Y284404D01*
X496992Y284411D01*
X496995Y284413D01*
X496997Y284415D01*
X497018Y284432D01*
X497043Y284448D01*
X497090Y284474D01*
X497138Y284491D01*
X497184Y284502D01*
X497226Y284511D01*
X497243Y284513D01*
X497258D01*
X497271Y284515D01*
X497289D01*
X497332Y284513D01*
D02*
G37*
G36*
X499861Y284530D02*
X499931Y284520D01*
X499992Y284506D01*
X500020Y284498D01*
X500047Y284489D01*
X500070Y284480D01*
X500092Y284472D01*
X500110Y284465D01*
X500127Y284458D01*
X500138Y284452D01*
X500147Y284448D01*
X500153Y284445D01*
X500156Y284443D01*
X500214Y284406D01*
X500265Y284363D01*
X500308Y284319D01*
X500345Y284275D01*
X500374Y284236D01*
X500385Y284219D01*
X500393Y284203D01*
X500402Y284192D01*
X500406Y284184D01*
X500408Y284177D01*
X500411Y284175D01*
X500441Y284107D01*
X500463Y284038D01*
X500478Y283968D01*
X500489Y283905D01*
X500493Y283876D01*
X500496Y283848D01*
X500498Y283826D01*
Y283804D01*
X500500Y283789D01*
Y283776D01*
Y283767D01*
Y283765D01*
X500496Y283687D01*
X500487Y283610D01*
X500476Y283543D01*
X500467Y283510D01*
X500461Y283482D01*
X500454Y283456D01*
X500446Y283432D01*
X500439Y283410D01*
X500435Y283392D01*
X500428Y283379D01*
X500426Y283368D01*
X500421Y283362D01*
Y283360D01*
X500389Y283294D01*
X500352Y283235D01*
X500313Y283185D01*
X500293Y283166D01*
X500276Y283146D01*
X500258Y283129D01*
X500241Y283113D01*
X500225Y283100D01*
X500212Y283092D01*
X500204Y283083D01*
X500195Y283076D01*
X500190Y283074D01*
X500188Y283072D01*
X500158Y283054D01*
X500127Y283039D01*
X500062Y283015D01*
X499996Y282998D01*
X499933Y282987D01*
X499903Y282983D01*
X499876Y282978D01*
X499853Y282976D01*
X499833D01*
X499816Y282974D01*
X499791D01*
X499748Y282976D01*
X499707Y282980D01*
X499667Y282985D01*
X499630Y282994D01*
X499595Y283004D01*
X499563Y283015D01*
X499532Y283026D01*
X499504Y283039D01*
X499480Y283050D01*
X499456Y283061D01*
X499438Y283072D01*
X499421Y283083D01*
X499410Y283092D01*
X499399Y283096D01*
X499395Y283100D01*
X499393Y283102D01*
X499362Y283129D01*
X499336Y283155D01*
X499312Y283185D01*
X499288Y283216D01*
X499249Y283277D01*
X499218Y283338D01*
X499205Y283366D01*
X499194Y283392D01*
X499186Y283416D01*
X499179Y283436D01*
X499172Y283453D01*
X499168Y283467D01*
X499166Y283475D01*
Y283477D01*
X499366Y283528D01*
X499375Y283493D01*
X499386Y283460D01*
X499397Y283430D01*
X499408Y283401D01*
X499421Y283375D01*
X499434Y283353D01*
X499449Y283331D01*
X499462Y283312D01*
X499473Y283294D01*
X499486Y283281D01*
X499497Y283268D01*
X499506Y283257D01*
X499515Y283251D01*
X499521Y283244D01*
X499523Y283242D01*
X499525Y283240D01*
X499547Y283222D01*
X499571Y283209D01*
X499619Y283185D01*
X499665Y283168D01*
X499711Y283157D01*
X499750Y283148D01*
X499765Y283146D01*
X499781D01*
X499794Y283144D01*
X499809D01*
X499859Y283146D01*
X499907Y283155D01*
X499951Y283166D01*
X499990Y283179D01*
X500020Y283192D01*
X500034Y283198D01*
X500044Y283203D01*
X500053Y283207D01*
X500060Y283211D01*
X500064Y283214D01*
X500066D01*
X500108Y283244D01*
X500142Y283277D01*
X500173Y283314D01*
X500197Y283349D01*
X500217Y283379D01*
X500230Y283405D01*
X500234Y283416D01*
X500238Y283423D01*
X500241Y283427D01*
Y283430D01*
X500258Y283486D01*
X500271Y283543D01*
X500282Y283599D01*
X500288Y283652D01*
X500291Y283676D01*
X500293Y283698D01*
Y283717D01*
X500295Y283733D01*
Y283746D01*
Y283756D01*
Y283763D01*
Y283765D01*
X500293Y283822D01*
X500288Y283874D01*
X500280Y283922D01*
X500271Y283966D01*
X500265Y284003D01*
X500260Y284018D01*
X500256Y284031D01*
X500254Y284042D01*
X500251Y284049D01*
X500249Y284053D01*
Y284055D01*
X500227Y284105D01*
X500204Y284151D01*
X500177Y284188D01*
X500149Y284221D01*
X500125Y284247D01*
X500105Y284264D01*
X500090Y284275D01*
X500088Y284280D01*
X500086D01*
X500040Y284308D01*
X499990Y284330D01*
X499942Y284345D01*
X499896Y284354D01*
X499855Y284360D01*
X499837Y284363D01*
X499822D01*
X499811Y284365D01*
X499794D01*
X499739Y284363D01*
X499689Y284354D01*
X499648Y284341D01*
X499611Y284328D01*
X499582Y284312D01*
X499560Y284301D01*
X499547Y284293D01*
X499543Y284288D01*
X499508Y284256D01*
X499475Y284219D01*
X499449Y284179D01*
X499427Y284140D01*
X499410Y284105D01*
X499403Y284088D01*
X499399Y284075D01*
X499395Y284064D01*
X499390Y284055D01*
X499388Y284051D01*
Y284049D01*
X499192Y284094D01*
X499205Y284134D01*
X499218Y284169D01*
X499236Y284201D01*
X499251Y284234D01*
X499268Y284262D01*
X499288Y284288D01*
X499305Y284314D01*
X499323Y284336D01*
X499340Y284354D01*
X499356Y284371D01*
X499371Y284386D01*
X499382Y284397D01*
X499393Y284408D01*
X499401Y284415D01*
X499406Y284417D01*
X499408Y284419D01*
X499438Y284439D01*
X499469Y284458D01*
X499499Y284474D01*
X499532Y284487D01*
X499598Y284506D01*
X499656Y284520D01*
X499685Y284526D01*
X499709Y284528D01*
X499733Y284530D01*
X499752Y284532D01*
X499767Y284535D01*
X499789D01*
X499861Y284530D01*
D02*
G37*
%LPC*%
G36*
X344159Y259799D02*
X343659D01*
Y259324D01*
X343661Y259265D01*
X343670Y259215D01*
X343681Y259172D01*
X343694Y259139D01*
X343707Y259111D01*
X343718Y259093D01*
X343727Y259082D01*
X343729Y259078D01*
X343757Y259052D01*
X343786Y259032D01*
X343816Y259019D01*
X343842Y259008D01*
X343869Y259004D01*
X343888Y259002D01*
X343901Y258999D01*
X343903D01*
X343906D01*
X343932Y259002D01*
X343958Y259006D01*
X343980Y259013D01*
X343999Y259019D01*
X344017Y259028D01*
X344030Y259034D01*
X344039Y259039D01*
X344041Y259041D01*
X344063Y259056D01*
X344082Y259076D01*
X344097Y259095D01*
X344111Y259115D01*
X344119Y259132D01*
X344126Y259145D01*
X344130Y259154D01*
X344132Y259158D01*
X344141Y259189D01*
X344148Y259224D01*
X344152Y259259D01*
X344154Y259294D01*
X344156Y259324D01*
X344159Y259350D01*
Y259799D01*
D02*
G37*
G36*
X523659Y290299D02*
X523159D01*
Y289824D01*
X523162Y289765D01*
X523170Y289715D01*
X523181Y289672D01*
X523194Y289639D01*
X523207Y289611D01*
X523218Y289593D01*
X523227Y289582D01*
X523229Y289578D01*
X523257Y289552D01*
X523286Y289532D01*
X523316Y289519D01*
X523342Y289508D01*
X523369Y289504D01*
X523388Y289502D01*
X523401Y289499D01*
X523404D01*
X523406D01*
X523432Y289502D01*
X523458Y289506D01*
X523480Y289512D01*
X523499Y289519D01*
X523517Y289528D01*
X523530Y289534D01*
X523539Y289539D01*
X523541Y289541D01*
X523563Y289556D01*
X523582Y289576D01*
X523597Y289595D01*
X523611Y289615D01*
X523619Y289632D01*
X523626Y289645D01*
X523630Y289654D01*
X523632Y289658D01*
X523641Y289689D01*
X523648Y289724D01*
X523652Y289759D01*
X523654Y289794D01*
X523656Y289824D01*
X523659Y289850D01*
Y290299D01*
D02*
G37*
G36*
X497330Y283815D02*
X497317D01*
X497271Y283811D01*
X497230Y283800D01*
X497195Y283787D01*
X497165Y283769D01*
X497141Y283752D01*
X497123Y283739D01*
X497112Y283728D01*
X497108Y283724D01*
X497080Y283687D01*
X497058Y283647D01*
X497043Y283606D01*
X497034Y283567D01*
X497027Y283532D01*
X497025Y283517D01*
Y283504D01*
X497023Y283493D01*
Y283484D01*
Y283480D01*
Y283477D01*
X497027Y283419D01*
X497036Y283368D01*
X497049Y283325D01*
X497064Y283288D01*
X497082Y283259D01*
X497095Y283238D01*
X497104Y283225D01*
X497108Y283222D01*
Y283220D01*
X497123Y283203D01*
X497141Y283190D01*
X497176Y283166D01*
X497210Y283150D01*
X497241Y283137D01*
X497269Y283131D01*
X497291Y283129D01*
X497300Y283126D01*
X497311D01*
X497341Y283129D01*
X497369Y283133D01*
X497396Y283142D01*
X497417Y283150D01*
X497437Y283157D01*
X497452Y283166D01*
X497461Y283170D01*
X497465Y283172D01*
X497492Y283192D01*
X497513Y283211D01*
X497533Y283235D01*
X497548Y283255D01*
X497561Y283275D01*
X497570Y283290D01*
X497577Y283301D01*
X497579Y283305D01*
X497592Y283338D01*
X497601Y283371D01*
X497609Y283401D01*
X497614Y283430D01*
X497616Y283453D01*
X497618Y283473D01*
Y283484D01*
Y283488D01*
X497614Y283541D01*
X497605Y283586D01*
X497590Y283628D01*
X497574Y283661D01*
X497559Y283689D01*
X497544Y283709D01*
X497535Y283719D01*
X497531Y283724D01*
X497496Y283754D01*
X497461Y283776D01*
X497424Y283793D01*
X497391Y283804D01*
X497361Y283811D01*
X497339Y283813D01*
X497330Y283815D01*
D02*
G37*
%LPD*%
M02*
