G04*
G04 #@! TF.GenerationSoftware,Altium Limited,Altium Designer,23.1.1 (15)*
G04*
G04 Layer_Color=65535*
%FSLAX25Y25*%
%MOIN*%
G70*
G04*
G04 #@! TF.SameCoordinates,379D8D2B-01B5-4923-9211-1CC0BA53C839*
G04*
G04*
G04 #@! TF.FilePolarity,Positive*
G04*
G01*
G75*
%ADD10C,0.00394*%
%ADD11C,0.00787*%
%ADD12C,0.00591*%
%ADD13C,0.00500*%
%ADD14C,0.00492*%
G36*
X437887Y294873D02*
X438081D01*
Y294808D01*
X438275D01*
Y294679D01*
X437629D01*
Y294744D01*
X437500D01*
Y294873D01*
X437565D01*
Y294937D01*
X437887D01*
Y294873D01*
D02*
G37*
G36*
X438921Y294485D02*
X438792D01*
Y294550D01*
X438921D01*
Y294485D01*
D02*
G37*
G36*
X426650Y295390D02*
X426715D01*
Y295260D01*
X426650D01*
Y295131D01*
X426585D01*
Y295067D01*
X426456D01*
Y295002D01*
X426392D01*
Y294808D01*
X426456D01*
Y294744D01*
X427360D01*
Y294679D01*
X427554D01*
Y294615D01*
X427683D01*
Y294550D01*
X427812D01*
Y294485D01*
X427942D01*
Y294421D01*
X428071D01*
Y294356D01*
X428135D01*
Y294292D01*
X428200D01*
Y294227D01*
X428265D01*
Y294163D01*
X428394D01*
Y294098D01*
X428458D01*
Y294033D01*
X428523D01*
Y293969D01*
X428587D01*
Y293904D01*
X428717D01*
Y293840D01*
X428781D01*
Y293775D01*
X428846D01*
Y293646D01*
X428910D01*
Y293452D01*
X428846D01*
Y293129D01*
X428781D01*
Y293065D01*
X428846D01*
Y292677D01*
X428910D01*
Y292483D01*
X428975D01*
Y292354D01*
X428910D01*
Y292225D01*
X428652D01*
Y292354D01*
X428587D01*
Y292483D01*
X428523D01*
Y292548D01*
X428458D01*
Y292613D01*
X428394D01*
Y292677D01*
X428329D01*
Y292742D01*
X428265D01*
Y293000D01*
X428329D01*
Y293258D01*
X428394D01*
Y293323D01*
X428329D01*
Y293452D01*
X428265D01*
Y293517D01*
X428071D01*
Y293452D01*
X427942D01*
Y293388D01*
X427812D01*
Y293323D01*
X427683D01*
Y293258D01*
X427554D01*
Y293194D01*
X427425D01*
Y293129D01*
X427296D01*
Y293065D01*
X427102D01*
Y293000D01*
X426844D01*
Y292935D01*
X426715D01*
Y292871D01*
X426585D01*
Y292806D01*
X426198D01*
Y292935D01*
X426133D01*
Y293000D01*
X426198D01*
Y293065D01*
X426263D01*
Y293129D01*
X426327D01*
Y293194D01*
X426456D01*
Y293258D01*
X426650D01*
Y293323D01*
X426779D01*
Y293388D01*
X426908D01*
Y293452D01*
X427167D01*
Y293517D01*
X427296D01*
Y293581D01*
X427425D01*
Y293646D01*
X427490D01*
Y293710D01*
X427554D01*
Y293775D01*
X427619D01*
Y293840D01*
X427554D01*
Y293904D01*
X427490D01*
Y293969D01*
X427037D01*
Y293904D01*
X426844D01*
Y293840D01*
X426650D01*
Y293775D01*
X426521D01*
Y293710D01*
X426392D01*
Y293646D01*
X426263D01*
Y293581D01*
X426133D01*
Y293517D01*
X426069D01*
Y293452D01*
X426004D01*
Y293388D01*
X425940D01*
Y293323D01*
X425875D01*
Y293258D01*
X425810D01*
Y293194D01*
X425746D01*
Y293129D01*
X425681D01*
Y293065D01*
X425617D01*
Y292806D01*
X425681D01*
Y292742D01*
X425746D01*
Y292677D01*
X425940D01*
Y292613D01*
X427360D01*
Y292548D01*
X427425D01*
Y292483D01*
X427490D01*
Y292354D01*
X427425D01*
Y292290D01*
X427360D01*
Y292225D01*
X426650D01*
Y292160D01*
X425940D01*
Y292225D01*
X425617D01*
Y292290D01*
X425423D01*
Y292354D01*
X425294D01*
Y292419D01*
X425229D01*
Y292483D01*
X425165D01*
Y292548D01*
X425100D01*
Y292613D01*
X425035D01*
Y292742D01*
X424971D01*
Y292806D01*
X424906D01*
Y292935D01*
X424842D01*
Y293323D01*
X424906D01*
Y293452D01*
X424971D01*
Y293517D01*
X425035D01*
Y293646D01*
X425100D01*
Y293775D01*
X425165D01*
Y294098D01*
X425035D01*
Y294163D01*
X424842D01*
Y294098D01*
X424454D01*
Y294227D01*
X424390D01*
Y294421D01*
X424454D01*
Y294550D01*
X424519D01*
Y294615D01*
X424583D01*
Y294679D01*
X424648D01*
Y294744D01*
X424713D01*
Y294808D01*
X424777D01*
Y294873D01*
X424971D01*
Y294937D01*
X425100D01*
Y295002D01*
X425229D01*
Y295067D01*
X425294D01*
Y295131D01*
X425423D01*
Y295196D01*
X425617D01*
Y295260D01*
X425746D01*
Y295325D01*
X426327D01*
Y295390D01*
X426456D01*
Y295454D01*
X426650D01*
Y295390D01*
D02*
G37*
G36*
X428910Y295971D02*
X429815D01*
Y295906D01*
X429879D01*
Y295842D01*
X429944D01*
Y295777D01*
X430008D01*
Y295648D01*
X430073D01*
Y295583D01*
X430137D01*
Y295390D01*
X430202D01*
Y295196D01*
X430267D01*
Y295131D01*
X430331D01*
Y295067D01*
X430396D01*
Y295002D01*
X430460D01*
Y294873D01*
X430525D01*
Y294808D01*
X430590D01*
Y294744D01*
X430654D01*
Y294615D01*
X430719D01*
Y294550D01*
X430783D01*
Y294485D01*
X430848D01*
Y294421D01*
X430912D01*
Y294356D01*
X430977D01*
Y294227D01*
X431042D01*
Y294163D01*
X431106D01*
Y294098D01*
X431171D01*
Y294033D01*
X431235D01*
Y293969D01*
X431300D01*
Y293904D01*
X431365D01*
Y293840D01*
X431494D01*
Y293775D01*
X431623D01*
Y293710D01*
X431817D01*
Y293646D01*
X432140D01*
Y293710D01*
X432850D01*
Y293775D01*
X432915D01*
Y293840D01*
X432979D01*
Y293904D01*
X433044D01*
Y293969D01*
X433108D01*
Y294033D01*
X433238D01*
Y294098D01*
X433302D01*
Y294163D01*
X433431D01*
Y294227D01*
X433625D01*
Y294292D01*
X433754D01*
Y294356D01*
X433883D01*
Y294421D01*
X434077D01*
Y294485D01*
X434335D01*
Y294550D01*
X434529D01*
Y294615D01*
X434658D01*
Y294679D01*
X434917D01*
Y294744D01*
X435175D01*
Y294808D01*
X435369D01*
Y294873D01*
X435498D01*
Y294937D01*
X435627D01*
Y295002D01*
X435692D01*
Y295067D01*
X435821D01*
Y295131D01*
X436015D01*
Y295196D01*
X436402D01*
Y295131D01*
X436596D01*
Y295067D01*
X436660D01*
Y295002D01*
X436725D01*
Y294937D01*
X436790D01*
Y294744D01*
X436854D01*
Y294679D01*
X436919D01*
Y294550D01*
X436983D01*
Y294227D01*
X436919D01*
Y294163D01*
X436854D01*
Y294098D01*
X436725D01*
Y294033D01*
X436596D01*
Y293969D01*
X436402D01*
Y293904D01*
X436208D01*
Y293840D01*
X436015D01*
Y293775D01*
X435950D01*
Y293710D01*
X435885D01*
Y293646D01*
X435756D01*
Y293581D01*
X435563D01*
Y293517D01*
X435498D01*
Y293452D01*
X435369D01*
Y293388D01*
X435304D01*
Y293323D01*
X435175D01*
Y293258D01*
X435110D01*
Y293194D01*
X435046D01*
Y293129D01*
X434981D01*
Y293065D01*
X434852D01*
Y293000D01*
X434788D01*
Y292935D01*
X434723D01*
Y292871D01*
X434658D01*
Y292806D01*
X434594D01*
Y292677D01*
X434529D01*
Y292613D01*
X434465D01*
Y292548D01*
X434400D01*
Y292483D01*
X434335D01*
Y292419D01*
X434271D01*
Y292290D01*
X434206D01*
Y292225D01*
X434142D01*
Y292160D01*
X434077D01*
Y292031D01*
X434013D01*
Y291967D01*
X433948D01*
Y291902D01*
X433883D01*
Y291838D01*
X433819D01*
Y291773D01*
X433754D01*
Y291708D01*
X433690D01*
Y291644D01*
X433496D01*
Y291708D01*
X433431D01*
Y291967D01*
X433496D01*
Y292096D01*
X433560D01*
Y292160D01*
X433625D01*
Y292225D01*
X433690D01*
Y292290D01*
X433754D01*
Y292354D01*
X433819D01*
Y292419D01*
X433883D01*
Y292548D01*
X433948D01*
Y292613D01*
X434013D01*
Y292677D01*
X434077D01*
Y292742D01*
X434142D01*
Y292806D01*
X434206D01*
Y292871D01*
X434271D01*
Y293000D01*
X434400D01*
Y293065D01*
X434465D01*
Y293129D01*
X434529D01*
Y293194D01*
X434594D01*
Y293323D01*
X434723D01*
Y293388D01*
X434852D01*
Y293452D01*
X434917D01*
Y293517D01*
X434981D01*
Y293581D01*
X435046D01*
Y293646D01*
X435175D01*
Y293710D01*
X435304D01*
Y293775D01*
X435369D01*
Y293840D01*
X435433D01*
Y293904D01*
X435563D01*
Y293969D01*
X435692D01*
Y294033D01*
X435821D01*
Y294098D01*
X435950D01*
Y294163D01*
X436144D01*
Y294227D01*
X436273D01*
Y294292D01*
X436338D01*
Y294356D01*
X436402D01*
Y294679D01*
X436338D01*
Y294744D01*
X436273D01*
Y294808D01*
X436079D01*
Y294873D01*
X436015D01*
Y294808D01*
X435950D01*
Y294744D01*
X435885D01*
Y294615D01*
X435821D01*
Y294550D01*
X435627D01*
Y294485D01*
X435433D01*
Y294421D01*
X434852D01*
Y294356D01*
X434658D01*
Y294292D01*
X434465D01*
Y294227D01*
X434271D01*
Y294163D01*
X434077D01*
Y294098D01*
X433883D01*
Y294033D01*
X433754D01*
Y293969D01*
X433690D01*
Y293904D01*
X433560D01*
Y293840D01*
X433431D01*
Y293775D01*
X433302D01*
Y293710D01*
X433238D01*
Y293581D01*
X433173D01*
Y293517D01*
X433108D01*
Y293388D01*
X433044D01*
Y293323D01*
X432979D01*
Y293258D01*
X432656D01*
Y293323D01*
X432398D01*
Y293258D01*
X432269D01*
Y293194D01*
X432204D01*
Y293129D01*
X432075D01*
Y293065D01*
X431881D01*
Y293000D01*
X431687D01*
Y292935D01*
X431623D01*
Y292871D01*
X431429D01*
Y292806D01*
X431300D01*
Y292871D01*
X431171D01*
Y292935D01*
X431106D01*
Y293000D01*
X431042D01*
Y293129D01*
X430977D01*
Y293323D01*
X430912D01*
Y293452D01*
X430848D01*
Y293581D01*
X430783D01*
Y293775D01*
X430719D01*
Y293904D01*
X430654D01*
Y294033D01*
X430590D01*
Y294098D01*
X430525D01*
Y294163D01*
X430460D01*
Y294292D01*
X430396D01*
Y294356D01*
X430331D01*
Y294421D01*
X430267D01*
Y294485D01*
X430202D01*
Y294615D01*
X430137D01*
Y294679D01*
X430073D01*
Y295002D01*
X430137D01*
Y295196D01*
X430008D01*
Y295260D01*
X429879D01*
Y295325D01*
X429750D01*
Y295390D01*
X429685D01*
Y295454D01*
X429492D01*
Y295519D01*
X429298D01*
Y295583D01*
X429104D01*
Y295648D01*
X428523D01*
Y295712D01*
X428006D01*
Y295648D01*
X427877D01*
Y295583D01*
X427812D01*
Y295519D01*
X427683D01*
Y295454D01*
X427619D01*
Y295390D01*
X427554D01*
Y295325D01*
X427490D01*
Y295260D01*
X427167D01*
Y295583D01*
X427231D01*
Y295648D01*
X427296D01*
Y295777D01*
X427425D01*
Y295842D01*
X427490D01*
Y295906D01*
X427683D01*
Y295971D01*
X428200D01*
Y296035D01*
X428910D01*
Y295971D01*
D02*
G37*
G36*
X428781Y289771D02*
X429040D01*
Y289706D01*
X429233D01*
Y289448D01*
X429169D01*
Y289383D01*
X429104D01*
Y289319D01*
X428910D01*
Y289254D01*
X428717D01*
Y289190D01*
X428587D01*
Y289125D01*
X428394D01*
Y289060D01*
X428135D01*
Y288996D01*
X427877D01*
Y288931D01*
X427812D01*
Y288867D01*
X427619D01*
Y288802D01*
X427231D01*
Y288867D01*
X427102D01*
Y289190D01*
X427167D01*
Y289254D01*
X427231D01*
Y289319D01*
X427360D01*
Y289383D01*
X427554D01*
Y289448D01*
X427683D01*
Y289512D01*
X427812D01*
Y289577D01*
X427942D01*
Y289642D01*
X428135D01*
Y289706D01*
X428265D01*
Y289771D01*
X428394D01*
Y289835D01*
X428781D01*
Y289771D01*
D02*
G37*
G36*
X429362Y290933D02*
X429556D01*
Y290869D01*
X429621D01*
Y290804D01*
X429685D01*
Y290740D01*
X429750D01*
Y290675D01*
X429815D01*
Y290610D01*
X429879D01*
Y290481D01*
X429944D01*
Y290417D01*
X430008D01*
Y290287D01*
X430073D01*
Y290158D01*
X430137D01*
Y290029D01*
X430202D01*
Y289900D01*
X430267D01*
Y289771D01*
X430331D01*
Y289577D01*
X430396D01*
Y289319D01*
X430460D01*
Y288802D01*
X430396D01*
Y288544D01*
X430331D01*
Y288350D01*
X430267D01*
Y288285D01*
X430202D01*
Y288156D01*
X430137D01*
Y288092D01*
X430073D01*
Y288027D01*
X430008D01*
Y287963D01*
X429944D01*
Y287898D01*
X429815D01*
Y287833D01*
X429685D01*
Y287769D01*
X429621D01*
Y287833D01*
X429556D01*
Y287898D01*
X429492D01*
Y288027D01*
X429556D01*
Y288156D01*
X429621D01*
Y288221D01*
X429685D01*
Y288350D01*
X429750D01*
Y288415D01*
X429815D01*
Y288544D01*
X429879D01*
Y288608D01*
X429944D01*
Y288738D01*
X430008D01*
Y289319D01*
X429944D01*
Y289512D01*
X429879D01*
Y289577D01*
X429815D01*
Y289642D01*
X429621D01*
Y289706D01*
X429556D01*
Y289965D01*
X429621D01*
Y290094D01*
X429556D01*
Y290223D01*
X429492D01*
Y290287D01*
X429427D01*
Y290352D01*
X428652D01*
Y290287D01*
X428006D01*
Y290223D01*
X427748D01*
Y290158D01*
X427619D01*
Y290094D01*
X427490D01*
Y290029D01*
X427425D01*
Y289965D01*
X427296D01*
Y289900D01*
X427231D01*
Y289835D01*
X427167D01*
Y289771D01*
X427102D01*
Y289706D01*
X426973D01*
Y289642D01*
X426908D01*
Y289577D01*
X426779D01*
Y289512D01*
X426715D01*
Y289448D01*
X426585D01*
Y289383D01*
X426521D01*
Y289319D01*
X426456D01*
Y289190D01*
X426392D01*
Y289125D01*
X426327D01*
Y288996D01*
X426263D01*
Y288738D01*
X426198D01*
Y288608D01*
X426263D01*
Y288415D01*
X426327D01*
Y288350D01*
X426392D01*
Y288285D01*
X426456D01*
Y288221D01*
X426521D01*
Y288156D01*
X426585D01*
Y288092D01*
X426715D01*
Y288027D01*
X426844D01*
Y287963D01*
X426973D01*
Y287898D01*
X427037D01*
Y287833D01*
X427167D01*
Y287769D01*
X427360D01*
Y287704D01*
X427748D01*
Y287640D01*
X428006D01*
Y287575D01*
X428265D01*
Y287510D01*
X428652D01*
Y287575D01*
X429298D01*
Y287510D01*
X429362D01*
Y287252D01*
X429298D01*
Y287188D01*
X429233D01*
Y287123D01*
X428975D01*
Y287058D01*
X428265D01*
Y287123D01*
X427942D01*
Y287188D01*
X427554D01*
Y287252D01*
X427360D01*
Y287317D01*
X427102D01*
Y287381D01*
X426973D01*
Y287446D01*
X426844D01*
Y287510D01*
X426715D01*
Y287575D01*
X426650D01*
Y287640D01*
X426521D01*
Y287704D01*
X426456D01*
Y287769D01*
X426327D01*
Y287833D01*
X426263D01*
Y287898D01*
X426198D01*
Y287963D01*
X426133D01*
Y288027D01*
X426069D01*
Y288092D01*
X426004D01*
Y288221D01*
X425940D01*
Y288415D01*
X425875D01*
Y289190D01*
X425940D01*
Y289319D01*
X426004D01*
Y289448D01*
X426069D01*
Y289512D01*
X426133D01*
Y289577D01*
X426198D01*
Y289706D01*
X426263D01*
Y289771D01*
X426327D01*
Y289835D01*
X426392D01*
Y289900D01*
X426521D01*
Y289965D01*
X426585D01*
Y290029D01*
X426715D01*
Y290094D01*
X426779D01*
Y290158D01*
X426844D01*
Y290223D01*
X426908D01*
Y290287D01*
X426973D01*
Y290352D01*
X427102D01*
Y290417D01*
X427231D01*
Y290481D01*
X427360D01*
Y290546D01*
X427490D01*
Y290610D01*
X427619D01*
Y290675D01*
X427812D01*
Y290740D01*
X428329D01*
Y290804D01*
X428846D01*
Y290869D01*
X428975D01*
Y290933D01*
X429169D01*
Y290998D01*
X429362D01*
Y290933D01*
D02*
G37*
G36*
X439050Y294421D02*
X439373D01*
Y294356D01*
X439502D01*
Y294292D01*
X439567D01*
Y294227D01*
X439631D01*
Y294163D01*
X439696D01*
Y294098D01*
X439890D01*
Y294033D01*
X440019D01*
Y293969D01*
X440083D01*
Y293904D01*
X440148D01*
Y293840D01*
X440212D01*
Y293517D01*
X440148D01*
Y293452D01*
X440083D01*
Y293388D01*
X439954D01*
Y293323D01*
X439825D01*
Y293258D01*
X439760D01*
Y293194D01*
X439631D01*
Y293129D01*
X439502D01*
Y293065D01*
X439179D01*
Y293000D01*
X439050D01*
Y292935D01*
X438921D01*
Y292871D01*
X438792D01*
Y292806D01*
X438662D01*
Y292742D01*
X438598D01*
Y292677D01*
X438469D01*
Y292613D01*
X438404D01*
Y292548D01*
X438275D01*
Y292483D01*
X438146D01*
Y292419D01*
X438081D01*
Y292354D01*
X438017D01*
Y292290D01*
X437952D01*
Y292225D01*
X437823D01*
Y292160D01*
X437758D01*
Y292096D01*
X437629D01*
Y292031D01*
X437565D01*
Y291967D01*
X437500D01*
Y291902D01*
X437435D01*
Y291838D01*
X437371D01*
Y291773D01*
X437306D01*
Y291644D01*
X437242D01*
Y291579D01*
X437177D01*
Y291515D01*
X437113D01*
Y291450D01*
X437048D01*
Y291385D01*
X436919D01*
Y291321D01*
X436854D01*
Y291192D01*
X436790D01*
Y291127D01*
X436725D01*
Y291062D01*
X436660D01*
Y290998D01*
X436596D01*
Y290933D01*
X436531D01*
Y290869D01*
X436402D01*
Y290740D01*
X436338D01*
Y290675D01*
X436273D01*
Y290610D01*
X436208D01*
Y290546D01*
X436079D01*
Y290481D01*
X436015D01*
Y290094D01*
X436079D01*
Y289965D01*
X436015D01*
Y289835D01*
X435950D01*
Y289771D01*
X435885D01*
Y289706D01*
X435756D01*
Y289642D01*
X435692D01*
Y289577D01*
X435627D01*
Y289512D01*
X435563D01*
Y289448D01*
X435498D01*
Y289383D01*
X435433D01*
Y289319D01*
X435369D01*
Y289254D01*
X435304D01*
Y289190D01*
X435240D01*
Y289125D01*
X435175D01*
Y289060D01*
X435110D01*
Y288996D01*
X435046D01*
Y288867D01*
X434981D01*
Y288802D01*
X434917D01*
Y288738D01*
X434852D01*
Y288673D01*
X434788D01*
Y288608D01*
X434723D01*
Y288544D01*
X434658D01*
Y288479D01*
X434594D01*
Y288415D01*
X434529D01*
Y288350D01*
X434465D01*
Y288285D01*
X434400D01*
Y288156D01*
X434335D01*
Y288092D01*
X434206D01*
Y288027D01*
X434142D01*
Y287963D01*
X434077D01*
Y287898D01*
X434013D01*
Y287769D01*
X433948D01*
Y287640D01*
X433883D01*
Y287510D01*
X433819D01*
Y287446D01*
X433754D01*
Y287381D01*
X433690D01*
Y287252D01*
X433625D01*
Y287188D01*
X433560D01*
Y287123D01*
X433431D01*
Y286994D01*
X433367D01*
Y286929D01*
X433302D01*
Y286865D01*
X433238D01*
Y286800D01*
X433173D01*
Y286735D01*
X433108D01*
Y286671D01*
X433044D01*
Y286606D01*
X432979D01*
Y286542D01*
X432915D01*
Y286477D01*
X432850D01*
Y286413D01*
X432785D01*
Y286348D01*
X432721D01*
Y286283D01*
X432656D01*
Y286154D01*
X432592D01*
Y286090D01*
X432527D01*
Y286025D01*
X432463D01*
Y285960D01*
X432398D01*
Y285896D01*
X432333D01*
Y285831D01*
X432204D01*
Y285767D01*
X431946D01*
Y285831D01*
X431881D01*
Y285896D01*
X431752D01*
Y285960D01*
X431687D01*
Y286025D01*
X431623D01*
Y286090D01*
X431558D01*
Y286154D01*
X431494D01*
Y286219D01*
X431429D01*
Y286283D01*
X431365D01*
Y286219D01*
X431235D01*
Y285960D01*
X431300D01*
Y285702D01*
X431365D01*
Y285121D01*
X431429D01*
Y284862D01*
X431365D01*
Y284733D01*
X431300D01*
Y284604D01*
X431235D01*
Y284346D01*
X431171D01*
Y284217D01*
X431106D01*
Y284087D01*
X431042D01*
Y283958D01*
X430977D01*
Y283894D01*
X430912D01*
Y283829D01*
X430848D01*
Y283765D01*
X430783D01*
Y283700D01*
X430719D01*
Y283635D01*
X430654D01*
Y283571D01*
X430525D01*
Y283506D01*
X430460D01*
Y283442D01*
X430331D01*
Y283377D01*
X430267D01*
Y283313D01*
X430202D01*
Y283248D01*
X430073D01*
Y283183D01*
X429362D01*
Y283119D01*
X429298D01*
Y283054D01*
X429169D01*
Y282990D01*
X429104D01*
Y282925D01*
X429040D01*
Y282860D01*
X428975D01*
Y282796D01*
X428910D01*
Y282731D01*
X428846D01*
Y282602D01*
X428781D01*
Y282538D01*
X428652D01*
Y282408D01*
X428587D01*
Y282344D01*
X428523D01*
Y282279D01*
X428458D01*
Y282215D01*
X428394D01*
Y282085D01*
X428329D01*
Y282021D01*
X428265D01*
Y281633D01*
X428329D01*
Y281310D01*
X428265D01*
Y280794D01*
X428200D01*
Y280600D01*
X428135D01*
Y280471D01*
X428071D01*
Y280277D01*
X428006D01*
Y280212D01*
X427942D01*
Y280083D01*
X427877D01*
Y279954D01*
X427812D01*
Y279825D01*
X427748D01*
Y279631D01*
X427683D01*
Y279437D01*
X427619D01*
Y279308D01*
X427554D01*
Y279179D01*
X427490D01*
Y278985D01*
X427425D01*
Y278792D01*
X427360D01*
Y278662D01*
X427296D01*
Y278469D01*
X427231D01*
Y278340D01*
X427167D01*
Y278210D01*
X427102D01*
Y278146D01*
X427037D01*
Y278017D01*
X426973D01*
Y277888D01*
X426908D01*
Y277758D01*
X426844D01*
Y277694D01*
X426779D01*
Y277629D01*
X426715D01*
Y277500D01*
X426650D01*
Y277435D01*
X426585D01*
Y277371D01*
X426521D01*
Y277306D01*
X426456D01*
Y277242D01*
X426392D01*
Y277177D01*
X426327D01*
Y277048D01*
X426263D01*
Y276919D01*
X426198D01*
Y276790D01*
X426133D01*
Y276660D01*
X426069D01*
Y276596D01*
X426004D01*
Y276531D01*
X425552D01*
Y276402D01*
X425488D01*
Y275885D01*
X425552D01*
Y275563D01*
X425617D01*
Y275369D01*
X425681D01*
Y275304D01*
X425746D01*
Y275175D01*
X425810D01*
Y275046D01*
X425875D01*
Y274981D01*
X425940D01*
Y274852D01*
X426004D01*
Y274787D01*
X426069D01*
Y274658D01*
X426133D01*
Y274335D01*
X426198D01*
Y274142D01*
X426263D01*
Y273948D01*
X426327D01*
Y273754D01*
X426392D01*
Y272398D01*
X426327D01*
Y272140D01*
X426392D01*
Y271688D01*
X426327D01*
Y271558D01*
X426263D01*
Y271429D01*
X426327D01*
Y271300D01*
X426392D01*
Y271042D01*
X426327D01*
Y270913D01*
X426263D01*
Y270848D01*
X426198D01*
Y270719D01*
X426133D01*
Y270590D01*
X426069D01*
Y270525D01*
X426004D01*
Y270396D01*
X425940D01*
Y270331D01*
X425875D01*
Y270267D01*
X425810D01*
Y270138D01*
X425746D01*
Y270073D01*
X425681D01*
Y270008D01*
X425552D01*
Y269944D01*
X425488D01*
Y269879D01*
X425358D01*
Y269815D01*
X424713D01*
Y269879D01*
X424648D01*
Y269944D01*
X424583D01*
Y270008D01*
X424519D01*
Y270073D01*
X424454D01*
Y270138D01*
X424390D01*
Y270202D01*
X424325D01*
Y270267D01*
X424260D01*
Y270525D01*
X424196D01*
Y270848D01*
X424131D01*
Y271300D01*
X424196D01*
Y271817D01*
X424131D01*
Y271946D01*
X424196D01*
Y272075D01*
X424260D01*
Y272269D01*
X424325D01*
Y272463D01*
X424260D01*
Y272656D01*
X424196D01*
Y272785D01*
X424131D01*
Y272915D01*
X424067D01*
Y273044D01*
X424002D01*
Y273173D01*
X423938D01*
Y273367D01*
X423873D01*
Y273496D01*
X423808D01*
Y273625D01*
X423744D01*
Y273948D01*
X424002D01*
Y273883D01*
X424067D01*
Y273754D01*
X424131D01*
Y273625D01*
X424196D01*
Y273496D01*
X424260D01*
Y273431D01*
X424325D01*
Y273367D01*
X424390D01*
Y273237D01*
X424454D01*
Y273173D01*
X424519D01*
Y273044D01*
X424583D01*
Y272915D01*
X424648D01*
Y272785D01*
X424713D01*
Y272592D01*
X424777D01*
Y272527D01*
X424842D01*
Y272398D01*
X424906D01*
Y272204D01*
X424842D01*
Y272075D01*
X424777D01*
Y272010D01*
X424713D01*
Y271881D01*
X424648D01*
Y271300D01*
X424583D01*
Y271235D01*
X424519D01*
Y271106D01*
X424454D01*
Y270977D01*
X424390D01*
Y270783D01*
X424454D01*
Y270654D01*
X424519D01*
Y270590D01*
X424583D01*
Y270460D01*
X424648D01*
Y270331D01*
X424713D01*
Y270267D01*
X424842D01*
Y270202D01*
X424906D01*
Y270267D01*
X425100D01*
Y270331D01*
X425165D01*
Y270396D01*
X425229D01*
Y270460D01*
X425294D01*
Y270525D01*
X425423D01*
Y270590D01*
X425488D01*
Y270654D01*
X425552D01*
Y270719D01*
X425617D01*
Y270783D01*
X425681D01*
Y270848D01*
X425746D01*
Y270913D01*
X425810D01*
Y270977D01*
X425875D01*
Y271106D01*
X425940D01*
Y271235D01*
X426004D01*
Y271494D01*
X426069D01*
Y271817D01*
X426133D01*
Y272075D01*
X426198D01*
Y272463D01*
X426133D01*
Y272850D01*
X426069D01*
Y273044D01*
X426004D01*
Y273302D01*
X425940D01*
Y273754D01*
X425875D01*
Y273883D01*
X425810D01*
Y274012D01*
X425746D01*
Y274077D01*
X425681D01*
Y274206D01*
X425617D01*
Y274335D01*
X425552D01*
Y274529D01*
X425488D01*
Y274594D01*
X425423D01*
Y274787D01*
X425358D01*
Y274917D01*
X425294D01*
Y275046D01*
X425229D01*
Y275175D01*
X425165D01*
Y275369D01*
X425100D01*
Y275885D01*
X425035D01*
Y276402D01*
X425100D01*
Y276660D01*
X425165D01*
Y276725D01*
X425229D01*
Y276790D01*
X425552D01*
Y276854D01*
X425617D01*
Y277048D01*
X425681D01*
Y277177D01*
X425746D01*
Y277306D01*
X425810D01*
Y277435D01*
X425875D01*
Y277500D01*
X425940D01*
Y277629D01*
X426004D01*
Y277694D01*
X426069D01*
Y277823D01*
X426133D01*
Y277888D01*
X426198D01*
Y278017D01*
X426263D01*
Y278081D01*
X426327D01*
Y278146D01*
X426392D01*
Y278210D01*
X426456D01*
Y278275D01*
X426521D01*
Y278340D01*
X426585D01*
Y278404D01*
X426650D01*
Y278469D01*
X426715D01*
Y278598D01*
X426779D01*
Y278662D01*
X426844D01*
Y278792D01*
X426908D01*
Y278856D01*
X426973D01*
Y278985D01*
X427037D01*
Y279050D01*
X427102D01*
Y280212D01*
X427037D01*
Y280471D01*
X427102D01*
Y280988D01*
Y281052D01*
Y281117D01*
X427167D01*
Y281504D01*
X427231D01*
Y281698D01*
X427296D01*
Y281827D01*
X427360D01*
Y281892D01*
X427425D01*
Y282021D01*
X427490D01*
Y282085D01*
X427554D01*
Y282215D01*
X427619D01*
Y282279D01*
X427683D01*
Y282408D01*
X427748D01*
Y282538D01*
X427812D01*
Y282731D01*
X427877D01*
Y282796D01*
X427942D01*
Y282860D01*
X428329D01*
Y282925D01*
X428458D01*
Y282990D01*
X428523D01*
Y283054D01*
X428587D01*
Y283119D01*
X428652D01*
Y283183D01*
X428717D01*
Y283248D01*
X428781D01*
Y283377D01*
X428717D01*
Y283571D01*
X428652D01*
Y283700D01*
X428717D01*
Y283829D01*
X428846D01*
Y283894D01*
X428975D01*
Y283958D01*
X429104D01*
Y284023D01*
X429169D01*
Y284087D01*
X429233D01*
Y284152D01*
X429298D01*
Y284217D01*
X429362D01*
Y284346D01*
X429427D01*
Y284410D01*
X429492D01*
Y284540D01*
X429556D01*
Y284604D01*
X429685D01*
Y284669D01*
X429944D01*
Y284604D01*
X430008D01*
Y284410D01*
X429944D01*
Y284281D01*
X429879D01*
Y284217D01*
X429815D01*
Y284152D01*
X429750D01*
Y284087D01*
X429685D01*
Y283958D01*
X429621D01*
Y283894D01*
X429556D01*
Y283765D01*
X429621D01*
Y283700D01*
X429685D01*
Y283635D01*
X429944D01*
Y283700D01*
X430137D01*
Y283765D01*
X430202D01*
Y283829D01*
X430267D01*
Y283894D01*
X430331D01*
Y284023D01*
X430396D01*
Y284087D01*
X430460D01*
Y284152D01*
X430525D01*
Y284217D01*
X430590D01*
Y284281D01*
X430654D01*
Y284410D01*
X430719D01*
Y284540D01*
X430783D01*
Y284733D01*
X430848D01*
Y285121D01*
X430912D01*
Y285767D01*
X430848D01*
Y286477D01*
X430912D01*
Y286671D01*
X430977D01*
Y286865D01*
X431042D01*
Y286994D01*
X431365D01*
Y286865D01*
X431429D01*
Y286800D01*
X431494D01*
Y286735D01*
X431558D01*
Y286606D01*
X431623D01*
Y286542D01*
X431881D01*
Y286606D01*
X431946D01*
Y286735D01*
X431881D01*
Y286929D01*
X431817D01*
Y287123D01*
X431752D01*
Y287381D01*
X431687D01*
Y287640D01*
X431623D01*
Y287898D01*
X431558D01*
Y288156D01*
X431494D01*
Y288415D01*
X431429D01*
Y288608D01*
X431365D01*
Y288802D01*
X431300D01*
Y288867D01*
X431235D01*
Y288996D01*
X431171D01*
Y289512D01*
X431235D01*
Y289835D01*
X431300D01*
Y291321D01*
X431235D01*
Y291450D01*
X431171D01*
Y291838D01*
X431300D01*
Y291773D01*
X431429D01*
Y291644D01*
X431494D01*
Y291515D01*
X431558D01*
Y291256D01*
X431623D01*
Y290869D01*
X431687D01*
Y290675D01*
X431752D01*
Y289512D01*
X431687D01*
Y289254D01*
X431623D01*
Y288931D01*
X431687D01*
Y288738D01*
X431752D01*
Y288608D01*
X431817D01*
Y288221D01*
X431881D01*
Y287963D01*
X431946D01*
Y287640D01*
X432010D01*
Y287510D01*
X432075D01*
Y287446D01*
X432140D01*
Y287252D01*
X432204D01*
Y287123D01*
X432269D01*
Y287058D01*
X432333D01*
Y286994D01*
X432527D01*
Y287058D01*
X432592D01*
Y287123D01*
X432656D01*
Y287188D01*
X432721D01*
Y287252D01*
X432785D01*
Y287317D01*
X432850D01*
Y287446D01*
X432915D01*
Y287510D01*
X432979D01*
Y287575D01*
X433044D01*
Y287640D01*
X433108D01*
Y287704D01*
X433173D01*
Y287769D01*
X433238D01*
Y287833D01*
X433302D01*
Y287898D01*
X433367D01*
Y287963D01*
X433431D01*
Y288092D01*
X433496D01*
Y288156D01*
X433560D01*
Y288285D01*
X433625D01*
Y288350D01*
X433690D01*
Y288479D01*
X433754D01*
Y288608D01*
X433819D01*
Y288673D01*
X433883D01*
Y288738D01*
X433948D01*
Y288802D01*
X434013D01*
Y288931D01*
X434077D01*
Y288996D01*
X434206D01*
Y289060D01*
X434400D01*
Y289125D01*
X434529D01*
Y289190D01*
X434658D01*
Y289319D01*
X434723D01*
Y289835D01*
X434788D01*
Y289900D01*
X434852D01*
Y289965D01*
X434917D01*
Y290029D01*
X434981D01*
Y290094D01*
X435046D01*
Y290158D01*
X435110D01*
Y290223D01*
X435240D01*
Y290287D01*
X435304D01*
Y290352D01*
X435369D01*
Y290417D01*
X435433D01*
Y290481D01*
X435498D01*
Y290546D01*
X435563D01*
Y290610D01*
X435627D01*
Y290675D01*
X435692D01*
Y290740D01*
X435756D01*
Y290804D01*
X435821D01*
Y290869D01*
X435885D01*
Y290933D01*
X435950D01*
Y290998D01*
X436015D01*
Y291062D01*
X436079D01*
Y291127D01*
X436144D01*
Y291192D01*
X436208D01*
Y291256D01*
X436273D01*
Y291321D01*
X436338D01*
Y291385D01*
X436402D01*
Y291515D01*
X436467D01*
Y291579D01*
X436531D01*
Y291644D01*
X436596D01*
Y291708D01*
X436660D01*
Y291773D01*
X436725D01*
Y291838D01*
X436790D01*
Y291902D01*
X436854D01*
Y291967D01*
X436919D01*
Y292031D01*
X436983D01*
Y292160D01*
X437048D01*
Y292225D01*
X437113D01*
Y292290D01*
X437177D01*
Y292354D01*
X437242D01*
Y292419D01*
X437306D01*
Y292483D01*
X437371D01*
Y292548D01*
X437435D01*
Y292613D01*
X437565D01*
Y292677D01*
X437629D01*
Y292742D01*
X437758D01*
Y292806D01*
X437887D01*
Y292871D01*
X438017D01*
Y292935D01*
X438081D01*
Y293000D01*
X438210D01*
Y293065D01*
X438340D01*
Y293129D01*
X438469D01*
Y293194D01*
X438533D01*
Y293258D01*
X438662D01*
Y293323D01*
X438792D01*
Y293388D01*
X438921D01*
Y293452D01*
X439050D01*
Y293517D01*
X439179D01*
Y293581D01*
X439373D01*
Y293646D01*
X439567D01*
Y293710D01*
X439631D01*
Y293840D01*
X439696D01*
Y293904D01*
X439631D01*
Y294033D01*
X439567D01*
Y294098D01*
X439437D01*
Y294163D01*
X439244D01*
Y294227D01*
X439179D01*
Y294292D01*
X439115D01*
Y294356D01*
X439050D01*
Y294421D01*
X438985D01*
Y294485D01*
X439050D01*
Y294421D01*
D02*
G37*
G36*
X423421Y294550D02*
X423485D01*
Y294485D01*
X423550D01*
Y294227D01*
X423485D01*
Y294163D01*
X423292D01*
Y294098D01*
X422969D01*
Y294033D01*
X422710D01*
Y293969D01*
X422388D01*
Y293904D01*
X422129D01*
Y293840D01*
X421871D01*
Y293775D01*
X421742D01*
Y293710D01*
X421677D01*
Y293646D01*
X421548D01*
Y293581D01*
X421419D01*
Y293517D01*
X421290D01*
Y293452D01*
X421160D01*
Y293388D01*
X421031D01*
Y293323D01*
X420967D01*
Y293258D01*
X420902D01*
Y293129D01*
X420837D01*
Y293000D01*
X420902D01*
Y292935D01*
X420967D01*
Y292871D01*
X421031D01*
Y292806D01*
X421096D01*
Y292742D01*
X421160D01*
Y292677D01*
X421225D01*
Y292613D01*
X421354D01*
Y292548D01*
X421483D01*
Y292483D01*
X421613D01*
Y292419D01*
X421677D01*
Y292354D01*
X421742D01*
Y292290D01*
X421806D01*
Y292225D01*
X421935D01*
Y292160D01*
X422000D01*
Y292096D01*
X422065D01*
Y292031D01*
X422194D01*
Y291967D01*
X422258D01*
Y291902D01*
X422323D01*
Y291838D01*
X422452D01*
Y291773D01*
X422581D01*
Y291708D01*
X422646D01*
Y291644D01*
X422710D01*
Y291579D01*
X422775D01*
Y291515D01*
X422840D01*
Y291385D01*
X422904D01*
Y291321D01*
X422969D01*
Y291256D01*
X423033D01*
Y291127D01*
X423098D01*
Y290998D01*
X423163D01*
Y290933D01*
X423227D01*
Y290869D01*
X423356D01*
Y290804D01*
X423421D01*
Y290740D01*
X423485D01*
Y290610D01*
X423550D01*
Y290223D01*
X423615D01*
Y289771D01*
X423679D01*
Y289642D01*
X423744D01*
Y289448D01*
X423808D01*
Y289190D01*
X423873D01*
Y288931D01*
X423938D01*
Y288802D01*
X424002D01*
Y288608D01*
X424067D01*
Y288479D01*
X424131D01*
Y288221D01*
X424196D01*
Y288092D01*
X424260D01*
Y287963D01*
X424325D01*
Y287769D01*
X424390D01*
Y287640D01*
X424454D01*
Y287446D01*
X424519D01*
Y287317D01*
X424583D01*
Y287188D01*
X424648D01*
Y287123D01*
X424713D01*
Y286671D01*
X424648D01*
Y286477D01*
X424583D01*
Y286348D01*
X424519D01*
Y286219D01*
X424454D01*
Y286090D01*
X424390D01*
Y285831D01*
X424325D01*
Y285573D01*
X424260D01*
Y285379D01*
X424196D01*
Y285185D01*
X424131D01*
Y284669D01*
X424067D01*
Y284346D01*
X424002D01*
Y284087D01*
X423938D01*
Y283829D01*
X423873D01*
Y283506D01*
X423938D01*
Y283442D01*
X424196D01*
Y283506D01*
X424325D01*
Y283571D01*
X424454D01*
Y283635D01*
X424583D01*
Y283700D01*
X424713D01*
Y283765D01*
X424842D01*
Y283829D01*
X424971D01*
Y283894D01*
X425100D01*
Y283958D01*
X425229D01*
Y284023D01*
X425358D01*
Y284087D01*
X425423D01*
Y284152D01*
X425552D01*
Y284217D01*
X425681D01*
Y284281D01*
X425746D01*
Y284346D01*
X425810D01*
Y284410D01*
X425875D01*
Y284475D01*
X425940D01*
Y284540D01*
X426004D01*
Y284604D01*
X426069D01*
Y284669D01*
X426198D01*
Y284733D01*
X426263D01*
Y284798D01*
X426392D01*
Y284862D01*
X426456D01*
Y284992D01*
X426521D01*
Y285056D01*
X426585D01*
Y285121D01*
X426650D01*
Y285185D01*
X426715D01*
Y285250D01*
X426779D01*
Y285315D01*
X426844D01*
Y285379D01*
X426908D01*
Y285444D01*
X426973D01*
Y285508D01*
X427037D01*
Y285637D01*
X427102D01*
Y285702D01*
X427167D01*
Y285831D01*
X427231D01*
Y285960D01*
X427296D01*
Y286090D01*
X427360D01*
Y286154D01*
X427490D01*
Y286090D01*
X427554D01*
Y286025D01*
X427619D01*
Y285960D01*
X427683D01*
Y285831D01*
X427748D01*
Y285767D01*
X427812D01*
Y285702D01*
X427877D01*
Y285637D01*
X427942D01*
Y285573D01*
X428006D01*
Y285508D01*
X428135D01*
Y285444D01*
X428200D01*
Y285315D01*
X428265D01*
Y285250D01*
X428329D01*
Y285121D01*
X428394D01*
Y284992D01*
X428458D01*
Y284862D01*
X428523D01*
Y284604D01*
X428458D01*
Y284410D01*
X428394D01*
Y284346D01*
X428329D01*
Y284281D01*
X428265D01*
Y284217D01*
X428200D01*
Y284281D01*
X428135D01*
Y284733D01*
X428071D01*
Y284862D01*
X428006D01*
Y284992D01*
X427877D01*
Y285056D01*
X427812D01*
Y285121D01*
X427748D01*
Y285185D01*
X427683D01*
Y285250D01*
X427425D01*
Y285185D01*
X427360D01*
Y285121D01*
X427296D01*
Y285056D01*
X427231D01*
Y284992D01*
X427167D01*
Y284927D01*
X427102D01*
Y284798D01*
X427037D01*
Y284733D01*
X426973D01*
Y284669D01*
X426908D01*
Y284604D01*
X426844D01*
Y284540D01*
X426779D01*
Y284475D01*
X426715D01*
Y284410D01*
X426650D01*
Y284346D01*
X426521D01*
Y284281D01*
X426456D01*
Y284217D01*
X426392D01*
Y284152D01*
X426327D01*
Y284087D01*
X426263D01*
Y284023D01*
X426133D01*
Y283958D01*
X426069D01*
Y283894D01*
X425940D01*
Y283829D01*
X425810D01*
Y283765D01*
X425746D01*
Y283700D01*
X425681D01*
Y283635D01*
X425552D01*
Y283571D01*
X425423D01*
Y283506D01*
X425358D01*
Y283442D01*
X425229D01*
Y283377D01*
X425100D01*
Y283313D01*
X424971D01*
Y283248D01*
X424842D01*
Y283183D01*
X424713D01*
Y283119D01*
X424583D01*
Y283054D01*
X424454D01*
Y282990D01*
X424325D01*
Y282925D01*
X424131D01*
Y282860D01*
X423938D01*
Y282796D01*
X423679D01*
Y282860D01*
X423550D01*
Y282925D01*
X423485D01*
Y283054D01*
X423421D01*
Y283248D01*
X423356D01*
Y283442D01*
X423292D01*
Y283700D01*
X423356D01*
Y284023D01*
X423421D01*
Y284410D01*
X423485D01*
Y284862D01*
X423550D01*
Y285121D01*
X423615D01*
Y285444D01*
X423679D01*
Y285702D01*
X423744D01*
Y285960D01*
X423808D01*
Y286154D01*
X423873D01*
Y286413D01*
X423938D01*
Y286606D01*
X424002D01*
Y286800D01*
X424067D01*
Y286994D01*
X424002D01*
Y287188D01*
X423938D01*
Y287317D01*
X423873D01*
Y287510D01*
X423808D01*
Y287640D01*
X423744D01*
Y287898D01*
X423679D01*
Y288092D01*
X423615D01*
Y288221D01*
X423550D01*
Y288350D01*
X423485D01*
Y288608D01*
X423421D01*
Y288802D01*
X423356D01*
Y288867D01*
X423292D01*
Y289771D01*
X423227D01*
Y290675D01*
X423163D01*
Y290740D01*
X423098D01*
Y290804D01*
X422840D01*
Y290869D01*
X422775D01*
Y290933D01*
X422710D01*
Y290998D01*
X422646D01*
Y291127D01*
X422581D01*
Y291192D01*
X422517D01*
Y291256D01*
X422452D01*
Y291321D01*
X422323D01*
Y291385D01*
X422258D01*
Y291450D01*
X422194D01*
Y291515D01*
X422065D01*
Y291579D01*
X421935D01*
Y291644D01*
X421871D01*
Y291708D01*
X421806D01*
Y291773D01*
X421742D01*
Y291838D01*
X421677D01*
Y291902D01*
X421613D01*
Y291967D01*
X421483D01*
Y292031D01*
X421419D01*
Y292096D01*
X421354D01*
Y292160D01*
X421290D01*
Y292225D01*
X421225D01*
Y292290D01*
X421096D01*
Y292354D01*
X421031D01*
Y292419D01*
X420967D01*
Y292483D01*
X420902D01*
Y292548D01*
X420773D01*
Y292613D01*
X420708D01*
Y292677D01*
X420579D01*
Y292742D01*
X420515D01*
Y292806D01*
X420450D01*
Y292871D01*
X420385D01*
Y292935D01*
X420321D01*
Y293065D01*
X420256D01*
Y293129D01*
X420192D01*
Y293194D01*
X420127D01*
Y293388D01*
X420192D01*
Y293452D01*
X420256D01*
Y293517D01*
X420450D01*
Y293581D01*
X420579D01*
Y293646D01*
X420708D01*
Y293710D01*
X420773D01*
Y293775D01*
X420837D01*
Y293840D01*
X420902D01*
Y293904D01*
X421031D01*
Y293969D01*
X421160D01*
Y294033D01*
X421225D01*
Y294098D01*
X421354D01*
Y294163D01*
X421613D01*
Y294227D01*
X421871D01*
Y294292D01*
X422129D01*
Y294356D01*
X422323D01*
Y294421D01*
X422452D01*
Y294485D01*
X423098D01*
Y294550D01*
X423292D01*
Y294615D01*
X423421D01*
Y294550D01*
D02*
G37*
G36*
X419287Y278921D02*
X419481D01*
Y278856D01*
X419546D01*
Y278792D01*
X419675D01*
Y278727D01*
X419740D01*
Y278662D01*
X419804D01*
Y278598D01*
X419869D01*
Y278533D01*
X419933D01*
Y278469D01*
X419998D01*
Y278404D01*
X420062D01*
Y278340D01*
X420127D01*
Y278275D01*
X420192D01*
Y278081D01*
X420127D01*
Y278017D01*
X419998D01*
Y277952D01*
X419933D01*
Y278017D01*
X419740D01*
Y278081D01*
X419675D01*
Y278210D01*
X419610D01*
Y278275D01*
X419546D01*
Y278340D01*
X419481D01*
Y278404D01*
X419417D01*
Y278469D01*
X419352D01*
Y278533D01*
X419287D01*
Y278598D01*
X419223D01*
Y278727D01*
X419158D01*
Y278985D01*
X419287D01*
Y278921D01*
D02*
G37*
G36*
X423292Y288350D02*
X423356D01*
Y288092D01*
X423292D01*
Y287963D01*
X423227D01*
Y287898D01*
X423163D01*
Y287769D01*
X423098D01*
Y287640D01*
X423033D01*
Y287575D01*
X422969D01*
Y287446D01*
X422904D01*
Y287381D01*
X422840D01*
Y287317D01*
X422775D01*
Y287252D01*
X422710D01*
Y287188D01*
X422646D01*
Y287123D01*
X422581D01*
Y287058D01*
X422517D01*
Y286994D01*
X422452D01*
Y286865D01*
X422388D01*
Y286800D01*
X422323D01*
Y286735D01*
X422258D01*
Y286606D01*
X422194D01*
Y286542D01*
X422129D01*
Y286477D01*
X422065D01*
Y286413D01*
X422000D01*
Y286348D01*
X421935D01*
Y286219D01*
X421871D01*
Y286154D01*
X421806D01*
Y286090D01*
X421742D01*
Y286025D01*
X421677D01*
Y285896D01*
X421613D01*
Y285831D01*
X421548D01*
Y285767D01*
X421483D01*
Y285702D01*
X421419D01*
Y285637D01*
X421354D01*
Y285573D01*
X421290D01*
Y285508D01*
X421225D01*
Y285444D01*
X421160D01*
Y285379D01*
X421096D01*
Y285315D01*
X421031D01*
Y285250D01*
X420967D01*
Y285185D01*
X420902D01*
Y285121D01*
X420837D01*
Y285056D01*
X420773D01*
Y284992D01*
X420708D01*
Y284927D01*
X420579D01*
Y284862D01*
X420515D01*
Y284798D01*
X420450D01*
Y284733D01*
X420385D01*
Y284669D01*
X420321D01*
Y284540D01*
X420256D01*
Y284475D01*
X420192D01*
Y284346D01*
X420127D01*
Y284281D01*
X420062D01*
Y284217D01*
X419998D01*
Y284152D01*
X419933D01*
Y284087D01*
X419869D01*
Y283958D01*
X419804D01*
Y283894D01*
X419740D01*
Y283829D01*
X419675D01*
Y283765D01*
X419610D01*
Y283700D01*
X419546D01*
Y283635D01*
X419481D01*
Y283571D01*
X419417D01*
Y283506D01*
X419352D01*
Y283442D01*
X419287D01*
Y283313D01*
X419223D01*
Y283248D01*
X419158D01*
Y283183D01*
X419094D01*
Y283119D01*
X419029D01*
Y283054D01*
X418965D01*
Y282990D01*
X418900D01*
Y282925D01*
X418835D01*
Y282860D01*
X418771D01*
Y282796D01*
X418706D01*
Y282731D01*
X418642D01*
Y282602D01*
X418577D01*
Y282538D01*
X418512D01*
Y282473D01*
X418448D01*
Y282344D01*
X418383D01*
Y282279D01*
X418254D01*
Y282215D01*
X418125D01*
Y282150D01*
X417996D01*
Y282085D01*
X417802D01*
Y282021D01*
X417737D01*
Y281956D01*
X417608D01*
Y281892D01*
X417544D01*
Y281827D01*
X417479D01*
Y281698D01*
X417415D01*
Y281569D01*
X417350D01*
Y281504D01*
X417285D01*
Y281375D01*
X417221D01*
Y281246D01*
X417156D01*
Y281181D01*
X417092D01*
Y281052D01*
X417027D01*
Y280923D01*
X416962D01*
Y280858D01*
X416898D01*
Y280729D01*
X416833D01*
Y280600D01*
X416769D01*
Y280471D01*
X416704D01*
Y280406D01*
X416640D01*
Y280277D01*
X416575D01*
Y280212D01*
X416510D01*
Y280148D01*
X416446D01*
Y280019D01*
X416381D01*
Y279954D01*
X416317D01*
Y279890D01*
X416252D01*
Y279825D01*
X416187D01*
Y279696D01*
X416123D01*
Y279631D01*
X416058D01*
Y279502D01*
X415994D01*
Y279373D01*
X415929D01*
Y279308D01*
X415865D01*
Y279244D01*
X415800D01*
Y279115D01*
X415735D01*
Y278985D01*
X415671D01*
Y278921D01*
X415606D01*
Y278792D01*
X415542D01*
Y278662D01*
X415477D01*
Y278533D01*
X415413D01*
Y278404D01*
X415348D01*
Y278275D01*
X415283D01*
Y278146D01*
X415219D01*
Y277952D01*
X415154D01*
Y277694D01*
X415025D01*
Y277758D01*
X414896D01*
Y277888D01*
X414831D01*
Y278081D01*
X414896D01*
Y278210D01*
X414960D01*
Y278340D01*
X415025D01*
Y278469D01*
X415090D01*
Y278662D01*
X415154D01*
Y278792D01*
X415219D01*
Y278985D01*
X415283D01*
Y279115D01*
X415348D01*
Y279179D01*
X415413D01*
Y279308D01*
X415477D01*
Y279373D01*
X415542D01*
Y279502D01*
X415606D01*
Y279631D01*
X415671D01*
Y279696D01*
X415735D01*
Y279760D01*
X415800D01*
Y279890D01*
X415865D01*
Y279954D01*
X415929D01*
Y280019D01*
X415994D01*
Y280148D01*
X416058D01*
Y280212D01*
X416123D01*
Y280342D01*
X416187D01*
Y280471D01*
X416252D01*
Y280600D01*
X416317D01*
Y280665D01*
X416381D01*
Y280794D01*
X416446D01*
Y280923D01*
X416510D01*
Y281117D01*
X416575D01*
Y281246D01*
X416640D01*
Y281310D01*
X416704D01*
Y281440D01*
X416769D01*
Y281633D01*
X416833D01*
Y281763D01*
X416898D01*
Y281827D01*
X416962D01*
Y281956D01*
X417027D01*
Y282085D01*
X417092D01*
Y282215D01*
X417156D01*
Y282279D01*
X417285D01*
Y282344D01*
X417415D01*
Y282408D01*
X417479D01*
Y282473D01*
X417608D01*
Y282538D01*
X417673D01*
Y282602D01*
X417802D01*
Y282667D01*
X417867D01*
Y282731D01*
X417931D01*
Y282796D01*
X417996D01*
Y282860D01*
X418125D01*
Y282925D01*
X418254D01*
Y282990D01*
X418319D01*
Y283054D01*
X418383D01*
Y283183D01*
X418448D01*
Y283248D01*
X418512D01*
Y283313D01*
X418577D01*
Y283377D01*
X418706D01*
Y283442D01*
X418771D01*
Y283506D01*
X418835D01*
Y283635D01*
X418900D01*
Y283700D01*
X419029D01*
Y283765D01*
X419094D01*
Y283829D01*
X419158D01*
Y283958D01*
X419223D01*
Y284087D01*
X419287D01*
Y284152D01*
X419352D01*
Y284217D01*
X419481D01*
Y284281D01*
X419546D01*
Y284346D01*
X419610D01*
Y284475D01*
X419675D01*
Y284540D01*
X419740D01*
Y284669D01*
X419804D01*
Y284733D01*
X419869D01*
Y284862D01*
X419933D01*
Y284927D01*
X419998D01*
Y284992D01*
X420127D01*
Y285056D01*
X420192D01*
Y285121D01*
X420256D01*
Y285185D01*
X420321D01*
Y285250D01*
X420385D01*
Y285315D01*
X420450D01*
Y285379D01*
X420515D01*
Y285444D01*
X420644D01*
Y285508D01*
X420708D01*
Y285573D01*
X420773D01*
Y285702D01*
X420837D01*
Y285767D01*
X420902D01*
Y285831D01*
X420967D01*
Y285896D01*
X421031D01*
Y286025D01*
X421096D01*
Y286090D01*
X421160D01*
Y286154D01*
X421225D01*
Y286219D01*
X421290D01*
Y286283D01*
X421354D01*
Y286348D01*
X421419D01*
Y286413D01*
X421483D01*
Y286542D01*
X421548D01*
Y286606D01*
X421613D01*
Y286671D01*
X421677D01*
Y286735D01*
X421742D01*
Y286800D01*
X421806D01*
Y286865D01*
X421871D01*
Y286994D01*
X421935D01*
Y287058D01*
X422000D01*
Y287188D01*
X422065D01*
Y287252D01*
X422129D01*
Y287317D01*
X422194D01*
Y287381D01*
X422258D01*
Y287446D01*
X422323D01*
Y287510D01*
X422388D01*
Y287575D01*
X422452D01*
Y287640D01*
X422517D01*
Y287704D01*
X422581D01*
Y287833D01*
X422646D01*
Y287963D01*
X422710D01*
Y288027D01*
X422775D01*
Y288092D01*
X422840D01*
Y288156D01*
X422904D01*
Y288285D01*
X422969D01*
Y288350D01*
X423033D01*
Y288415D01*
X423292D01*
Y288350D01*
D02*
G37*
G36*
X419481Y279696D02*
X419417D01*
Y279631D01*
X419352D01*
Y279567D01*
X419287D01*
Y279502D01*
X419223D01*
Y279373D01*
X419158D01*
Y279308D01*
X419094D01*
Y279244D01*
X419029D01*
Y279179D01*
X418965D01*
Y279115D01*
X418835D01*
Y279050D01*
X418771D01*
Y278985D01*
X418642D01*
Y278921D01*
X418577D01*
Y278856D01*
X418512D01*
Y278792D01*
X418383D01*
Y278662D01*
X418319D01*
Y278598D01*
X418254D01*
Y278533D01*
X418190D01*
Y278469D01*
X418060D01*
Y278404D01*
X417996D01*
Y278275D01*
X417931D01*
Y278210D01*
X417867D01*
Y278081D01*
X417802D01*
Y278017D01*
X417737D01*
Y277952D01*
X417673D01*
Y277823D01*
X417608D01*
Y277694D01*
X417479D01*
Y277629D01*
X417350D01*
Y277565D01*
X417221D01*
Y277435D01*
X417156D01*
Y277306D01*
X417092D01*
Y277242D01*
X417027D01*
Y277177D01*
X416962D01*
Y277113D01*
X416898D01*
Y276983D01*
X416833D01*
Y276790D01*
X416769D01*
Y276725D01*
X416704D01*
Y276660D01*
X416640D01*
Y276596D01*
X416575D01*
Y276531D01*
X416510D01*
Y276467D01*
X416446D01*
Y276402D01*
X416317D01*
Y276467D01*
X416252D01*
Y276919D01*
X416317D01*
Y277048D01*
X416381D01*
Y277113D01*
X416446D01*
Y277242D01*
X416510D01*
Y277306D01*
X416575D01*
Y277371D01*
X416640D01*
Y277500D01*
X416704D01*
Y277565D01*
X416769D01*
Y277694D01*
X416833D01*
Y277758D01*
X416898D01*
Y277823D01*
X416962D01*
Y277888D01*
X417027D01*
Y278017D01*
X417092D01*
Y278081D01*
X417156D01*
Y278146D01*
X417221D01*
Y278210D01*
X417285D01*
Y278275D01*
X417415D01*
Y278340D01*
X417479D01*
Y278404D01*
X417544D01*
Y278469D01*
X417608D01*
Y278598D01*
X417673D01*
Y278662D01*
X417737D01*
Y278727D01*
X417802D01*
Y278792D01*
X417867D01*
Y278856D01*
X417931D01*
Y278921D01*
X417996D01*
Y278985D01*
X418060D01*
Y279050D01*
X418125D01*
Y279115D01*
X418254D01*
Y279179D01*
X418319D01*
Y279244D01*
X418448D01*
Y279308D01*
X418512D01*
Y279373D01*
X418577D01*
Y279437D01*
X418642D01*
Y279502D01*
X418706D01*
Y279567D01*
X418771D01*
Y279631D01*
X418835D01*
Y279696D01*
X419029D01*
Y279760D01*
X419094D01*
Y279825D01*
X419158D01*
Y279890D01*
X419481D01*
Y279696D01*
D02*
G37*
G36*
X421677Y278081D02*
X421742D01*
Y278017D01*
X421806D01*
Y277952D01*
X421871D01*
Y277888D01*
X421935D01*
Y277823D01*
X422000D01*
Y277758D01*
X422258D01*
Y277694D01*
X422517D01*
Y277629D01*
X422775D01*
Y277694D01*
X423292D01*
Y277758D01*
X423615D01*
Y277694D01*
X423744D01*
Y277565D01*
X423808D01*
Y276854D01*
X423744D01*
Y276338D01*
X423679D01*
Y276144D01*
X423615D01*
Y275950D01*
X423550D01*
Y275821D01*
X423485D01*
Y275175D01*
X423550D01*
Y274917D01*
X423615D01*
Y274658D01*
X423550D01*
Y274529D01*
X423485D01*
Y274465D01*
X423356D01*
Y274529D01*
X423292D01*
Y274658D01*
X423227D01*
Y274917D01*
X423163D01*
Y275175D01*
X423098D01*
Y275304D01*
X423033D01*
Y275369D01*
X422969D01*
Y275498D01*
X422904D01*
Y276015D01*
X422969D01*
Y276144D01*
X422904D01*
Y276273D01*
X422969D01*
Y276467D01*
X423033D01*
Y276531D01*
X423098D01*
Y276596D01*
X423163D01*
Y276790D01*
X423033D01*
Y276725D01*
X422969D01*
Y276660D01*
X422904D01*
Y276531D01*
X422840D01*
Y276467D01*
X422775D01*
Y276402D01*
X422646D01*
Y276338D01*
X422581D01*
Y276273D01*
X422517D01*
Y276144D01*
X422452D01*
Y276079D01*
X422388D01*
Y276015D01*
X422323D01*
Y275950D01*
X422194D01*
Y275885D01*
X422065D01*
Y275821D01*
X422000D01*
Y275756D01*
X421871D01*
Y275692D01*
X421806D01*
Y275627D01*
X421677D01*
Y275563D01*
X421613D01*
Y275498D01*
X421548D01*
Y275433D01*
X421290D01*
Y275498D01*
X421225D01*
Y275563D01*
X421160D01*
Y275627D01*
X421096D01*
Y275756D01*
X421031D01*
Y275821D01*
X420902D01*
Y275885D01*
X420837D01*
Y275950D01*
X420773D01*
Y276015D01*
X420708D01*
Y276079D01*
X420644D01*
Y276144D01*
X420579D01*
Y276208D01*
X420515D01*
Y276338D01*
X420450D01*
Y276402D01*
X420515D01*
Y276531D01*
X420579D01*
Y276660D01*
X420644D01*
Y276725D01*
X420708D01*
Y276790D01*
X420773D01*
Y276919D01*
X420837D01*
Y277048D01*
X420902D01*
Y277177D01*
X420967D01*
Y277500D01*
X420902D01*
Y277629D01*
X420837D01*
Y277952D01*
X421290D01*
Y278017D01*
X421419D01*
Y278081D01*
X421483D01*
Y278146D01*
X421677D01*
Y278081D01*
D02*
G37*
G36*
X415025Y277048D02*
X414960D01*
Y276919D01*
X414896D01*
Y276854D01*
X414831D01*
Y276725D01*
X414767D01*
Y276531D01*
X414702D01*
Y276402D01*
X414638D01*
Y276208D01*
X414573D01*
Y276015D01*
X414508D01*
Y275885D01*
X414444D01*
Y275756D01*
X414379D01*
Y275692D01*
X414315D01*
Y275563D01*
X414250D01*
Y275498D01*
X414185D01*
Y275433D01*
X414121D01*
Y275304D01*
X414056D01*
Y275240D01*
X413992D01*
Y275110D01*
X413927D01*
Y275046D01*
X413863D01*
Y274917D01*
X413798D01*
Y274852D01*
X413733D01*
Y274787D01*
X413669D01*
Y274658D01*
X413604D01*
Y274594D01*
X413540D01*
Y274465D01*
X413475D01*
Y274400D01*
X413410D01*
Y274335D01*
X413346D01*
Y274271D01*
X413281D01*
Y274142D01*
X413217D01*
Y274077D01*
X413152D01*
Y273948D01*
X413088D01*
Y273883D01*
X413023D01*
Y273819D01*
X412958D01*
Y273754D01*
X412894D01*
Y273690D01*
X412829D01*
Y273560D01*
X412765D01*
Y273496D01*
X412700D01*
Y273431D01*
X412635D01*
Y273367D01*
X412571D01*
Y273302D01*
X412506D01*
Y273173D01*
X412442D01*
Y273108D01*
X412377D01*
Y273044D01*
X412313D01*
Y272979D01*
X412248D01*
Y272915D01*
X412183D01*
Y272850D01*
X412119D01*
Y272785D01*
X412054D01*
Y272721D01*
X411990D01*
Y272656D01*
X411925D01*
Y272592D01*
X411796D01*
Y272527D01*
X411667D01*
Y272463D01*
X411602D01*
Y272398D01*
X411473D01*
Y272333D01*
X411344D01*
Y272269D01*
X411215D01*
Y272204D01*
X411150D01*
Y272010D01*
X411215D01*
Y271946D01*
X411279D01*
Y271881D01*
X411344D01*
Y271752D01*
X411408D01*
Y271623D01*
X411344D01*
Y271558D01*
X411279D01*
Y271494D01*
X411021D01*
Y271558D01*
X411085D01*
Y271817D01*
X411021D01*
Y272269D01*
X411085D01*
Y272527D01*
X411150D01*
Y272592D01*
X411215D01*
Y272656D01*
X411344D01*
Y272721D01*
X411473D01*
Y272785D01*
X411538D01*
Y272850D01*
X411602D01*
Y272979D01*
X411731D01*
Y273044D01*
X411860D01*
Y273108D01*
X411925D01*
Y273237D01*
X411990D01*
Y273302D01*
X412054D01*
Y273367D01*
X412119D01*
Y273431D01*
X412183D01*
Y273496D01*
X412248D01*
Y273560D01*
X412313D01*
Y273754D01*
X412377D01*
Y273883D01*
X412506D01*
Y273948D01*
X412571D01*
Y274012D01*
X412635D01*
Y274142D01*
X412700D01*
Y274271D01*
X412765D01*
Y274335D01*
X412894D01*
Y274400D01*
X412958D01*
Y274594D01*
X413023D01*
Y274723D01*
X413088D01*
Y274787D01*
X413152D01*
Y274852D01*
X413281D01*
Y274917D01*
X413346D01*
Y274981D01*
X413410D01*
Y275046D01*
X413475D01*
Y275175D01*
X413540D01*
Y275240D01*
X413604D01*
Y275304D01*
X413669D01*
Y275369D01*
X413733D01*
Y275433D01*
X413798D01*
Y275563D01*
X413863D01*
Y275627D01*
X413927D01*
Y275756D01*
X413992D01*
Y275821D01*
X414056D01*
Y275885D01*
X414121D01*
Y276079D01*
X414185D01*
Y276208D01*
X414250D01*
Y276273D01*
X414315D01*
Y276402D01*
X414379D01*
Y276660D01*
X414444D01*
Y276725D01*
X414508D01*
Y276790D01*
X414638D01*
Y277048D01*
X414702D01*
Y277242D01*
X414831D01*
Y277306D01*
X415025D01*
Y277048D01*
D02*
G37*
G36*
X410956Y271494D02*
X411021D01*
Y271365D01*
X410956D01*
Y271235D01*
X410892D01*
Y271171D01*
X410827D01*
Y271106D01*
X410698D01*
Y271042D01*
X410569D01*
Y270977D01*
X410440D01*
Y270913D01*
X410375D01*
Y270848D01*
X410117D01*
Y270977D01*
X410181D01*
Y271106D01*
X410310D01*
Y271171D01*
X410440D01*
Y271235D01*
X410504D01*
Y271300D01*
X410569D01*
Y271365D01*
X410633D01*
Y271429D01*
X410698D01*
Y271494D01*
X410892D01*
Y271558D01*
X410956D01*
Y271494D01*
D02*
G37*
G36*
X409794Y270719D02*
X409858D01*
Y270654D01*
X409794D01*
Y270590D01*
X409406D01*
Y270525D01*
X409342D01*
Y270396D01*
X409212D01*
Y270331D01*
X409019D01*
Y270396D01*
Y270460D01*
Y270525D01*
X409083D01*
Y270590D01*
X409277D01*
Y270654D01*
X409471D01*
Y270719D01*
X409535D01*
Y270783D01*
X409794D01*
Y270719D01*
D02*
G37*
G36*
X415606Y274787D02*
X415542D01*
Y274658D01*
X415477D01*
Y274529D01*
X415413D01*
Y274465D01*
X415348D01*
Y274400D01*
X415283D01*
Y274206D01*
X415219D01*
Y274077D01*
X415154D01*
Y274012D01*
X415090D01*
Y273948D01*
X415025D01*
Y273819D01*
X414960D01*
Y273625D01*
X414896D01*
Y273560D01*
X414831D01*
Y273496D01*
X414767D01*
Y273367D01*
X414702D01*
Y273237D01*
X414638D01*
Y273173D01*
X414573D01*
Y273044D01*
X414508D01*
Y272979D01*
X414444D01*
Y272850D01*
X414379D01*
Y272721D01*
X414315D01*
Y272656D01*
X414250D01*
Y272592D01*
X414185D01*
Y272527D01*
X414056D01*
Y272398D01*
X413992D01*
Y272269D01*
X413927D01*
Y272140D01*
X413798D01*
Y272075D01*
X413733D01*
Y271946D01*
X413669D01*
Y271881D01*
X413604D01*
Y271752D01*
X413540D01*
Y271688D01*
X413475D01*
Y271623D01*
X413410D01*
Y271558D01*
X413346D01*
Y271494D01*
X413281D01*
Y271365D01*
X413217D01*
Y271300D01*
X413152D01*
Y271235D01*
X413088D01*
Y271171D01*
X413023D01*
Y271042D01*
X412958D01*
Y270913D01*
X412894D01*
Y270848D01*
X412829D01*
Y270783D01*
X412765D01*
Y270719D01*
X412700D01*
Y270654D01*
X412571D01*
Y270590D01*
X412506D01*
Y270396D01*
X412442D01*
Y270331D01*
X412377D01*
Y270267D01*
X412183D01*
Y270396D01*
X412248D01*
Y270525D01*
X412377D01*
Y270590D01*
X412442D01*
Y270654D01*
X412506D01*
Y270913D01*
X412571D01*
Y271042D01*
X412635D01*
Y271106D01*
X412700D01*
Y271171D01*
X412765D01*
Y271300D01*
X412829D01*
Y271365D01*
X412894D01*
Y271429D01*
X412958D01*
Y271623D01*
X413023D01*
Y271752D01*
X413088D01*
Y271881D01*
X413152D01*
Y271946D01*
X413217D01*
Y272075D01*
X413281D01*
Y272140D01*
X413346D01*
Y272204D01*
X413410D01*
Y272269D01*
X413475D01*
Y272398D01*
X413540D01*
Y272463D01*
X413604D01*
Y272592D01*
X413669D01*
Y272656D01*
X413733D01*
Y272721D01*
X413798D01*
Y272850D01*
X413863D01*
Y272915D01*
X413927D01*
Y272979D01*
X413992D01*
Y273044D01*
X414056D01*
Y273108D01*
X414121D01*
Y273237D01*
X414185D01*
Y273302D01*
X414250D01*
Y273367D01*
X414315D01*
Y273496D01*
X414379D01*
Y273625D01*
X414444D01*
Y273690D01*
X414508D01*
Y273754D01*
X414573D01*
Y273883D01*
X414638D01*
Y273948D01*
X414702D01*
Y274012D01*
X414767D01*
Y274142D01*
X414831D01*
Y274271D01*
X414896D01*
Y274400D01*
X414960D01*
Y274465D01*
X415025D01*
Y274529D01*
X415090D01*
Y274658D01*
X415154D01*
Y274723D01*
X415219D01*
Y274852D01*
X415283D01*
Y274917D01*
X415348D01*
Y274981D01*
X415477D01*
Y275046D01*
X415606D01*
Y274787D01*
D02*
G37*
G36*
X408760Y270138D02*
X408825D01*
Y269944D01*
X408696D01*
Y269879D01*
X408502D01*
Y269685D01*
X408567D01*
Y269492D01*
X408502D01*
Y269427D01*
X408437D01*
Y269362D01*
X408373D01*
Y269298D01*
X408308D01*
Y269169D01*
X408244D01*
Y269040D01*
X408179D01*
Y268975D01*
X408115D01*
Y268910D01*
X407985D01*
Y268846D01*
X407856D01*
Y268781D01*
X407792D01*
Y268717D01*
X407727D01*
Y268652D01*
X407662D01*
Y268587D01*
X407598D01*
Y268523D01*
X407533D01*
Y268458D01*
X407469D01*
Y268394D01*
X407404D01*
Y268329D01*
X407340D01*
Y268265D01*
X407275D01*
Y268200D01*
X407146D01*
Y268135D01*
X407081D01*
Y268071D01*
X407017D01*
Y268006D01*
X406952D01*
Y267942D01*
X406823D01*
Y267877D01*
X406758D01*
Y267812D01*
X406629D01*
Y267748D01*
X406565D01*
Y267683D01*
X406500D01*
Y267619D01*
X406435D01*
Y267554D01*
X406371D01*
Y267490D01*
X406306D01*
Y267425D01*
X406242D01*
Y267360D01*
X406112D01*
Y267296D01*
X406048D01*
Y267231D01*
X405854D01*
Y267167D01*
X405596D01*
Y267102D01*
X405531D01*
Y267038D01*
X405402D01*
Y266973D01*
X405273D01*
Y266908D01*
X405079D01*
Y266844D01*
X404885D01*
Y266779D01*
X404821D01*
Y266715D01*
X404692D01*
Y266650D01*
X404563D01*
Y266585D01*
X404369D01*
Y266521D01*
X404175D01*
Y266456D01*
X403852D01*
Y266392D01*
X403723D01*
Y266327D01*
X403594D01*
Y266263D01*
X403465D01*
Y266198D01*
X403271D01*
Y266133D01*
X402948D01*
Y266069D01*
X402883D01*
Y266133D01*
X402819D01*
Y266198D01*
X402883D01*
Y266263D01*
X402948D01*
Y266327D01*
X403013D01*
Y266392D01*
X403077D01*
Y266456D01*
X403142D01*
Y266521D01*
X403206D01*
Y266585D01*
X403271D01*
Y266650D01*
X403335D01*
Y266715D01*
X403529D01*
Y266779D01*
X403658D01*
Y266844D01*
X403723D01*
Y266908D01*
X403852D01*
Y266973D01*
X404046D01*
Y267038D01*
X404175D01*
Y267102D01*
X404756D01*
Y267231D01*
X404821D01*
Y267360D01*
X404885D01*
Y267425D01*
X404950D01*
Y267490D01*
X405015D01*
Y267425D01*
X405337D01*
Y267490D01*
X405402D01*
Y267554D01*
X405467D01*
Y267619D01*
X405725D01*
Y267683D01*
X405919D01*
Y267748D01*
X405983D01*
Y267812D01*
X406112D01*
Y267877D01*
X406177D01*
Y267942D01*
X406242D01*
Y268006D01*
X406306D01*
Y268329D01*
X406242D01*
Y268523D01*
X406306D01*
Y268587D01*
X406371D01*
Y268652D01*
X406500D01*
Y268717D01*
X406565D01*
Y268781D01*
X406694D01*
Y268846D01*
X407210D01*
Y268910D01*
X407340D01*
Y268975D01*
X407404D01*
Y269040D01*
X407598D01*
Y269104D01*
X407727D01*
Y269169D01*
X407792D01*
Y269233D01*
X407856D01*
Y269427D01*
X407792D01*
Y269492D01*
X407727D01*
Y269556D01*
X407792D01*
Y269621D01*
X407856D01*
Y269492D01*
X407921D01*
Y269427D01*
X408244D01*
Y269492D01*
X408308D01*
Y269621D01*
X408244D01*
Y269685D01*
X408179D01*
Y269750D01*
X408050D01*
Y269815D01*
X408115D01*
Y269879D01*
X408179D01*
Y269944D01*
X408244D01*
Y270008D01*
X408373D01*
Y270073D01*
X408502D01*
Y270138D01*
X408631D01*
Y270202D01*
X408760D01*
Y270138D01*
D02*
G37*
G36*
X412119D02*
X412054D01*
Y270008D01*
X411990D01*
Y269944D01*
X411925D01*
Y269815D01*
X411860D01*
Y269621D01*
X411796D01*
Y269556D01*
X411731D01*
Y269492D01*
X411602D01*
Y269427D01*
X411473D01*
Y269362D01*
X411408D01*
Y269298D01*
X411344D01*
Y269233D01*
X411279D01*
Y269104D01*
X411215D01*
Y269040D01*
X411150D01*
Y268846D01*
X411085D01*
Y268781D01*
X411021D01*
Y268717D01*
X410892D01*
Y268652D01*
X410698D01*
Y268587D01*
X410569D01*
Y268523D01*
X410504D01*
Y268458D01*
X410375D01*
Y268394D01*
X410310D01*
Y268329D01*
X410246D01*
Y268265D01*
X410181D01*
Y268200D01*
X410117D01*
Y268135D01*
X410052D01*
Y268071D01*
X409987D01*
Y268006D01*
X409923D01*
Y267942D01*
X409794D01*
Y267877D01*
X409729D01*
Y267812D01*
X409665D01*
Y267748D01*
X409600D01*
Y267619D01*
X409471D01*
Y267554D01*
X409406D01*
Y267490D01*
X409342D01*
Y267425D01*
X409212D01*
Y267360D01*
X409148D01*
Y267296D01*
X409083D01*
Y267231D01*
X408954D01*
Y267167D01*
X408825D01*
Y267102D01*
X408760D01*
Y266973D01*
X408696D01*
Y266908D01*
X408502D01*
Y266844D01*
X408373D01*
Y266779D01*
X408308D01*
Y266715D01*
X408244D01*
Y266585D01*
X408179D01*
Y266392D01*
X408115D01*
Y266327D01*
X408050D01*
Y266263D01*
X407985D01*
Y266198D01*
X407727D01*
Y266263D01*
X407404D01*
Y266198D01*
X407340D01*
Y266133D01*
X407275D01*
Y266069D01*
X407210D01*
Y266004D01*
X407081D01*
Y265940D01*
X407017D01*
Y265875D01*
X406952D01*
Y265810D01*
X406887D01*
Y265746D01*
X406823D01*
Y265681D01*
X406758D01*
Y265617D01*
X406629D01*
Y265552D01*
X406565D01*
Y265488D01*
X406500D01*
Y265358D01*
X406435D01*
Y265294D01*
X406306D01*
Y265229D01*
X406177D01*
Y265165D01*
X406048D01*
Y265035D01*
X405983D01*
Y264971D01*
X405854D01*
Y264906D01*
X405725D01*
Y264842D01*
X405596D01*
Y264777D01*
X405531D01*
Y264713D01*
X405467D01*
Y264648D01*
X405402D01*
Y264583D01*
X405273D01*
Y264519D01*
X405079D01*
Y264454D01*
X404950D01*
Y264325D01*
X404627D01*
Y264260D01*
X404498D01*
Y264196D01*
X404433D01*
Y264131D01*
X404369D01*
Y264067D01*
X404304D01*
Y264002D01*
X404240D01*
Y263937D01*
X404110D01*
Y263873D01*
X403981D01*
Y263744D01*
X403917D01*
Y263679D01*
X403852D01*
Y263615D01*
X403788D01*
Y263550D01*
X403658D01*
Y263485D01*
X403594D01*
Y263421D01*
X403529D01*
Y263356D01*
X403465D01*
Y263292D01*
X403271D01*
Y263227D01*
X403013D01*
Y263162D01*
X402883D01*
Y263098D01*
X402560D01*
Y263033D01*
X402431D01*
Y262969D01*
X402367D01*
Y262840D01*
X402302D01*
Y262775D01*
X402238D01*
Y262710D01*
X402044D01*
Y262646D01*
X401850D01*
Y262581D01*
X401592D01*
Y262517D01*
X400688D01*
Y262452D01*
X399719D01*
Y262387D01*
X399654D01*
Y262452D01*
X399267D01*
Y262387D01*
X398944D01*
Y262452D01*
X398815D01*
Y262646D01*
X398879D01*
Y262710D01*
X398944D01*
Y262775D01*
X399137D01*
Y262840D01*
X400558D01*
Y262904D01*
X400752D01*
Y262969D01*
X400881D01*
Y263033D01*
X401075D01*
Y263098D01*
X401333D01*
Y263162D01*
X401527D01*
Y263227D01*
X401721D01*
Y263292D01*
X401915D01*
Y263356D01*
X401979D01*
Y263421D01*
X402108D01*
Y263485D01*
X402238D01*
Y263550D01*
X402302D01*
Y263615D01*
X402431D01*
Y263679D01*
X402625D01*
Y263744D01*
X402819D01*
Y263808D01*
X402948D01*
Y263873D01*
X403013D01*
Y263937D01*
X403142D01*
Y264002D01*
X403206D01*
Y264067D01*
X403400D01*
Y264131D01*
X403529D01*
Y264196D01*
X403658D01*
Y264260D01*
X403723D01*
Y264325D01*
X403788D01*
Y264390D01*
X403852D01*
Y264454D01*
X403917D01*
Y264519D01*
X404046D01*
Y264583D01*
X404110D01*
Y264648D01*
X404240D01*
Y264713D01*
X404304D01*
Y264777D01*
X404433D01*
Y264842D01*
X404563D01*
Y264906D01*
X404756D01*
Y264971D01*
X404821D01*
Y265035D01*
X404885D01*
Y265100D01*
X405015D01*
Y265165D01*
X405144D01*
Y265229D01*
X405337D01*
Y265294D01*
X405467D01*
Y265358D01*
X405596D01*
Y265423D01*
X405725D01*
Y265488D01*
X405790D01*
Y265552D01*
X405854D01*
Y265681D01*
X405919D01*
Y265746D01*
X406048D01*
Y265810D01*
X406112D01*
Y265875D01*
X406242D01*
Y265940D01*
X406371D01*
Y266004D01*
X406435D01*
Y266069D01*
X406500D01*
Y266133D01*
X406565D01*
Y266198D01*
X406629D01*
Y266263D01*
X406758D01*
Y266327D01*
X406823D01*
Y266392D01*
X406887D01*
Y266456D01*
X406952D01*
Y266521D01*
X407081D01*
Y266585D01*
X407146D01*
Y266650D01*
X407210D01*
Y266715D01*
X407340D01*
Y266779D01*
X407404D01*
Y266844D01*
X407533D01*
Y266908D01*
X407598D01*
Y266973D01*
X407727D01*
Y267038D01*
X407856D01*
Y267102D01*
X407921D01*
Y267167D01*
X407985D01*
Y267231D01*
X408115D01*
Y267296D01*
X408244D01*
Y267360D01*
X408373D01*
Y267425D01*
X408437D01*
Y267490D01*
X408567D01*
Y267554D01*
X408631D01*
Y267619D01*
X408760D01*
Y267683D01*
X408890D01*
Y267748D01*
X408954D01*
Y267812D01*
X409019D01*
Y267877D01*
X409148D01*
Y267942D01*
X409212D01*
Y268006D01*
X409342D01*
Y268071D01*
X409406D01*
Y268135D01*
X409471D01*
Y268200D01*
X409535D01*
Y268265D01*
X409600D01*
Y268329D01*
X409665D01*
Y268394D01*
X409794D01*
Y268458D01*
X409858D01*
Y268523D01*
X409923D01*
Y268587D01*
X410052D01*
Y268652D01*
X410117D01*
Y268717D01*
X410181D01*
Y268781D01*
X410246D01*
Y268846D01*
X410310D01*
Y268910D01*
X410375D01*
Y268975D01*
X410440D01*
Y269040D01*
X410504D01*
Y269104D01*
X410633D01*
Y269169D01*
X410698D01*
Y269233D01*
X410763D01*
Y269298D01*
X410892D01*
Y269362D01*
X410956D01*
Y269427D01*
X411021D01*
Y269492D01*
X411085D01*
Y269556D01*
X411150D01*
Y269621D01*
X411215D01*
Y269685D01*
X411279D01*
Y269750D01*
X411344D01*
Y269815D01*
X411408D01*
Y269879D01*
X411538D01*
Y269944D01*
X411602D01*
Y270008D01*
X411796D01*
Y270073D01*
X411925D01*
Y270138D01*
X411990D01*
Y270202D01*
X412119D01*
Y270138D01*
D02*
G37*
G36*
X397523Y266263D02*
X397717D01*
Y266198D01*
X397910D01*
Y266263D01*
X398040D01*
Y266198D01*
X398233D01*
Y266133D01*
X398298D01*
Y265940D01*
X398233D01*
Y265875D01*
X398040D01*
Y265940D01*
X397910D01*
Y266004D01*
X397587D01*
Y265940D01*
X397394D01*
Y265875D01*
X396813D01*
Y265810D01*
X396619D01*
Y265746D01*
X396490D01*
Y265681D01*
X396231D01*
Y265617D01*
X395908D01*
Y265552D01*
X395715D01*
Y265488D01*
X395585D01*
Y265423D01*
X395198D01*
Y265358D01*
X394875D01*
Y265294D01*
X394617D01*
Y265229D01*
X394488D01*
Y265294D01*
X394229D01*
Y265229D01*
X394100D01*
Y265165D01*
X394035D01*
Y264906D01*
X394165D01*
Y264842D01*
X394294D01*
Y264777D01*
X394423D01*
Y264713D01*
X394875D01*
Y264648D01*
X395004D01*
Y264583D01*
X395069D01*
Y264454D01*
X395004D01*
Y264325D01*
X394423D01*
Y264260D01*
X394035D01*
Y264196D01*
X393648D01*
Y264131D01*
X393390D01*
Y264067D01*
X393131D01*
Y264002D01*
X392744D01*
Y263937D01*
X392485D01*
Y263873D01*
X392098D01*
Y263808D01*
X391840D01*
Y263744D01*
X391581D01*
Y263679D01*
X391129D01*
Y263615D01*
X390935D01*
Y263550D01*
X390742D01*
Y263485D01*
X390354D01*
Y263421D01*
X390225D01*
Y263356D01*
X390031D01*
Y263292D01*
X389773D01*
Y263227D01*
X389579D01*
Y263162D01*
X389450D01*
Y263098D01*
X389385D01*
Y263033D01*
X389321D01*
Y262904D01*
X389385D01*
Y262840D01*
X391258D01*
Y262775D01*
X391646D01*
Y262840D01*
X394294D01*
Y262775D01*
X394681D01*
Y262840D01*
X395392D01*
Y262775D01*
X395844D01*
Y262840D01*
X398362D01*
Y262775D01*
X398492D01*
Y262646D01*
X398556D01*
Y262581D01*
X398492D01*
Y262452D01*
X398362D01*
Y262387D01*
X397265D01*
Y262452D01*
X397006D01*
Y262387D01*
X395908D01*
Y262452D01*
X395263D01*
Y262387D01*
X394746D01*
Y262452D01*
X394617D01*
Y262387D01*
X394165D01*
Y262452D01*
X393777D01*
Y262387D01*
X393325D01*
Y262452D01*
X393260D01*
Y262387D01*
X392485D01*
Y262323D01*
X392227D01*
Y262387D01*
X390290D01*
Y262452D01*
X389902D01*
Y262517D01*
X389321D01*
Y262581D01*
X389192D01*
Y262646D01*
X388998D01*
Y262710D01*
X388869D01*
Y262775D01*
X388804D01*
Y262904D01*
X388740D01*
Y263292D01*
X388804D01*
Y263356D01*
X388869D01*
Y263421D01*
X388933D01*
Y263550D01*
X388998D01*
Y263679D01*
X389062D01*
Y263744D01*
X389385D01*
Y263679D01*
X389450D01*
Y263615D01*
X389579D01*
Y263679D01*
X389644D01*
Y263808D01*
X389708D01*
Y263873D01*
X389773D01*
Y263937D01*
X389967D01*
Y264002D01*
X390096D01*
Y264067D01*
X390160D01*
Y264131D01*
X390225D01*
Y264196D01*
X390354D01*
Y264260D01*
X390483D01*
Y264196D01*
X390548D01*
Y264131D01*
X390613D01*
Y264067D01*
X390677D01*
Y264002D01*
X390806D01*
Y264067D01*
X390871D01*
Y264260D01*
X390935D01*
Y264325D01*
X391129D01*
Y264390D01*
X391258D01*
Y264454D01*
X391323D01*
Y264519D01*
X391452D01*
Y264583D01*
X391775D01*
Y264454D01*
X391840D01*
Y264390D01*
X392098D01*
Y264519D01*
X392162D01*
Y264713D01*
X392227D01*
Y264777D01*
X392485D01*
Y264842D01*
X392550D01*
Y264906D01*
X392615D01*
Y264971D01*
X392679D01*
Y265035D01*
X392744D01*
Y265100D01*
X393067D01*
Y265229D01*
X393131D01*
Y265294D01*
X393196D01*
Y265358D01*
X393390D01*
Y265294D01*
X393519D01*
Y265229D01*
X393583D01*
Y265294D01*
X393648D01*
Y265358D01*
X393712D01*
Y265423D01*
X393777D01*
Y265488D01*
X393842D01*
Y265552D01*
X394035D01*
Y265617D01*
X394165D01*
Y265681D01*
X394229D01*
Y265746D01*
X394294D01*
Y265810D01*
X394358D01*
Y265875D01*
X394617D01*
Y265810D01*
X394681D01*
Y265746D01*
X394875D01*
Y265810D01*
X394940D01*
Y265940D01*
X395133D01*
Y266004D01*
X395392D01*
Y266069D01*
X395456D01*
Y266133D01*
X395585D01*
Y266198D01*
X395779D01*
Y266133D01*
X395844D01*
Y266069D01*
X395973D01*
Y266004D01*
X396102D01*
Y266069D01*
X396231D01*
Y266133D01*
X396296D01*
Y266198D01*
X396425D01*
Y266263D01*
X396619D01*
Y266198D01*
X396942D01*
Y266263D01*
X397200D01*
Y266327D01*
X397523D01*
Y266263D01*
D02*
G37*
G36*
X402302Y266198D02*
X402367D01*
Y266133D01*
X402431D01*
Y266069D01*
X402496D01*
Y266004D01*
X402560D01*
Y265810D01*
X402496D01*
Y265746D01*
X402367D01*
Y265681D01*
X402238D01*
Y265617D01*
X402173D01*
Y265552D01*
X402108D01*
Y265488D01*
X401979D01*
Y265423D01*
X401463D01*
Y265358D01*
X401333D01*
Y265423D01*
X400623D01*
Y265488D01*
X399977D01*
Y265552D01*
X399654D01*
Y265617D01*
X399073D01*
Y265681D01*
X398879D01*
Y265746D01*
X398750D01*
Y265810D01*
X398621D01*
Y266004D01*
X398685D01*
Y266069D01*
X398750D01*
Y266133D01*
X399008D01*
Y266069D01*
X399137D01*
Y266004D01*
X399267D01*
Y265940D01*
X399396D01*
Y266004D01*
X399590D01*
Y266069D01*
X399848D01*
Y266004D01*
X399977D01*
Y265940D01*
X400429D01*
Y266004D01*
X400688D01*
Y265940D01*
X401204D01*
Y266004D01*
X401269D01*
Y266069D01*
X401463D01*
Y266004D01*
X401592D01*
Y265940D01*
X401850D01*
Y266004D01*
X401979D01*
Y266133D01*
X402044D01*
Y266198D01*
X402108D01*
Y266263D01*
X402302D01*
Y266198D01*
D02*
G37*
%LPC*%
G36*
X422194Y277500D02*
X421806D01*
Y277435D01*
X421742D01*
Y277371D01*
X421677D01*
Y277242D01*
X421613D01*
Y277113D01*
X421548D01*
Y277048D01*
X421483D01*
Y276919D01*
X421419D01*
Y276854D01*
X421354D01*
Y276790D01*
X421290D01*
Y276660D01*
X421225D01*
Y276596D01*
X421160D01*
Y276531D01*
X421096D01*
Y276402D01*
X421031D01*
Y276273D01*
X421096D01*
Y276144D01*
X421160D01*
Y276079D01*
X421225D01*
Y276015D01*
X421290D01*
Y275950D01*
X421613D01*
Y276015D01*
X421742D01*
Y276079D01*
X421806D01*
Y276144D01*
X421871D01*
Y276208D01*
X421935D01*
Y276273D01*
X422000D01*
Y276338D01*
X422065D01*
Y276402D01*
X422129D01*
Y276467D01*
X422258D01*
Y276531D01*
X422323D01*
Y276596D01*
X422388D01*
Y276725D01*
X422452D01*
Y276790D01*
X422517D01*
Y276854D01*
X422581D01*
Y276983D01*
X422646D01*
Y277113D01*
X422581D01*
Y277242D01*
X422517D01*
Y277306D01*
X422388D01*
Y277371D01*
X422323D01*
Y277435D01*
X422194D01*
Y277500D01*
D02*
G37*
G36*
X393325Y265100D02*
X393067D01*
Y264842D01*
X393131D01*
Y264777D01*
X393390D01*
Y265035D01*
X393325D01*
Y265100D01*
D02*
G37*
G36*
X392873Y264648D02*
X392679D01*
Y264454D01*
X392873D01*
Y264648D01*
D02*
G37*
%LPD*%
D10*
X333283Y314839D02*
G03*
X333283Y314839I-197J0D01*
G01*
X302842Y303587D02*
Y304374D01*
X308157D01*
Y303587D02*
Y304374D01*
Y301815D02*
Y302602D01*
X302842Y301815D02*
X308157D01*
X302842D02*
Y302602D01*
X307720Y295342D02*
X308508D01*
X307720D02*
Y300658D01*
X308508D01*
X309492D02*
X310279D01*
Y295342D02*
Y300658D01*
X309492Y295342D02*
X310279D01*
D11*
X314354Y302284D02*
G03*
X314354Y302284I-394J0D01*
G01*
X332693Y316020D02*
Y319169D01*
X331906Y315232D02*
X332693Y316020D01*
X319307Y315232D02*
X331906D01*
X319307D02*
Y331768D01*
X332693D01*
Y319169D02*
Y331768D01*
X442000Y230000D02*
X452000D01*
X442000D02*
Y330000D01*
X452000D01*
Y322500D02*
Y330000D01*
Y230000D02*
Y322500D01*
X374000Y361500D02*
X464000D01*
X374000Y351500D02*
Y361500D01*
Y351500D02*
X464000D01*
Y361500D01*
X368500Y209000D02*
X458500D01*
X368500Y199000D02*
Y209000D01*
Y199000D02*
X458500D01*
Y209000D01*
D12*
X303500Y294307D02*
Y295882D01*
X302500Y286213D02*
Y287787D01*
X349213Y277594D02*
X350787D01*
X329713Y271500D02*
X331287D01*
X349213Y285094D02*
X350787D01*
X313713Y314094D02*
X315287D01*
X309713D02*
X311287D01*
X315713Y323500D02*
X317287D01*
X339000Y314213D02*
Y315787D01*
X302500Y290213D02*
Y291787D01*
X304213Y314000D02*
X305787D01*
X303500Y298307D02*
Y299882D01*
X334713Y323500D02*
X336287D01*
X339000Y310213D02*
Y311787D01*
X322000Y309713D02*
Y311287D01*
D13*
X343429Y278268D02*
X345280D01*
X343429Y305827D02*
X345280D01*
X317721Y278268D02*
X319571D01*
X317721Y305827D02*
X319571D01*
X345280Y278268D02*
Y280118D01*
Y303976D02*
Y305827D01*
X317721Y278268D02*
Y280118D01*
Y303976D02*
Y305827D01*
D14*
X372048Y211960D02*
X371556Y211468D01*
Y210484D01*
X372048Y209992D01*
X374016D01*
X374508Y210484D01*
Y211468D01*
X374016Y211960D01*
X373032D01*
Y210976D01*
X374508Y212944D02*
X371556D01*
X374508Y214912D01*
X371556D01*
Y215896D02*
X374508D01*
Y217372D01*
X374016Y217864D01*
X372048D01*
X371556Y217372D01*
Y215896D01*
X452992Y236436D02*
X454960D01*
X453976D01*
Y233484D01*
X457912Y236436D02*
X455944D01*
Y234960D01*
X456928D01*
X455944D01*
Y233484D01*
X458896Y236436D02*
X460864D01*
X459880D01*
Y233484D01*
X461847Y232992D02*
X463815D01*
X464799Y233484D02*
Y236436D01*
X466275D01*
X466767Y235944D01*
Y234960D01*
X466275Y234468D01*
X464799D01*
X467751Y236436D02*
Y233484D01*
X468735Y234468D01*
X469719Y233484D01*
Y236436D01*
X470703Y233484D02*
Y236436D01*
X472179D01*
X472671Y235944D01*
Y234960D01*
X472179Y234468D01*
X470703D01*
X471687D02*
X472671Y233484D01*
X452992Y246436D02*
X454960D01*
X453976D01*
Y243484D01*
X457912Y246436D02*
X455944D01*
Y244960D01*
X456928D01*
X455944D01*
Y243484D01*
X458896Y246436D02*
X460864D01*
X459880D01*
Y243484D01*
X461847Y242992D02*
X463815D01*
X464799Y243484D02*
Y246436D01*
X466275D01*
X466767Y245944D01*
Y244960D01*
X466275Y244468D01*
X464799D01*
X465783D02*
X466767Y243484D01*
X469719Y245944D02*
X469227Y246436D01*
X468243D01*
X467751Y245944D01*
Y245452D01*
X468243Y244960D01*
X469227D01*
X469719Y244468D01*
Y243976D01*
X469227Y243484D01*
X468243D01*
X467751Y243976D01*
X470703Y246436D02*
X472671D01*
X471687D01*
Y243484D01*
X452992Y256436D02*
X454960D01*
X453976D01*
Y253484D01*
X457912Y256436D02*
X455944D01*
Y254960D01*
X456928D01*
X455944D01*
Y253484D01*
X458896Y256436D02*
X460864D01*
X459880D01*
Y253484D01*
X461847Y252992D02*
X463815D01*
X466767Y255944D02*
X466275Y256436D01*
X465291D01*
X464799Y255944D01*
Y255452D01*
X465291Y254960D01*
X466275D01*
X466767Y254468D01*
Y253976D01*
X466275Y253484D01*
X465291D01*
X464799Y253976D01*
X467751Y256436D02*
Y253484D01*
X469227D01*
X469719Y253976D01*
Y255944D01*
X469227Y256436D01*
X467751D01*
X470703Y253484D02*
Y255452D01*
X471687Y256436D01*
X472671Y255452D01*
Y253484D01*
Y254960D01*
X470703D01*
X452992Y266436D02*
X454960D01*
X453976D01*
Y263484D01*
X457912Y266436D02*
X455944D01*
Y264960D01*
X456928D01*
X455944D01*
Y263484D01*
X458896Y266436D02*
X460864D01*
X459880D01*
Y263484D01*
X461847Y262992D02*
X463815D01*
X464799Y266436D02*
Y263484D01*
X466275D01*
X466767Y263976D01*
Y265944D01*
X466275Y266436D01*
X464799D01*
X469719Y265944D02*
X469227Y266436D01*
X468243D01*
X467751Y265944D01*
Y263976D01*
X468243Y263484D01*
X469227D01*
X469719Y263976D01*
X452992Y276436D02*
X454960D01*
X453976D01*
Y273484D01*
X457912Y276436D02*
X455944D01*
Y274960D01*
X456928D01*
X455944D01*
Y273484D01*
X458896Y276436D02*
X460864D01*
X459880D01*
Y273484D01*
X461847Y272992D02*
X463815D01*
X466767Y275944D02*
X466275Y276436D01*
X465291D01*
X464799Y275944D01*
Y275452D01*
X465291Y274960D01*
X466275D01*
X466767Y274468D01*
Y273976D01*
X466275Y273484D01*
X465291D01*
X464799Y273976D01*
X469719Y275944D02*
X469227Y276436D01*
X468243D01*
X467751Y275944D01*
Y273976D01*
X468243Y273484D01*
X469227D01*
X469719Y273976D01*
X470703Y276436D02*
Y273484D01*
Y274468D01*
X472671Y276436D01*
X471195Y274960D01*
X472671Y273484D01*
X452992Y286436D02*
X454960D01*
X453976D01*
Y283484D01*
X457912Y286436D02*
X455944D01*
Y284960D01*
X456928D01*
X455944D01*
Y283484D01*
X458896Y286436D02*
X460864D01*
X459880D01*
Y283484D01*
X461847Y282992D02*
X463815D01*
X466767Y285944D02*
X466275Y286436D01*
X465291D01*
X464799Y285944D01*
Y283976D01*
X465291Y283484D01*
X466275D01*
X466767Y283976D01*
X469719Y285944D02*
X469227Y286436D01*
X468243D01*
X467751Y285944D01*
Y285452D01*
X468243Y284960D01*
X469227D01*
X469719Y284468D01*
Y283976D01*
X469227Y283484D01*
X468243D01*
X467751Y283976D01*
X452992Y296436D02*
X454960D01*
X453976D01*
Y293484D01*
X457912Y296436D02*
X455944D01*
Y294960D01*
X456928D01*
X455944D01*
Y293484D01*
X458896Y296436D02*
X460864D01*
X459880D01*
Y293484D01*
X461847Y292992D02*
X463815D01*
X464799Y296436D02*
Y295944D01*
X465783Y294960D01*
X466767Y295944D01*
Y296436D01*
X465783Y294960D02*
Y293484D01*
X467751Y296436D02*
Y293484D01*
X469227D01*
X469719Y293976D01*
Y295944D01*
X469227Y296436D01*
X467751D01*
X452992Y306436D02*
X454960D01*
X453976D01*
Y303484D01*
X457912Y306436D02*
X455944D01*
Y304960D01*
X456928D01*
X455944D01*
Y303484D01*
X458896Y306436D02*
X460864D01*
X459880D01*
Y303484D01*
X461847Y302992D02*
X463815D01*
X464799Y306436D02*
X466767Y303484D01*
Y306436D02*
X464799Y303484D01*
X467751D02*
Y306436D01*
X469227D01*
X469719Y305944D01*
Y304960D01*
X469227Y304468D01*
X467751D01*
X468735D02*
X469719Y303484D01*
X452992Y316436D02*
X454960D01*
X453976D01*
Y313484D01*
X457912Y316436D02*
X455944D01*
Y314960D01*
X456928D01*
X455944D01*
Y313484D01*
X458896Y316436D02*
X460864D01*
X459880D01*
Y313484D01*
X461847Y312992D02*
X463815D01*
X464799Y316436D02*
Y315944D01*
X465783Y314960D01*
X466767Y315944D01*
Y316436D01*
X465783Y314960D02*
Y313484D01*
X467751Y316436D02*
Y313976D01*
X468243Y313484D01*
X469227D01*
X469719Y313976D01*
Y316436D01*
X452992Y326436D02*
X454960D01*
X453976D01*
Y323484D01*
X457912Y326436D02*
X455944D01*
Y324960D01*
X456928D01*
X455944D01*
Y323484D01*
X458896Y326436D02*
X460864D01*
X459880D01*
Y323484D01*
X461847Y322992D02*
X463815D01*
X464799Y326436D02*
X466767Y323484D01*
Y326436D02*
X464799Y323484D01*
X467751Y326436D02*
Y323484D01*
X469719D01*
X452048Y211960D02*
X451556Y211468D01*
Y210484D01*
X452048Y209992D01*
X454016D01*
X454508Y210484D01*
Y211468D01*
X454016Y211960D01*
X453032D01*
Y210976D01*
X454508Y212944D02*
X451556D01*
Y214420D01*
X452048Y214912D01*
X453032D01*
X453524Y214420D01*
Y212944D01*
X451556Y215896D02*
Y216880D01*
Y216388D01*
X454508D01*
Y215896D01*
Y216880D01*
X451556Y219831D02*
Y218848D01*
X452048Y218356D01*
X454016D01*
X454508Y218848D01*
Y219831D01*
X454016Y220323D01*
X452048D01*
X451556Y219831D01*
X454508Y221307D02*
Y222291D01*
Y221799D01*
X451556D01*
X452048Y221307D01*
Y223767D02*
X451556Y224259D01*
Y225243D01*
X452048Y225735D01*
X452540D01*
X453032Y225243D01*
X453524Y225735D01*
X454016D01*
X454508Y225243D01*
Y224259D01*
X454016Y223767D01*
X453524D01*
X453032Y224259D01*
X452540Y223767D01*
X452048D01*
X453032Y224259D02*
Y225243D01*
X442048Y211960D02*
X441556Y211468D01*
Y210484D01*
X442048Y209992D01*
X444016D01*
X444508Y210484D01*
Y211468D01*
X444016Y211960D01*
X443032D01*
Y210976D01*
X444508Y212944D02*
X441556D01*
Y214420D01*
X442048Y214912D01*
X443032D01*
X443524Y214420D01*
Y212944D01*
X441556Y215896D02*
Y216880D01*
Y216388D01*
X444508D01*
Y215896D01*
Y216880D01*
X441556Y219831D02*
Y218848D01*
X442048Y218356D01*
X444016D01*
X444508Y218848D01*
Y219831D01*
X444016Y220323D01*
X442048D01*
X441556Y219831D01*
X444508Y221307D02*
Y222291D01*
Y221799D01*
X441556D01*
X442048Y221307D01*
X441556Y223767D02*
Y225735D01*
X442048D01*
X444016Y223767D01*
X444508D01*
X432048Y211960D02*
X431556Y211468D01*
Y210484D01*
X432048Y209992D01*
X434016D01*
X434508Y210484D01*
Y211468D01*
X434016Y211960D01*
X433032D01*
Y210976D01*
X434508Y212944D02*
X431556D01*
Y214420D01*
X432048Y214912D01*
X433032D01*
X433524Y214420D01*
Y212944D01*
X431556Y215896D02*
Y216880D01*
Y216388D01*
X434508D01*
Y215896D01*
Y216880D01*
X431556Y219831D02*
Y218848D01*
X432048Y218356D01*
X434016D01*
X434508Y218848D01*
Y219831D01*
X434016Y220323D01*
X432048D01*
X431556Y219831D01*
X434508Y221307D02*
Y222291D01*
Y221799D01*
X431556D01*
X432048Y221307D01*
X434508Y225243D02*
X431556D01*
X433032Y223767D01*
Y225735D01*
X422048Y211960D02*
X421556Y211468D01*
Y210484D01*
X422048Y209992D01*
X424016D01*
X424508Y210484D01*
Y211468D01*
X424016Y211960D01*
X423032D01*
Y210976D01*
X424508Y212944D02*
X421556D01*
Y214420D01*
X422048Y214912D01*
X423032D01*
X423524Y214420D01*
Y212944D01*
X421556Y215896D02*
Y216880D01*
Y216388D01*
X424508D01*
Y215896D01*
Y216880D01*
X421556Y219831D02*
Y218848D01*
X422048Y218356D01*
X424016D01*
X424508Y218848D01*
Y219831D01*
X424016Y220323D01*
X422048D01*
X421556Y219831D01*
X424508Y221307D02*
Y222291D01*
Y221799D01*
X421556D01*
X422048Y221307D01*
Y223767D02*
X421556Y224259D01*
Y225243D01*
X422048Y225735D01*
X422540D01*
X423032Y225243D01*
Y224751D01*
Y225243D01*
X423524Y225735D01*
X424016D01*
X424508Y225243D01*
Y224259D01*
X424016Y223767D01*
X412048Y211960D02*
X411556Y211468D01*
Y210484D01*
X412048Y209992D01*
X414016D01*
X414508Y210484D01*
Y211468D01*
X414016Y211960D01*
X413032D01*
Y210976D01*
X414508Y212944D02*
X411556D01*
Y214420D01*
X412048Y214912D01*
X413032D01*
X413524Y214420D01*
Y212944D01*
X411556Y215896D02*
Y216880D01*
Y216388D01*
X414508D01*
Y215896D01*
Y216880D01*
X411556Y219831D02*
Y218848D01*
X412048Y218356D01*
X414016D01*
X414508Y218848D01*
Y219831D01*
X414016Y220323D01*
X412048D01*
X411556Y219831D01*
X414508Y221307D02*
Y222291D01*
Y221799D01*
X411556D01*
X412048Y221307D01*
X414508Y225735D02*
Y223767D01*
X412540Y225735D01*
X412048D01*
X411556Y225243D01*
Y224259D01*
X412048Y223767D01*
X402048Y211960D02*
X401556Y211468D01*
Y210484D01*
X402048Y209992D01*
X404016D01*
X404508Y210484D01*
Y211468D01*
X404016Y211960D01*
X403032D01*
Y210976D01*
X404508Y212944D02*
X401556D01*
Y214420D01*
X402048Y214912D01*
X403032D01*
X403524Y214420D01*
Y212944D01*
X401556Y215896D02*
Y216880D01*
Y216388D01*
X404508D01*
Y215896D01*
Y216880D01*
X401556Y219831D02*
Y218848D01*
X402048Y218356D01*
X404016D01*
X404508Y218848D01*
Y219831D01*
X404016Y220323D01*
X402048D01*
X401556Y219831D01*
X404508Y221307D02*
Y222291D01*
Y221799D01*
X401556D01*
X402048Y221307D01*
X404508Y223767D02*
Y224751D01*
Y224259D01*
X401556D01*
X402048Y223767D01*
X392048Y211960D02*
X391556Y211468D01*
Y210484D01*
X392048Y209992D01*
X394016D01*
X394508Y210484D01*
Y211468D01*
X394016Y211960D01*
X393032D01*
Y210976D01*
X394508Y212944D02*
X391556D01*
Y214420D01*
X392048Y214912D01*
X393032D01*
X393524Y214420D01*
Y212944D01*
X391556Y215896D02*
Y216880D01*
Y216388D01*
X394508D01*
Y215896D01*
Y216880D01*
X391556Y219831D02*
Y218848D01*
X392048Y218356D01*
X394016D01*
X394508Y218848D01*
Y219831D01*
X394016Y220323D01*
X392048D01*
X391556Y219831D01*
X394508Y221307D02*
Y222291D01*
Y221799D01*
X391556D01*
X392048Y221307D01*
Y223767D02*
X391556Y224259D01*
Y225243D01*
X392048Y225735D01*
X394016D01*
X394508Y225243D01*
Y224259D01*
X394016Y223767D01*
X392048D01*
X382048Y209992D02*
X381556Y210484D01*
Y211468D01*
X382048Y211960D01*
X382540D01*
X383032Y211468D01*
Y210976D01*
Y211468D01*
X383524Y211960D01*
X384016D01*
X384508Y211468D01*
Y210484D01*
X384016Y209992D01*
X381556Y212944D02*
X383524D01*
X384508Y213928D01*
X383524Y214912D01*
X381556D01*
X382048Y215896D02*
X381556Y216388D01*
Y217372D01*
X382048Y217864D01*
X382540D01*
X383032Y217372D01*
Y216880D01*
Y217372D01*
X383524Y217864D01*
X384016D01*
X384508Y217372D01*
Y216388D01*
X384016Y215896D01*
X377548Y344604D02*
X377056Y344112D01*
Y343128D01*
X377548Y342636D01*
X379516D01*
X380008Y343128D01*
Y344112D01*
X379516Y344604D01*
X378532D01*
Y343620D01*
X380008Y345588D02*
X377056D01*
X380008Y347556D01*
X377056D01*
Y348540D02*
X380008D01*
Y350016D01*
X379516Y350508D01*
X377548D01*
X377056Y350016D01*
Y348540D01*
X387548Y342636D02*
X387056Y343128D01*
Y344112D01*
X387548Y344604D01*
X388040D01*
X388532Y344112D01*
Y343620D01*
Y344112D01*
X389024Y344604D01*
X389516D01*
X390008Y344112D01*
Y343128D01*
X389516Y342636D01*
X387056Y345588D02*
X389024D01*
X390008Y346572D01*
X389024Y347556D01*
X387056D01*
X387548Y348540D02*
X387056Y349032D01*
Y350016D01*
X387548Y350508D01*
X388040D01*
X388532Y350016D01*
Y349524D01*
Y350016D01*
X389024Y350508D01*
X389516D01*
X390008Y350016D01*
Y349032D01*
X389516Y348540D01*
X457548Y336241D02*
X457056Y335749D01*
Y334765D01*
X457548Y334273D01*
X459516D01*
X460008Y334765D01*
Y335749D01*
X459516Y336241D01*
X458532D01*
Y335257D01*
X460008Y337225D02*
X457056D01*
Y338701D01*
X457548Y339193D01*
X458532D01*
X459024Y338701D01*
Y337225D01*
X457056Y340177D02*
Y341160D01*
Y340669D01*
X460008D01*
Y340177D01*
Y341160D01*
X457056Y344112D02*
Y343128D01*
X457548Y342636D01*
X459516D01*
X460008Y343128D01*
Y344112D01*
X459516Y344604D01*
X457548D01*
X457056Y344112D01*
X457548Y345588D02*
X457056Y346080D01*
Y347064D01*
X457548Y347556D01*
X458040D01*
X458532Y347064D01*
Y346572D01*
Y347064D01*
X459024Y347556D01*
X459516D01*
X460008Y347064D01*
Y346080D01*
X459516Y345588D01*
X457548Y348540D02*
X457056Y349032D01*
Y350016D01*
X457548Y350508D01*
X458040D01*
X458532Y350016D01*
Y349524D01*
Y350016D01*
X459024Y350508D01*
X459516D01*
X460008Y350016D01*
Y349032D01*
X459516Y348540D01*
X447548Y336241D02*
X447056Y335749D01*
Y334765D01*
X447548Y334273D01*
X449516D01*
X450008Y334765D01*
Y335749D01*
X449516Y336241D01*
X448532D01*
Y335257D01*
X450008Y337225D02*
X447056D01*
Y338701D01*
X447548Y339193D01*
X448532D01*
X449024Y338701D01*
Y337225D01*
X447056Y340177D02*
Y341160D01*
Y340669D01*
X450008D01*
Y340177D01*
Y341160D01*
X447056Y344112D02*
Y343128D01*
X447548Y342636D01*
X449516D01*
X450008Y343128D01*
Y344112D01*
X449516Y344604D01*
X447548D01*
X447056Y344112D01*
X447548Y345588D02*
X447056Y346080D01*
Y347064D01*
X447548Y347556D01*
X448040D01*
X448532Y347064D01*
Y346572D01*
Y347064D01*
X449024Y347556D01*
X449516D01*
X450008Y347064D01*
Y346080D01*
X449516Y345588D01*
X450008Y350016D02*
X447056D01*
X448532Y348540D01*
Y350508D01*
X437548Y336241D02*
X437056Y335749D01*
Y334765D01*
X437548Y334273D01*
X439516D01*
X440008Y334765D01*
Y335749D01*
X439516Y336241D01*
X438532D01*
Y335257D01*
X440008Y337225D02*
X437056D01*
Y338701D01*
X437548Y339193D01*
X438532D01*
X439024Y338701D01*
Y337225D01*
X437056Y340177D02*
Y341160D01*
Y340669D01*
X440008D01*
Y340177D01*
Y341160D01*
X437056Y344112D02*
Y343128D01*
X437548Y342636D01*
X439516D01*
X440008Y343128D01*
Y344112D01*
X439516Y344604D01*
X437548D01*
X437056Y344112D01*
X437548Y345588D02*
X437056Y346080D01*
Y347064D01*
X437548Y347556D01*
X438040D01*
X438532Y347064D01*
Y346572D01*
Y347064D01*
X439024Y347556D01*
X439516D01*
X440008Y347064D01*
Y346080D01*
X439516Y345588D01*
X437056Y350508D02*
Y348540D01*
X438532D01*
X438040Y349524D01*
Y350016D01*
X438532Y350508D01*
X439516D01*
X440008Y350016D01*
Y349032D01*
X439516Y348540D01*
X427548Y336241D02*
X427056Y335749D01*
Y334765D01*
X427548Y334273D01*
X429516D01*
X430008Y334765D01*
Y335749D01*
X429516Y336241D01*
X428532D01*
Y335257D01*
X430008Y337225D02*
X427056D01*
Y338701D01*
X427548Y339193D01*
X428532D01*
X429024Y338701D01*
Y337225D01*
X427056Y340177D02*
Y341160D01*
Y340669D01*
X430008D01*
Y340177D01*
Y341160D01*
X427056Y344112D02*
Y343128D01*
X427548Y342636D01*
X429516D01*
X430008Y343128D01*
Y344112D01*
X429516Y344604D01*
X427548D01*
X427056Y344112D01*
X427548Y345588D02*
X427056Y346080D01*
Y347064D01*
X427548Y347556D01*
X428040D01*
X428532Y347064D01*
Y346572D01*
Y347064D01*
X429024Y347556D01*
X429516D01*
X430008Y347064D01*
Y346080D01*
X429516Y345588D01*
X427056Y350508D02*
X427548Y349524D01*
X428532Y348540D01*
X429516D01*
X430008Y349032D01*
Y350016D01*
X429516Y350508D01*
X429024D01*
X428532Y350016D01*
Y348540D01*
X417548Y336241D02*
X417056Y335749D01*
Y334765D01*
X417548Y334273D01*
X419516D01*
X420008Y334765D01*
Y335749D01*
X419516Y336241D01*
X418532D01*
Y335257D01*
X420008Y337225D02*
X417056D01*
Y338701D01*
X417548Y339193D01*
X418532D01*
X419024Y338701D01*
Y337225D01*
X417056Y340177D02*
Y341160D01*
Y340669D01*
X420008D01*
Y340177D01*
Y341160D01*
X417056Y344112D02*
Y343128D01*
X417548Y342636D01*
X419516D01*
X420008Y343128D01*
Y344112D01*
X419516Y344604D01*
X417548D01*
X417056Y344112D01*
X417548Y345588D02*
X417056Y346080D01*
Y347064D01*
X417548Y347556D01*
X418040D01*
X418532Y347064D01*
Y346572D01*
Y347064D01*
X419024Y347556D01*
X419516D01*
X420008Y347064D01*
Y346080D01*
X419516Y345588D01*
X417056Y348540D02*
Y350508D01*
X417548D01*
X419516Y348540D01*
X420008D01*
X407548Y336241D02*
X407056Y335749D01*
Y334765D01*
X407548Y334273D01*
X409516D01*
X410008Y334765D01*
Y335749D01*
X409516Y336241D01*
X408532D01*
Y335257D01*
X410008Y337225D02*
X407056D01*
Y338701D01*
X407548Y339193D01*
X408532D01*
X409024Y338701D01*
Y337225D01*
X407056Y340177D02*
Y341160D01*
Y340669D01*
X410008D01*
Y340177D01*
Y341160D01*
X407056Y344112D02*
Y343128D01*
X407548Y342636D01*
X409516D01*
X410008Y343128D01*
Y344112D01*
X409516Y344604D01*
X407548D01*
X407056Y344112D01*
X407548Y345588D02*
X407056Y346080D01*
Y347064D01*
X407548Y347556D01*
X408040D01*
X408532Y347064D01*
Y346572D01*
Y347064D01*
X409024Y347556D01*
X409516D01*
X410008Y347064D01*
Y346080D01*
X409516Y345588D01*
X407548Y348540D02*
X407056Y349032D01*
Y350016D01*
X407548Y350508D01*
X408040D01*
X408532Y350016D01*
X409024Y350508D01*
X409516D01*
X410008Y350016D01*
Y349032D01*
X409516Y348540D01*
X409024D01*
X408532Y349032D01*
X408040Y348540D01*
X407548D01*
X408532Y349032D02*
Y350016D01*
X397548Y336241D02*
X397056Y335749D01*
Y334765D01*
X397548Y334273D01*
X399516D01*
X400008Y334765D01*
Y335749D01*
X399516Y336241D01*
X398532D01*
Y335257D01*
X400008Y337225D02*
X397056D01*
Y338701D01*
X397548Y339193D01*
X398532D01*
X399024Y338701D01*
Y337225D01*
X397056Y340177D02*
Y341160D01*
Y340669D01*
X400008D01*
Y340177D01*
Y341160D01*
X397056Y344112D02*
Y343128D01*
X397548Y342636D01*
X399516D01*
X400008Y343128D01*
Y344112D01*
X399516Y344604D01*
X397548D01*
X397056Y344112D01*
X400008Y347064D02*
X397056D01*
X398532Y345588D01*
Y347556D01*
X397056Y350508D02*
Y348540D01*
X398532D01*
X398040Y349524D01*
Y350016D01*
X398532Y350508D01*
X399516D01*
X400008Y350016D01*
Y349032D01*
X399516Y348540D01*
X326360Y309516D02*
Y311484D01*
X327344D01*
X327672Y311156D01*
Y310500D01*
X327344Y310172D01*
X326360D01*
X327016D02*
X327672Y309516D01*
X329640D02*
X328328D01*
X329640Y310828D01*
Y311156D01*
X329312Y311484D01*
X328656D01*
X328328Y311156D01*
X294188Y286016D02*
Y287984D01*
X295172D01*
X295500Y287656D01*
Y287000D01*
X295172Y286672D01*
X294188D01*
X294844D02*
X295500Y286016D01*
X296156D02*
X296812D01*
X296484D01*
Y287984D01*
X296156Y287656D01*
X303860Y306984D02*
Y305016D01*
X305172D01*
X307140D02*
X305828D01*
X307140Y306328D01*
Y306656D01*
X306812Y306984D01*
X306156D01*
X305828Y306656D01*
X311188Y300484D02*
Y298516D01*
X312500D01*
X313156D02*
X313812D01*
X313484D01*
Y300484D01*
X313156Y300156D01*
X329352Y265656D02*
X329024Y265984D01*
X328368D01*
X328040Y265656D01*
Y264344D01*
X328368Y264016D01*
X329024D01*
X329352Y264344D01*
X330008Y264016D02*
X330664D01*
X330336D01*
Y265984D01*
X330008Y265656D01*
X332960Y265984D02*
X331648D01*
Y265000D01*
X332304Y265328D01*
X332632D01*
X332960Y265000D01*
Y264344D01*
X332632Y264016D01*
X331976D01*
X331648Y264344D01*
X349852Y291656D02*
X349524Y291984D01*
X348868D01*
X348540Y291656D01*
Y290344D01*
X348868Y290016D01*
X349524D01*
X349852Y290344D01*
X350508Y290016D02*
X351164D01*
X350836D01*
Y291984D01*
X350508Y291656D01*
X353132Y290016D02*
Y291984D01*
X352148Y291000D01*
X353460D01*
X348852Y272656D02*
X348524Y272984D01*
X347868D01*
X347540Y272656D01*
Y271344D01*
X347868Y271016D01*
X348524D01*
X348852Y271344D01*
X349508Y271016D02*
X350164D01*
X349836D01*
Y272984D01*
X349508Y272656D01*
X351148D02*
X351476Y272984D01*
X352132D01*
X352460Y272656D01*
Y272328D01*
X352132Y272000D01*
X351804D01*
X352132D01*
X352460Y271672D01*
Y271344D01*
X352132Y271016D01*
X351476D01*
X351148Y271344D01*
X313852Y308156D02*
X313524Y308484D01*
X312868D01*
X312540Y308156D01*
Y306844D01*
X312868Y306516D01*
X313524D01*
X313852Y306844D01*
X314508Y306516D02*
X315164D01*
X314836D01*
Y308484D01*
X314508Y308156D01*
X317460Y306516D02*
X316148D01*
X317460Y307828D01*
Y308156D01*
X317132Y308484D01*
X316476D01*
X316148Y308156D01*
X295180D02*
X294852Y308484D01*
X294196D01*
X293868Y308156D01*
Y306844D01*
X294196Y306516D01*
X294852D01*
X295180Y306844D01*
X295836Y306516D02*
X296492D01*
X296164D01*
Y308484D01*
X295836Y308156D01*
X297476Y306516D02*
X298132D01*
X297804D01*
Y308484D01*
X297476Y308156D01*
X294352Y299656D02*
X294024Y299984D01*
X293368D01*
X293040Y299656D01*
Y298344D01*
X293368Y298016D01*
X294024D01*
X294352Y298344D01*
X295008Y298016D02*
X295664D01*
X295336D01*
Y299984D01*
X295008Y299656D01*
X296648D02*
X296976Y299984D01*
X297632D01*
X297960Y299656D01*
Y298344D01*
X297632Y298016D01*
X296976D01*
X296648Y298344D01*
Y299656D01*
X296172Y295656D02*
X295844Y295984D01*
X295188D01*
X294860Y295656D01*
Y294344D01*
X295188Y294016D01*
X295844D01*
X296172Y294344D01*
X296828D02*
X297156Y294016D01*
X297812D01*
X298140Y294344D01*
Y295656D01*
X297812Y295984D01*
X297156D01*
X296828Y295656D01*
Y295328D01*
X297156Y295000D01*
X298140D01*
X345672Y315656D02*
X345344Y315984D01*
X344688D01*
X344360Y315656D01*
Y314344D01*
X344688Y314016D01*
X345344D01*
X345672Y314344D01*
X346328Y315656D02*
X346656Y315984D01*
X347312D01*
X347640Y315656D01*
Y315328D01*
X347312Y315000D01*
X347640Y314672D01*
Y314344D01*
X347312Y314016D01*
X346656D01*
X346328Y314344D01*
Y314672D01*
X346656Y315000D01*
X346328Y315328D01*
Y315656D01*
X346656Y315000D02*
X347312D01*
X304672Y321156D02*
X304344Y321484D01*
X303688D01*
X303360Y321156D01*
Y319844D01*
X303688Y319516D01*
X304344D01*
X304672Y319844D01*
X305328Y321484D02*
X306640D01*
Y321156D01*
X305328Y319844D01*
Y319516D01*
X346172Y311656D02*
X345844Y311984D01*
X345188D01*
X344860Y311656D01*
Y310344D01*
X345188Y310016D01*
X345844D01*
X346172Y310344D01*
X348140Y311984D02*
X347484Y311656D01*
X346828Y311000D01*
Y310344D01*
X347156Y310016D01*
X347812D01*
X348140Y310344D01*
Y310672D01*
X347812Y311000D01*
X346828D01*
X318156Y315328D02*
X318484Y315656D01*
Y316312D01*
X318156Y316640D01*
X316844D01*
X316516Y316312D01*
Y315656D01*
X316844Y315328D01*
X318484Y313360D02*
Y314672D01*
X317500D01*
X317828Y314016D01*
Y313688D01*
X317500Y313360D01*
X316844D01*
X316516Y313688D01*
Y314344D01*
X316844Y314672D01*
X310172Y321156D02*
X309844Y321484D01*
X309188D01*
X308860Y321156D01*
Y319844D01*
X309188Y319516D01*
X309844D01*
X310172Y319844D01*
X311812Y319516D02*
Y321484D01*
X310828Y320500D01*
X312140D01*
X295172Y291656D02*
X294844Y291984D01*
X294188D01*
X293860Y291656D01*
Y290344D01*
X294188Y290016D01*
X294844D01*
X295172Y290344D01*
X295828Y291656D02*
X296156Y291984D01*
X296812D01*
X297140Y291656D01*
Y291328D01*
X296812Y291000D01*
X296484D01*
X296812D01*
X297140Y290672D01*
Y290344D01*
X296812Y290016D01*
X296156D01*
X295828Y290344D01*
X339656Y323828D02*
X339984Y324156D01*
Y324812D01*
X339656Y325140D01*
X338344D01*
X338016Y324812D01*
Y324156D01*
X338344Y323828D01*
X338016Y321860D02*
Y323172D01*
X339328Y321860D01*
X339656D01*
X339984Y322188D01*
Y322844D01*
X339656Y323172D01*
X316500Y331156D02*
X316172Y331484D01*
X315516D01*
X315188Y331156D01*
Y329844D01*
X315516Y329516D01*
X316172D01*
X316500Y329844D01*
X317156Y329516D02*
X317812D01*
X317484D01*
Y331484D01*
X317156Y331156D01*
M02*
