G04*
G04 #@! TF.GenerationSoftware,Altium Limited,Altium Designer,23.1.1 (15)*
G04*
G04 Layer_Color=0*
%FSLAX25Y25*%
%MOIN*%
G70*
G04*
G04 #@! TF.SameCoordinates,379D8D2B-01B5-4923-9211-1CC0BA53C839*
G04*
G04*
G04 #@! TF.FilePolarity,Positive*
G04*
G01*
G75*
%ADD10C,0.00394*%
%ADD11C,0.00787*%
%ADD70C,0.00197*%
D10*
X281031Y310000D02*
X284968D01*
X283000Y308032D02*
Y311968D01*
X281532Y279854D02*
X285469D01*
X283500Y277886D02*
Y281823D01*
D11*
X498799Y287728D02*
X518910D01*
X498799Y271980D02*
Y287728D01*
Y271980D02*
X518910D01*
Y287728D01*
X537807Y307740D02*
Y329000D01*
Y307740D02*
X551193D01*
Y329000D01*
X537807D02*
X551193D01*
X369197Y331626D02*
X392425D01*
Y228083D02*
Y331626D01*
X369197Y228083D02*
X392425D01*
X369197D02*
Y331626D01*
X537807Y229000D02*
Y250260D01*
Y229000D02*
X551193D01*
Y250260D01*
X537807D02*
X551193D01*
D70*
X342728Y258347D02*
X346272D01*
X342728Y251654D02*
X346272D01*
X342728D02*
Y258347D01*
X346272Y251654D02*
Y258347D01*
X344500Y253917D02*
Y256083D01*
X343417Y255000D02*
X345583D01*
X286937Y301339D02*
Y318661D01*
X279063Y301339D02*
Y318661D01*
Y301339D02*
X286937D01*
X279063Y318661D02*
X286937D01*
X273264Y266862D02*
X293736D01*
X273264Y292846D02*
X293736D01*
Y266862D02*
Y292846D01*
X273264Y266862D02*
Y292846D01*
X526571Y260071D02*
Y299638D01*
Y260071D02*
X559721D01*
Y299638D01*
X526571D02*
X559721D01*
X522728Y274346D02*
X526272D01*
X522728Y267653D02*
X526272D01*
X522728D02*
Y274346D01*
X526272Y267653D02*
Y274346D01*
X524500Y269917D02*
Y272083D01*
X523417Y271000D02*
X525583D01*
X522228Y288846D02*
X525772D01*
X522228Y282154D02*
X525772D01*
X522228D02*
Y288846D01*
X525772Y282154D02*
Y288846D01*
X524000Y284417D02*
Y286583D01*
X522917Y285500D02*
X525083D01*
X363917Y253500D02*
X366083D01*
X365000Y252417D02*
Y254583D01*
X363228Y257043D02*
X366772D01*
X363228Y249957D02*
X366772D01*
X363228D02*
Y257043D01*
X366772Y249957D02*
Y257043D01*
X495500Y282417D02*
Y284583D01*
X494417Y283500D02*
X496583D01*
X499043Y281728D02*
Y285272D01*
X491957Y281728D02*
Y285272D01*
X499043D01*
X491957Y281728D02*
X499043D01*
M02*
