G04*
G04 #@! TF.GenerationSoftware,Altium Limited,Altium Designer,23.1.1 (15)*
G04*
G04 Layer_Color=32768*
%FSLAX25Y25*%
%MOIN*%
G70*
G04*
G04 #@! TF.SameCoordinates,379D8D2B-01B5-4923-9211-1CC0BA53C839*
G04*
G04*
G04 #@! TF.FilePolarity,Positive*
G04*
G01*
G75*
G36*
X306573Y295619D02*
X306588D01*
X306606Y295616D01*
X306647Y295608D01*
X306693Y295597D01*
X306741Y295579D01*
X306789Y295555D01*
X306813Y295540D01*
X306835Y295522D01*
X306837Y295520D01*
X306839Y295518D01*
X306845Y295512D01*
X306852Y295505D01*
X306861Y295494D01*
X306872Y295481D01*
X306893Y295451D01*
X306915Y295411D01*
X306937Y295363D01*
X306954Y295309D01*
X306967Y295246D01*
X306789Y295230D01*
Y295233D01*
X306786Y295237D01*
Y295241D01*
X306784Y295250D01*
X306778Y295274D01*
X306769Y295300D01*
X306758Y295331D01*
X306743Y295361D01*
X306726Y295390D01*
X306704Y295413D01*
X306701Y295416D01*
X306693Y295422D01*
X306678Y295431D01*
X306660Y295440D01*
X306636Y295451D01*
X306608Y295459D01*
X306575Y295466D01*
X306540Y295468D01*
X306525D01*
X306510Y295466D01*
X306490Y295464D01*
X306466Y295459D01*
X306442Y295453D01*
X306416Y295444D01*
X306392Y295431D01*
X306390Y295429D01*
X306381Y295424D01*
X306368Y295416D01*
X306355Y295403D01*
X306337Y295387D01*
X306320Y295370D01*
X306303Y295350D01*
X306285Y295326D01*
X306283Y295324D01*
X306279Y295313D01*
X306270Y295298D01*
X306261Y295278D01*
X306250Y295252D01*
X306239Y295222D01*
X306228Y295187D01*
X306218Y295148D01*
Y295145D01*
X306215Y295143D01*
Y295137D01*
X306213Y295128D01*
X306209Y295106D01*
X306202Y295078D01*
X306198Y295043D01*
X306194Y295006D01*
X306191Y294965D01*
X306189Y294921D01*
Y294919D01*
Y294912D01*
Y294901D01*
Y294884D01*
X306191Y294888D01*
X306200Y294899D01*
X306213Y294914D01*
X306228Y294936D01*
X306250Y294958D01*
X306276Y294982D01*
X306307Y295006D01*
X306342Y295028D01*
X306346Y295030D01*
X306359Y295036D01*
X306379Y295045D01*
X306403Y295054D01*
X306435Y295065D01*
X306470Y295074D01*
X306510Y295080D01*
X306551Y295082D01*
X306569D01*
X306582Y295080D01*
X306599Y295078D01*
X306616Y295076D01*
X306638Y295071D01*
X306660Y295065D01*
X306710Y295050D01*
X306736Y295039D01*
X306763Y295025D01*
X306791Y295010D01*
X306817Y294991D01*
X306843Y294971D01*
X306867Y294947D01*
X306869Y294945D01*
X306874Y294940D01*
X306878Y294934D01*
X306887Y294923D01*
X306898Y294908D01*
X306909Y294893D01*
X306920Y294873D01*
X306930Y294851D01*
X306943Y294827D01*
X306954Y294801D01*
X306965Y294770D01*
X306976Y294740D01*
X306985Y294705D01*
X306989Y294668D01*
X306994Y294631D01*
X306996Y294589D01*
Y294587D01*
Y294579D01*
Y294568D01*
X306994Y294552D01*
X306991Y294533D01*
X306989Y294509D01*
X306985Y294485D01*
X306978Y294457D01*
X306963Y294400D01*
X306952Y294369D01*
X306939Y294337D01*
X306924Y294306D01*
X306904Y294278D01*
X306885Y294247D01*
X306861Y294221D01*
X306858Y294219D01*
X306854Y294215D01*
X306848Y294208D01*
X306837Y294199D01*
X306824Y294188D01*
X306806Y294175D01*
X306789Y294164D01*
X306767Y294149D01*
X306745Y294136D01*
X306719Y294125D01*
X306660Y294101D01*
X306630Y294092D01*
X306595Y294086D01*
X306560Y294082D01*
X306523Y294079D01*
X306507D01*
X306497Y294082D01*
X306486D01*
X306470Y294084D01*
X306433Y294090D01*
X306392Y294099D01*
X306346Y294114D01*
X306300Y294134D01*
X306255Y294160D01*
X306252D01*
X306250Y294164D01*
X306244Y294169D01*
X306235Y294175D01*
X306213Y294193D01*
X306185Y294217D01*
X306156Y294249D01*
X306124Y294289D01*
X306096Y294334D01*
X306069Y294387D01*
Y294389D01*
X306067Y294393D01*
X306063Y294402D01*
X306058Y294413D01*
X306054Y294428D01*
X306048Y294448D01*
X306043Y294470D01*
X306037Y294494D01*
X306030Y294522D01*
X306024Y294555D01*
X306019Y294589D01*
X306015Y294627D01*
X306010Y294668D01*
X306006Y294712D01*
X306004Y294759D01*
Y294810D01*
Y294812D01*
Y294823D01*
Y294838D01*
Y294858D01*
X306006Y294882D01*
Y294910D01*
X306008Y294943D01*
X306013Y294975D01*
X306019Y295050D01*
X306030Y295128D01*
X306045Y295202D01*
X306056Y295239D01*
X306067Y295272D01*
Y295274D01*
X306069Y295278D01*
X306074Y295287D01*
X306078Y295300D01*
X306085Y295313D01*
X306093Y295331D01*
X306115Y295368D01*
X306141Y295409D01*
X306172Y295453D01*
X306211Y295494D01*
X306255Y295531D01*
X306257D01*
X306261Y295536D01*
X306268Y295540D01*
X306276Y295544D01*
X306290Y295551D01*
X306303Y295560D01*
X306320Y295568D01*
X306337Y295575D01*
X306379Y295592D01*
X306429Y295608D01*
X306484Y295616D01*
X306544Y295621D01*
X306562D01*
X306573Y295619D01*
D02*
G37*
G36*
X307833D02*
X307853D01*
X307876Y295616D01*
X307903Y295612D01*
X307933Y295608D01*
X307996Y295597D01*
X308062Y295579D01*
X308127Y295555D01*
X308158Y295540D01*
X308188Y295522D01*
X308190Y295520D01*
X308195Y295518D01*
X308204Y295512D01*
X308212Y295503D01*
X308225Y295494D01*
X308241Y295481D01*
X308258Y295466D01*
X308276Y295448D01*
X308293Y295429D01*
X308313Y295409D01*
X308352Y295359D01*
X308389Y295300D01*
X308421Y295235D01*
Y295233D01*
X308426Y295226D01*
X308428Y295215D01*
X308435Y295202D01*
X308439Y295185D01*
X308446Y295163D01*
X308454Y295139D01*
X308461Y295113D01*
X308467Y295084D01*
X308476Y295052D01*
X308487Y294984D01*
X308496Y294908D01*
X308500Y294829D01*
Y294827D01*
Y294818D01*
Y294805D01*
X308498Y294790D01*
Y294768D01*
X308496Y294746D01*
X308493Y294718D01*
X308489Y294690D01*
X308478Y294627D01*
X308463Y294557D01*
X308441Y294487D01*
X308411Y294420D01*
X308408Y294417D01*
X308406Y294411D01*
X308402Y294402D01*
X308393Y294391D01*
X308384Y294376D01*
X308374Y294358D01*
X308345Y294319D01*
X308308Y294276D01*
X308265Y294232D01*
X308214Y294188D01*
X308156Y294151D01*
X308153Y294149D01*
X308147Y294147D01*
X308138Y294143D01*
X308127Y294136D01*
X308110Y294129D01*
X308092Y294123D01*
X308070Y294114D01*
X308047Y294106D01*
X308020Y294097D01*
X307992Y294088D01*
X307931Y294075D01*
X307861Y294064D01*
X307789Y294060D01*
X307768D01*
X307752Y294062D01*
X307733Y294064D01*
X307709Y294066D01*
X307685Y294069D01*
X307656Y294075D01*
X307597Y294088D01*
X307532Y294108D01*
X307499Y294121D01*
X307469Y294136D01*
X307438Y294156D01*
X307408Y294175D01*
X307406Y294178D01*
X307401Y294180D01*
X307393Y294186D01*
X307382Y294197D01*
X307371Y294208D01*
X307355Y294223D01*
X307340Y294241D01*
X307323Y294258D01*
X307305Y294280D01*
X307288Y294306D01*
X307268Y294332D01*
X307251Y294361D01*
X307236Y294393D01*
X307218Y294426D01*
X307205Y294461D01*
X307192Y294500D01*
X307388Y294546D01*
Y294544D01*
X307390Y294539D01*
X307395Y294531D01*
X307399Y294520D01*
X307403Y294507D01*
X307410Y294489D01*
X307427Y294454D01*
X307449Y294415D01*
X307475Y294376D01*
X307508Y294339D01*
X307543Y294306D01*
X307547Y294302D01*
X307560Y294293D01*
X307582Y294282D01*
X307611Y294267D01*
X307648Y294254D01*
X307689Y294241D01*
X307739Y294232D01*
X307794Y294230D01*
X307811D01*
X307822Y294232D01*
X307837D01*
X307855Y294234D01*
X307896Y294241D01*
X307942Y294249D01*
X307990Y294265D01*
X308040Y294286D01*
X308086Y294315D01*
X308088D01*
X308090Y294319D01*
X308105Y294330D01*
X308125Y294348D01*
X308149Y294374D01*
X308177Y294406D01*
X308204Y294443D01*
X308227Y294489D01*
X308249Y294539D01*
Y294542D01*
X308252Y294546D01*
X308254Y294552D01*
X308256Y294563D01*
X308260Y294576D01*
X308265Y294592D01*
X308271Y294629D01*
X308280Y294672D01*
X308289Y294720D01*
X308293Y294773D01*
X308295Y294829D01*
Y294831D01*
Y294838D01*
Y294849D01*
Y294862D01*
X308293Y294877D01*
Y294897D01*
X308291Y294919D01*
X308289Y294943D01*
X308282Y294995D01*
X308271Y295052D01*
X308258Y295108D01*
X308241Y295165D01*
Y295167D01*
X308238Y295172D01*
X308234Y295178D01*
X308230Y295189D01*
X308217Y295215D01*
X308197Y295246D01*
X308173Y295281D01*
X308142Y295318D01*
X308108Y295350D01*
X308066Y295381D01*
X308064D01*
X308060Y295383D01*
X308053Y295387D01*
X308044Y295392D01*
X308033Y295396D01*
X308020Y295403D01*
X307990Y295416D01*
X307951Y295429D01*
X307907Y295440D01*
X307859Y295448D01*
X307809Y295451D01*
X307794D01*
X307781Y295448D01*
X307765D01*
X307750Y295446D01*
X307711Y295438D01*
X307665Y295427D01*
X307619Y295409D01*
X307571Y295385D01*
X307547Y295372D01*
X307525Y295355D01*
X307523Y295353D01*
X307521Y295350D01*
X307515Y295344D01*
X307506Y295337D01*
X307497Y295326D01*
X307486Y295313D01*
X307473Y295300D01*
X307462Y295283D01*
X307449Y295263D01*
X307434Y295241D01*
X307421Y295219D01*
X307408Y295193D01*
X307397Y295165D01*
X307386Y295134D01*
X307375Y295102D01*
X307366Y295067D01*
X307166Y295117D01*
Y295119D01*
X307168Y295128D01*
X307172Y295141D01*
X307179Y295159D01*
X307186Y295178D01*
X307194Y295202D01*
X307205Y295228D01*
X307218Y295257D01*
X307249Y295318D01*
X307288Y295379D01*
X307312Y295409D01*
X307336Y295440D01*
X307362Y295466D01*
X307393Y295492D01*
X307395Y295494D01*
X307399Y295499D01*
X307410Y295503D01*
X307421Y295512D01*
X307438Y295522D01*
X307456Y295533D01*
X307480Y295544D01*
X307504Y295555D01*
X307532Y295568D01*
X307563Y295579D01*
X307595Y295590D01*
X307630Y295601D01*
X307667Y295610D01*
X307706Y295614D01*
X307748Y295619D01*
X307791Y295621D01*
X307816D01*
X307833Y295619D01*
D02*
G37*
G36*
X299641Y286500D02*
X299455D01*
Y287679D01*
X299453Y287677D01*
X299442Y287668D01*
X299429Y287655D01*
X299408Y287640D01*
X299383Y287620D01*
X299353Y287599D01*
X299318Y287575D01*
X299279Y287551D01*
X299277D01*
X299274Y287549D01*
X299261Y287540D01*
X299240Y287529D01*
X299214Y287516D01*
X299183Y287501D01*
X299150Y287485D01*
X299118Y287470D01*
X299085Y287457D01*
Y287636D01*
X299087D01*
X299091Y287640D01*
X299100Y287642D01*
X299111Y287649D01*
X299124Y287655D01*
X299139Y287664D01*
X299176Y287686D01*
X299220Y287710D01*
X299264Y287740D01*
X299309Y287775D01*
X299355Y287812D01*
X299357Y287814D01*
X299359Y287817D01*
X299366Y287823D01*
X299375Y287830D01*
X299394Y287852D01*
X299421Y287878D01*
X299447Y287908D01*
X299475Y287943D01*
X299499Y287978D01*
X299521Y288015D01*
X299641D01*
Y286500D01*
D02*
G37*
G36*
X298217Y288006D02*
X298237D01*
X298283Y288004D01*
X298331Y287998D01*
X298383Y287991D01*
X298431Y287980D01*
X298455Y287974D01*
X298475Y287967D01*
X298477D01*
X298479Y287965D01*
X298492Y287958D01*
X298512Y287950D01*
X298535Y287934D01*
X298562Y287915D01*
X298590Y287889D01*
X298616Y287858D01*
X298642Y287823D01*
Y287821D01*
X298644Y287819D01*
X298653Y287806D01*
X298662Y287784D01*
X298675Y287756D01*
X298686Y287723D01*
X298697Y287684D01*
X298703Y287642D01*
X298706Y287597D01*
Y287594D01*
Y287590D01*
Y287581D01*
X298703Y287570D01*
Y287555D01*
X298701Y287540D01*
X298692Y287503D01*
X298679Y287459D01*
X298662Y287413D01*
X298636Y287368D01*
X298618Y287346D01*
X298601Y287324D01*
X298599Y287322D01*
X298597Y287320D01*
X298590Y287313D01*
X298581Y287307D01*
X298570Y287298D01*
X298557Y287289D01*
X298540Y287278D01*
X298522Y287265D01*
X298501Y287254D01*
X298477Y287243D01*
X298450Y287230D01*
X298422Y287219D01*
X298389Y287211D01*
X298357Y287200D01*
X298320Y287193D01*
X298280Y287187D01*
X298285Y287185D01*
X298293Y287180D01*
X298307Y287171D01*
X298324Y287163D01*
X298363Y287139D01*
X298383Y287123D01*
X298400Y287110D01*
X298405Y287106D01*
X298416Y287095D01*
X298433Y287078D01*
X298455Y287056D01*
X298479Y287025D01*
X298507Y286993D01*
X298535Y286953D01*
X298566Y286910D01*
X298825Y286500D01*
X298577D01*
X298378Y286814D01*
Y286816D01*
X298374Y286821D01*
X298370Y286827D01*
X298363Y286836D01*
X298348Y286860D01*
X298328Y286890D01*
X298304Y286923D01*
X298280Y286958D01*
X298256Y286990D01*
X298235Y287021D01*
X298233Y287023D01*
X298226Y287032D01*
X298215Y287045D01*
X298200Y287060D01*
X298167Y287093D01*
X298150Y287108D01*
X298132Y287121D01*
X298130Y287123D01*
X298126Y287126D01*
X298117Y287130D01*
X298104Y287137D01*
X298091Y287143D01*
X298076Y287150D01*
X298041Y287160D01*
X298039D01*
X298034Y287163D01*
X298025D01*
X298014Y287165D01*
X297999Y287167D01*
X297982D01*
X297958Y287169D01*
X297701D01*
Y286500D01*
X297500D01*
Y288009D01*
X298200D01*
X298217Y288006D01*
D02*
G37*
G36*
X350138Y283550D02*
X350500D01*
Y283365D01*
X350138D01*
Y282708D01*
X349968D01*
X348991Y283399D01*
Y283550D01*
X349968D01*
Y283755D01*
X350138D01*
Y283550D01*
D02*
G37*
G36*
X350304Y282592D02*
X350326D01*
X350348Y282590D01*
X350376Y282588D01*
X350405Y282584D01*
X350468Y282573D01*
X350538Y282557D01*
X350607Y282536D01*
X350675Y282505D01*
X350677Y282503D01*
X350684Y282501D01*
X350693Y282496D01*
X350703Y282488D01*
X350719Y282479D01*
X350736Y282468D01*
X350775Y282440D01*
X350819Y282403D01*
X350863Y282359D01*
X350906Y282309D01*
X350943Y282250D01*
X350945Y282248D01*
X350947Y282241D01*
X350952Y282233D01*
X350958Y282222D01*
X350965Y282204D01*
X350972Y282187D01*
X350980Y282165D01*
X350989Y282141D01*
X350998Y282115D01*
X351006Y282086D01*
X351020Y282026D01*
X351030Y281956D01*
X351035Y281884D01*
Y281862D01*
X351032Y281847D01*
X351030Y281827D01*
X351028Y281803D01*
X351026Y281779D01*
X351020Y281751D01*
X351006Y281692D01*
X350987Y281627D01*
X350974Y281594D01*
X350958Y281563D01*
X350939Y281533D01*
X350919Y281502D01*
X350917Y281500D01*
X350915Y281496D01*
X350908Y281487D01*
X350897Y281476D01*
X350887Y281465D01*
X350871Y281450D01*
X350854Y281435D01*
X350836Y281417D01*
X350815Y281400D01*
X350788Y281382D01*
X350762Y281363D01*
X350734Y281345D01*
X350701Y281330D01*
X350669Y281313D01*
X350634Y281300D01*
X350594Y281287D01*
X350549Y281483D01*
X350551D01*
X350555Y281485D01*
X350564Y281489D01*
X350575Y281494D01*
X350588Y281498D01*
X350605Y281505D01*
X350640Y281522D01*
X350679Y281544D01*
X350719Y281570D01*
X350756Y281603D01*
X350788Y281638D01*
X350793Y281642D01*
X350801Y281655D01*
X350812Y281677D01*
X350828Y281705D01*
X350841Y281742D01*
X350854Y281784D01*
X350863Y281834D01*
X350865Y281888D01*
Y281906D01*
X350863Y281916D01*
Y281932D01*
X350860Y281949D01*
X350854Y281991D01*
X350845Y282036D01*
X350830Y282084D01*
X350808Y282135D01*
X350780Y282180D01*
Y282183D01*
X350775Y282185D01*
X350764Y282200D01*
X350747Y282220D01*
X350721Y282243D01*
X350688Y282272D01*
X350651Y282298D01*
X350605Y282322D01*
X350555Y282344D01*
X350553D01*
X350549Y282346D01*
X350542Y282348D01*
X350531Y282350D01*
X350518Y282355D01*
X350503Y282359D01*
X350466Y282366D01*
X350422Y282374D01*
X350374Y282383D01*
X350322Y282387D01*
X350265Y282390D01*
X350263D01*
X350256D01*
X350246D01*
X350233D01*
X350217Y282387D01*
X350198D01*
X350176Y282385D01*
X350152Y282383D01*
X350099Y282377D01*
X350043Y282366D01*
X349986Y282352D01*
X349929Y282335D01*
X349927D01*
X349923Y282333D01*
X349916Y282329D01*
X349905Y282324D01*
X349879Y282311D01*
X349856Y282296D01*
X350500D01*
Y282111D01*
X349690D01*
X349679Y282084D01*
X349666Y282045D01*
X349655Y282001D01*
X349646Y281954D01*
X349644Y281903D01*
Y281888D01*
X349646Y281875D01*
Y281860D01*
X349648Y281845D01*
X349657Y281805D01*
X349668Y281760D01*
X349685Y281714D01*
X349709Y281666D01*
X349722Y281642D01*
X349740Y281620D01*
X349742Y281618D01*
X349744Y281616D01*
X349751Y281609D01*
X349757Y281600D01*
X349768Y281592D01*
X349781Y281581D01*
X349794Y281568D01*
X349812Y281557D01*
X349831Y281544D01*
X349853Y281528D01*
X349875Y281515D01*
X349901Y281502D01*
X349929Y281491D01*
X349960Y281481D01*
X349993Y281470D01*
X350028Y281461D01*
X349977Y281260D01*
X349975D01*
X349967Y281262D01*
X349953Y281267D01*
X349936Y281273D01*
X349916Y281280D01*
X349892Y281289D01*
X349866Y281300D01*
X349838Y281313D01*
X349777Y281343D01*
X349716Y281382D01*
X349685Y281406D01*
X349655Y281430D01*
X349629Y281456D01*
X349603Y281487D01*
X349600Y281489D01*
X349596Y281494D01*
X349592Y281505D01*
X349583Y281515D01*
X349572Y281533D01*
X349561Y281550D01*
X349550Y281574D01*
X349539Y281598D01*
X349526Y281627D01*
X349515Y281657D01*
X349504Y281690D01*
X349494Y281725D01*
X349490Y281740D01*
X349364D01*
Y281743D01*
X349360Y281747D01*
X349358Y281756D01*
X349351Y281767D01*
X349345Y281780D01*
X349336Y281795D01*
X349314Y281832D01*
X349290Y281875D01*
X349260Y281919D01*
X349225Y281965D01*
X349188Y282011D01*
X349185Y282013D01*
X349183Y282015D01*
X349177Y282022D01*
X349170Y282030D01*
X349148Y282050D01*
X349122Y282076D01*
X349092Y282102D01*
X349057Y282131D01*
X349022Y282155D01*
X348985Y282176D01*
Y282296D01*
X349582D01*
X349583Y282298D01*
X349592Y282307D01*
X349600Y282320D01*
X349613Y282335D01*
X349629Y282352D01*
X349646Y282370D01*
X349666Y282387D01*
X349685Y282407D01*
X349735Y282446D01*
X349794Y282483D01*
X349860Y282516D01*
X349862D01*
X349868Y282520D01*
X349879Y282523D01*
X349892Y282529D01*
X349910Y282533D01*
X349932Y282540D01*
X349956Y282549D01*
X349982Y282555D01*
X350010Y282562D01*
X350043Y282571D01*
X350110Y282581D01*
X350187Y282590D01*
X350265Y282594D01*
X350267D01*
X350276D01*
X350289D01*
X350304Y282592D01*
D02*
G37*
G36*
X350033Y281427D02*
X350047Y281422D01*
X350064Y281416D01*
X350084Y281409D01*
X350108Y281400D01*
X350134Y281389D01*
X350162Y281376D01*
X350223Y281346D01*
X350284Y281307D01*
X350315Y281283D01*
X350345Y281259D01*
X350371Y281232D01*
X350397Y281202D01*
X350400Y281200D01*
X350404Y281195D01*
X350408Y281185D01*
X350417Y281174D01*
X350428Y281156D01*
X350439Y281139D01*
X350450Y281115D01*
X350461Y281091D01*
X350474Y281062D01*
X350485Y281032D01*
X350496Y280999D01*
X350506Y280964D01*
X350510Y280949D01*
X350636D01*
Y280946D01*
X350640Y280942D01*
X350642Y280933D01*
X350649Y280922D01*
X350655Y280909D01*
X350664Y280894D01*
X350686Y280857D01*
X350710Y280813D01*
X350740Y280770D01*
X350775Y280724D01*
X350812Y280678D01*
X350815Y280676D01*
X350817Y280674D01*
X350823Y280667D01*
X350830Y280659D01*
X350852Y280639D01*
X350878Y280613D01*
X350908Y280587D01*
X350943Y280558D01*
X350978Y280534D01*
X351015Y280513D01*
Y280393D01*
X350418D01*
X350417Y280391D01*
X350408Y280382D01*
X350400Y280369D01*
X350387Y280354D01*
X350371Y280336D01*
X350354Y280319D01*
X350334Y280302D01*
X350315Y280282D01*
X350265Y280243D01*
X350206Y280206D01*
X350140Y280173D01*
X350138D01*
X350132Y280169D01*
X350121Y280166D01*
X350108Y280160D01*
X350090Y280155D01*
X350068Y280149D01*
X350044Y280140D01*
X350018Y280134D01*
X349990Y280127D01*
X349957Y280118D01*
X349890Y280108D01*
X349813Y280099D01*
X349735Y280095D01*
X349733D01*
X349724D01*
X349711D01*
X349696Y280097D01*
X349674D01*
X349652Y280099D01*
X349624Y280101D01*
X349595Y280105D01*
X349532Y280116D01*
X349462Y280132D01*
X349393Y280153D01*
X349325Y280184D01*
X349323Y280186D01*
X349316Y280188D01*
X349307Y280193D01*
X349297Y280201D01*
X349281Y280210D01*
X349264Y280221D01*
X349225Y280249D01*
X349181Y280286D01*
X349137Y280330D01*
X349094Y280380D01*
X349057Y280439D01*
X349055Y280441D01*
X349053Y280448D01*
X349048Y280456D01*
X349042Y280467D01*
X349035Y280485D01*
X349028Y280502D01*
X349020Y280524D01*
X349011Y280548D01*
X349002Y280574D01*
X348994Y280602D01*
X348980Y280663D01*
X348970Y280733D01*
X348965Y280805D01*
Y280827D01*
X348968Y280842D01*
X348970Y280862D01*
X348972Y280886D01*
X348974Y280910D01*
X348980Y280938D01*
X348994Y280997D01*
X349013Y281062D01*
X349026Y281095D01*
X349042Y281126D01*
X349061Y281156D01*
X349081Y281187D01*
X349083Y281189D01*
X349085Y281193D01*
X349092Y281202D01*
X349103Y281213D01*
X349113Y281224D01*
X349129Y281239D01*
X349146Y281254D01*
X349164Y281272D01*
X349185Y281289D01*
X349212Y281307D01*
X349238Y281326D01*
X349266Y281344D01*
X349299Y281359D01*
X349331Y281376D01*
X349366Y281389D01*
X349406Y281402D01*
X349451Y281206D01*
X349449D01*
X349445Y281204D01*
X349436Y281200D01*
X349425Y281195D01*
X349412Y281191D01*
X349395Y281185D01*
X349360Y281167D01*
X349321Y281145D01*
X349281Y281119D01*
X349244Y281086D01*
X349212Y281051D01*
X349207Y281047D01*
X349199Y281034D01*
X349188Y281012D01*
X349172Y280984D01*
X349159Y280947D01*
X349146Y280905D01*
X349137Y280855D01*
X349135Y280801D01*
Y280783D01*
X349137Y280772D01*
Y280757D01*
X349140Y280740D01*
X349146Y280698D01*
X349155Y280653D01*
X349170Y280605D01*
X349192Y280555D01*
X349220Y280509D01*
Y280506D01*
X349225Y280504D01*
X349236Y280489D01*
X349253Y280469D01*
X349279Y280446D01*
X349312Y280417D01*
X349349Y280391D01*
X349395Y280367D01*
X349445Y280345D01*
X349447D01*
X349451Y280343D01*
X349458Y280341D01*
X349469Y280339D01*
X349482Y280334D01*
X349497Y280330D01*
X349534Y280323D01*
X349578Y280315D01*
X349626Y280306D01*
X349678Y280302D01*
X349735Y280299D01*
X349737D01*
X349744D01*
X349754D01*
X349767D01*
X349783Y280302D01*
X349802D01*
X349824Y280304D01*
X349848Y280306D01*
X349901Y280312D01*
X349957Y280323D01*
X350014Y280336D01*
X350071Y280354D01*
X350073D01*
X350077Y280356D01*
X350084Y280360D01*
X350095Y280365D01*
X350121Y280378D01*
X350144Y280393D01*
X349500D01*
Y280578D01*
X350310D01*
X350321Y280605D01*
X350334Y280644D01*
X350345Y280687D01*
X350354Y280735D01*
X350356Y280785D01*
Y280801D01*
X350354Y280814D01*
Y280829D01*
X350352Y280844D01*
X350343Y280884D01*
X350332Y280929D01*
X350315Y280975D01*
X350291Y281023D01*
X350278Y281047D01*
X350260Y281069D01*
X350258Y281071D01*
X350256Y281073D01*
X350249Y281080D01*
X350243Y281089D01*
X350232Y281097D01*
X350219Y281108D01*
X350206Y281121D01*
X350188Y281132D01*
X350169Y281145D01*
X350147Y281160D01*
X350125Y281174D01*
X350099Y281187D01*
X350071Y281198D01*
X350040Y281208D01*
X350007Y281219D01*
X349972Y281228D01*
X350023Y281429D01*
X350025D01*
X350033Y281427D01*
D02*
G37*
G36*
X349923Y279730D02*
X349921D01*
X349916Y279728D01*
X349908Y279726D01*
X349897Y279723D01*
X349884Y279721D01*
X349868Y279717D01*
X349836Y279706D01*
X349797Y279691D01*
X349759Y279671D01*
X349725Y279649D01*
X349694Y279623D01*
X349692Y279619D01*
X349683Y279610D01*
X349672Y279593D01*
X349661Y279571D01*
X349648Y279545D01*
X349637Y279512D01*
X349629Y279475D01*
X349626Y279436D01*
Y279423D01*
X349629Y279414D01*
X349631Y279390D01*
X349637Y279359D01*
X349648Y279325D01*
X349663Y279287D01*
X349685Y279250D01*
X349716Y279216D01*
X349720Y279211D01*
X349733Y279200D01*
X349753Y279187D01*
X349779Y279170D01*
X349812Y279152D01*
X349849Y279139D01*
X349892Y279128D01*
X349940Y279124D01*
X349942D01*
X349947D01*
X349953D01*
X349962Y279126D01*
X349986Y279128D01*
X350014Y279135D01*
X350049Y279144D01*
X350084Y279159D01*
X350119Y279181D01*
X350152Y279209D01*
X350156Y279213D01*
X350165Y279224D01*
X350178Y279242D01*
X350193Y279266D01*
X350208Y279296D01*
X350222Y279333D01*
X350230Y279375D01*
X350235Y279420D01*
Y279440D01*
X350233Y279455D01*
X350230Y279475D01*
X350226Y279497D01*
X350222Y279523D01*
X350215Y279551D01*
X350378Y279529D01*
Y279519D01*
X350376Y279510D01*
Y279481D01*
X350381Y279457D01*
X350385Y279429D01*
X350392Y279396D01*
X350402Y279359D01*
X350418Y279325D01*
X350437Y279287D01*
Y279285D01*
X350440Y279283D01*
X350448Y279272D01*
X350464Y279257D01*
X350483Y279240D01*
X350512Y279222D01*
X350544Y279207D01*
X350581Y279196D01*
X350603Y279191D01*
X350627D01*
X350629D01*
X350631D01*
X350644D01*
X350662Y279196D01*
X350686Y279200D01*
X350712Y279209D01*
X350740Y279220D01*
X350769Y279237D01*
X350795Y279261D01*
X350797Y279263D01*
X350806Y279274D01*
X350817Y279290D01*
X350830Y279309D01*
X350841Y279335D01*
X350852Y279366D01*
X350860Y279401D01*
X350863Y279440D01*
Y279457D01*
X350858Y279477D01*
X350854Y279503D01*
X350845Y279532D01*
X350834Y279560D01*
X350817Y279590D01*
X350795Y279619D01*
X350793Y279621D01*
X350782Y279630D01*
X350767Y279643D01*
X350745Y279658D01*
X350716Y279673D01*
X350682Y279689D01*
X350640Y279702D01*
X350592Y279710D01*
X350625Y279896D01*
X350627D01*
X350634Y279893D01*
X350642Y279891D01*
X350655Y279889D01*
X350671Y279885D01*
X350688Y279878D01*
X350729Y279865D01*
X350778Y279843D01*
X350825Y279817D01*
X350871Y279784D01*
X350913Y279743D01*
X350915Y279741D01*
X350917Y279736D01*
X350921Y279730D01*
X350928Y279721D01*
X350937Y279710D01*
X350945Y279695D01*
X350954Y279680D01*
X350965Y279660D01*
X350982Y279617D01*
X351000Y279567D01*
X351011Y279508D01*
X351015Y279477D01*
Y279423D01*
X351013Y279399D01*
X351009Y279370D01*
X351002Y279335D01*
X350991Y279296D01*
X350978Y279257D01*
X350961Y279218D01*
Y279216D01*
X350958Y279213D01*
X350952Y279200D01*
X350939Y279181D01*
X350923Y279159D01*
X350902Y279133D01*
X350878Y279106D01*
X350849Y279080D01*
X350817Y279059D01*
X350812Y279056D01*
X350801Y279050D01*
X350782Y279041D01*
X350758Y279030D01*
X350729Y279019D01*
X350697Y279011D01*
X350660Y279004D01*
X350623Y279002D01*
X350618D01*
X350605D01*
X350588Y279004D01*
X350564Y279008D01*
X350535Y279015D01*
X350505Y279026D01*
X350475Y279039D01*
X350444Y279056D01*
X350440Y279059D01*
X350431Y279065D01*
X350416Y279078D01*
X350398Y279096D01*
X350378Y279117D01*
X350357Y279144D01*
X350337Y279174D01*
X350318Y279211D01*
Y279209D01*
X350315Y279205D01*
X350313Y279198D01*
X350311Y279189D01*
X350302Y279165D01*
X350289Y279135D01*
X350272Y279100D01*
X350250Y279065D01*
X350222Y279032D01*
X350189Y279002D01*
X350184Y279000D01*
X350171Y278991D01*
X350150Y278978D01*
X350121Y278965D01*
X350086Y278952D01*
X350045Y278939D01*
X349997Y278930D01*
X349945Y278928D01*
X349942D01*
X349936D01*
X349925D01*
X349912Y278930D01*
X349895Y278932D01*
X349875Y278936D01*
X349853Y278941D01*
X349829Y278945D01*
X349777Y278963D01*
X349748Y278976D01*
X349722Y278989D01*
X349694Y279006D01*
X349666Y279026D01*
X349637Y279048D01*
X349611Y279074D01*
X349609Y279076D01*
X349605Y279080D01*
X349598Y279089D01*
X349589Y279100D01*
X349578Y279113D01*
X349568Y279131D01*
X349554Y279150D01*
X349544Y279174D01*
X349531Y279198D01*
X349517Y279226D01*
X349506Y279255D01*
X349496Y279287D01*
X349487Y279322D01*
X349480Y279359D01*
X349476Y279396D01*
X349474Y279438D01*
Y279457D01*
X349476Y279470D01*
X349478Y279488D01*
X349480Y279508D01*
X349485Y279529D01*
X349489Y279553D01*
X349502Y279606D01*
X349524Y279660D01*
X349537Y279689D01*
X349552Y279715D01*
X349572Y279741D01*
X349592Y279767D01*
X349594Y279769D01*
X349598Y279774D01*
X349605Y279780D01*
X349613Y279787D01*
X349624Y279798D01*
X349640Y279808D01*
X349655Y279821D01*
X349674Y279835D01*
X349696Y279848D01*
X349718Y279861D01*
X349770Y279885D01*
X349831Y279904D01*
X349864Y279911D01*
X349899Y279915D01*
X349923Y279730D01*
D02*
G37*
G36*
X330804Y276498D02*
X330826D01*
X330848Y276496D01*
X330876Y276494D01*
X330905Y276489D01*
X330968Y276478D01*
X331038Y276463D01*
X331107Y276441D01*
X331175Y276411D01*
X331177Y276408D01*
X331184Y276406D01*
X331192Y276402D01*
X331203Y276393D01*
X331219Y276384D01*
X331236Y276374D01*
X331275Y276345D01*
X331319Y276308D01*
X331363Y276265D01*
X331406Y276214D01*
X331443Y276156D01*
X331445Y276153D01*
X331448Y276147D01*
X331452Y276138D01*
X331458Y276127D01*
X331465Y276110D01*
X331471Y276092D01*
X331480Y276070D01*
X331489Y276047D01*
X331498Y276020D01*
X331506Y275992D01*
X331520Y275931D01*
X331530Y275861D01*
X331535Y275789D01*
Y275767D01*
X331533Y275752D01*
X331530Y275733D01*
X331528Y275709D01*
X331526Y275685D01*
X331520Y275656D01*
X331506Y275598D01*
X331487Y275532D01*
X331474Y275499D01*
X331458Y275469D01*
X331439Y275438D01*
X331419Y275408D01*
X331417Y275406D01*
X331415Y275401D01*
X331408Y275393D01*
X331397Y275382D01*
X331386Y275371D01*
X331371Y275356D01*
X331354Y275340D01*
X331336Y275323D01*
X331314Y275305D01*
X331288Y275288D01*
X331262Y275268D01*
X331234Y275251D01*
X331201Y275236D01*
X331169Y275218D01*
X331134Y275205D01*
X331094Y275192D01*
X331049Y275388D01*
X331051D01*
X331055Y275390D01*
X331064Y275395D01*
X331075Y275399D01*
X331088Y275403D01*
X331105Y275410D01*
X331140Y275427D01*
X331179Y275449D01*
X331219Y275475D01*
X331256Y275508D01*
X331288Y275543D01*
X331293Y275547D01*
X331301Y275560D01*
X331312Y275582D01*
X331328Y275611D01*
X331341Y275648D01*
X331354Y275689D01*
X331363Y275739D01*
X331365Y275794D01*
Y275811D01*
X331363Y275822D01*
Y275837D01*
X331360Y275855D01*
X331354Y275896D01*
X331345Y275942D01*
X331330Y275990D01*
X331308Y276040D01*
X331280Y276086D01*
Y276088D01*
X331275Y276090D01*
X331264Y276105D01*
X331247Y276125D01*
X331221Y276149D01*
X331188Y276177D01*
X331151Y276203D01*
X331105Y276227D01*
X331055Y276249D01*
X331053D01*
X331049Y276252D01*
X331042Y276254D01*
X331031Y276256D01*
X331018Y276260D01*
X331003Y276265D01*
X330966Y276271D01*
X330922Y276280D01*
X330874Y276289D01*
X330822Y276293D01*
X330765Y276295D01*
X330763D01*
X330756D01*
X330746D01*
X330732D01*
X330717Y276293D01*
X330698D01*
X330676Y276291D01*
X330652Y276289D01*
X330599Y276282D01*
X330543Y276271D01*
X330486Y276258D01*
X330430Y276241D01*
X330427D01*
X330423Y276238D01*
X330416Y276234D01*
X330405Y276230D01*
X330379Y276217D01*
X330349Y276197D01*
X330314Y276173D01*
X330277Y276143D01*
X330244Y276108D01*
X330214Y276066D01*
Y276064D01*
X330211Y276060D01*
X330207Y276053D01*
X330203Y276044D01*
X330198Y276033D01*
X330192Y276020D01*
X330179Y275990D01*
X330166Y275951D01*
X330155Y275907D01*
X330146Y275859D01*
X330144Y275809D01*
Y275794D01*
X330146Y275781D01*
Y275765D01*
X330148Y275750D01*
X330157Y275711D01*
X330168Y275665D01*
X330185Y275619D01*
X330209Y275571D01*
X330222Y275547D01*
X330240Y275525D01*
X330242Y275523D01*
X330244Y275521D01*
X330251Y275515D01*
X330257Y275506D01*
X330268Y275497D01*
X330281Y275486D01*
X330294Y275473D01*
X330312Y275462D01*
X330331Y275449D01*
X330353Y275434D01*
X330375Y275421D01*
X330401Y275408D01*
X330430Y275397D01*
X330460Y275386D01*
X330493Y275375D01*
X330528Y275366D01*
X330477Y275166D01*
X330475D01*
X330467Y275168D01*
X330453Y275172D01*
X330436Y275179D01*
X330416Y275185D01*
X330392Y275194D01*
X330366Y275205D01*
X330338Y275218D01*
X330277Y275249D01*
X330216Y275288D01*
X330185Y275312D01*
X330155Y275336D01*
X330129Y275362D01*
X330102Y275393D01*
X330100Y275395D01*
X330096Y275399D01*
X330092Y275410D01*
X330083Y275421D01*
X330072Y275438D01*
X330061Y275456D01*
X330050Y275480D01*
X330039Y275504D01*
X330026Y275532D01*
X330015Y275563D01*
X330004Y275595D01*
X329994Y275630D01*
X329985Y275667D01*
X329980Y275707D01*
X329976Y275748D01*
X329974Y275792D01*
Y275816D01*
X329976Y275833D01*
Y275852D01*
X329978Y275876D01*
X329983Y275903D01*
X329987Y275933D01*
X329998Y275996D01*
X330015Y276062D01*
X330039Y276127D01*
X330054Y276158D01*
X330072Y276188D01*
X330074Y276190D01*
X330076Y276195D01*
X330083Y276203D01*
X330092Y276212D01*
X330100Y276225D01*
X330113Y276241D01*
X330129Y276258D01*
X330146Y276275D01*
X330166Y276293D01*
X330185Y276312D01*
X330235Y276352D01*
X330294Y276389D01*
X330360Y276421D01*
X330362D01*
X330368Y276426D01*
X330379Y276428D01*
X330392Y276435D01*
X330410Y276439D01*
X330432Y276446D01*
X330456Y276454D01*
X330482Y276461D01*
X330510Y276467D01*
X330543Y276476D01*
X330610Y276487D01*
X330687Y276496D01*
X330765Y276500D01*
X330767D01*
X330776D01*
X330789D01*
X330804Y276498D01*
D02*
G37*
G36*
X331136Y274852D02*
X331140Y274848D01*
X331142Y274839D01*
X331149Y274828D01*
X331155Y274815D01*
X331164Y274800D01*
X331186Y274763D01*
X331210Y274719D01*
X331240Y274675D01*
X331275Y274630D01*
X331312Y274584D01*
X331314Y274582D01*
X331317Y274579D01*
X331323Y274573D01*
X331330Y274564D01*
X331352Y274545D01*
X331378Y274518D01*
X331408Y274492D01*
X331443Y274464D01*
X331478Y274440D01*
X331515Y274418D01*
Y274298D01*
X330000D01*
Y274483D01*
X331179D01*
X331177Y274486D01*
X331169Y274497D01*
X331155Y274510D01*
X331140Y274532D01*
X331120Y274555D01*
X331099Y274586D01*
X331075Y274621D01*
X331051Y274660D01*
Y274662D01*
X331049Y274664D01*
X331040Y274677D01*
X331029Y274699D01*
X331016Y274726D01*
X331001Y274756D01*
X330985Y274789D01*
X330970Y274821D01*
X330957Y274854D01*
X331136D01*
Y274852D01*
D02*
G37*
G36*
X330410Y273629D02*
X330408D01*
X330403D01*
X330397Y273627D01*
X330386Y273625D01*
X330362Y273618D01*
X330329Y273609D01*
X330296Y273596D01*
X330259Y273579D01*
X330227Y273557D01*
X330196Y273531D01*
X330194Y273527D01*
X330185Y273518D01*
X330174Y273500D01*
X330161Y273476D01*
X330148Y273450D01*
X330137Y273417D01*
X330129Y273380D01*
X330126Y273339D01*
Y273326D01*
X330129Y273317D01*
X330131Y273291D01*
X330139Y273260D01*
X330150Y273223D01*
X330168Y273186D01*
X330194Y273147D01*
X330209Y273130D01*
X330227Y273112D01*
X330229Y273110D01*
X330231Y273108D01*
X330238Y273104D01*
X330244Y273097D01*
X330268Y273082D01*
X330299Y273064D01*
X330336Y273049D01*
X330381Y273034D01*
X330436Y273023D01*
X330464Y273019D01*
X330495D01*
X330497D01*
X330501D01*
X330510D01*
X330521Y273021D01*
X330534D01*
X330549Y273023D01*
X330584Y273029D01*
X330626Y273040D01*
X330667Y273056D01*
X330706Y273077D01*
X330743Y273108D01*
X330746D01*
X330748Y273112D01*
X330759Y273123D01*
X330774Y273143D01*
X330791Y273169D01*
X330807Y273204D01*
X330822Y273243D01*
X330833Y273289D01*
X330837Y273315D01*
Y273356D01*
X330835Y273374D01*
X330833Y273396D01*
X330826Y273422D01*
X330820Y273448D01*
X330809Y273476D01*
X330796Y273505D01*
X330793Y273507D01*
X330789Y273516D01*
X330778Y273529D01*
X330767Y273546D01*
X330752Y273564D01*
X330732Y273581D01*
X330713Y273601D01*
X330689Y273616D01*
X330713Y273790D01*
X331489Y273644D01*
Y272894D01*
X331312D01*
Y273498D01*
X330905Y273579D01*
X330907Y273577D01*
X330909Y273572D01*
X330913Y273566D01*
X330920Y273555D01*
X330926Y273542D01*
X330935Y273527D01*
X330953Y273492D01*
X330970Y273448D01*
X330985Y273400D01*
X330996Y273348D01*
X331001Y273322D01*
Y273274D01*
X330998Y273260D01*
X330996Y273243D01*
X330994Y273223D01*
X330990Y273202D01*
X330983Y273178D01*
X330968Y273125D01*
X330957Y273097D01*
X330942Y273069D01*
X330926Y273040D01*
X330909Y273012D01*
X330887Y272986D01*
X330863Y272960D01*
X330861Y272957D01*
X330857Y272953D01*
X330850Y272947D01*
X330839Y272938D01*
X330824Y272927D01*
X330809Y272916D01*
X330789Y272903D01*
X330767Y272890D01*
X330743Y272879D01*
X330717Y272866D01*
X330687Y272855D01*
X330656Y272844D01*
X330624Y272835D01*
X330586Y272829D01*
X330549Y272825D01*
X330510Y272822D01*
X330508D01*
X330501D01*
X330490D01*
X330475Y272825D01*
X330458Y272827D01*
X330438Y272829D01*
X330414Y272833D01*
X330390Y272838D01*
X330333Y272851D01*
X330275Y272872D01*
X330244Y272886D01*
X330216Y272903D01*
X330185Y272920D01*
X330157Y272942D01*
X330155Y272944D01*
X330148Y272949D01*
X330139Y272957D01*
X330129Y272968D01*
X330116Y272984D01*
X330098Y273001D01*
X330083Y273023D01*
X330065Y273047D01*
X330048Y273073D01*
X330033Y273104D01*
X330017Y273136D01*
X330002Y273171D01*
X329991Y273208D01*
X329983Y273250D01*
X329976Y273293D01*
X329974Y273339D01*
Y273359D01*
X329976Y273374D01*
X329978Y273391D01*
X329980Y273411D01*
X329983Y273435D01*
X329989Y273459D01*
X330002Y273513D01*
X330022Y273568D01*
X330035Y273596D01*
X330050Y273625D01*
X330068Y273651D01*
X330087Y273677D01*
X330089Y273679D01*
X330092Y273683D01*
X330100Y273688D01*
X330109Y273696D01*
X330120Y273707D01*
X330133Y273718D01*
X330150Y273731D01*
X330170Y273742D01*
X330190Y273755D01*
X330214Y273768D01*
X330266Y273792D01*
X330327Y273812D01*
X330360Y273819D01*
X330395Y273823D01*
X330410Y273629D01*
D02*
G37*
G36*
X540130Y366033D02*
X540145D01*
X540187Y366028D01*
X540233Y366022D01*
X540280Y366011D01*
X540333Y365998D01*
X540381Y365980D01*
X540383D01*
X540387Y365978D01*
X540394Y365974D01*
X540403Y365969D01*
X540424Y365958D01*
X540453Y365939D01*
X540485Y365917D01*
X540518Y365889D01*
X540549Y365856D01*
X540577Y365819D01*
Y365817D01*
X540579Y365814D01*
X540584Y365808D01*
X540588Y365802D01*
X540599Y365780D01*
X540612Y365751D01*
X540627Y365716D01*
X540638Y365675D01*
X540649Y365631D01*
X540653Y365583D01*
X540461Y365568D01*
Y365570D01*
Y365575D01*
X540459Y365581D01*
X540457Y365592D01*
X540450Y365616D01*
X540442Y365649D01*
X540429Y365684D01*
X540409Y365719D01*
X540385Y365751D01*
X540355Y365782D01*
X540350Y365784D01*
X540339Y365793D01*
X540317Y365806D01*
X540289Y365819D01*
X540252Y365832D01*
X540208Y365845D01*
X540154Y365854D01*
X540093Y365856D01*
X540062D01*
X540049Y365854D01*
X540032Y365852D01*
X539993Y365847D01*
X539949Y365839D01*
X539906Y365828D01*
X539864Y365810D01*
X539847Y365799D01*
X539829Y365788D01*
X539825Y365786D01*
X539816Y365777D01*
X539803Y365762D01*
X539790Y365745D01*
X539775Y365721D01*
X539762Y365695D01*
X539753Y365664D01*
X539748Y365629D01*
Y365625D01*
Y365616D01*
X539751Y365601D01*
X539755Y365583D01*
X539762Y365562D01*
X539773Y365540D01*
X539786Y365518D01*
X539805Y365496D01*
X539807Y365494D01*
X539818Y365488D01*
X539827Y365481D01*
X539836Y365477D01*
X539849Y365470D01*
X539864Y365461D01*
X539884Y365455D01*
X539906Y365446D01*
X539929Y365437D01*
X539958Y365426D01*
X539988Y365418D01*
X540023Y365407D01*
X540062Y365398D01*
X540106Y365387D01*
X540108D01*
X540117Y365385D01*
X540130Y365383D01*
X540145Y365378D01*
X540165Y365374D01*
X540189Y365368D01*
X540213Y365361D01*
X540239Y365355D01*
X540296Y365339D01*
X540350Y365324D01*
X540376Y365315D01*
X540400Y365307D01*
X540422Y365300D01*
X540440Y365291D01*
X540442D01*
X540446Y365289D01*
X540453Y365285D01*
X540461Y365280D01*
X540485Y365267D01*
X540514Y365250D01*
X540546Y365226D01*
X540579Y365200D01*
X540610Y365169D01*
X540636Y365137D01*
X540638Y365132D01*
X540647Y365121D01*
X540655Y365102D01*
X540668Y365075D01*
X540679Y365045D01*
X540690Y365008D01*
X540697Y364967D01*
X540699Y364923D01*
Y364921D01*
Y364919D01*
Y364912D01*
Y364903D01*
X540695Y364879D01*
X540690Y364849D01*
X540682Y364814D01*
X540671Y364777D01*
X540653Y364738D01*
X540629Y364696D01*
Y364694D01*
X540627Y364692D01*
X540616Y364679D01*
X540601Y364659D01*
X540579Y364637D01*
X540551Y364611D01*
X540516Y364583D01*
X540477Y364557D01*
X540431Y364533D01*
X540429D01*
X540424Y364530D01*
X540418Y364528D01*
X540409Y364524D01*
X540396Y364520D01*
X540381Y364513D01*
X540346Y364504D01*
X540304Y364493D01*
X540254Y364483D01*
X540200Y364476D01*
X540141Y364474D01*
X540106D01*
X540089Y364476D01*
X540069D01*
X540047Y364478D01*
X540021Y364480D01*
X539966Y364489D01*
X539910Y364498D01*
X539853Y364513D01*
X539799Y364533D01*
X539796D01*
X539792Y364535D01*
X539786Y364539D01*
X539777Y364544D01*
X539751Y364557D01*
X539720Y364576D01*
X539685Y364602D01*
X539648Y364633D01*
X539613Y364670D01*
X539581Y364711D01*
Y364714D01*
X539576Y364718D01*
X539574Y364724D01*
X539568Y364733D01*
X539563Y364744D01*
X539557Y364757D01*
X539541Y364790D01*
X539526Y364831D01*
X539513Y364877D01*
X539504Y364930D01*
X539500Y364984D01*
X539687Y365001D01*
Y364999D01*
Y364997D01*
X539690Y364990D01*
Y364982D01*
X539694Y364962D01*
X539701Y364934D01*
X539709Y364906D01*
X539718Y364873D01*
X539733Y364842D01*
X539748Y364814D01*
X539751Y364812D01*
X539757Y364803D01*
X539768Y364788D01*
X539786Y364773D01*
X539807Y364753D01*
X539831Y364733D01*
X539864Y364714D01*
X539899Y364696D01*
X539901D01*
X539903Y364694D01*
X539910Y364692D01*
X539916Y364690D01*
X539938Y364683D01*
X539966Y364674D01*
X540001Y364666D01*
X540041Y364659D01*
X540084Y364655D01*
X540132Y364653D01*
X540152D01*
X540174Y364655D01*
X540200Y364657D01*
X540230Y364661D01*
X540265Y364666D01*
X540300Y364674D01*
X540333Y364685D01*
X540337Y364687D01*
X540348Y364692D01*
X540363Y364701D01*
X540383Y364709D01*
X540403Y364724D01*
X540424Y364740D01*
X540446Y364757D01*
X540464Y364779D01*
X540466Y364781D01*
X540470Y364790D01*
X540477Y364801D01*
X540485Y364818D01*
X540494Y364836D01*
X540501Y364858D01*
X540505Y364881D01*
X540507Y364908D01*
Y364910D01*
Y364921D01*
X540505Y364934D01*
X540503Y364951D01*
X540496Y364969D01*
X540490Y364990D01*
X540479Y365012D01*
X540464Y365032D01*
X540461Y365034D01*
X540455Y365041D01*
X540446Y365049D01*
X540431Y365062D01*
X540413Y365075D01*
X540389Y365091D01*
X540361Y365106D01*
X540328Y365119D01*
X540326Y365121D01*
X540315Y365124D01*
X540298Y365130D01*
X540287Y365132D01*
X540272Y365137D01*
X540257Y365143D01*
X540237Y365147D01*
X540215Y365154D01*
X540189Y365160D01*
X540163Y365167D01*
X540132Y365176D01*
X540097Y365184D01*
X540060Y365193D01*
X540058D01*
X540052Y365195D01*
X540041Y365198D01*
X540028Y365202D01*
X540010Y365206D01*
X539991Y365211D01*
X539947Y365224D01*
X539899Y365239D01*
X539849Y365254D01*
X539805Y365269D01*
X539786Y365278D01*
X539768Y365287D01*
X539766D01*
X539764Y365289D01*
X539751Y365298D01*
X539731Y365309D01*
X539709Y365326D01*
X539683Y365346D01*
X539657Y365370D01*
X539631Y365398D01*
X539609Y365429D01*
X539607Y365433D01*
X539600Y365444D01*
X539592Y365461D01*
X539583Y365483D01*
X539574Y365511D01*
X539565Y365544D01*
X539559Y365579D01*
X539557Y365616D01*
Y365618D01*
Y365620D01*
Y365627D01*
Y365636D01*
X539561Y365658D01*
X539565Y365686D01*
X539572Y365719D01*
X539583Y365756D01*
X539598Y365793D01*
X539620Y365830D01*
Y365832D01*
X539622Y365834D01*
X539633Y365847D01*
X539648Y365865D01*
X539668Y365886D01*
X539694Y365911D01*
X539727Y365937D01*
X539766Y365961D01*
X539810Y365982D01*
X539812D01*
X539816Y365985D01*
X539823Y365987D01*
X539831Y365991D01*
X539842Y365996D01*
X539857Y366000D01*
X539890Y366009D01*
X539932Y366017D01*
X539980Y366026D01*
X540030Y366033D01*
X540086Y366035D01*
X540115D01*
X540130Y366033D01*
D02*
G37*
G36*
X542964Y365032D02*
X543169D01*
Y364862D01*
X542964D01*
Y364500D01*
X542779D01*
Y364862D01*
X542123D01*
Y365032D01*
X542814Y366009D01*
X542964D01*
Y365032D01*
D02*
G37*
G36*
X542055Y365830D02*
X541558D01*
Y364500D01*
X541357D01*
Y365830D01*
X540860D01*
Y366009D01*
X542055D01*
Y365830D01*
D02*
G37*
G36*
X278630Y219741D02*
X278645D01*
X278687Y219737D01*
X278732Y219730D01*
X278780Y219719D01*
X278833Y219706D01*
X278881Y219689D01*
X278883D01*
X278887Y219687D01*
X278894Y219682D01*
X278903Y219678D01*
X278924Y219667D01*
X278953Y219648D01*
X278985Y219626D01*
X279018Y219597D01*
X279049Y219565D01*
X279077Y219528D01*
Y219525D01*
X279079Y219523D01*
X279083Y219517D01*
X279088Y219510D01*
X279099Y219488D01*
X279112Y219460D01*
X279127Y219425D01*
X279138Y219384D01*
X279149Y219340D01*
X279153Y219292D01*
X278961Y219277D01*
Y219279D01*
Y219283D01*
X278959Y219290D01*
X278957Y219301D01*
X278951Y219325D01*
X278942Y219357D01*
X278929Y219392D01*
X278909Y219427D01*
X278885Y219460D01*
X278855Y219491D01*
X278850Y219493D01*
X278839Y219501D01*
X278818Y219514D01*
X278789Y219528D01*
X278752Y219541D01*
X278709Y219554D01*
X278654Y219562D01*
X278593Y219565D01*
X278562D01*
X278549Y219562D01*
X278532Y219560D01*
X278493Y219556D01*
X278449Y219547D01*
X278405Y219536D01*
X278364Y219519D01*
X278347Y219508D01*
X278329Y219497D01*
X278325Y219495D01*
X278316Y219486D01*
X278303Y219471D01*
X278290Y219453D01*
X278275Y219429D01*
X278262Y219403D01*
X278253Y219373D01*
X278249Y219338D01*
Y219334D01*
Y219325D01*
X278251Y219310D01*
X278255Y219292D01*
X278262Y219270D01*
X278273Y219249D01*
X278286Y219227D01*
X278305Y219205D01*
X278307Y219203D01*
X278318Y219196D01*
X278327Y219190D01*
X278336Y219185D01*
X278349Y219179D01*
X278364Y219170D01*
X278384Y219163D01*
X278405Y219155D01*
X278430Y219146D01*
X278458Y219135D01*
X278488Y219126D01*
X278523Y219115D01*
X278562Y219107D01*
X278606Y219096D01*
X278608D01*
X278617Y219094D01*
X278630Y219092D01*
X278645Y219087D01*
X278665Y219083D01*
X278689Y219076D01*
X278713Y219070D01*
X278739Y219063D01*
X278796Y219048D01*
X278850Y219033D01*
X278876Y219024D01*
X278900Y219015D01*
X278922Y219009D01*
X278940Y219000D01*
X278942D01*
X278946Y218998D01*
X278953Y218993D01*
X278961Y218989D01*
X278985Y218976D01*
X279014Y218959D01*
X279046Y218935D01*
X279079Y218908D01*
X279110Y218878D01*
X279136Y218845D01*
X279138Y218841D01*
X279147Y218830D01*
X279155Y218810D01*
X279169Y218784D01*
X279179Y218754D01*
X279190Y218717D01*
X279197Y218675D01*
X279199Y218632D01*
Y218629D01*
Y218627D01*
Y218621D01*
Y218612D01*
X279195Y218588D01*
X279190Y218558D01*
X279182Y218523D01*
X279171Y218485D01*
X279153Y218446D01*
X279129Y218405D01*
Y218403D01*
X279127Y218401D01*
X279116Y218387D01*
X279101Y218368D01*
X279079Y218346D01*
X279051Y218320D01*
X279016Y218291D01*
X278977Y218265D01*
X278931Y218241D01*
X278929D01*
X278924Y218239D01*
X278918Y218237D01*
X278909Y218233D01*
X278896Y218228D01*
X278881Y218222D01*
X278846Y218213D01*
X278804Y218202D01*
X278754Y218191D01*
X278700Y218185D01*
X278641Y218182D01*
X278606D01*
X278589Y218185D01*
X278569D01*
X278547Y218187D01*
X278521Y218189D01*
X278467Y218198D01*
X278410Y218207D01*
X278353Y218222D01*
X278299Y218241D01*
X278296D01*
X278292Y218244D01*
X278286Y218248D01*
X278277Y218252D01*
X278251Y218265D01*
X278220Y218285D01*
X278185Y218311D01*
X278148Y218342D01*
X278113Y218379D01*
X278081Y218420D01*
Y218422D01*
X278076Y218427D01*
X278074Y218433D01*
X278068Y218442D01*
X278063Y218453D01*
X278057Y218466D01*
X278041Y218499D01*
X278026Y218540D01*
X278013Y218586D01*
X278004Y218638D01*
X278000Y218693D01*
X278187Y218710D01*
Y218708D01*
Y218706D01*
X278190Y218699D01*
Y218690D01*
X278194Y218671D01*
X278201Y218642D01*
X278209Y218614D01*
X278218Y218581D01*
X278233Y218551D01*
X278249Y218523D01*
X278251Y218520D01*
X278257Y218512D01*
X278268Y218496D01*
X278286Y218481D01*
X278307Y218461D01*
X278331Y218442D01*
X278364Y218422D01*
X278399Y218405D01*
X278401D01*
X278403Y218403D01*
X278410Y218401D01*
X278416Y218398D01*
X278438Y218392D01*
X278467Y218383D01*
X278501Y218374D01*
X278541Y218368D01*
X278584Y218363D01*
X278632Y218361D01*
X278652D01*
X278674Y218363D01*
X278700Y218366D01*
X278730Y218370D01*
X278765Y218374D01*
X278800Y218383D01*
X278833Y218394D01*
X278837Y218396D01*
X278848Y218401D01*
X278863Y218409D01*
X278883Y218418D01*
X278903Y218433D01*
X278924Y218448D01*
X278946Y218466D01*
X278964Y218488D01*
X278966Y218490D01*
X278970Y218499D01*
X278977Y218510D01*
X278985Y218527D01*
X278994Y218544D01*
X279001Y218566D01*
X279005Y218590D01*
X279007Y218616D01*
Y218618D01*
Y218629D01*
X279005Y218642D01*
X279003Y218660D01*
X278996Y218677D01*
X278990Y218699D01*
X278979Y218721D01*
X278964Y218741D01*
X278961Y218743D01*
X278955Y218749D01*
X278946Y218758D01*
X278931Y218771D01*
X278913Y218784D01*
X278889Y218799D01*
X278861Y218815D01*
X278828Y218828D01*
X278826Y218830D01*
X278815Y218832D01*
X278798Y218839D01*
X278787Y218841D01*
X278772Y218845D01*
X278756Y218852D01*
X278737Y218856D01*
X278715Y218863D01*
X278689Y218869D01*
X278663Y218876D01*
X278632Y218884D01*
X278597Y218893D01*
X278560Y218902D01*
X278558D01*
X278552Y218904D01*
X278541Y218906D01*
X278528Y218911D01*
X278510Y218915D01*
X278490Y218919D01*
X278447Y218932D01*
X278399Y218948D01*
X278349Y218963D01*
X278305Y218978D01*
X278286Y218987D01*
X278268Y218996D01*
X278266D01*
X278264Y218998D01*
X278251Y219006D01*
X278231Y219017D01*
X278209Y219035D01*
X278183Y219055D01*
X278157Y219078D01*
X278131Y219107D01*
X278109Y219137D01*
X278107Y219142D01*
X278100Y219153D01*
X278092Y219170D01*
X278083Y219192D01*
X278074Y219220D01*
X278065Y219253D01*
X278059Y219288D01*
X278057Y219325D01*
Y219327D01*
Y219329D01*
Y219336D01*
Y219344D01*
X278061Y219366D01*
X278065Y219395D01*
X278072Y219427D01*
X278083Y219464D01*
X278098Y219501D01*
X278120Y219538D01*
Y219541D01*
X278122Y219543D01*
X278133Y219556D01*
X278148Y219573D01*
X278168Y219595D01*
X278194Y219619D01*
X278227Y219645D01*
X278266Y219669D01*
X278310Y219691D01*
X278312D01*
X278316Y219693D01*
X278323Y219695D01*
X278331Y219700D01*
X278342Y219704D01*
X278358Y219708D01*
X278390Y219717D01*
X278432Y219726D01*
X278480Y219735D01*
X278530Y219741D01*
X278586Y219743D01*
X278615D01*
X278630Y219741D01*
D02*
G37*
G36*
X281205Y219722D02*
X281233Y219717D01*
X281268Y219711D01*
X281307Y219700D01*
X281346Y219687D01*
X281385Y219669D01*
X281388D01*
X281390Y219667D01*
X281403Y219660D01*
X281423Y219648D01*
X281444Y219632D01*
X281471Y219610D01*
X281497Y219586D01*
X281523Y219558D01*
X281545Y219525D01*
X281547Y219521D01*
X281553Y219510D01*
X281562Y219491D01*
X281573Y219466D01*
X281584Y219438D01*
X281593Y219406D01*
X281599Y219368D01*
X281601Y219331D01*
Y219327D01*
Y219314D01*
X281599Y219297D01*
X281595Y219272D01*
X281588Y219244D01*
X281577Y219214D01*
X281564Y219183D01*
X281547Y219153D01*
X281545Y219148D01*
X281538Y219140D01*
X281525Y219124D01*
X281508Y219107D01*
X281486Y219087D01*
X281460Y219065D01*
X281429Y219046D01*
X281392Y219026D01*
X281394D01*
X281399Y219024D01*
X281405Y219022D01*
X281414Y219020D01*
X281438Y219011D01*
X281468Y218998D01*
X281503Y218980D01*
X281538Y218959D01*
X281571Y218930D01*
X281601Y218898D01*
X281604Y218893D01*
X281612Y218880D01*
X281625Y218858D01*
X281638Y218830D01*
X281651Y218795D01*
X281665Y218754D01*
X281673Y218706D01*
X281676Y218653D01*
Y218651D01*
Y218645D01*
Y218634D01*
X281673Y218621D01*
X281671Y218603D01*
X281667Y218584D01*
X281662Y218562D01*
X281658Y218538D01*
X281641Y218485D01*
X281627Y218457D01*
X281614Y218431D01*
X281597Y218403D01*
X281577Y218374D01*
X281556Y218346D01*
X281529Y218320D01*
X281527Y218318D01*
X281523Y218313D01*
X281514Y218307D01*
X281503Y218298D01*
X281490Y218287D01*
X281473Y218276D01*
X281453Y218263D01*
X281429Y218252D01*
X281405Y218239D01*
X281377Y218226D01*
X281348Y218215D01*
X281316Y218204D01*
X281281Y218196D01*
X281244Y218189D01*
X281207Y218185D01*
X281165Y218182D01*
X281146D01*
X281133Y218185D01*
X281115Y218187D01*
X281096Y218189D01*
X281074Y218193D01*
X281050Y218198D01*
X280997Y218211D01*
X280943Y218233D01*
X280915Y218246D01*
X280889Y218261D01*
X280862Y218281D01*
X280836Y218300D01*
X280834Y218302D01*
X280830Y218307D01*
X280823Y218313D01*
X280817Y218322D01*
X280806Y218333D01*
X280795Y218348D01*
X280782Y218363D01*
X280769Y218383D01*
X280755Y218405D01*
X280742Y218427D01*
X280718Y218479D01*
X280699Y218540D01*
X280692Y218573D01*
X280688Y218608D01*
X280873Y218632D01*
Y218629D01*
X280875Y218625D01*
X280878Y218616D01*
X280880Y218605D01*
X280882Y218592D01*
X280886Y218577D01*
X280897Y218544D01*
X280912Y218505D01*
X280932Y218468D01*
X280954Y218433D01*
X280980Y218403D01*
X280984Y218401D01*
X280993Y218392D01*
X281011Y218381D01*
X281032Y218370D01*
X281059Y218357D01*
X281091Y218346D01*
X281128Y218337D01*
X281168Y218335D01*
X281181D01*
X281189Y218337D01*
X281213Y218339D01*
X281244Y218346D01*
X281279Y218357D01*
X281316Y218372D01*
X281353Y218394D01*
X281388Y218425D01*
X281392Y218429D01*
X281403Y218442D01*
X281416Y218461D01*
X281434Y218488D01*
X281451Y218520D01*
X281464Y218558D01*
X281475Y218601D01*
X281479Y218649D01*
Y218651D01*
Y218656D01*
Y218662D01*
X281477Y218671D01*
X281475Y218695D01*
X281468Y218723D01*
X281460Y218758D01*
X281444Y218793D01*
X281423Y218828D01*
X281394Y218861D01*
X281390Y218865D01*
X281379Y218874D01*
X281362Y218887D01*
X281338Y218902D01*
X281307Y218917D01*
X281270Y218930D01*
X281229Y218939D01*
X281183Y218943D01*
X281163D01*
X281148Y218941D01*
X281128Y218939D01*
X281106Y218935D01*
X281080Y218930D01*
X281052Y218924D01*
X281074Y219087D01*
X281085D01*
X281093Y219085D01*
X281122D01*
X281146Y219089D01*
X281174Y219094D01*
X281207Y219100D01*
X281244Y219111D01*
X281279Y219126D01*
X281316Y219146D01*
X281318D01*
X281320Y219148D01*
X281331Y219157D01*
X281346Y219172D01*
X281364Y219192D01*
X281381Y219220D01*
X281396Y219253D01*
X281407Y219290D01*
X281412Y219312D01*
Y219336D01*
Y219338D01*
Y219340D01*
Y219353D01*
X281407Y219371D01*
X281403Y219395D01*
X281394Y219421D01*
X281383Y219449D01*
X281366Y219477D01*
X281342Y219504D01*
X281340Y219506D01*
X281329Y219514D01*
X281314Y219525D01*
X281294Y219538D01*
X281268Y219549D01*
X281237Y219560D01*
X281202Y219569D01*
X281163Y219571D01*
X281146D01*
X281126Y219567D01*
X281100Y219562D01*
X281072Y219554D01*
X281043Y219543D01*
X281013Y219525D01*
X280984Y219504D01*
X280982Y219501D01*
X280974Y219491D01*
X280960Y219475D01*
X280945Y219453D01*
X280930Y219425D01*
X280915Y219390D01*
X280902Y219349D01*
X280893Y219301D01*
X280708Y219334D01*
Y219336D01*
X280710Y219342D01*
X280712Y219351D01*
X280714Y219364D01*
X280718Y219379D01*
X280725Y219397D01*
X280738Y219438D01*
X280760Y219486D01*
X280786Y219534D01*
X280819Y219580D01*
X280860Y219621D01*
X280862Y219623D01*
X280867Y219626D01*
X280873Y219630D01*
X280882Y219637D01*
X280893Y219645D01*
X280908Y219654D01*
X280923Y219663D01*
X280943Y219674D01*
X280987Y219691D01*
X281037Y219708D01*
X281096Y219719D01*
X281126Y219724D01*
X281181D01*
X281205Y219722D01*
D02*
G37*
G36*
X280555Y219538D02*
X280058D01*
Y218209D01*
X279857D01*
Y219538D01*
X279360D01*
Y219717D01*
X280555D01*
Y219538D01*
D02*
G37*
G36*
X540130Y219741D02*
X540145D01*
X540187Y219737D01*
X540233Y219730D01*
X540280Y219719D01*
X540333Y219706D01*
X540381Y219689D01*
X540383D01*
X540387Y219687D01*
X540394Y219682D01*
X540403Y219678D01*
X540424Y219667D01*
X540453Y219648D01*
X540485Y219626D01*
X540518Y219597D01*
X540549Y219565D01*
X540577Y219528D01*
Y219525D01*
X540579Y219523D01*
X540584Y219517D01*
X540588Y219510D01*
X540599Y219488D01*
X540612Y219460D01*
X540627Y219425D01*
X540638Y219384D01*
X540649Y219340D01*
X540653Y219292D01*
X540461Y219277D01*
Y219279D01*
Y219283D01*
X540459Y219290D01*
X540457Y219301D01*
X540450Y219325D01*
X540442Y219357D01*
X540429Y219392D01*
X540409Y219427D01*
X540385Y219460D01*
X540355Y219491D01*
X540350Y219493D01*
X540339Y219501D01*
X540317Y219514D01*
X540289Y219528D01*
X540252Y219541D01*
X540208Y219554D01*
X540154Y219562D01*
X540093Y219565D01*
X540062D01*
X540049Y219562D01*
X540032Y219560D01*
X539993Y219556D01*
X539949Y219547D01*
X539906Y219536D01*
X539864Y219519D01*
X539847Y219508D01*
X539829Y219497D01*
X539825Y219495D01*
X539816Y219486D01*
X539803Y219471D01*
X539790Y219453D01*
X539775Y219429D01*
X539762Y219403D01*
X539753Y219373D01*
X539748Y219338D01*
Y219334D01*
Y219325D01*
X539751Y219310D01*
X539755Y219292D01*
X539762Y219270D01*
X539773Y219249D01*
X539786Y219227D01*
X539805Y219205D01*
X539807Y219203D01*
X539818Y219196D01*
X539827Y219190D01*
X539836Y219185D01*
X539849Y219179D01*
X539864Y219170D01*
X539884Y219163D01*
X539906Y219155D01*
X539929Y219146D01*
X539958Y219135D01*
X539988Y219126D01*
X540023Y219115D01*
X540062Y219107D01*
X540106Y219096D01*
X540108D01*
X540117Y219094D01*
X540130Y219092D01*
X540145Y219087D01*
X540165Y219083D01*
X540189Y219076D01*
X540213Y219070D01*
X540239Y219063D01*
X540296Y219048D01*
X540350Y219033D01*
X540376Y219024D01*
X540400Y219015D01*
X540422Y219009D01*
X540440Y219000D01*
X540442D01*
X540446Y218998D01*
X540453Y218993D01*
X540461Y218989D01*
X540485Y218976D01*
X540514Y218959D01*
X540546Y218935D01*
X540579Y218908D01*
X540610Y218878D01*
X540636Y218845D01*
X540638Y218841D01*
X540647Y218830D01*
X540655Y218810D01*
X540668Y218784D01*
X540679Y218754D01*
X540690Y218717D01*
X540697Y218675D01*
X540699Y218632D01*
Y218629D01*
Y218627D01*
Y218621D01*
Y218612D01*
X540695Y218588D01*
X540690Y218558D01*
X540682Y218523D01*
X540671Y218485D01*
X540653Y218446D01*
X540629Y218405D01*
Y218403D01*
X540627Y218401D01*
X540616Y218387D01*
X540601Y218368D01*
X540579Y218346D01*
X540551Y218320D01*
X540516Y218291D01*
X540477Y218265D01*
X540431Y218241D01*
X540429D01*
X540424Y218239D01*
X540418Y218237D01*
X540409Y218233D01*
X540396Y218228D01*
X540381Y218222D01*
X540346Y218213D01*
X540304Y218202D01*
X540254Y218191D01*
X540200Y218185D01*
X540141Y218182D01*
X540106D01*
X540089Y218185D01*
X540069D01*
X540047Y218187D01*
X540021Y218189D01*
X539966Y218198D01*
X539910Y218207D01*
X539853Y218222D01*
X539799Y218241D01*
X539796D01*
X539792Y218244D01*
X539786Y218248D01*
X539777Y218252D01*
X539751Y218265D01*
X539720Y218285D01*
X539685Y218311D01*
X539648Y218342D01*
X539613Y218379D01*
X539581Y218420D01*
Y218422D01*
X539576Y218427D01*
X539574Y218433D01*
X539568Y218442D01*
X539563Y218453D01*
X539557Y218466D01*
X539541Y218499D01*
X539526Y218540D01*
X539513Y218586D01*
X539504Y218638D01*
X539500Y218693D01*
X539687Y218710D01*
Y218708D01*
Y218706D01*
X539690Y218699D01*
Y218690D01*
X539694Y218671D01*
X539701Y218642D01*
X539709Y218614D01*
X539718Y218581D01*
X539733Y218551D01*
X539748Y218523D01*
X539751Y218520D01*
X539757Y218512D01*
X539768Y218496D01*
X539786Y218481D01*
X539807Y218461D01*
X539831Y218442D01*
X539864Y218422D01*
X539899Y218405D01*
X539901D01*
X539903Y218403D01*
X539910Y218401D01*
X539916Y218398D01*
X539938Y218392D01*
X539966Y218383D01*
X540001Y218374D01*
X540041Y218368D01*
X540084Y218363D01*
X540132Y218361D01*
X540152D01*
X540174Y218363D01*
X540200Y218366D01*
X540230Y218370D01*
X540265Y218374D01*
X540300Y218383D01*
X540333Y218394D01*
X540337Y218396D01*
X540348Y218401D01*
X540363Y218409D01*
X540383Y218418D01*
X540403Y218433D01*
X540424Y218448D01*
X540446Y218466D01*
X540464Y218488D01*
X540466Y218490D01*
X540470Y218499D01*
X540477Y218510D01*
X540485Y218527D01*
X540494Y218544D01*
X540501Y218566D01*
X540505Y218590D01*
X540507Y218616D01*
Y218618D01*
Y218629D01*
X540505Y218642D01*
X540503Y218660D01*
X540496Y218677D01*
X540490Y218699D01*
X540479Y218721D01*
X540464Y218741D01*
X540461Y218743D01*
X540455Y218749D01*
X540446Y218758D01*
X540431Y218771D01*
X540413Y218784D01*
X540389Y218799D01*
X540361Y218815D01*
X540328Y218828D01*
X540326Y218830D01*
X540315Y218832D01*
X540298Y218839D01*
X540287Y218841D01*
X540272Y218845D01*
X540257Y218852D01*
X540237Y218856D01*
X540215Y218863D01*
X540189Y218869D01*
X540163Y218876D01*
X540132Y218884D01*
X540097Y218893D01*
X540060Y218902D01*
X540058D01*
X540052Y218904D01*
X540041Y218906D01*
X540028Y218911D01*
X540010Y218915D01*
X539991Y218919D01*
X539947Y218932D01*
X539899Y218948D01*
X539849Y218963D01*
X539805Y218978D01*
X539786Y218987D01*
X539768Y218996D01*
X539766D01*
X539764Y218998D01*
X539751Y219006D01*
X539731Y219017D01*
X539709Y219035D01*
X539683Y219055D01*
X539657Y219078D01*
X539631Y219107D01*
X539609Y219137D01*
X539607Y219142D01*
X539600Y219153D01*
X539592Y219170D01*
X539583Y219192D01*
X539574Y219220D01*
X539565Y219253D01*
X539559Y219288D01*
X539557Y219325D01*
Y219327D01*
Y219329D01*
Y219336D01*
Y219344D01*
X539561Y219366D01*
X539565Y219395D01*
X539572Y219427D01*
X539583Y219464D01*
X539598Y219501D01*
X539620Y219538D01*
Y219541D01*
X539622Y219543D01*
X539633Y219556D01*
X539648Y219573D01*
X539668Y219595D01*
X539694Y219619D01*
X539727Y219645D01*
X539766Y219669D01*
X539810Y219691D01*
X539812D01*
X539816Y219693D01*
X539823Y219695D01*
X539831Y219700D01*
X539842Y219704D01*
X539857Y219708D01*
X539890Y219717D01*
X539932Y219726D01*
X539980Y219735D01*
X540030Y219741D01*
X540086Y219743D01*
X540115D01*
X540130Y219741D01*
D02*
G37*
G36*
X542722Y219722D02*
X542739Y219719D01*
X542761Y219717D01*
X542785Y219713D01*
X542809Y219708D01*
X542866Y219693D01*
X542923Y219671D01*
X542951Y219658D01*
X542979Y219643D01*
X543005Y219623D01*
X543029Y219602D01*
X543032Y219600D01*
X543036Y219597D01*
X543040Y219589D01*
X543049Y219580D01*
X543060Y219569D01*
X543071Y219554D01*
X543082Y219538D01*
X543095Y219519D01*
X543117Y219477D01*
X543138Y219425D01*
X543147Y219399D01*
X543152Y219368D01*
X543156Y219338D01*
X543158Y219305D01*
Y219301D01*
Y219290D01*
X543156Y219272D01*
X543154Y219249D01*
X543149Y219222D01*
X543141Y219192D01*
X543132Y219159D01*
X543119Y219126D01*
X543117Y219122D01*
X543112Y219111D01*
X543104Y219094D01*
X543090Y219070D01*
X543073Y219044D01*
X543051Y219011D01*
X543025Y218978D01*
X542994Y218941D01*
X542990Y218937D01*
X542979Y218924D01*
X542968Y218913D01*
X542957Y218902D01*
X542944Y218889D01*
X542927Y218871D01*
X542909Y218854D01*
X542888Y218834D01*
X542866Y218812D01*
X542840Y218789D01*
X542811Y218765D01*
X542781Y218736D01*
X542746Y218708D01*
X542711Y218677D01*
X542709Y218675D01*
X542705Y218671D01*
X542696Y218664D01*
X542685Y218656D01*
X542672Y218642D01*
X542657Y218629D01*
X542622Y218601D01*
X542585Y218568D01*
X542550Y218536D01*
X542519Y218507D01*
X542506Y218496D01*
X542495Y218485D01*
X542493Y218483D01*
X542487Y218477D01*
X542478Y218468D01*
X542467Y218455D01*
X542456Y218440D01*
X542443Y218425D01*
X542417Y218387D01*
X543160D01*
Y218209D01*
X542160D01*
Y218211D01*
Y218220D01*
Y218233D01*
X542162Y218250D01*
X542164Y218270D01*
X542168Y218291D01*
X542173Y218313D01*
X542181Y218337D01*
Y218339D01*
X542184Y218342D01*
X542188Y218355D01*
X542197Y218374D01*
X542210Y218401D01*
X542227Y218431D01*
X542249Y218466D01*
X542273Y218501D01*
X542304Y218538D01*
Y218540D01*
X542308Y218542D01*
X542319Y218555D01*
X542338Y218575D01*
X542367Y218603D01*
X542399Y218636D01*
X542441Y218675D01*
X542491Y218719D01*
X542546Y218765D01*
X542548Y218767D01*
X542556Y218773D01*
X542569Y218784D01*
X542585Y218797D01*
X542604Y218815D01*
X542628Y218834D01*
X542652Y218856D01*
X542681Y218880D01*
X542735Y218932D01*
X542790Y218985D01*
X542816Y219011D01*
X542840Y219037D01*
X542862Y219061D01*
X542879Y219085D01*
Y219087D01*
X542883Y219089D01*
X542888Y219096D01*
X542892Y219105D01*
X542907Y219129D01*
X542925Y219157D01*
X542940Y219192D01*
X542955Y219229D01*
X542964Y219270D01*
X542968Y219310D01*
Y219312D01*
Y219314D01*
X542966Y219327D01*
X542964Y219349D01*
X542957Y219373D01*
X542949Y219403D01*
X542934Y219434D01*
X542914Y219464D01*
X542888Y219495D01*
X542883Y219499D01*
X542872Y219508D01*
X542857Y219519D01*
X542833Y219534D01*
X542803Y219547D01*
X542768Y219560D01*
X542726Y219569D01*
X542681Y219571D01*
X542667D01*
X542659Y219569D01*
X542633Y219567D01*
X542602Y219560D01*
X542569Y219551D01*
X542532Y219536D01*
X542497Y219517D01*
X542465Y219491D01*
X542460Y219486D01*
X542452Y219475D01*
X542439Y219458D01*
X542426Y219432D01*
X542410Y219401D01*
X542397Y219362D01*
X542388Y219318D01*
X542384Y219268D01*
X542195Y219288D01*
Y219290D01*
X542197Y219297D01*
Y219307D01*
X542199Y219323D01*
X542203Y219340D01*
X542208Y219360D01*
X542214Y219384D01*
X542221Y219408D01*
X542238Y219460D01*
X542264Y219512D01*
X542279Y219538D01*
X542299Y219565D01*
X542319Y219589D01*
X542341Y219610D01*
X542343Y219613D01*
X542347Y219615D01*
X542354Y219621D01*
X542365Y219628D01*
X542378Y219637D01*
X542393Y219645D01*
X542410Y219656D01*
X542432Y219667D01*
X542456Y219678D01*
X542482Y219689D01*
X542511Y219698D01*
X542541Y219706D01*
X542574Y219713D01*
X542609Y219719D01*
X542646Y219722D01*
X542685Y219724D01*
X542707D01*
X542722Y219722D01*
D02*
G37*
G36*
X542055Y219538D02*
X541558D01*
Y218209D01*
X541357D01*
Y219538D01*
X540860D01*
Y219717D01*
X542055D01*
Y219538D01*
D02*
G37*
G36*
X278630Y366033D02*
X278645D01*
X278687Y366028D01*
X278732Y366022D01*
X278780Y366011D01*
X278833Y365998D01*
X278881Y365980D01*
X278883D01*
X278887Y365978D01*
X278894Y365974D01*
X278903Y365969D01*
X278924Y365958D01*
X278953Y365939D01*
X278985Y365917D01*
X279018Y365889D01*
X279049Y365856D01*
X279077Y365819D01*
Y365817D01*
X279079Y365814D01*
X279083Y365808D01*
X279088Y365802D01*
X279099Y365780D01*
X279112Y365751D01*
X279127Y365716D01*
X279138Y365675D01*
X279149Y365631D01*
X279153Y365583D01*
X278961Y365568D01*
Y365570D01*
Y365575D01*
X278959Y365581D01*
X278957Y365592D01*
X278951Y365616D01*
X278942Y365649D01*
X278929Y365684D01*
X278909Y365719D01*
X278885Y365751D01*
X278855Y365782D01*
X278850Y365784D01*
X278839Y365793D01*
X278818Y365806D01*
X278789Y365819D01*
X278752Y365832D01*
X278709Y365845D01*
X278654Y365854D01*
X278593Y365856D01*
X278562D01*
X278549Y365854D01*
X278532Y365852D01*
X278493Y365847D01*
X278449Y365839D01*
X278405Y365828D01*
X278364Y365810D01*
X278347Y365799D01*
X278329Y365788D01*
X278325Y365786D01*
X278316Y365777D01*
X278303Y365762D01*
X278290Y365745D01*
X278275Y365721D01*
X278262Y365695D01*
X278253Y365664D01*
X278249Y365629D01*
Y365625D01*
Y365616D01*
X278251Y365601D01*
X278255Y365583D01*
X278262Y365562D01*
X278273Y365540D01*
X278286Y365518D01*
X278305Y365496D01*
X278307Y365494D01*
X278318Y365488D01*
X278327Y365481D01*
X278336Y365477D01*
X278349Y365470D01*
X278364Y365461D01*
X278384Y365455D01*
X278405Y365446D01*
X278430Y365437D01*
X278458Y365426D01*
X278488Y365418D01*
X278523Y365407D01*
X278562Y365398D01*
X278606Y365387D01*
X278608D01*
X278617Y365385D01*
X278630Y365383D01*
X278645Y365378D01*
X278665Y365374D01*
X278689Y365368D01*
X278713Y365361D01*
X278739Y365355D01*
X278796Y365339D01*
X278850Y365324D01*
X278876Y365315D01*
X278900Y365307D01*
X278922Y365300D01*
X278940Y365291D01*
X278942D01*
X278946Y365289D01*
X278953Y365285D01*
X278961Y365280D01*
X278985Y365267D01*
X279014Y365250D01*
X279046Y365226D01*
X279079Y365200D01*
X279110Y365169D01*
X279136Y365137D01*
X279138Y365132D01*
X279147Y365121D01*
X279155Y365102D01*
X279169Y365075D01*
X279179Y365045D01*
X279190Y365008D01*
X279197Y364967D01*
X279199Y364923D01*
Y364921D01*
Y364919D01*
Y364912D01*
Y364903D01*
X279195Y364879D01*
X279190Y364849D01*
X279182Y364814D01*
X279171Y364777D01*
X279153Y364738D01*
X279129Y364696D01*
Y364694D01*
X279127Y364692D01*
X279116Y364679D01*
X279101Y364659D01*
X279079Y364637D01*
X279051Y364611D01*
X279016Y364583D01*
X278977Y364557D01*
X278931Y364533D01*
X278929D01*
X278924Y364530D01*
X278918Y364528D01*
X278909Y364524D01*
X278896Y364520D01*
X278881Y364513D01*
X278846Y364504D01*
X278804Y364493D01*
X278754Y364483D01*
X278700Y364476D01*
X278641Y364474D01*
X278606D01*
X278589Y364476D01*
X278569D01*
X278547Y364478D01*
X278521Y364480D01*
X278467Y364489D01*
X278410Y364498D01*
X278353Y364513D01*
X278299Y364533D01*
X278296D01*
X278292Y364535D01*
X278286Y364539D01*
X278277Y364544D01*
X278251Y364557D01*
X278220Y364576D01*
X278185Y364602D01*
X278148Y364633D01*
X278113Y364670D01*
X278081Y364711D01*
Y364714D01*
X278076Y364718D01*
X278074Y364724D01*
X278068Y364733D01*
X278063Y364744D01*
X278057Y364757D01*
X278041Y364790D01*
X278026Y364831D01*
X278013Y364877D01*
X278004Y364930D01*
X278000Y364984D01*
X278187Y365001D01*
Y364999D01*
Y364997D01*
X278190Y364990D01*
Y364982D01*
X278194Y364962D01*
X278201Y364934D01*
X278209Y364906D01*
X278218Y364873D01*
X278233Y364842D01*
X278249Y364814D01*
X278251Y364812D01*
X278257Y364803D01*
X278268Y364788D01*
X278286Y364773D01*
X278307Y364753D01*
X278331Y364733D01*
X278364Y364714D01*
X278399Y364696D01*
X278401D01*
X278403Y364694D01*
X278410Y364692D01*
X278416Y364690D01*
X278438Y364683D01*
X278467Y364674D01*
X278501Y364666D01*
X278541Y364659D01*
X278584Y364655D01*
X278632Y364653D01*
X278652D01*
X278674Y364655D01*
X278700Y364657D01*
X278730Y364661D01*
X278765Y364666D01*
X278800Y364674D01*
X278833Y364685D01*
X278837Y364687D01*
X278848Y364692D01*
X278863Y364701D01*
X278883Y364709D01*
X278903Y364724D01*
X278924Y364740D01*
X278946Y364757D01*
X278964Y364779D01*
X278966Y364781D01*
X278970Y364790D01*
X278977Y364801D01*
X278985Y364818D01*
X278994Y364836D01*
X279001Y364858D01*
X279005Y364881D01*
X279007Y364908D01*
Y364910D01*
Y364921D01*
X279005Y364934D01*
X279003Y364951D01*
X278996Y364969D01*
X278990Y364990D01*
X278979Y365012D01*
X278964Y365032D01*
X278961Y365034D01*
X278955Y365041D01*
X278946Y365049D01*
X278931Y365062D01*
X278913Y365075D01*
X278889Y365091D01*
X278861Y365106D01*
X278828Y365119D01*
X278826Y365121D01*
X278815Y365124D01*
X278798Y365130D01*
X278787Y365132D01*
X278772Y365137D01*
X278756Y365143D01*
X278737Y365147D01*
X278715Y365154D01*
X278689Y365160D01*
X278663Y365167D01*
X278632Y365176D01*
X278597Y365184D01*
X278560Y365193D01*
X278558D01*
X278552Y365195D01*
X278541Y365198D01*
X278528Y365202D01*
X278510Y365206D01*
X278490Y365211D01*
X278447Y365224D01*
X278399Y365239D01*
X278349Y365254D01*
X278305Y365269D01*
X278286Y365278D01*
X278268Y365287D01*
X278266D01*
X278264Y365289D01*
X278251Y365298D01*
X278231Y365309D01*
X278209Y365326D01*
X278183Y365346D01*
X278157Y365370D01*
X278131Y365398D01*
X278109Y365429D01*
X278107Y365433D01*
X278100Y365444D01*
X278092Y365461D01*
X278083Y365483D01*
X278074Y365511D01*
X278065Y365544D01*
X278059Y365579D01*
X278057Y365616D01*
Y365618D01*
Y365620D01*
Y365627D01*
Y365636D01*
X278061Y365658D01*
X278065Y365686D01*
X278072Y365719D01*
X278083Y365756D01*
X278098Y365793D01*
X278120Y365830D01*
Y365832D01*
X278122Y365834D01*
X278133Y365847D01*
X278148Y365865D01*
X278168Y365886D01*
X278194Y365911D01*
X278227Y365937D01*
X278266Y365961D01*
X278310Y365982D01*
X278312D01*
X278316Y365985D01*
X278323Y365987D01*
X278331Y365991D01*
X278342Y365996D01*
X278358Y366000D01*
X278390Y366009D01*
X278432Y366017D01*
X278480Y366026D01*
X278530Y366033D01*
X278586Y366035D01*
X278615D01*
X278630Y366033D01*
D02*
G37*
G36*
X281383Y364500D02*
X281198D01*
Y365679D01*
X281196Y365677D01*
X281185Y365669D01*
X281172Y365655D01*
X281150Y365640D01*
X281126Y365620D01*
X281096Y365599D01*
X281061Y365575D01*
X281021Y365551D01*
X281019D01*
X281017Y365549D01*
X281004Y365540D01*
X280982Y365529D01*
X280956Y365516D01*
X280926Y365501D01*
X280893Y365485D01*
X280860Y365470D01*
X280827Y365457D01*
Y365636D01*
X280830D01*
X280834Y365640D01*
X280843Y365642D01*
X280854Y365649D01*
X280867Y365655D01*
X280882Y365664D01*
X280919Y365686D01*
X280963Y365710D01*
X281006Y365740D01*
X281052Y365775D01*
X281098Y365812D01*
X281100Y365814D01*
X281102Y365817D01*
X281109Y365823D01*
X281117Y365830D01*
X281137Y365852D01*
X281163Y365878D01*
X281189Y365908D01*
X281218Y365943D01*
X281242Y365978D01*
X281263Y366015D01*
X281383D01*
Y364500D01*
D02*
G37*
G36*
X280555Y365830D02*
X280058D01*
Y364500D01*
X279857D01*
Y365830D01*
X279360D01*
Y366009D01*
X280555D01*
Y365830D01*
D02*
G37*
G36*
X314525Y311597D02*
X314542Y311595D01*
X314562Y311593D01*
X314586Y311588D01*
X314610Y311584D01*
X314667Y311571D01*
X314725Y311549D01*
X314756Y311536D01*
X314784Y311519D01*
X314815Y311501D01*
X314843Y311479D01*
X314845Y311477D01*
X314852Y311473D01*
X314861Y311464D01*
X314871Y311453D01*
X314884Y311438D01*
X314902Y311420D01*
X314917Y311399D01*
X314935Y311375D01*
X314952Y311349D01*
X314967Y311318D01*
X314983Y311285D01*
X314998Y311250D01*
X315009Y311213D01*
X315017Y311172D01*
X315024Y311128D01*
X315026Y311083D01*
Y311063D01*
X315024Y311048D01*
X315022Y311030D01*
X315020Y311011D01*
X315017Y310987D01*
X315011Y310963D01*
X314998Y310908D01*
X314978Y310854D01*
X314965Y310825D01*
X314950Y310797D01*
X314932Y310771D01*
X314913Y310745D01*
X314911Y310743D01*
X314908Y310738D01*
X314900Y310734D01*
X314891Y310725D01*
X314880Y310714D01*
X314867Y310703D01*
X314850Y310690D01*
X314830Y310679D01*
X314810Y310666D01*
X314786Y310653D01*
X314734Y310629D01*
X314673Y310610D01*
X314640Y310603D01*
X314605Y310599D01*
X314590Y310793D01*
X314592D01*
X314597D01*
X314603Y310795D01*
X314614Y310797D01*
X314638Y310804D01*
X314671Y310812D01*
X314703Y310825D01*
X314741Y310843D01*
X314773Y310865D01*
X314804Y310891D01*
X314806Y310895D01*
X314815Y310904D01*
X314826Y310921D01*
X314839Y310945D01*
X314852Y310971D01*
X314863Y311004D01*
X314871Y311041D01*
X314874Y311083D01*
Y311096D01*
X314871Y311104D01*
X314869Y311131D01*
X314861Y311161D01*
X314850Y311198D01*
X314832Y311235D01*
X314806Y311275D01*
X314791Y311292D01*
X314773Y311309D01*
X314771Y311312D01*
X314769Y311314D01*
X314762Y311318D01*
X314756Y311325D01*
X314732Y311340D01*
X314701Y311357D01*
X314664Y311373D01*
X314618Y311388D01*
X314564Y311399D01*
X314536Y311403D01*
X314505D01*
X314503D01*
X314499D01*
X314490D01*
X314479Y311401D01*
X314466D01*
X314451Y311399D01*
X314416Y311392D01*
X314374Y311381D01*
X314333Y311366D01*
X314294Y311344D01*
X314257Y311314D01*
X314254D01*
X314252Y311309D01*
X314241Y311298D01*
X314226Y311279D01*
X314209Y311253D01*
X314193Y311218D01*
X314178Y311179D01*
X314167Y311133D01*
X314163Y311107D01*
Y311065D01*
X314165Y311048D01*
X314167Y311026D01*
X314174Y311000D01*
X314180Y310974D01*
X314191Y310945D01*
X314204Y310917D01*
X314207Y310915D01*
X314211Y310906D01*
X314222Y310893D01*
X314233Y310876D01*
X314248Y310858D01*
X314267Y310841D01*
X314287Y310821D01*
X314311Y310806D01*
X314287Y310631D01*
X313511Y310777D01*
Y311527D01*
X313688D01*
Y310924D01*
X314095Y310843D01*
X314093Y310845D01*
X314091Y310849D01*
X314087Y310856D01*
X314080Y310867D01*
X314073Y310880D01*
X314065Y310895D01*
X314047Y310930D01*
X314030Y310974D01*
X314015Y311022D01*
X314004Y311074D01*
X313999Y311100D01*
Y311148D01*
X314002Y311161D01*
X314004Y311179D01*
X314006Y311198D01*
X314010Y311220D01*
X314017Y311244D01*
X314032Y311296D01*
X314043Y311325D01*
X314058Y311353D01*
X314073Y311381D01*
X314091Y311410D01*
X314113Y311436D01*
X314137Y311462D01*
X314139Y311464D01*
X314143Y311469D01*
X314150Y311475D01*
X314161Y311484D01*
X314176Y311495D01*
X314191Y311506D01*
X314211Y311519D01*
X314233Y311532D01*
X314257Y311543D01*
X314283Y311556D01*
X314313Y311567D01*
X314344Y311578D01*
X314376Y311586D01*
X314414Y311593D01*
X314451Y311597D01*
X314490Y311599D01*
X314492D01*
X314499D01*
X314510D01*
X314525Y311597D01*
D02*
G37*
G36*
X314533Y310426D02*
X314547Y310422D01*
X314564Y310416D01*
X314584Y310409D01*
X314608Y310400D01*
X314634Y310389D01*
X314662Y310376D01*
X314723Y310346D01*
X314784Y310307D01*
X314815Y310283D01*
X314845Y310259D01*
X314871Y310232D01*
X314897Y310202D01*
X314900Y310200D01*
X314904Y310195D01*
X314908Y310185D01*
X314917Y310174D01*
X314928Y310156D01*
X314939Y310139D01*
X314950Y310115D01*
X314961Y310091D01*
X314974Y310062D01*
X314985Y310032D01*
X314996Y309999D01*
X315006Y309964D01*
X315015Y309927D01*
X315020Y309888D01*
X315024Y309847D01*
X315026Y309803D01*
Y309779D01*
X315024Y309762D01*
Y309742D01*
X315022Y309718D01*
X315017Y309692D01*
X315013Y309661D01*
X315002Y309598D01*
X314985Y309533D01*
X314961Y309467D01*
X314946Y309437D01*
X314928Y309406D01*
X314926Y309404D01*
X314924Y309400D01*
X314917Y309391D01*
X314908Y309382D01*
X314900Y309369D01*
X314887Y309354D01*
X314871Y309336D01*
X314854Y309319D01*
X314834Y309302D01*
X314815Y309282D01*
X314765Y309243D01*
X314706Y309206D01*
X314640Y309173D01*
X314638D01*
X314632Y309169D01*
X314621Y309166D01*
X314608Y309160D01*
X314590Y309156D01*
X314568Y309149D01*
X314544Y309140D01*
X314518Y309134D01*
X314490Y309127D01*
X314457Y309119D01*
X314390Y309108D01*
X314313Y309099D01*
X314235Y309095D01*
X314233D01*
X314224D01*
X314211D01*
X314196Y309097D01*
X314174D01*
X314152Y309099D01*
X314124Y309101D01*
X314095Y309105D01*
X314032Y309116D01*
X313962Y309132D01*
X313893Y309153D01*
X313825Y309184D01*
X313823Y309186D01*
X313816Y309188D01*
X313808Y309193D01*
X313797Y309201D01*
X313781Y309210D01*
X313764Y309221D01*
X313725Y309249D01*
X313681Y309286D01*
X313637Y309330D01*
X313594Y309380D01*
X313557Y309439D01*
X313555Y309441D01*
X313552Y309448D01*
X313548Y309456D01*
X313542Y309467D01*
X313535Y309485D01*
X313528Y309502D01*
X313520Y309524D01*
X313511Y309548D01*
X313502Y309574D01*
X313494Y309602D01*
X313480Y309664D01*
X313470Y309733D01*
X313465Y309805D01*
Y309827D01*
X313468Y309842D01*
X313470Y309862D01*
X313472Y309886D01*
X313474Y309910D01*
X313480Y309938D01*
X313494Y309997D01*
X313513Y310062D01*
X313526Y310095D01*
X313542Y310126D01*
X313561Y310156D01*
X313581Y310187D01*
X313583Y310189D01*
X313585Y310193D01*
X313592Y310202D01*
X313603Y310213D01*
X313614Y310224D01*
X313629Y310239D01*
X313646Y310254D01*
X313664Y310272D01*
X313685Y310289D01*
X313712Y310307D01*
X313738Y310326D01*
X313766Y310344D01*
X313799Y310359D01*
X313831Y310376D01*
X313866Y310389D01*
X313906Y310402D01*
X313951Y310206D01*
X313949D01*
X313945Y310204D01*
X313936Y310200D01*
X313925Y310195D01*
X313912Y310191D01*
X313895Y310185D01*
X313860Y310167D01*
X313821Y310145D01*
X313781Y310119D01*
X313744Y310086D01*
X313712Y310051D01*
X313707Y310047D01*
X313699Y310034D01*
X313688Y310012D01*
X313672Y309984D01*
X313659Y309947D01*
X313646Y309905D01*
X313637Y309855D01*
X313635Y309801D01*
Y309783D01*
X313637Y309772D01*
Y309757D01*
X313640Y309740D01*
X313646Y309698D01*
X313655Y309653D01*
X313670Y309605D01*
X313692Y309555D01*
X313720Y309509D01*
Y309507D01*
X313725Y309504D01*
X313736Y309489D01*
X313753Y309469D01*
X313779Y309446D01*
X313812Y309417D01*
X313849Y309391D01*
X313895Y309367D01*
X313945Y309345D01*
X313947D01*
X313951Y309343D01*
X313958Y309341D01*
X313969Y309339D01*
X313982Y309334D01*
X313997Y309330D01*
X314034Y309323D01*
X314078Y309315D01*
X314126Y309306D01*
X314178Y309302D01*
X314235Y309299D01*
X314237D01*
X314244D01*
X314254D01*
X314267D01*
X314283Y309302D01*
X314302D01*
X314324Y309304D01*
X314348Y309306D01*
X314401Y309313D01*
X314457Y309323D01*
X314514Y309336D01*
X314570Y309354D01*
X314573D01*
X314577Y309356D01*
X314584Y309360D01*
X314595Y309365D01*
X314621Y309378D01*
X314651Y309398D01*
X314686Y309421D01*
X314723Y309452D01*
X314756Y309487D01*
X314786Y309528D01*
Y309530D01*
X314789Y309535D01*
X314793Y309541D01*
X314797Y309550D01*
X314802Y309561D01*
X314808Y309574D01*
X314821Y309605D01*
X314834Y309644D01*
X314845Y309687D01*
X314854Y309735D01*
X314856Y309786D01*
Y309801D01*
X314854Y309814D01*
Y309829D01*
X314852Y309844D01*
X314843Y309884D01*
X314832Y309929D01*
X314815Y309975D01*
X314791Y310023D01*
X314778Y310047D01*
X314760Y310069D01*
X314758Y310071D01*
X314756Y310073D01*
X314749Y310080D01*
X314743Y310089D01*
X314732Y310097D01*
X314719Y310108D01*
X314706Y310121D01*
X314688Y310132D01*
X314669Y310145D01*
X314647Y310160D01*
X314625Y310174D01*
X314599Y310187D01*
X314570Y310198D01*
X314540Y310209D01*
X314507Y310219D01*
X314472Y310228D01*
X314523Y310429D01*
X314525D01*
X314533Y310426D01*
D02*
G37*
G36*
X310638Y311377D02*
X311000D01*
Y311192D01*
X310638D01*
Y310536D01*
X310468D01*
X309491Y311227D01*
Y311377D01*
X310468D01*
Y311582D01*
X310638D01*
Y311377D01*
D02*
G37*
G36*
X310533Y310426D02*
X310547Y310422D01*
X310564Y310416D01*
X310584Y310409D01*
X310608Y310400D01*
X310634Y310389D01*
X310662Y310376D01*
X310723Y310346D01*
X310784Y310307D01*
X310815Y310283D01*
X310845Y310259D01*
X310871Y310232D01*
X310897Y310202D01*
X310900Y310200D01*
X310904Y310195D01*
X310908Y310185D01*
X310917Y310174D01*
X310928Y310156D01*
X310939Y310139D01*
X310950Y310115D01*
X310961Y310091D01*
X310974Y310062D01*
X310985Y310032D01*
X310996Y309999D01*
X311006Y309964D01*
X311015Y309927D01*
X311020Y309888D01*
X311024Y309847D01*
X311026Y309803D01*
Y309779D01*
X311024Y309762D01*
Y309742D01*
X311022Y309718D01*
X311017Y309692D01*
X311013Y309661D01*
X311002Y309598D01*
X310985Y309533D01*
X310961Y309467D01*
X310946Y309437D01*
X310928Y309406D01*
X310926Y309404D01*
X310924Y309400D01*
X310917Y309391D01*
X310908Y309382D01*
X310900Y309369D01*
X310887Y309354D01*
X310871Y309336D01*
X310854Y309319D01*
X310834Y309302D01*
X310815Y309282D01*
X310765Y309243D01*
X310706Y309206D01*
X310640Y309173D01*
X310638D01*
X310632Y309169D01*
X310621Y309166D01*
X310608Y309160D01*
X310590Y309156D01*
X310568Y309149D01*
X310544Y309140D01*
X310518Y309134D01*
X310490Y309127D01*
X310457Y309119D01*
X310390Y309108D01*
X310313Y309099D01*
X310235Y309095D01*
X310233D01*
X310224D01*
X310211D01*
X310196Y309097D01*
X310174D01*
X310152Y309099D01*
X310124Y309101D01*
X310095Y309105D01*
X310032Y309116D01*
X309962Y309132D01*
X309893Y309153D01*
X309825Y309184D01*
X309823Y309186D01*
X309816Y309188D01*
X309807Y309193D01*
X309797Y309201D01*
X309781Y309210D01*
X309764Y309221D01*
X309725Y309249D01*
X309681Y309286D01*
X309637Y309330D01*
X309594Y309380D01*
X309557Y309439D01*
X309555Y309441D01*
X309553Y309448D01*
X309548Y309456D01*
X309542Y309467D01*
X309535Y309485D01*
X309528Y309502D01*
X309520Y309524D01*
X309511Y309548D01*
X309502Y309574D01*
X309494Y309602D01*
X309481Y309664D01*
X309470Y309733D01*
X309465Y309805D01*
Y309827D01*
X309468Y309842D01*
X309470Y309862D01*
X309472Y309886D01*
X309474Y309910D01*
X309481Y309938D01*
X309494Y309997D01*
X309513Y310062D01*
X309526Y310095D01*
X309542Y310126D01*
X309561Y310156D01*
X309581Y310187D01*
X309583Y310189D01*
X309585Y310193D01*
X309592Y310202D01*
X309603Y310213D01*
X309613Y310224D01*
X309629Y310239D01*
X309646Y310254D01*
X309664Y310272D01*
X309685Y310289D01*
X309712Y310307D01*
X309738Y310326D01*
X309766Y310344D01*
X309799Y310359D01*
X309832Y310376D01*
X309866Y310389D01*
X309906Y310402D01*
X309951Y310206D01*
X309949D01*
X309945Y310204D01*
X309936Y310200D01*
X309925Y310195D01*
X309912Y310191D01*
X309895Y310185D01*
X309860Y310167D01*
X309821Y310145D01*
X309781Y310119D01*
X309744Y310086D01*
X309712Y310051D01*
X309707Y310047D01*
X309699Y310034D01*
X309688Y310012D01*
X309672Y309984D01*
X309659Y309947D01*
X309646Y309905D01*
X309637Y309855D01*
X309635Y309801D01*
Y309783D01*
X309637Y309772D01*
Y309757D01*
X309640Y309740D01*
X309646Y309698D01*
X309655Y309653D01*
X309670Y309605D01*
X309692Y309555D01*
X309720Y309509D01*
Y309507D01*
X309725Y309504D01*
X309736Y309489D01*
X309753Y309469D01*
X309779Y309446D01*
X309812Y309417D01*
X309849Y309391D01*
X309895Y309367D01*
X309945Y309345D01*
X309947D01*
X309951Y309343D01*
X309958Y309341D01*
X309969Y309339D01*
X309982Y309334D01*
X309997Y309330D01*
X310034Y309323D01*
X310078Y309315D01*
X310126Y309306D01*
X310178Y309302D01*
X310235Y309299D01*
X310237D01*
X310244D01*
X310254D01*
X310267D01*
X310283Y309302D01*
X310302D01*
X310324Y309304D01*
X310348Y309306D01*
X310401Y309313D01*
X310457Y309323D01*
X310514Y309336D01*
X310571Y309354D01*
X310573D01*
X310577Y309356D01*
X310584Y309360D01*
X310595Y309365D01*
X310621Y309378D01*
X310651Y309398D01*
X310686Y309421D01*
X310723Y309452D01*
X310756Y309487D01*
X310786Y309528D01*
Y309530D01*
X310788Y309535D01*
X310793Y309541D01*
X310797Y309550D01*
X310802Y309561D01*
X310808Y309574D01*
X310821Y309605D01*
X310834Y309644D01*
X310845Y309687D01*
X310854Y309735D01*
X310856Y309786D01*
Y309801D01*
X310854Y309814D01*
Y309829D01*
X310852Y309844D01*
X310843Y309884D01*
X310832Y309929D01*
X310815Y309975D01*
X310791Y310023D01*
X310778Y310047D01*
X310760Y310069D01*
X310758Y310071D01*
X310756Y310073D01*
X310749Y310080D01*
X310743Y310089D01*
X310732Y310097D01*
X310719Y310108D01*
X310706Y310121D01*
X310688Y310132D01*
X310669Y310145D01*
X310647Y310160D01*
X310625Y310174D01*
X310599Y310187D01*
X310571Y310198D01*
X310540Y310209D01*
X310507Y310219D01*
X310472Y310228D01*
X310523Y310429D01*
X310525D01*
X310533Y310426D01*
D02*
G37*
G36*
X316804Y328498D02*
X316826D01*
X316848Y328496D01*
X316876Y328493D01*
X316905Y328489D01*
X316968Y328478D01*
X317038Y328463D01*
X317107Y328441D01*
X317175Y328411D01*
X317177Y328408D01*
X317184Y328406D01*
X317193Y328402D01*
X317203Y328393D01*
X317219Y328384D01*
X317236Y328374D01*
X317275Y328345D01*
X317319Y328308D01*
X317362Y328265D01*
X317406Y328214D01*
X317443Y328156D01*
X317445Y328153D01*
X317447Y328147D01*
X317452Y328138D01*
X317458Y328127D01*
X317465Y328110D01*
X317472Y328092D01*
X317480Y328070D01*
X317489Y328047D01*
X317498Y328020D01*
X317506Y327992D01*
X317519Y327931D01*
X317530Y327861D01*
X317535Y327789D01*
Y327767D01*
X317532Y327752D01*
X317530Y327733D01*
X317528Y327709D01*
X317526Y327685D01*
X317519Y327656D01*
X317506Y327597D01*
X317487Y327532D01*
X317474Y327499D01*
X317458Y327469D01*
X317439Y327438D01*
X317419Y327408D01*
X317417Y327406D01*
X317415Y327401D01*
X317408Y327393D01*
X317397Y327382D01*
X317387Y327371D01*
X317371Y327356D01*
X317354Y327340D01*
X317336Y327323D01*
X317315Y327305D01*
X317288Y327288D01*
X317262Y327268D01*
X317234Y327251D01*
X317201Y327236D01*
X317168Y327218D01*
X317134Y327205D01*
X317094Y327192D01*
X317049Y327388D01*
X317051D01*
X317055Y327390D01*
X317064Y327395D01*
X317075Y327399D01*
X317088Y327403D01*
X317105Y327410D01*
X317140Y327427D01*
X317179Y327449D01*
X317219Y327475D01*
X317256Y327508D01*
X317288Y327543D01*
X317293Y327547D01*
X317302Y327560D01*
X317312Y327582D01*
X317328Y327611D01*
X317341Y327648D01*
X317354Y327689D01*
X317362Y327739D01*
X317365Y327794D01*
Y327811D01*
X317362Y327822D01*
Y327837D01*
X317360Y327855D01*
X317354Y327896D01*
X317345Y327942D01*
X317330Y327990D01*
X317308Y328040D01*
X317280Y328086D01*
Y328088D01*
X317275Y328090D01*
X317264Y328105D01*
X317247Y328125D01*
X317221Y328149D01*
X317188Y328177D01*
X317151Y328204D01*
X317105Y328227D01*
X317055Y328249D01*
X317053D01*
X317049Y328252D01*
X317042Y328254D01*
X317031Y328256D01*
X317018Y328260D01*
X317003Y328265D01*
X316966Y328271D01*
X316922Y328280D01*
X316874Y328289D01*
X316822Y328293D01*
X316765Y328295D01*
X316763D01*
X316757D01*
X316746D01*
X316733D01*
X316717Y328293D01*
X316698D01*
X316676Y328291D01*
X316652Y328289D01*
X316599Y328282D01*
X316543Y328271D01*
X316486Y328258D01*
X316429Y328241D01*
X316427D01*
X316423Y328238D01*
X316416Y328234D01*
X316406Y328230D01*
X316379Y328217D01*
X316349Y328197D01*
X316314Y328173D01*
X316277Y328142D01*
X316244Y328108D01*
X316214Y328066D01*
Y328064D01*
X316212Y328060D01*
X316207Y328053D01*
X316203Y328044D01*
X316198Y328033D01*
X316192Y328020D01*
X316179Y327990D01*
X316166Y327951D01*
X316155Y327907D01*
X316146Y327859D01*
X316144Y327809D01*
Y327794D01*
X316146Y327781D01*
Y327765D01*
X316148Y327750D01*
X316157Y327711D01*
X316168Y327665D01*
X316185Y327619D01*
X316209Y327571D01*
X316222Y327547D01*
X316240Y327525D01*
X316242Y327523D01*
X316244Y327521D01*
X316251Y327515D01*
X316257Y327506D01*
X316268Y327497D01*
X316281Y327486D01*
X316294Y327473D01*
X316312Y327462D01*
X316331Y327449D01*
X316353Y327434D01*
X316375Y327421D01*
X316401Y327408D01*
X316429Y327397D01*
X316460Y327386D01*
X316493Y327375D01*
X316528Y327366D01*
X316477Y327166D01*
X316475D01*
X316466Y327168D01*
X316453Y327172D01*
X316436Y327179D01*
X316416Y327186D01*
X316392Y327194D01*
X316366Y327205D01*
X316338Y327218D01*
X316277Y327249D01*
X316216Y327288D01*
X316185Y327312D01*
X316155Y327336D01*
X316129Y327362D01*
X316103Y327393D01*
X316100Y327395D01*
X316096Y327399D01*
X316092Y327410D01*
X316083Y327421D01*
X316072Y327438D01*
X316061Y327456D01*
X316050Y327480D01*
X316039Y327504D01*
X316026Y327532D01*
X316015Y327563D01*
X316004Y327595D01*
X315993Y327630D01*
X315985Y327667D01*
X315980Y327707D01*
X315976Y327748D01*
X315974Y327792D01*
Y327816D01*
X315976Y327833D01*
Y327853D01*
X315978Y327876D01*
X315983Y327903D01*
X315987Y327933D01*
X315998Y327996D01*
X316015Y328062D01*
X316039Y328127D01*
X316055Y328158D01*
X316072Y328188D01*
X316074Y328190D01*
X316076Y328195D01*
X316083Y328204D01*
X316092Y328212D01*
X316100Y328225D01*
X316113Y328241D01*
X316129Y328258D01*
X316146Y328275D01*
X316166Y328293D01*
X316185Y328312D01*
X316235Y328352D01*
X316294Y328389D01*
X316360Y328421D01*
X316362D01*
X316368Y328426D01*
X316379Y328428D01*
X316392Y328435D01*
X316410Y328439D01*
X316432Y328446D01*
X316456Y328454D01*
X316482Y328461D01*
X316510Y328467D01*
X316543Y328476D01*
X316610Y328487D01*
X316687Y328496D01*
X316765Y328500D01*
X316767D01*
X316776D01*
X316789D01*
X316804Y328498D01*
D02*
G37*
G36*
X317136Y326852D02*
X317140Y326848D01*
X317142Y326839D01*
X317149Y326828D01*
X317155Y326815D01*
X317164Y326800D01*
X317186Y326763D01*
X317210Y326719D01*
X317240Y326675D01*
X317275Y326630D01*
X317312Y326584D01*
X317315Y326582D01*
X317317Y326579D01*
X317323Y326573D01*
X317330Y326564D01*
X317352Y326544D01*
X317378Y326518D01*
X317408Y326492D01*
X317443Y326464D01*
X317478Y326440D01*
X317515Y326418D01*
Y326298D01*
X316000D01*
Y326483D01*
X317179D01*
X317177Y326486D01*
X317168Y326497D01*
X317155Y326510D01*
X317140Y326532D01*
X317121Y326555D01*
X317099Y326586D01*
X317075Y326621D01*
X317051Y326660D01*
Y326662D01*
X317049Y326664D01*
X317040Y326677D01*
X317029Y326699D01*
X317016Y326726D01*
X317001Y326756D01*
X316985Y326789D01*
X316970Y326821D01*
X316957Y326854D01*
X317136D01*
Y326852D01*
D02*
G37*
G36*
X334748Y316033D02*
X334767Y316030D01*
X334791Y316028D01*
X334815Y316026D01*
X334844Y316020D01*
X334903Y316006D01*
X334968Y315987D01*
X335001Y315974D01*
X335031Y315958D01*
X335062Y315939D01*
X335092Y315919D01*
X335094Y315917D01*
X335099Y315915D01*
X335107Y315908D01*
X335118Y315897D01*
X335129Y315886D01*
X335144Y315871D01*
X335160Y315854D01*
X335177Y315836D01*
X335195Y315814D01*
X335212Y315788D01*
X335232Y315762D01*
X335249Y315734D01*
X335264Y315701D01*
X335282Y315669D01*
X335295Y315634D01*
X335308Y315594D01*
X335112Y315549D01*
Y315551D01*
X335110Y315555D01*
X335105Y315564D01*
X335101Y315575D01*
X335097Y315588D01*
X335090Y315605D01*
X335073Y315640D01*
X335051Y315679D01*
X335025Y315719D01*
X334992Y315756D01*
X334957Y315788D01*
X334953Y315793D01*
X334940Y315802D01*
X334918Y315812D01*
X334889Y315828D01*
X334852Y315841D01*
X334811Y315854D01*
X334761Y315862D01*
X334706Y315865D01*
X334689D01*
X334678Y315862D01*
X334663D01*
X334645Y315860D01*
X334604Y315854D01*
X334558Y315845D01*
X334510Y315830D01*
X334460Y315808D01*
X334414Y315780D01*
X334412D01*
X334410Y315775D01*
X334395Y315764D01*
X334375Y315747D01*
X334351Y315721D01*
X334323Y315688D01*
X334296Y315651D01*
X334273Y315605D01*
X334251Y315555D01*
Y315553D01*
X334248Y315549D01*
X334246Y315542D01*
X334244Y315531D01*
X334240Y315518D01*
X334235Y315503D01*
X334229Y315466D01*
X334220Y315422D01*
X334211Y315374D01*
X334207Y315322D01*
X334205Y315265D01*
Y315263D01*
Y315257D01*
Y315246D01*
Y315232D01*
X334207Y315217D01*
Y315198D01*
X334209Y315176D01*
X334211Y315152D01*
X334218Y315100D01*
X334229Y315043D01*
X334242Y314986D01*
X334259Y314930D01*
Y314927D01*
X334262Y314923D01*
X334266Y314916D01*
X334270Y314906D01*
X334283Y314879D01*
X334303Y314849D01*
X334327Y314814D01*
X334358Y314777D01*
X334392Y314744D01*
X334434Y314714D01*
X334436D01*
X334440Y314711D01*
X334447Y314707D01*
X334456Y314703D01*
X334467Y314698D01*
X334480Y314692D01*
X334510Y314679D01*
X334549Y314666D01*
X334593Y314655D01*
X334641Y314646D01*
X334691Y314644D01*
X334706D01*
X334719Y314646D01*
X334735D01*
X334750Y314648D01*
X334789Y314657D01*
X334835Y314668D01*
X334881Y314685D01*
X334929Y314709D01*
X334953Y314722D01*
X334975Y314740D01*
X334977Y314742D01*
X334979Y314744D01*
X334985Y314751D01*
X334994Y314757D01*
X335003Y314768D01*
X335014Y314781D01*
X335027Y314794D01*
X335038Y314812D01*
X335051Y314831D01*
X335066Y314853D01*
X335079Y314875D01*
X335092Y314901D01*
X335103Y314930D01*
X335114Y314960D01*
X335125Y314993D01*
X335134Y315028D01*
X335334Y314977D01*
Y314975D01*
X335332Y314967D01*
X335328Y314953D01*
X335321Y314936D01*
X335314Y314916D01*
X335306Y314892D01*
X335295Y314866D01*
X335282Y314838D01*
X335251Y314777D01*
X335212Y314716D01*
X335188Y314685D01*
X335164Y314655D01*
X335138Y314629D01*
X335107Y314602D01*
X335105Y314600D01*
X335101Y314596D01*
X335090Y314592D01*
X335079Y314583D01*
X335062Y314572D01*
X335044Y314561D01*
X335020Y314550D01*
X334996Y314539D01*
X334968Y314526D01*
X334937Y314515D01*
X334905Y314504D01*
X334870Y314493D01*
X334833Y314485D01*
X334793Y314480D01*
X334752Y314476D01*
X334708Y314474D01*
X334684D01*
X334667Y314476D01*
X334647D01*
X334624Y314478D01*
X334597Y314483D01*
X334567Y314487D01*
X334504Y314498D01*
X334438Y314515D01*
X334373Y314539D01*
X334342Y314555D01*
X334312Y314572D01*
X334310Y314574D01*
X334305Y314576D01*
X334296Y314583D01*
X334288Y314592D01*
X334275Y314600D01*
X334259Y314613D01*
X334242Y314629D01*
X334225Y314646D01*
X334207Y314666D01*
X334188Y314685D01*
X334148Y314735D01*
X334111Y314794D01*
X334079Y314860D01*
Y314862D01*
X334074Y314868D01*
X334072Y314879D01*
X334065Y314892D01*
X334061Y314910D01*
X334054Y314932D01*
X334046Y314956D01*
X334039Y314982D01*
X334033Y315010D01*
X334024Y315043D01*
X334013Y315110D01*
X334004Y315187D01*
X334000Y315265D01*
Y315267D01*
Y315276D01*
Y315289D01*
X334002Y315304D01*
Y315326D01*
X334004Y315348D01*
X334007Y315376D01*
X334011Y315405D01*
X334022Y315468D01*
X334037Y315538D01*
X334059Y315607D01*
X334089Y315675D01*
X334092Y315677D01*
X334094Y315684D01*
X334098Y315692D01*
X334107Y315703D01*
X334116Y315719D01*
X334126Y315736D01*
X334155Y315775D01*
X334192Y315819D01*
X334235Y315862D01*
X334286Y315906D01*
X334344Y315943D01*
X334347Y315945D01*
X334353Y315948D01*
X334362Y315952D01*
X334373Y315958D01*
X334390Y315965D01*
X334408Y315971D01*
X334430Y315980D01*
X334453Y315989D01*
X334480Y315998D01*
X334508Y316006D01*
X334569Y316020D01*
X334639Y316030D01*
X334711Y316035D01*
X334733D01*
X334748Y316033D01*
D02*
G37*
G36*
X336027Y316013D02*
X336045Y316011D01*
X336065Y316009D01*
X336086Y316006D01*
X336108Y316000D01*
X336160Y315987D01*
X336213Y315967D01*
X336239Y315954D01*
X336265Y315939D01*
X336289Y315919D01*
X336313Y315900D01*
X336315Y315897D01*
X336317Y315895D01*
X336324Y315889D01*
X336333Y315880D01*
X336341Y315867D01*
X336352Y315854D01*
X336374Y315821D01*
X336396Y315780D01*
X336415Y315732D01*
X336431Y315677D01*
X336433Y315649D01*
X336435Y315618D01*
Y315616D01*
Y315614D01*
Y315601D01*
X336433Y315581D01*
X336428Y315557D01*
X336422Y315527D01*
X336411Y315496D01*
X336398Y315466D01*
X336378Y315435D01*
X336376Y315431D01*
X336368Y315422D01*
X336354Y315409D01*
X336337Y315392D01*
X336313Y315372D01*
X336285Y315352D01*
X336252Y315333D01*
X336213Y315315D01*
X336215D01*
X336219Y315313D01*
X336226Y315311D01*
X336234Y315307D01*
X336261Y315296D01*
X336291Y315280D01*
X336324Y315259D01*
X336359Y315235D01*
X336391Y315204D01*
X336422Y315169D01*
Y315167D01*
X336424Y315165D01*
X336433Y315152D01*
X336446Y315130D01*
X336459Y315102D01*
X336472Y315067D01*
X336485Y315025D01*
X336494Y314980D01*
X336496Y314930D01*
Y314927D01*
Y314921D01*
Y314910D01*
X336494Y314897D01*
X336492Y314881D01*
X336490Y314862D01*
X336485Y314840D01*
X336479Y314816D01*
X336463Y314766D01*
X336453Y314738D01*
X336437Y314711D01*
X336422Y314683D01*
X336404Y314657D01*
X336383Y314631D01*
X336359Y314605D01*
X336357Y314602D01*
X336352Y314598D01*
X336346Y314592D01*
X336335Y314585D01*
X336319Y314574D01*
X336304Y314563D01*
X336285Y314552D01*
X336263Y314539D01*
X336239Y314526D01*
X336210Y314515D01*
X336180Y314504D01*
X336150Y314493D01*
X336115Y314487D01*
X336077Y314480D01*
X336040Y314476D01*
X335999Y314474D01*
X335977D01*
X335962Y314476D01*
X335942Y314478D01*
X335921Y314480D01*
X335897Y314485D01*
X335870Y314491D01*
X335812Y314507D01*
X335781Y314517D01*
X335753Y314528D01*
X335722Y314544D01*
X335692Y314561D01*
X335663Y314581D01*
X335637Y314605D01*
X335635Y314607D01*
X335631Y314611D01*
X335624Y314618D01*
X335615Y314629D01*
X335607Y314642D01*
X335594Y314657D01*
X335583Y314674D01*
X335570Y314696D01*
X335557Y314718D01*
X335546Y314744D01*
X335524Y314799D01*
X335515Y314831D01*
X335509Y314864D01*
X335504Y314899D01*
X335502Y314934D01*
Y314936D01*
Y314940D01*
Y314949D01*
X335504Y314958D01*
Y314971D01*
X335506Y314986D01*
X335511Y315021D01*
X335520Y315060D01*
X335532Y315100D01*
X335552Y315141D01*
X335576Y315180D01*
Y315182D01*
X335580Y315184D01*
X335589Y315195D01*
X335607Y315213D01*
X335631Y315235D01*
X335661Y315257D01*
X335698Y315280D01*
X335740Y315300D01*
X335790Y315315D01*
X335788D01*
X335785Y315318D01*
X335779Y315320D01*
X335770Y315324D01*
X335751Y315333D01*
X335724Y315346D01*
X335696Y315363D01*
X335668Y315385D01*
X335642Y315409D01*
X335618Y315435D01*
X335615Y315440D01*
X335609Y315448D01*
X335600Y315466D01*
X335591Y315488D01*
X335580Y315516D01*
X335572Y315549D01*
X335565Y315586D01*
X335563Y315625D01*
Y315627D01*
Y315631D01*
Y315640D01*
X335565Y315653D01*
X335567Y315666D01*
X335570Y315684D01*
X335578Y315721D01*
X335591Y315764D01*
X335613Y315810D01*
X335626Y315834D01*
X335642Y315858D01*
X335661Y315880D01*
X335681Y315902D01*
X335683Y315904D01*
X335687Y315906D01*
X335694Y315913D01*
X335703Y315919D01*
X335714Y315928D01*
X335729Y315937D01*
X335746Y315948D01*
X335764Y315958D01*
X335785Y315969D01*
X335809Y315980D01*
X335836Y315989D01*
X335864Y315998D01*
X335925Y316011D01*
X335960Y316013D01*
X335995Y316015D01*
X336014D01*
X336027Y316013D01*
D02*
G37*
G36*
X305549Y291524D02*
X305566Y291522D01*
X305586Y291520D01*
X305608Y291515D01*
X305632Y291511D01*
X305684Y291498D01*
X305739Y291476D01*
X305767Y291463D01*
X305793Y291448D01*
X305819Y291428D01*
X305845Y291408D01*
X305848Y291406D01*
X305852Y291402D01*
X305858Y291395D01*
X305865Y291387D01*
X305876Y291376D01*
X305887Y291360D01*
X305900Y291345D01*
X305913Y291326D01*
X305926Y291304D01*
X305939Y291282D01*
X305963Y291230D01*
X305983Y291169D01*
X305989Y291136D01*
X305994Y291101D01*
X305808Y291077D01*
Y291079D01*
X305806Y291084D01*
X305804Y291092D01*
X305802Y291103D01*
X305800Y291116D01*
X305795Y291132D01*
X305784Y291164D01*
X305769Y291203D01*
X305750Y291241D01*
X305728Y291276D01*
X305701Y291306D01*
X305697Y291308D01*
X305688Y291317D01*
X305671Y291328D01*
X305649Y291339D01*
X305623Y291352D01*
X305590Y291363D01*
X305553Y291371D01*
X305514Y291374D01*
X305501D01*
X305492Y291371D01*
X305468Y291369D01*
X305438Y291363D01*
X305403Y291352D01*
X305366Y291336D01*
X305329Y291315D01*
X305294Y291284D01*
X305290Y291280D01*
X305279Y291267D01*
X305265Y291247D01*
X305248Y291221D01*
X305231Y291188D01*
X305218Y291151D01*
X305207Y291108D01*
X305202Y291060D01*
Y291057D01*
Y291053D01*
Y291047D01*
X305205Y291038D01*
X305207Y291014D01*
X305213Y290985D01*
X305222Y290951D01*
X305237Y290916D01*
X305259Y290881D01*
X305287Y290848D01*
X305292Y290844D01*
X305303Y290835D01*
X305320Y290822D01*
X305344Y290807D01*
X305375Y290792D01*
X305412Y290778D01*
X305453Y290770D01*
X305499Y290765D01*
X305518D01*
X305534Y290768D01*
X305553Y290770D01*
X305575Y290774D01*
X305601Y290778D01*
X305630Y290785D01*
X305608Y290621D01*
X305597D01*
X305588Y290624D01*
X305560D01*
X305536Y290619D01*
X305507Y290615D01*
X305475Y290608D01*
X305438Y290598D01*
X305403Y290582D01*
X305366Y290563D01*
X305364D01*
X305361Y290560D01*
X305350Y290552D01*
X305335Y290536D01*
X305318Y290517D01*
X305300Y290489D01*
X305285Y290456D01*
X305274Y290419D01*
X305270Y290397D01*
Y290373D01*
Y290371D01*
Y290369D01*
Y290355D01*
X305274Y290338D01*
X305279Y290314D01*
X305287Y290288D01*
X305298Y290260D01*
X305316Y290231D01*
X305340Y290205D01*
X305342Y290203D01*
X305353Y290194D01*
X305368Y290183D01*
X305388Y290170D01*
X305414Y290159D01*
X305444Y290148D01*
X305479Y290140D01*
X305518Y290138D01*
X305536D01*
X305555Y290142D01*
X305582Y290146D01*
X305610Y290155D01*
X305638Y290166D01*
X305669Y290183D01*
X305697Y290205D01*
X305699Y290207D01*
X305708Y290218D01*
X305721Y290233D01*
X305736Y290255D01*
X305752Y290284D01*
X305767Y290318D01*
X305780Y290360D01*
X305789Y290408D01*
X305974Y290375D01*
Y290373D01*
X305972Y290366D01*
X305970Y290358D01*
X305967Y290345D01*
X305963Y290329D01*
X305957Y290312D01*
X305943Y290270D01*
X305922Y290223D01*
X305895Y290175D01*
X305863Y290129D01*
X305821Y290087D01*
X305819Y290085D01*
X305815Y290083D01*
X305808Y290079D01*
X305800Y290072D01*
X305789Y290063D01*
X305773Y290055D01*
X305758Y290046D01*
X305739Y290035D01*
X305695Y290018D01*
X305645Y290000D01*
X305586Y289989D01*
X305555Y289985D01*
X305501D01*
X305477Y289987D01*
X305449Y289991D01*
X305414Y289998D01*
X305375Y290009D01*
X305335Y290022D01*
X305296Y290039D01*
X305294D01*
X305292Y290042D01*
X305279Y290048D01*
X305259Y290061D01*
X305237Y290076D01*
X305211Y290098D01*
X305185Y290122D01*
X305159Y290151D01*
X305137Y290183D01*
X305135Y290188D01*
X305128Y290198D01*
X305119Y290218D01*
X305108Y290242D01*
X305098Y290270D01*
X305089Y290303D01*
X305082Y290340D01*
X305080Y290377D01*
Y290382D01*
Y290395D01*
X305082Y290412D01*
X305087Y290436D01*
X305093Y290464D01*
X305104Y290495D01*
X305117Y290526D01*
X305135Y290556D01*
X305137Y290560D01*
X305143Y290569D01*
X305156Y290584D01*
X305174Y290602D01*
X305196Y290621D01*
X305222Y290643D01*
X305252Y290663D01*
X305290Y290683D01*
X305287D01*
X305283Y290685D01*
X305276Y290687D01*
X305268Y290689D01*
X305244Y290698D01*
X305213Y290711D01*
X305178Y290728D01*
X305143Y290750D01*
X305111Y290778D01*
X305080Y290811D01*
X305078Y290815D01*
X305069Y290829D01*
X305056Y290850D01*
X305043Y290879D01*
X305030Y290914D01*
X305017Y290955D01*
X305008Y291003D01*
X305006Y291055D01*
Y291057D01*
Y291064D01*
Y291075D01*
X305008Y291088D01*
X305010Y291105D01*
X305015Y291125D01*
X305019Y291147D01*
X305024Y291171D01*
X305041Y291223D01*
X305054Y291251D01*
X305067Y291278D01*
X305085Y291306D01*
X305104Y291334D01*
X305126Y291363D01*
X305152Y291389D01*
X305154Y291391D01*
X305159Y291395D01*
X305167Y291402D01*
X305178Y291411D01*
X305191Y291422D01*
X305209Y291432D01*
X305228Y291445D01*
X305252Y291456D01*
X305276Y291470D01*
X305305Y291483D01*
X305333Y291494D01*
X305366Y291504D01*
X305401Y291513D01*
X305438Y291520D01*
X305475Y291524D01*
X305516Y291526D01*
X305536D01*
X305549Y291524D01*
D02*
G37*
G36*
X306833D02*
X306853D01*
X306876Y291522D01*
X306903Y291517D01*
X306933Y291513D01*
X306996Y291502D01*
X307062Y291485D01*
X307127Y291461D01*
X307158Y291445D01*
X307188Y291428D01*
X307190Y291426D01*
X307195Y291424D01*
X307204Y291417D01*
X307212Y291408D01*
X307225Y291400D01*
X307241Y291387D01*
X307258Y291371D01*
X307276Y291354D01*
X307293Y291334D01*
X307312Y291315D01*
X307352Y291265D01*
X307389Y291206D01*
X307421Y291140D01*
Y291138D01*
X307426Y291132D01*
X307428Y291121D01*
X307435Y291108D01*
X307439Y291090D01*
X307446Y291068D01*
X307454Y291044D01*
X307461Y291018D01*
X307467Y290990D01*
X307476Y290957D01*
X307487Y290890D01*
X307496Y290813D01*
X307500Y290735D01*
Y290733D01*
Y290724D01*
Y290711D01*
X307498Y290696D01*
Y290674D01*
X307496Y290652D01*
X307493Y290624D01*
X307489Y290595D01*
X307478Y290532D01*
X307463Y290462D01*
X307441Y290393D01*
X307411Y290325D01*
X307408Y290323D01*
X307406Y290316D01*
X307402Y290307D01*
X307393Y290297D01*
X307384Y290281D01*
X307374Y290264D01*
X307345Y290225D01*
X307308Y290181D01*
X307265Y290138D01*
X307214Y290094D01*
X307156Y290057D01*
X307153Y290055D01*
X307147Y290053D01*
X307138Y290048D01*
X307127Y290042D01*
X307110Y290035D01*
X307092Y290029D01*
X307070Y290020D01*
X307047Y290011D01*
X307020Y290002D01*
X306992Y289994D01*
X306931Y289981D01*
X306861Y289970D01*
X306789Y289965D01*
X306768D01*
X306752Y289967D01*
X306733Y289970D01*
X306709Y289972D01*
X306685Y289974D01*
X306656Y289981D01*
X306597Y289994D01*
X306532Y290013D01*
X306499Y290026D01*
X306469Y290042D01*
X306438Y290061D01*
X306408Y290081D01*
X306406Y290083D01*
X306401Y290085D01*
X306393Y290092D01*
X306382Y290103D01*
X306371Y290113D01*
X306356Y290129D01*
X306340Y290146D01*
X306323Y290164D01*
X306305Y290185D01*
X306288Y290212D01*
X306268Y290238D01*
X306251Y290266D01*
X306236Y290299D01*
X306218Y290332D01*
X306205Y290366D01*
X306192Y290406D01*
X306388Y290451D01*
Y290449D01*
X306390Y290445D01*
X306395Y290436D01*
X306399Y290425D01*
X306403Y290412D01*
X306410Y290395D01*
X306427Y290360D01*
X306449Y290321D01*
X306475Y290281D01*
X306508Y290244D01*
X306543Y290212D01*
X306547Y290207D01*
X306560Y290198D01*
X306582Y290188D01*
X306611Y290172D01*
X306648Y290159D01*
X306689Y290146D01*
X306739Y290138D01*
X306794Y290135D01*
X306811D01*
X306822Y290138D01*
X306837D01*
X306855Y290140D01*
X306896Y290146D01*
X306942Y290155D01*
X306990Y290170D01*
X307040Y290192D01*
X307086Y290220D01*
X307088D01*
X307090Y290225D01*
X307105Y290236D01*
X307125Y290253D01*
X307149Y290279D01*
X307177Y290312D01*
X307204Y290349D01*
X307227Y290395D01*
X307249Y290445D01*
Y290447D01*
X307252Y290451D01*
X307254Y290458D01*
X307256Y290469D01*
X307260Y290482D01*
X307265Y290497D01*
X307271Y290534D01*
X307280Y290578D01*
X307289Y290626D01*
X307293Y290678D01*
X307295Y290735D01*
Y290737D01*
Y290743D01*
Y290754D01*
Y290768D01*
X307293Y290783D01*
Y290802D01*
X307291Y290824D01*
X307289Y290848D01*
X307282Y290900D01*
X307271Y290957D01*
X307258Y291014D01*
X307241Y291071D01*
Y291073D01*
X307238Y291077D01*
X307234Y291084D01*
X307230Y291094D01*
X307217Y291121D01*
X307197Y291151D01*
X307173Y291186D01*
X307142Y291223D01*
X307108Y291256D01*
X307066Y291286D01*
X307064D01*
X307060Y291288D01*
X307053Y291293D01*
X307044Y291297D01*
X307033Y291302D01*
X307020Y291308D01*
X306990Y291321D01*
X306951Y291334D01*
X306907Y291345D01*
X306859Y291354D01*
X306809Y291356D01*
X306794D01*
X306781Y291354D01*
X306765D01*
X306750Y291352D01*
X306711Y291343D01*
X306665Y291332D01*
X306619Y291315D01*
X306571Y291291D01*
X306547Y291278D01*
X306525Y291260D01*
X306523Y291258D01*
X306521Y291256D01*
X306515Y291249D01*
X306506Y291243D01*
X306497Y291232D01*
X306486Y291219D01*
X306473Y291206D01*
X306462Y291188D01*
X306449Y291169D01*
X306434Y291147D01*
X306421Y291125D01*
X306408Y291099D01*
X306397Y291071D01*
X306386Y291040D01*
X306375Y291007D01*
X306366Y290972D01*
X306166Y291023D01*
Y291025D01*
X306168Y291034D01*
X306172Y291047D01*
X306179Y291064D01*
X306186Y291084D01*
X306194Y291108D01*
X306205Y291134D01*
X306218Y291162D01*
X306249Y291223D01*
X306288Y291284D01*
X306312Y291315D01*
X306336Y291345D01*
X306362Y291371D01*
X306393Y291398D01*
X306395Y291400D01*
X306399Y291404D01*
X306410Y291408D01*
X306421Y291417D01*
X306438Y291428D01*
X306456Y291439D01*
X306480Y291450D01*
X306504Y291461D01*
X306532Y291474D01*
X306563Y291485D01*
X306595Y291496D01*
X306630Y291507D01*
X306667Y291515D01*
X306707Y291520D01*
X306748Y291524D01*
X306791Y291526D01*
X306816D01*
X306833Y291524D01*
D02*
G37*
G36*
X304159Y311492D02*
X304164Y311487D01*
X304172Y311479D01*
X304186Y311470D01*
X304201Y311457D01*
X304218Y311439D01*
X304240Y311422D01*
X304266Y311402D01*
X304292Y311383D01*
X304323Y311359D01*
X304358Y311335D01*
X304393Y311311D01*
X304432Y311285D01*
X304473Y311259D01*
X304519Y311232D01*
X304565Y311206D01*
X304567Y311204D01*
X304576Y311200D01*
X304589Y311193D01*
X304608Y311182D01*
X304632Y311171D01*
X304659Y311158D01*
X304689Y311143D01*
X304724Y311128D01*
X304763Y311110D01*
X304802Y311091D01*
X304846Y311073D01*
X304892Y311056D01*
X304985Y311021D01*
X305086Y310988D01*
X305088D01*
X305095Y310986D01*
X305105Y310984D01*
X305118Y310979D01*
X305136Y310975D01*
X305158Y310971D01*
X305182Y310964D01*
X305208Y310960D01*
X305238Y310953D01*
X305271Y310947D01*
X305341Y310936D01*
X305417Y310925D01*
X305500Y310918D01*
Y310729D01*
X305498D01*
X305491D01*
X305483D01*
X305469Y310731D01*
X305452D01*
X305430Y310733D01*
X305406Y310735D01*
X305380Y310737D01*
X305350Y310742D01*
X305319Y310746D01*
X305282Y310753D01*
X305245Y310759D01*
X305206Y310766D01*
X305162Y310774D01*
X305073Y310796D01*
X305070D01*
X305062Y310799D01*
X305049Y310803D01*
X305029Y310809D01*
X305007Y310816D01*
X304981Y310825D01*
X304951Y310833D01*
X304918Y310846D01*
X304881Y310859D01*
X304844Y310873D01*
X304761Y310905D01*
X304674Y310945D01*
X304587Y310988D01*
X304584Y310990D01*
X304576Y310995D01*
X304565Y311001D01*
X304547Y311010D01*
X304528Y311021D01*
X304504Y311036D01*
X304478Y311051D01*
X304449Y311069D01*
X304386Y311110D01*
X304321Y311154D01*
X304253Y311204D01*
X304190Y311256D01*
Y310517D01*
X304011D01*
Y311494D01*
X304157D01*
X304159Y311492D01*
D02*
G37*
G36*
X305033Y310332D02*
X305047Y310328D01*
X305064Y310321D01*
X305084Y310314D01*
X305108Y310306D01*
X305134Y310295D01*
X305162Y310282D01*
X305223Y310251D01*
X305284Y310212D01*
X305315Y310188D01*
X305345Y310164D01*
X305371Y310138D01*
X305398Y310107D01*
X305400Y310105D01*
X305404Y310101D01*
X305408Y310090D01*
X305417Y310079D01*
X305428Y310062D01*
X305439Y310044D01*
X305450Y310020D01*
X305461Y309996D01*
X305474Y309968D01*
X305485Y309937D01*
X305496Y309905D01*
X305506Y309870D01*
X305515Y309833D01*
X305520Y309793D01*
X305524Y309752D01*
X305526Y309708D01*
Y309684D01*
X305524Y309667D01*
Y309647D01*
X305522Y309624D01*
X305517Y309597D01*
X305513Y309567D01*
X305502Y309504D01*
X305485Y309438D01*
X305461Y309373D01*
X305446Y309342D01*
X305428Y309312D01*
X305426Y309310D01*
X305424Y309305D01*
X305417Y309296D01*
X305408Y309288D01*
X305400Y309275D01*
X305387Y309259D01*
X305371Y309242D01*
X305354Y309225D01*
X305334Y309207D01*
X305315Y309188D01*
X305265Y309148D01*
X305206Y309111D01*
X305140Y309079D01*
X305138D01*
X305132Y309074D01*
X305121Y309072D01*
X305108Y309065D01*
X305090Y309061D01*
X305068Y309054D01*
X305044Y309046D01*
X305018Y309039D01*
X304990Y309033D01*
X304957Y309024D01*
X304890Y309013D01*
X304813Y309004D01*
X304735Y309000D01*
X304733D01*
X304724D01*
X304711D01*
X304696Y309002D01*
X304674D01*
X304652Y309004D01*
X304624Y309007D01*
X304595Y309011D01*
X304532Y309022D01*
X304462Y309037D01*
X304393Y309059D01*
X304325Y309089D01*
X304323Y309092D01*
X304316Y309094D01*
X304308Y309098D01*
X304297Y309107D01*
X304281Y309116D01*
X304264Y309126D01*
X304225Y309155D01*
X304181Y309192D01*
X304137Y309235D01*
X304094Y309286D01*
X304057Y309344D01*
X304055Y309347D01*
X304052Y309353D01*
X304048Y309362D01*
X304042Y309373D01*
X304035Y309390D01*
X304029Y309408D01*
X304020Y309430D01*
X304011Y309453D01*
X304002Y309480D01*
X303994Y309508D01*
X303980Y309569D01*
X303970Y309639D01*
X303965Y309711D01*
Y309733D01*
X303967Y309748D01*
X303970Y309767D01*
X303972Y309791D01*
X303974Y309815D01*
X303980Y309844D01*
X303994Y309903D01*
X304013Y309968D01*
X304026Y310001D01*
X304042Y310031D01*
X304061Y310062D01*
X304081Y310092D01*
X304083Y310094D01*
X304085Y310099D01*
X304092Y310107D01*
X304103Y310118D01*
X304114Y310129D01*
X304129Y310144D01*
X304146Y310160D01*
X304164Y310177D01*
X304186Y310195D01*
X304212Y310212D01*
X304238Y310232D01*
X304266Y310249D01*
X304299Y310264D01*
X304331Y310282D01*
X304366Y310295D01*
X304406Y310308D01*
X304451Y310112D01*
X304449D01*
X304445Y310110D01*
X304436Y310105D01*
X304425Y310101D01*
X304412Y310097D01*
X304395Y310090D01*
X304360Y310073D01*
X304321Y310051D01*
X304281Y310025D01*
X304244Y309992D01*
X304212Y309957D01*
X304207Y309953D01*
X304199Y309940D01*
X304188Y309918D01*
X304172Y309889D01*
X304159Y309852D01*
X304146Y309811D01*
X304137Y309761D01*
X304135Y309706D01*
Y309689D01*
X304137Y309678D01*
Y309663D01*
X304140Y309645D01*
X304146Y309604D01*
X304155Y309558D01*
X304170Y309510D01*
X304192Y309460D01*
X304220Y309414D01*
Y309412D01*
X304225Y309410D01*
X304236Y309395D01*
X304253Y309375D01*
X304279Y309351D01*
X304312Y309323D01*
X304349Y309296D01*
X304395Y309273D01*
X304445Y309251D01*
X304447D01*
X304451Y309248D01*
X304458Y309246D01*
X304469Y309244D01*
X304482Y309240D01*
X304497Y309235D01*
X304534Y309229D01*
X304578Y309220D01*
X304626Y309211D01*
X304678Y309207D01*
X304735Y309205D01*
X304737D01*
X304744D01*
X304754D01*
X304767D01*
X304783Y309207D01*
X304802D01*
X304824Y309209D01*
X304848Y309211D01*
X304901Y309218D01*
X304957Y309229D01*
X305014Y309242D01*
X305070Y309259D01*
X305073D01*
X305077Y309262D01*
X305084Y309266D01*
X305095Y309270D01*
X305121Y309283D01*
X305151Y309303D01*
X305186Y309327D01*
X305223Y309358D01*
X305256Y309392D01*
X305286Y309434D01*
Y309436D01*
X305289Y309440D01*
X305293Y309447D01*
X305297Y309456D01*
X305302Y309467D01*
X305308Y309480D01*
X305321Y309510D01*
X305334Y309549D01*
X305345Y309593D01*
X305354Y309641D01*
X305356Y309691D01*
Y309706D01*
X305354Y309719D01*
Y309735D01*
X305352Y309750D01*
X305343Y309789D01*
X305332Y309835D01*
X305315Y309881D01*
X305291Y309929D01*
X305278Y309953D01*
X305260Y309975D01*
X305258Y309977D01*
X305256Y309979D01*
X305249Y309985D01*
X305243Y309994D01*
X305232Y310003D01*
X305219Y310014D01*
X305206Y310027D01*
X305188Y310038D01*
X305169Y310051D01*
X305147Y310066D01*
X305125Y310079D01*
X305099Y310092D01*
X305070Y310103D01*
X305040Y310114D01*
X305007Y310125D01*
X304972Y310134D01*
X305023Y310334D01*
X305025D01*
X305033Y310332D01*
D02*
G37*
G36*
X307833Y299619D02*
X307853D01*
X307876Y299616D01*
X307903Y299612D01*
X307933Y299608D01*
X307996Y299597D01*
X308062Y299579D01*
X308127Y299555D01*
X308158Y299540D01*
X308188Y299522D01*
X308190Y299520D01*
X308195Y299518D01*
X308204Y299512D01*
X308212Y299503D01*
X308225Y299494D01*
X308241Y299481D01*
X308258Y299466D01*
X308276Y299448D01*
X308293Y299429D01*
X308313Y299409D01*
X308352Y299359D01*
X308389Y299300D01*
X308421Y299235D01*
Y299233D01*
X308426Y299226D01*
X308428Y299215D01*
X308435Y299202D01*
X308439Y299185D01*
X308446Y299163D01*
X308454Y299139D01*
X308461Y299113D01*
X308467Y299084D01*
X308476Y299052D01*
X308487Y298984D01*
X308496Y298908D01*
X308500Y298829D01*
Y298827D01*
Y298818D01*
Y298805D01*
X308498Y298790D01*
Y298768D01*
X308496Y298746D01*
X308493Y298718D01*
X308489Y298690D01*
X308478Y298627D01*
X308463Y298557D01*
X308441Y298487D01*
X308411Y298419D01*
X308408Y298417D01*
X308406Y298411D01*
X308402Y298402D01*
X308393Y298391D01*
X308384Y298376D01*
X308374Y298358D01*
X308345Y298319D01*
X308308Y298276D01*
X308265Y298232D01*
X308214Y298188D01*
X308156Y298151D01*
X308153Y298149D01*
X308147Y298147D01*
X308138Y298143D01*
X308127Y298136D01*
X308110Y298130D01*
X308092Y298123D01*
X308070Y298114D01*
X308047Y298106D01*
X308020Y298097D01*
X307992Y298088D01*
X307931Y298075D01*
X307861Y298064D01*
X307789Y298060D01*
X307768D01*
X307752Y298062D01*
X307733Y298064D01*
X307709Y298066D01*
X307685Y298068D01*
X307656Y298075D01*
X307597Y298088D01*
X307532Y298108D01*
X307499Y298121D01*
X307469Y298136D01*
X307438Y298156D01*
X307408Y298175D01*
X307406Y298178D01*
X307401Y298180D01*
X307393Y298186D01*
X307382Y298197D01*
X307371Y298208D01*
X307355Y298223D01*
X307340Y298241D01*
X307323Y298258D01*
X307305Y298280D01*
X307288Y298306D01*
X307268Y298332D01*
X307251Y298361D01*
X307236Y298393D01*
X307218Y298426D01*
X307205Y298461D01*
X307192Y298500D01*
X307388Y298546D01*
Y298544D01*
X307390Y298539D01*
X307395Y298531D01*
X307399Y298520D01*
X307403Y298507D01*
X307410Y298489D01*
X307427Y298454D01*
X307449Y298415D01*
X307475Y298376D01*
X307508Y298339D01*
X307543Y298306D01*
X307547Y298302D01*
X307560Y298293D01*
X307582Y298282D01*
X307611Y298267D01*
X307648Y298254D01*
X307689Y298241D01*
X307739Y298232D01*
X307794Y298230D01*
X307811D01*
X307822Y298232D01*
X307837D01*
X307855Y298234D01*
X307896Y298241D01*
X307942Y298249D01*
X307990Y298265D01*
X308040Y298287D01*
X308086Y298315D01*
X308088D01*
X308090Y298319D01*
X308105Y298330D01*
X308125Y298347D01*
X308149Y298374D01*
X308177Y298406D01*
X308204Y298443D01*
X308227Y298489D01*
X308249Y298539D01*
Y298541D01*
X308252Y298546D01*
X308254Y298552D01*
X308256Y298563D01*
X308260Y298576D01*
X308265Y298592D01*
X308271Y298629D01*
X308280Y298672D01*
X308289Y298720D01*
X308293Y298773D01*
X308295Y298829D01*
Y298832D01*
Y298838D01*
Y298849D01*
Y298862D01*
X308293Y298877D01*
Y298897D01*
X308291Y298919D01*
X308289Y298943D01*
X308282Y298995D01*
X308271Y299052D01*
X308258Y299108D01*
X308241Y299165D01*
Y299167D01*
X308238Y299172D01*
X308234Y299178D01*
X308230Y299189D01*
X308217Y299215D01*
X308197Y299246D01*
X308173Y299281D01*
X308142Y299318D01*
X308108Y299350D01*
X308066Y299381D01*
X308064D01*
X308060Y299383D01*
X308053Y299387D01*
X308044Y299392D01*
X308033Y299396D01*
X308020Y299403D01*
X307990Y299416D01*
X307951Y299429D01*
X307907Y299440D01*
X307859Y299448D01*
X307809Y299451D01*
X307794D01*
X307781Y299448D01*
X307765D01*
X307750Y299446D01*
X307711Y299437D01*
X307665Y299427D01*
X307619Y299409D01*
X307571Y299385D01*
X307547Y299372D01*
X307525Y299355D01*
X307523Y299353D01*
X307521Y299350D01*
X307515Y299344D01*
X307506Y299337D01*
X307497Y299326D01*
X307486Y299313D01*
X307473Y299300D01*
X307462Y299283D01*
X307449Y299263D01*
X307434Y299241D01*
X307421Y299219D01*
X307408Y299193D01*
X307397Y299165D01*
X307386Y299134D01*
X307375Y299102D01*
X307366Y299067D01*
X307166Y299117D01*
Y299119D01*
X307168Y299128D01*
X307172Y299141D01*
X307179Y299159D01*
X307186Y299178D01*
X307194Y299202D01*
X307205Y299228D01*
X307218Y299257D01*
X307249Y299318D01*
X307288Y299379D01*
X307312Y299409D01*
X307336Y299440D01*
X307362Y299466D01*
X307393Y299492D01*
X307395Y299494D01*
X307399Y299499D01*
X307410Y299503D01*
X307421Y299512D01*
X307438Y299522D01*
X307456Y299533D01*
X307480Y299544D01*
X307504Y299555D01*
X307532Y299568D01*
X307563Y299579D01*
X307595Y299590D01*
X307630Y299601D01*
X307667Y299610D01*
X307706Y299614D01*
X307748Y299619D01*
X307791Y299621D01*
X307816D01*
X307833Y299619D01*
D02*
G37*
G36*
X306484Y298415D02*
X306486Y298417D01*
X306497Y298426D01*
X306510Y298439D01*
X306532Y298454D01*
X306555Y298474D01*
X306586Y298496D01*
X306621Y298520D01*
X306660Y298544D01*
X306662D01*
X306664Y298546D01*
X306678Y298555D01*
X306699Y298566D01*
X306726Y298579D01*
X306756Y298594D01*
X306789Y298609D01*
X306821Y298624D01*
X306854Y298638D01*
Y298459D01*
X306852D01*
X306848Y298454D01*
X306839Y298452D01*
X306828Y298446D01*
X306815Y298439D01*
X306800Y298430D01*
X306763Y298409D01*
X306719Y298385D01*
X306675Y298354D01*
X306630Y298319D01*
X306584Y298282D01*
X306582Y298280D01*
X306579Y298278D01*
X306573Y298271D01*
X306564Y298265D01*
X306544Y298243D01*
X306518Y298217D01*
X306492Y298186D01*
X306464Y298151D01*
X306440Y298116D01*
X306418Y298079D01*
X306298D01*
Y299594D01*
X306484D01*
Y298415D01*
D02*
G37*
G36*
X305367Y299619D02*
X305385Y299616D01*
X305407Y299612D01*
X305431Y299608D01*
X305457Y299601D01*
X305483Y299592D01*
X305511Y299584D01*
X305540Y299570D01*
X305568Y299555D01*
X305596Y299538D01*
X305625Y299516D01*
X305651Y299492D01*
X305675Y299466D01*
X305677Y299464D01*
X305681Y299457D01*
X305688Y299446D01*
X305699Y299429D01*
X305710Y299409D01*
X305720Y299383D01*
X305736Y299353D01*
X305749Y299318D01*
X305762Y299278D01*
X305775Y299233D01*
X305788Y299183D01*
X305799Y299126D01*
X305810Y299065D01*
X305816Y298999D01*
X305821Y298927D01*
X305823Y298851D01*
Y298849D01*
Y298840D01*
Y298825D01*
Y298808D01*
X305821Y298783D01*
Y298757D01*
X305819Y298729D01*
X305816Y298696D01*
X305810Y298629D01*
X305799Y298557D01*
X305786Y298485D01*
X305777Y298452D01*
X305768Y298419D01*
Y298417D01*
X305766Y298413D01*
X305762Y298404D01*
X305758Y298393D01*
X305753Y298378D01*
X305745Y298363D01*
X305727Y298326D01*
X305705Y298287D01*
X305677Y298245D01*
X305644Y298204D01*
X305605Y298169D01*
X305603D01*
X305601Y298164D01*
X305594Y298160D01*
X305585Y298156D01*
X305574Y298147D01*
X305561Y298140D01*
X305529Y298123D01*
X305489Y298108D01*
X305444Y298093D01*
X305389Y298084D01*
X305330Y298079D01*
X305311D01*
X305287Y298082D01*
X305258Y298086D01*
X305226Y298093D01*
X305191Y298101D01*
X305154Y298112D01*
X305119Y298130D01*
X305117D01*
X305115Y298132D01*
X305104Y298138D01*
X305086Y298149D01*
X305064Y298164D01*
X305040Y298186D01*
X305014Y298210D01*
X304990Y298238D01*
X304966Y298271D01*
X304964Y298276D01*
X304955Y298287D01*
X304947Y298306D01*
X304931Y298334D01*
X304918Y298367D01*
X304901Y298404D01*
X304886Y298448D01*
X304872Y298496D01*
Y298498D01*
X304870Y298502D01*
X304868Y298509D01*
X304866Y298520D01*
X304864Y298533D01*
X304862Y298548D01*
X304857Y298568D01*
X304855Y298589D01*
X304851Y298614D01*
X304849Y298640D01*
X304846Y298670D01*
X304842Y298701D01*
X304840Y298736D01*
Y298770D01*
X304838Y298810D01*
Y298851D01*
Y298853D01*
Y298862D01*
Y298877D01*
Y298895D01*
X304840Y298919D01*
Y298945D01*
X304842Y298973D01*
X304844Y299004D01*
X304851Y299074D01*
X304862Y299145D01*
X304875Y299215D01*
X304883Y299248D01*
X304894Y299281D01*
Y299283D01*
X304896Y299287D01*
X304901Y299296D01*
X304905Y299307D01*
X304909Y299322D01*
X304918Y299337D01*
X304936Y299374D01*
X304958Y299413D01*
X304986Y299457D01*
X305018Y299496D01*
X305058Y299533D01*
X305060D01*
X305062Y299538D01*
X305069Y299542D01*
X305077Y299547D01*
X305088Y299553D01*
X305099Y299562D01*
X305132Y299577D01*
X305171Y299592D01*
X305217Y299608D01*
X305271Y299616D01*
X305330Y299621D01*
X305352D01*
X305367Y299619D01*
D02*
G37*
G36*
X335804Y328498D02*
X335826D01*
X335848Y328496D01*
X335876Y328493D01*
X335905Y328489D01*
X335968Y328478D01*
X336038Y328463D01*
X336107Y328441D01*
X336175Y328411D01*
X336177Y328408D01*
X336184Y328406D01*
X336192Y328402D01*
X336203Y328393D01*
X336219Y328384D01*
X336236Y328374D01*
X336275Y328345D01*
X336319Y328308D01*
X336363Y328265D01*
X336406Y328214D01*
X336443Y328156D01*
X336445Y328153D01*
X336448Y328147D01*
X336452Y328138D01*
X336458Y328127D01*
X336465Y328110D01*
X336472Y328092D01*
X336480Y328070D01*
X336489Y328047D01*
X336498Y328020D01*
X336506Y327992D01*
X336520Y327931D01*
X336530Y327861D01*
X336535Y327789D01*
Y327767D01*
X336532Y327752D01*
X336530Y327733D01*
X336528Y327709D01*
X336526Y327685D01*
X336520Y327656D01*
X336506Y327597D01*
X336487Y327532D01*
X336474Y327499D01*
X336458Y327469D01*
X336439Y327438D01*
X336419Y327408D01*
X336417Y327406D01*
X336415Y327401D01*
X336408Y327393D01*
X336397Y327382D01*
X336386Y327371D01*
X336371Y327356D01*
X336354Y327340D01*
X336336Y327323D01*
X336315Y327305D01*
X336288Y327288D01*
X336262Y327268D01*
X336234Y327251D01*
X336201Y327236D01*
X336169Y327218D01*
X336134Y327205D01*
X336094Y327192D01*
X336049Y327388D01*
X336051D01*
X336055Y327390D01*
X336064Y327395D01*
X336075Y327399D01*
X336088Y327403D01*
X336105Y327410D01*
X336140Y327427D01*
X336179Y327449D01*
X336219Y327475D01*
X336256Y327508D01*
X336288Y327543D01*
X336293Y327547D01*
X336301Y327560D01*
X336312Y327582D01*
X336328Y327611D01*
X336341Y327648D01*
X336354Y327689D01*
X336363Y327739D01*
X336365Y327794D01*
Y327811D01*
X336363Y327822D01*
Y327837D01*
X336360Y327855D01*
X336354Y327896D01*
X336345Y327942D01*
X336330Y327990D01*
X336308Y328040D01*
X336280Y328086D01*
Y328088D01*
X336275Y328090D01*
X336264Y328105D01*
X336247Y328125D01*
X336221Y328149D01*
X336188Y328177D01*
X336151Y328204D01*
X336105Y328227D01*
X336055Y328249D01*
X336053D01*
X336049Y328252D01*
X336042Y328254D01*
X336031Y328256D01*
X336018Y328260D01*
X336003Y328265D01*
X335966Y328271D01*
X335922Y328280D01*
X335874Y328289D01*
X335822Y328293D01*
X335765Y328295D01*
X335763D01*
X335756D01*
X335746D01*
X335733D01*
X335717Y328293D01*
X335698D01*
X335676Y328291D01*
X335652Y328289D01*
X335599Y328282D01*
X335543Y328271D01*
X335486Y328258D01*
X335430Y328241D01*
X335427D01*
X335423Y328238D01*
X335416Y328234D01*
X335405Y328230D01*
X335379Y328217D01*
X335349Y328197D01*
X335314Y328173D01*
X335277Y328142D01*
X335244Y328108D01*
X335214Y328066D01*
Y328064D01*
X335211Y328060D01*
X335207Y328053D01*
X335203Y328044D01*
X335198Y328033D01*
X335192Y328020D01*
X335179Y327990D01*
X335166Y327951D01*
X335155Y327907D01*
X335146Y327859D01*
X335144Y327809D01*
Y327794D01*
X335146Y327781D01*
Y327765D01*
X335148Y327750D01*
X335157Y327711D01*
X335168Y327665D01*
X335185Y327619D01*
X335209Y327571D01*
X335222Y327547D01*
X335240Y327525D01*
X335242Y327523D01*
X335244Y327521D01*
X335251Y327515D01*
X335257Y327506D01*
X335268Y327497D01*
X335281Y327486D01*
X335294Y327473D01*
X335312Y327462D01*
X335331Y327449D01*
X335353Y327434D01*
X335375Y327421D01*
X335401Y327408D01*
X335430Y327397D01*
X335460Y327386D01*
X335493Y327375D01*
X335528Y327366D01*
X335477Y327166D01*
X335475D01*
X335467Y327168D01*
X335453Y327172D01*
X335436Y327179D01*
X335416Y327186D01*
X335392Y327194D01*
X335366Y327205D01*
X335338Y327218D01*
X335277Y327249D01*
X335216Y327288D01*
X335185Y327312D01*
X335155Y327336D01*
X335129Y327362D01*
X335103Y327393D01*
X335100Y327395D01*
X335096Y327399D01*
X335092Y327410D01*
X335083Y327421D01*
X335072Y327438D01*
X335061Y327456D01*
X335050Y327480D01*
X335039Y327504D01*
X335026Y327532D01*
X335015Y327563D01*
X335004Y327595D01*
X334994Y327630D01*
X334985Y327667D01*
X334980Y327707D01*
X334976Y327748D01*
X334974Y327792D01*
Y327816D01*
X334976Y327833D01*
Y327853D01*
X334978Y327876D01*
X334983Y327903D01*
X334987Y327933D01*
X334998Y327996D01*
X335015Y328062D01*
X335039Y328127D01*
X335054Y328158D01*
X335072Y328188D01*
X335074Y328190D01*
X335076Y328195D01*
X335083Y328204D01*
X335092Y328212D01*
X335100Y328225D01*
X335113Y328241D01*
X335129Y328258D01*
X335146Y328275D01*
X335166Y328293D01*
X335185Y328312D01*
X335235Y328352D01*
X335294Y328389D01*
X335360Y328421D01*
X335362D01*
X335368Y328426D01*
X335379Y328428D01*
X335392Y328435D01*
X335410Y328439D01*
X335432Y328446D01*
X335456Y328454D01*
X335482Y328461D01*
X335510Y328467D01*
X335543Y328476D01*
X335610Y328487D01*
X335687Y328496D01*
X335765Y328500D01*
X335767D01*
X335776D01*
X335789D01*
X335804Y328498D01*
D02*
G37*
G36*
X335041Y327020D02*
X335061Y327018D01*
X335083Y327013D01*
X335105Y327009D01*
X335129Y327000D01*
X335131D01*
X335133Y326998D01*
X335146Y326994D01*
X335166Y326985D01*
X335192Y326972D01*
X335222Y326954D01*
X335257Y326933D01*
X335292Y326909D01*
X335329Y326878D01*
X335331D01*
X335333Y326874D01*
X335347Y326863D01*
X335366Y326843D01*
X335395Y326815D01*
X335427Y326782D01*
X335467Y326741D01*
X335510Y326691D01*
X335556Y326636D01*
X335558Y326634D01*
X335565Y326625D01*
X335576Y326612D01*
X335589Y326597D01*
X335606Y326577D01*
X335626Y326553D01*
X335648Y326529D01*
X335671Y326501D01*
X335724Y326446D01*
X335776Y326392D01*
X335802Y326366D01*
X335828Y326342D01*
X335852Y326320D01*
X335876Y326303D01*
X335878D01*
X335881Y326298D01*
X335887Y326294D01*
X335896Y326290D01*
X335920Y326274D01*
X335948Y326257D01*
X335983Y326241D01*
X336020Y326226D01*
X336062Y326218D01*
X336101Y326213D01*
X336103D01*
X336105D01*
X336118Y326215D01*
X336140Y326218D01*
X336164Y326224D01*
X336195Y326233D01*
X336225Y326248D01*
X336256Y326268D01*
X336286Y326294D01*
X336291Y326298D01*
X336299Y326309D01*
X336310Y326324D01*
X336325Y326348D01*
X336338Y326379D01*
X336352Y326414D01*
X336360Y326455D01*
X336363Y326501D01*
Y326514D01*
X336360Y326523D01*
X336358Y326549D01*
X336352Y326579D01*
X336343Y326612D01*
X336328Y326649D01*
X336308Y326684D01*
X336282Y326717D01*
X336278Y326721D01*
X336267Y326730D01*
X336249Y326743D01*
X336223Y326756D01*
X336192Y326771D01*
X336153Y326784D01*
X336110Y326793D01*
X336059Y326797D01*
X336079Y326987D01*
X336081D01*
X336088Y326985D01*
X336099D01*
X336114Y326983D01*
X336131Y326978D01*
X336151Y326974D01*
X336175Y326968D01*
X336199Y326961D01*
X336251Y326943D01*
X336304Y326917D01*
X336330Y326902D01*
X336356Y326882D01*
X336380Y326863D01*
X336402Y326841D01*
X336404Y326839D01*
X336406Y326835D01*
X336413Y326828D01*
X336419Y326817D01*
X336428Y326804D01*
X336437Y326789D01*
X336448Y326771D01*
X336458Y326749D01*
X336469Y326726D01*
X336480Y326699D01*
X336489Y326671D01*
X336498Y326641D01*
X336504Y326608D01*
X336511Y326573D01*
X336513Y326536D01*
X336515Y326497D01*
Y326475D01*
X336513Y326460D01*
X336511Y326442D01*
X336509Y326420D01*
X336504Y326396D01*
X336500Y326372D01*
X336485Y326316D01*
X336463Y326259D01*
X336450Y326231D01*
X336434Y326202D01*
X336415Y326176D01*
X336393Y326152D01*
X336391Y326150D01*
X336389Y326146D01*
X336380Y326141D01*
X336371Y326132D01*
X336360Y326122D01*
X336345Y326111D01*
X336330Y326100D01*
X336310Y326087D01*
X336269Y326065D01*
X336216Y326043D01*
X336190Y326034D01*
X336160Y326030D01*
X336129Y326026D01*
X336097Y326024D01*
X336092D01*
X336081D01*
X336064Y326026D01*
X336040Y326028D01*
X336014Y326032D01*
X335983Y326041D01*
X335950Y326050D01*
X335918Y326063D01*
X335913Y326065D01*
X335903Y326069D01*
X335885Y326078D01*
X335861Y326091D01*
X335835Y326109D01*
X335802Y326130D01*
X335770Y326156D01*
X335733Y326187D01*
X335728Y326191D01*
X335715Y326202D01*
X335704Y326213D01*
X335693Y326224D01*
X335680Y326237D01*
X335663Y326255D01*
X335645Y326272D01*
X335626Y326294D01*
X335604Y326316D01*
X335580Y326342D01*
X335556Y326370D01*
X335528Y326401D01*
X335499Y326435D01*
X335469Y326470D01*
X335467Y326473D01*
X335462Y326477D01*
X335456Y326486D01*
X335447Y326497D01*
X335434Y326510D01*
X335421Y326525D01*
X335392Y326560D01*
X335360Y326597D01*
X335327Y326632D01*
X335299Y326662D01*
X335288Y326675D01*
X335277Y326686D01*
X335275Y326688D01*
X335268Y326695D01*
X335259Y326704D01*
X335246Y326715D01*
X335231Y326726D01*
X335216Y326739D01*
X335179Y326765D01*
Y326021D01*
X335000D01*
Y327022D01*
X335002D01*
X335011D01*
X335024D01*
X335041Y327020D01*
D02*
G37*
G36*
X336069Y312013D02*
X336084D01*
X336102Y312011D01*
X336143Y312002D01*
X336189Y311991D01*
X336237Y311974D01*
X336285Y311947D01*
X336309Y311932D01*
X336330Y311915D01*
X336333Y311913D01*
X336335Y311911D01*
X336341Y311904D01*
X336348Y311897D01*
X336359Y311887D01*
X336368Y311873D01*
X336391Y311843D01*
X336415Y311804D01*
X336437Y311756D01*
X336457Y311701D01*
X336470Y311640D01*
X336285Y311625D01*
Y311627D01*
X336282Y311629D01*
X336280Y311642D01*
X336274Y311662D01*
X336265Y311686D01*
X336256Y311712D01*
X336243Y311738D01*
X336228Y311762D01*
X336213Y311782D01*
X336208Y311786D01*
X336200Y311795D01*
X336184Y311808D01*
X336163Y311823D01*
X336134Y311836D01*
X336104Y311849D01*
X336067Y311858D01*
X336027Y311862D01*
X336012D01*
X335995Y311860D01*
X335975Y311856D01*
X335949Y311849D01*
X335923Y311841D01*
X335897Y311830D01*
X335870Y311812D01*
X335866Y311810D01*
X335855Y311802D01*
X335840Y311786D01*
X335820Y311764D01*
X335799Y311738D01*
X335774Y311708D01*
X335753Y311668D01*
X335731Y311625D01*
Y311623D01*
X335729Y311618D01*
X335727Y311612D01*
X335722Y311603D01*
X335720Y311590D01*
X335716Y311575D01*
X335711Y311557D01*
X335707Y311536D01*
X335700Y311511D01*
X335696Y311485D01*
X335692Y311457D01*
X335689Y311426D01*
X335685Y311392D01*
X335683Y311357D01*
X335681Y311317D01*
Y311278D01*
X335683Y311280D01*
X335692Y311294D01*
X335707Y311311D01*
X335727Y311333D01*
X335748Y311359D01*
X335777Y311383D01*
X335807Y311407D01*
X335842Y311429D01*
X335844D01*
X335846Y311431D01*
X335859Y311437D01*
X335879Y311444D01*
X335905Y311455D01*
X335936Y311464D01*
X335971Y311470D01*
X336008Y311477D01*
X336047Y311479D01*
X336065D01*
X336077Y311477D01*
X336095Y311474D01*
X336112Y311472D01*
X336134Y311468D01*
X336156Y311461D01*
X336206Y311446D01*
X336232Y311435D01*
X336259Y311420D01*
X336285Y311405D01*
X336313Y311387D01*
X336339Y311366D01*
X336363Y311342D01*
X336365Y311339D01*
X336370Y311335D01*
X336376Y311328D01*
X336383Y311317D01*
X336394Y311302D01*
X336404Y311287D01*
X336415Y311267D01*
X336428Y311246D01*
X336442Y311222D01*
X336453Y311195D01*
X336463Y311165D01*
X336474Y311134D01*
X336481Y311102D01*
X336487Y311065D01*
X336492Y311028D01*
X336494Y310988D01*
Y310986D01*
Y310982D01*
Y310975D01*
Y310964D01*
X336492Y310951D01*
Y310938D01*
X336485Y310903D01*
X336479Y310862D01*
X336468Y310818D01*
X336453Y310770D01*
X336431Y310724D01*
Y310722D01*
X336428Y310720D01*
X336424Y310714D01*
X336420Y310705D01*
X336407Y310683D01*
X336387Y310655D01*
X336363Y310624D01*
X336335Y310594D01*
X336300Y310563D01*
X336263Y310537D01*
X336261D01*
X336259Y310535D01*
X336252Y310530D01*
X336243Y310528D01*
X336221Y310517D01*
X336193Y310507D01*
X336156Y310493D01*
X336115Y310485D01*
X336069Y310476D01*
X336019Y310474D01*
X336008D01*
X335997Y310476D01*
X335979D01*
X335960Y310478D01*
X335938Y310483D01*
X335912Y310489D01*
X335886Y310496D01*
X335855Y310504D01*
X335825Y310515D01*
X335794Y310528D01*
X335761Y310546D01*
X335731Y310565D01*
X335700Y310587D01*
X335670Y310613D01*
X335642Y310644D01*
X335639Y310646D01*
X335635Y310653D01*
X335629Y310661D01*
X335620Y310677D01*
X335607Y310696D01*
X335596Y310718D01*
X335583Y310746D01*
X335570Y310777D01*
X335554Y310814D01*
X335541Y310855D01*
X335530Y310901D01*
X335520Y310951D01*
X335509Y311008D01*
X335502Y311069D01*
X335498Y311134D01*
X335495Y311204D01*
Y311206D01*
Y311209D01*
Y311215D01*
Y311224D01*
X335498Y311246D01*
Y311276D01*
X335500Y311311D01*
X335504Y311352D01*
X335509Y311398D01*
X335515Y311448D01*
X335524Y311498D01*
X335535Y311553D01*
X335548Y311605D01*
X335563Y311658D01*
X335583Y311708D01*
X335605Y311756D01*
X335629Y311802D01*
X335657Y311841D01*
X335659Y311843D01*
X335663Y311847D01*
X335672Y311856D01*
X335683Y311869D01*
X335696Y311882D01*
X335714Y311895D01*
X335735Y311913D01*
X335757Y311928D01*
X335783Y311943D01*
X335812Y311961D01*
X335844Y311974D01*
X335877Y311989D01*
X335914Y312000D01*
X335953Y312009D01*
X335995Y312013D01*
X336038Y312015D01*
X336056D01*
X336069Y312013D01*
D02*
G37*
G36*
X334748Y312033D02*
X334767Y312030D01*
X334791Y312028D01*
X334815Y312026D01*
X334844Y312019D01*
X334903Y312006D01*
X334968Y311987D01*
X335001Y311974D01*
X335031Y311958D01*
X335062Y311939D01*
X335092Y311919D01*
X335094Y311917D01*
X335099Y311915D01*
X335107Y311908D01*
X335118Y311897D01*
X335129Y311887D01*
X335144Y311871D01*
X335160Y311854D01*
X335177Y311836D01*
X335195Y311814D01*
X335212Y311788D01*
X335232Y311762D01*
X335249Y311734D01*
X335264Y311701D01*
X335282Y311668D01*
X335295Y311634D01*
X335308Y311594D01*
X335112Y311549D01*
Y311551D01*
X335110Y311555D01*
X335105Y311564D01*
X335101Y311575D01*
X335097Y311588D01*
X335090Y311605D01*
X335073Y311640D01*
X335051Y311679D01*
X335025Y311719D01*
X334992Y311756D01*
X334957Y311788D01*
X334953Y311793D01*
X334940Y311802D01*
X334918Y311812D01*
X334889Y311828D01*
X334852Y311841D01*
X334811Y311854D01*
X334761Y311862D01*
X334706Y311865D01*
X334689D01*
X334678Y311862D01*
X334663D01*
X334645Y311860D01*
X334604Y311854D01*
X334558Y311845D01*
X334510Y311830D01*
X334460Y311808D01*
X334414Y311780D01*
X334412D01*
X334410Y311775D01*
X334395Y311764D01*
X334375Y311747D01*
X334351Y311721D01*
X334323Y311688D01*
X334296Y311651D01*
X334273Y311605D01*
X334251Y311555D01*
Y311553D01*
X334248Y311549D01*
X334246Y311542D01*
X334244Y311531D01*
X334240Y311518D01*
X334235Y311503D01*
X334229Y311466D01*
X334220Y311422D01*
X334211Y311374D01*
X334207Y311322D01*
X334205Y311265D01*
Y311263D01*
Y311257D01*
Y311246D01*
Y311232D01*
X334207Y311217D01*
Y311198D01*
X334209Y311176D01*
X334211Y311152D01*
X334218Y311100D01*
X334229Y311043D01*
X334242Y310986D01*
X334259Y310929D01*
Y310927D01*
X334262Y310923D01*
X334266Y310916D01*
X334270Y310906D01*
X334283Y310879D01*
X334303Y310849D01*
X334327Y310814D01*
X334358Y310777D01*
X334392Y310744D01*
X334434Y310714D01*
X334436D01*
X334440Y310712D01*
X334447Y310707D01*
X334456Y310703D01*
X334467Y310698D01*
X334480Y310692D01*
X334510Y310679D01*
X334549Y310666D01*
X334593Y310655D01*
X334641Y310646D01*
X334691Y310644D01*
X334706D01*
X334719Y310646D01*
X334735D01*
X334750Y310648D01*
X334789Y310657D01*
X334835Y310668D01*
X334881Y310685D01*
X334929Y310709D01*
X334953Y310722D01*
X334975Y310740D01*
X334977Y310742D01*
X334979Y310744D01*
X334985Y310751D01*
X334994Y310757D01*
X335003Y310768D01*
X335014Y310781D01*
X335027Y310794D01*
X335038Y310812D01*
X335051Y310831D01*
X335066Y310853D01*
X335079Y310875D01*
X335092Y310901D01*
X335103Y310929D01*
X335114Y310960D01*
X335125Y310993D01*
X335134Y311028D01*
X335334Y310977D01*
Y310975D01*
X335332Y310966D01*
X335328Y310953D01*
X335321Y310936D01*
X335314Y310916D01*
X335306Y310892D01*
X335295Y310866D01*
X335282Y310838D01*
X335251Y310777D01*
X335212Y310716D01*
X335188Y310685D01*
X335164Y310655D01*
X335138Y310629D01*
X335107Y310602D01*
X335105Y310600D01*
X335101Y310596D01*
X335090Y310592D01*
X335079Y310583D01*
X335062Y310572D01*
X335044Y310561D01*
X335020Y310550D01*
X334996Y310539D01*
X334968Y310526D01*
X334937Y310515D01*
X334905Y310504D01*
X334870Y310493D01*
X334833Y310485D01*
X334793Y310480D01*
X334752Y310476D01*
X334708Y310474D01*
X334684D01*
X334667Y310476D01*
X334647D01*
X334624Y310478D01*
X334597Y310483D01*
X334567Y310487D01*
X334504Y310498D01*
X334438Y310515D01*
X334373Y310539D01*
X334342Y310555D01*
X334312Y310572D01*
X334310Y310574D01*
X334305Y310576D01*
X334296Y310583D01*
X334288Y310592D01*
X334275Y310600D01*
X334259Y310613D01*
X334242Y310629D01*
X334225Y310646D01*
X334207Y310666D01*
X334188Y310685D01*
X334148Y310735D01*
X334111Y310794D01*
X334079Y310860D01*
Y310862D01*
X334074Y310868D01*
X334072Y310879D01*
X334065Y310892D01*
X334061Y310910D01*
X334054Y310932D01*
X334046Y310956D01*
X334039Y310982D01*
X334033Y311010D01*
X334024Y311043D01*
X334013Y311110D01*
X334004Y311187D01*
X334000Y311265D01*
Y311267D01*
Y311276D01*
Y311289D01*
X334002Y311304D01*
Y311326D01*
X334004Y311348D01*
X334007Y311376D01*
X334011Y311405D01*
X334022Y311468D01*
X334037Y311538D01*
X334059Y311607D01*
X334089Y311675D01*
X334092Y311677D01*
X334094Y311684D01*
X334098Y311693D01*
X334107Y311703D01*
X334116Y311719D01*
X334126Y311736D01*
X334155Y311775D01*
X334192Y311819D01*
X334235Y311862D01*
X334286Y311906D01*
X334344Y311943D01*
X334347Y311945D01*
X334353Y311947D01*
X334362Y311952D01*
X334373Y311958D01*
X334390Y311965D01*
X334408Y311971D01*
X334430Y311980D01*
X334453Y311989D01*
X334480Y311998D01*
X334508Y312006D01*
X334569Y312019D01*
X334639Y312030D01*
X334711Y312035D01*
X334733D01*
X334748Y312033D01*
D02*
G37*
G36*
X318979Y311513D02*
X318997Y311511D01*
X319019Y311509D01*
X319043Y311504D01*
X319067Y311500D01*
X319123Y311485D01*
X319180Y311463D01*
X319208Y311450D01*
X319237Y311434D01*
X319263Y311415D01*
X319287Y311393D01*
X319289Y311391D01*
X319293Y311389D01*
X319298Y311380D01*
X319306Y311371D01*
X319317Y311360D01*
X319328Y311345D01*
X319339Y311330D01*
X319352Y311310D01*
X319374Y311269D01*
X319396Y311216D01*
X319405Y311190D01*
X319409Y311160D01*
X319413Y311129D01*
X319415Y311097D01*
Y311092D01*
Y311081D01*
X319413Y311064D01*
X319411Y311040D01*
X319407Y311014D01*
X319398Y310983D01*
X319389Y310950D01*
X319376Y310918D01*
X319374Y310913D01*
X319370Y310903D01*
X319361Y310885D01*
X319348Y310861D01*
X319330Y310835D01*
X319309Y310802D01*
X319283Y310770D01*
X319252Y310733D01*
X319248Y310728D01*
X319237Y310715D01*
X319226Y310704D01*
X319215Y310693D01*
X319202Y310680D01*
X319184Y310663D01*
X319167Y310645D01*
X319145Y310626D01*
X319123Y310604D01*
X319097Y310580D01*
X319069Y310556D01*
X319038Y310528D01*
X319003Y310499D01*
X318969Y310469D01*
X318966Y310467D01*
X318962Y310462D01*
X318953Y310456D01*
X318942Y310447D01*
X318929Y310434D01*
X318914Y310421D01*
X318879Y310392D01*
X318842Y310360D01*
X318807Y310327D01*
X318777Y310299D01*
X318764Y310288D01*
X318753Y310277D01*
X318751Y310275D01*
X318744Y310268D01*
X318735Y310259D01*
X318724Y310246D01*
X318713Y310231D01*
X318700Y310216D01*
X318674Y310179D01*
X319418D01*
Y310000D01*
X318417D01*
Y310002D01*
Y310011D01*
Y310024D01*
X318419Y310041D01*
X318421Y310061D01*
X318426Y310083D01*
X318430Y310105D01*
X318439Y310129D01*
Y310131D01*
X318441Y310133D01*
X318445Y310146D01*
X318454Y310166D01*
X318467Y310192D01*
X318485Y310222D01*
X318506Y310257D01*
X318530Y310292D01*
X318561Y310329D01*
Y310331D01*
X318565Y310333D01*
X318576Y310347D01*
X318596Y310366D01*
X318624Y310395D01*
X318657Y310427D01*
X318698Y310467D01*
X318748Y310510D01*
X318803Y310556D01*
X318805Y310558D01*
X318814Y310565D01*
X318827Y310576D01*
X318842Y310589D01*
X318862Y310606D01*
X318886Y310626D01*
X318910Y310648D01*
X318938Y310671D01*
X318992Y310724D01*
X319047Y310776D01*
X319073Y310802D01*
X319097Y310828D01*
X319119Y310852D01*
X319136Y310876D01*
Y310878D01*
X319141Y310881D01*
X319145Y310887D01*
X319149Y310896D01*
X319165Y310920D01*
X319182Y310948D01*
X319197Y310983D01*
X319213Y311020D01*
X319221Y311062D01*
X319226Y311101D01*
Y311103D01*
Y311105D01*
X319224Y311118D01*
X319221Y311140D01*
X319215Y311164D01*
X319206Y311195D01*
X319191Y311225D01*
X319171Y311256D01*
X319145Y311286D01*
X319141Y311291D01*
X319130Y311299D01*
X319115Y311310D01*
X319091Y311325D01*
X319060Y311338D01*
X319025Y311352D01*
X318984Y311360D01*
X318938Y311363D01*
X318925D01*
X318916Y311360D01*
X318890Y311358D01*
X318860Y311352D01*
X318827Y311343D01*
X318790Y311328D01*
X318755Y311308D01*
X318722Y311282D01*
X318718Y311278D01*
X318709Y311267D01*
X318696Y311249D01*
X318683Y311223D01*
X318668Y311192D01*
X318655Y311153D01*
X318646Y311110D01*
X318641Y311059D01*
X318452Y311079D01*
Y311081D01*
X318454Y311088D01*
Y311099D01*
X318456Y311114D01*
X318461Y311131D01*
X318465Y311151D01*
X318472Y311175D01*
X318478Y311199D01*
X318495Y311251D01*
X318522Y311304D01*
X318537Y311330D01*
X318556Y311356D01*
X318576Y311380D01*
X318598Y311402D01*
X318600Y311404D01*
X318604Y311406D01*
X318611Y311413D01*
X318622Y311419D01*
X318635Y311428D01*
X318650Y311437D01*
X318668Y311448D01*
X318689Y311458D01*
X318713Y311469D01*
X318740Y311480D01*
X318768Y311489D01*
X318798Y311498D01*
X318831Y311504D01*
X318866Y311511D01*
X318903Y311513D01*
X318942Y311515D01*
X318964D01*
X318979Y311513D01*
D02*
G37*
G36*
X317717Y311506D02*
X317737D01*
X317783Y311504D01*
X317831Y311498D01*
X317883Y311491D01*
X317931Y311480D01*
X317955Y311474D01*
X317974Y311467D01*
X317977D01*
X317979Y311465D01*
X317992Y311458D01*
X318011Y311450D01*
X318036Y311434D01*
X318062Y311415D01*
X318090Y311389D01*
X318116Y311358D01*
X318142Y311323D01*
Y311321D01*
X318144Y311319D01*
X318153Y311306D01*
X318162Y311284D01*
X318175Y311256D01*
X318186Y311223D01*
X318197Y311184D01*
X318203Y311142D01*
X318205Y311097D01*
Y311094D01*
Y311090D01*
Y311081D01*
X318203Y311070D01*
Y311055D01*
X318201Y311040D01*
X318193Y311003D01*
X318179Y310959D01*
X318162Y310913D01*
X318136Y310868D01*
X318118Y310846D01*
X318101Y310824D01*
X318099Y310822D01*
X318096Y310820D01*
X318090Y310813D01*
X318081Y310807D01*
X318070Y310798D01*
X318057Y310789D01*
X318040Y310778D01*
X318022Y310765D01*
X318001Y310754D01*
X317977Y310743D01*
X317951Y310730D01*
X317922Y310719D01*
X317889Y310711D01*
X317857Y310700D01*
X317820Y310693D01*
X317780Y310687D01*
X317785Y310684D01*
X317793Y310680D01*
X317807Y310671D01*
X317824Y310663D01*
X317863Y310639D01*
X317883Y310624D01*
X317900Y310610D01*
X317905Y310606D01*
X317916Y310595D01*
X317933Y310578D01*
X317955Y310556D01*
X317979Y310525D01*
X318007Y310493D01*
X318036Y310453D01*
X318066Y310410D01*
X318325Y310000D01*
X318077D01*
X317879Y310314D01*
Y310316D01*
X317874Y310320D01*
X317870Y310327D01*
X317863Y310336D01*
X317848Y310360D01*
X317828Y310390D01*
X317804Y310423D01*
X317780Y310458D01*
X317757Y310490D01*
X317735Y310521D01*
X317733Y310523D01*
X317726Y310532D01*
X317715Y310545D01*
X317700Y310560D01*
X317667Y310593D01*
X317650Y310608D01*
X317632Y310621D01*
X317630Y310624D01*
X317626Y310626D01*
X317617Y310630D01*
X317604Y310637D01*
X317591Y310643D01*
X317576Y310650D01*
X317541Y310661D01*
X317538D01*
X317534Y310663D01*
X317525D01*
X317514Y310665D01*
X317499Y310667D01*
X317482D01*
X317458Y310669D01*
X317201D01*
Y310000D01*
X317000D01*
Y311509D01*
X317700D01*
X317717Y311506D01*
D02*
G37*
%LPC*%
G36*
X306505Y294919D02*
X306492D01*
X306484Y294917D01*
X306459Y294914D01*
X306431Y294908D01*
X306396Y294897D01*
X306361Y294882D01*
X306327Y294860D01*
X306294Y294829D01*
X306290Y294825D01*
X306281Y294812D01*
X306268Y294792D01*
X306250Y294764D01*
X306235Y294729D01*
X306222Y294688D01*
X306213Y294637D01*
X306209Y294581D01*
Y294579D01*
Y294574D01*
Y294566D01*
X306211Y294555D01*
Y294539D01*
X306213Y294524D01*
X306220Y294489D01*
X306228Y294448D01*
X306244Y294404D01*
X306265Y294363D01*
X306294Y294326D01*
Y294323D01*
X306298Y294321D01*
X306309Y294310D01*
X306327Y294295D01*
X306350Y294278D01*
X306381Y294263D01*
X306416Y294247D01*
X306455Y294236D01*
X306477Y294232D01*
X306512D01*
X306521Y294234D01*
X306544Y294236D01*
X306573Y294245D01*
X306608Y294256D01*
X306645Y294276D01*
X306682Y294300D01*
X306699Y294317D01*
X306717Y294334D01*
Y294337D01*
X306721Y294339D01*
X306726Y294345D01*
X306730Y294352D01*
X306745Y294374D01*
X306760Y294404D01*
X306778Y294441D01*
X306793Y294487D01*
X306802Y294539D01*
X306806Y294596D01*
Y294598D01*
Y294603D01*
Y294609D01*
X306804Y294620D01*
Y294633D01*
X306802Y294646D01*
X306795Y294679D01*
X306784Y294716D01*
X306771Y294755D01*
X306750Y294794D01*
X306721Y294829D01*
X306717Y294834D01*
X306706Y294842D01*
X306686Y294858D01*
X306662Y294873D01*
X306630Y294890D01*
X306592Y294906D01*
X306551Y294914D01*
X306505Y294919D01*
D02*
G37*
G36*
X298176Y287841D02*
X297701D01*
Y287341D01*
X298150D01*
X298176Y287344D01*
X298206Y287346D01*
X298241Y287348D01*
X298276Y287352D01*
X298311Y287359D01*
X298341Y287368D01*
X298346Y287370D01*
X298355Y287374D01*
X298368Y287381D01*
X298385Y287389D01*
X298405Y287403D01*
X298424Y287418D01*
X298444Y287437D01*
X298459Y287459D01*
X298461Y287461D01*
X298466Y287470D01*
X298472Y287483D01*
X298481Y287501D01*
X298487Y287520D01*
X298494Y287542D01*
X298498Y287568D01*
X298501Y287594D01*
Y287597D01*
Y287599D01*
X298498Y287612D01*
X298496Y287631D01*
X298492Y287658D01*
X298481Y287684D01*
X298468Y287714D01*
X298448Y287743D01*
X298422Y287771D01*
X298418Y287773D01*
X298407Y287782D01*
X298389Y287793D01*
X298361Y287806D01*
X298328Y287819D01*
X298285Y287830D01*
X298235Y287839D01*
X298176Y287841D01*
D02*
G37*
G36*
X349968Y283365D02*
X349292D01*
X349968Y282889D01*
Y283365D01*
D02*
G37*
G36*
X349503Y282111D02*
X349321D01*
X349323Y282109D01*
X349331Y282098D01*
X349345Y282085D01*
X349360Y282063D01*
X349379Y282039D01*
X349401Y282009D01*
X349425Y281974D01*
X349449Y281934D01*
Y281932D01*
X349451Y281930D01*
X349460Y281917D01*
X349471Y281895D01*
X349474Y281890D01*
Y281910D01*
X349476Y281927D01*
Y281947D01*
X349478Y281971D01*
X349483Y281997D01*
X349487Y282028D01*
X349498Y282091D01*
X349503Y282111D01*
D02*
G37*
G36*
X350526Y280799D02*
Y280779D01*
X350524Y280762D01*
Y280742D01*
X350522Y280718D01*
X350517Y280692D01*
X350513Y280661D01*
X350502Y280598D01*
X350497Y280578D01*
X350679D01*
X350677Y280580D01*
X350669Y280591D01*
X350655Y280604D01*
X350640Y280626D01*
X350621Y280650D01*
X350599Y280680D01*
X350575Y280715D01*
X350551Y280755D01*
Y280757D01*
X350549Y280759D01*
X350540Y280772D01*
X350529Y280794D01*
X350526Y280799D01*
D02*
G37*
G36*
X542779Y365708D02*
X542304Y365032D01*
X542779D01*
Y365708D01*
D02*
G37*
G36*
X310468Y311192D02*
X309792D01*
X310468Y310716D01*
Y311192D01*
D02*
G37*
G36*
X335999Y315862D02*
X335982D01*
X335962Y315858D01*
X335936Y315854D01*
X335908Y315845D01*
X335877Y315834D01*
X335849Y315817D01*
X335820Y315793D01*
X335818Y315791D01*
X335809Y315782D01*
X335799Y315767D01*
X335788Y315747D01*
X335774Y315723D01*
X335764Y315695D01*
X335755Y315664D01*
X335753Y315629D01*
Y315627D01*
Y315625D01*
X335755Y315612D01*
X335757Y315592D01*
X335761Y315568D01*
X335770Y315540D01*
X335781Y315511D01*
X335799Y315481D01*
X335820Y315455D01*
X335823Y315453D01*
X335833Y315444D01*
X335849Y315433D01*
X335868Y315422D01*
X335894Y315409D01*
X335925Y315398D01*
X335960Y315389D01*
X335999Y315387D01*
X336003D01*
X336017Y315389D01*
X336036Y315392D01*
X336062Y315396D01*
X336091Y315405D01*
X336119Y315416D01*
X336150Y315433D01*
X336176Y315455D01*
X336178Y315457D01*
X336187Y315468D01*
X336197Y315481D01*
X336210Y315501D01*
X336224Y315525D01*
X336234Y315553D01*
X336243Y315586D01*
X336245Y315620D01*
Y315623D01*
Y315625D01*
Y315638D01*
X336241Y315658D01*
X336237Y315682D01*
X336228Y315708D01*
X336215Y315736D01*
X336197Y315764D01*
X336174Y315793D01*
X336171Y315795D01*
X336160Y315804D01*
X336145Y315814D01*
X336125Y315828D01*
X336099Y315841D01*
X336071Y315852D01*
X336036Y315860D01*
X335999Y315862D01*
D02*
G37*
G36*
X335993Y315237D02*
X335979D01*
X335971Y315235D01*
X335947Y315232D01*
X335916Y315226D01*
X335881Y315215D01*
X335846Y315200D01*
X335809Y315178D01*
X335777Y315150D01*
X335772Y315145D01*
X335764Y315134D01*
X335751Y315115D01*
X335735Y315091D01*
X335718Y315058D01*
X335705Y315021D01*
X335696Y314980D01*
X335692Y314934D01*
Y314930D01*
Y314921D01*
X335694Y314906D01*
X335696Y314886D01*
X335700Y314862D01*
X335707Y314836D01*
X335716Y314810D01*
X335727Y314781D01*
X335729Y314779D01*
X335733Y314768D01*
X335742Y314755D01*
X335755Y314740D01*
X335770Y314720D01*
X335790Y314701D01*
X335812Y314683D01*
X335838Y314666D01*
X335842Y314664D01*
X335851Y314659D01*
X335866Y314653D01*
X335886Y314646D01*
X335910Y314639D01*
X335938Y314633D01*
X335968Y314629D01*
X335999Y314626D01*
X336012D01*
X336021Y314629D01*
X336047Y314631D01*
X336077Y314637D01*
X336112Y314648D01*
X336150Y314661D01*
X336184Y314683D01*
X336219Y314711D01*
X336224Y314716D01*
X336232Y314727D01*
X336248Y314746D01*
X336263Y314770D01*
X336278Y314801D01*
X336293Y314838D01*
X336302Y314881D01*
X336306Y314927D01*
Y314930D01*
Y314934D01*
Y314940D01*
X336304Y314949D01*
X336302Y314973D01*
X336296Y315006D01*
X336285Y315038D01*
X336269Y315075D01*
X336248Y315113D01*
X336217Y315147D01*
X336213Y315152D01*
X336202Y315160D01*
X336182Y315176D01*
X336156Y315193D01*
X336123Y315209D01*
X336084Y315224D01*
X336040Y315232D01*
X335993Y315237D01*
D02*
G37*
G36*
X305330Y299468D02*
X305317D01*
X305309Y299466D01*
X305287Y299462D01*
X305256Y299453D01*
X305223Y299437D01*
X305186Y299416D01*
X305169Y299403D01*
X305152Y299385D01*
X305134Y299368D01*
X305117Y299346D01*
Y299344D01*
X305112Y299339D01*
X305108Y299333D01*
X305104Y299322D01*
X305095Y299307D01*
X305088Y299287D01*
X305080Y299265D01*
X305071Y299239D01*
X305064Y299206D01*
X305056Y299172D01*
X305047Y299130D01*
X305040Y299086D01*
X305036Y299034D01*
X305032Y298980D01*
X305027Y298919D01*
Y298851D01*
Y298849D01*
Y298847D01*
Y298836D01*
Y298816D01*
X305029Y298790D01*
Y298762D01*
X305032Y298727D01*
X305034Y298690D01*
X305038Y298648D01*
X305049Y298566D01*
X305056Y298524D01*
X305064Y298485D01*
X305073Y298448D01*
X305086Y298413D01*
X305099Y298382D01*
X305115Y298356D01*
Y298354D01*
X305119Y298352D01*
X305123Y298345D01*
X305130Y298337D01*
X305149Y298317D01*
X305173Y298293D01*
X305206Y298271D01*
X305243Y298252D01*
X305263Y298243D01*
X305285Y298236D01*
X305309Y298234D01*
X305332Y298232D01*
X305346D01*
X305354Y298234D01*
X305378Y298238D01*
X305407Y298245D01*
X305439Y298258D01*
X305474Y298278D01*
X305492Y298291D01*
X305509Y298304D01*
X305524Y298321D01*
X305540Y298341D01*
Y298343D01*
X305544Y298347D01*
X305548Y298356D01*
X305555Y298367D01*
X305561Y298385D01*
X305570Y298404D01*
X305577Y298428D01*
X305585Y298457D01*
X305594Y298489D01*
X305603Y298526D01*
X305611Y298568D01*
X305618Y298614D01*
X305625Y298666D01*
X305629Y298723D01*
X305631Y298783D01*
X305633Y298851D01*
Y298855D01*
Y298866D01*
Y298886D01*
X305631Y298912D01*
Y298940D01*
X305629Y298975D01*
X305627Y299012D01*
X305622Y299052D01*
X305611Y299137D01*
X305605Y299178D01*
X305596Y299217D01*
X305588Y299254D01*
X305574Y299289D01*
X305561Y299320D01*
X305546Y299346D01*
Y299348D01*
X305542Y299350D01*
X305531Y299366D01*
X305511Y299385D01*
X305487Y299407D01*
X305454Y299429D01*
X305417Y299448D01*
X305376Y299464D01*
X305354Y299466D01*
X305330Y299468D01*
D02*
G37*
G36*
X336010Y311315D02*
X335997D01*
X335988Y311313D01*
X335966Y311311D01*
X335936Y311304D01*
X335903Y311294D01*
X335866Y311276D01*
X335831Y311254D01*
X335796Y311224D01*
X335792Y311219D01*
X335783Y311209D01*
X335768Y311189D01*
X335753Y311160D01*
X335737Y311128D01*
X335722Y311086D01*
X335714Y311041D01*
X335709Y310988D01*
Y310984D01*
Y310973D01*
X335711Y310953D01*
X335714Y310929D01*
X335718Y310901D01*
X335727Y310871D01*
X335735Y310838D01*
X335748Y310805D01*
X335751Y310801D01*
X335757Y310790D01*
X335766Y310775D01*
X335779Y310755D01*
X335794Y310735D01*
X335814Y310712D01*
X335836Y310692D01*
X335862Y310672D01*
X335866Y310670D01*
X335875Y310666D01*
X335890Y310657D01*
X335910Y310650D01*
X335931Y310642D01*
X335958Y310633D01*
X335986Y310629D01*
X336017Y310626D01*
X336027D01*
X336036Y310629D01*
X336058Y310631D01*
X336086Y310637D01*
X336117Y310650D01*
X336152Y310666D01*
X336187Y310690D01*
X336204Y310703D01*
X336219Y310720D01*
Y310722D01*
X336224Y310724D01*
X336232Y310738D01*
X336245Y310759D01*
X336263Y310788D01*
X336278Y310825D01*
X336291Y310868D01*
X336300Y310919D01*
X336304Y310977D01*
Y310980D01*
Y310984D01*
Y310993D01*
X336302Y311004D01*
Y311017D01*
X336300Y311032D01*
X336293Y311067D01*
X336285Y311106D01*
X336269Y311147D01*
X336248Y311187D01*
X336219Y311224D01*
X336215Y311228D01*
X336204Y311239D01*
X336187Y311252D01*
X336163Y311269D01*
X336132Y311287D01*
X336097Y311300D01*
X336056Y311311D01*
X336010Y311315D01*
D02*
G37*
G36*
X317676Y311341D02*
X317201D01*
Y310841D01*
X317650D01*
X317676Y310844D01*
X317706Y310846D01*
X317741Y310848D01*
X317776Y310852D01*
X317811Y310859D01*
X317842Y310868D01*
X317846Y310870D01*
X317855Y310874D01*
X317868Y310881D01*
X317885Y310889D01*
X317905Y310903D01*
X317924Y310918D01*
X317944Y310937D01*
X317959Y310959D01*
X317961Y310961D01*
X317966Y310970D01*
X317972Y310983D01*
X317981Y311001D01*
X317987Y311020D01*
X317994Y311042D01*
X317998Y311068D01*
X318001Y311094D01*
Y311097D01*
Y311099D01*
X317998Y311112D01*
X317996Y311131D01*
X317992Y311158D01*
X317981Y311184D01*
X317968Y311214D01*
X317948Y311243D01*
X317922Y311271D01*
X317918Y311273D01*
X317907Y311282D01*
X317889Y311293D01*
X317861Y311306D01*
X317828Y311319D01*
X317785Y311330D01*
X317735Y311338D01*
X317676Y311341D01*
D02*
G37*
%LPD*%
M02*
