G04*
G04 #@! TF.GenerationSoftware,Altium Limited,Altium Designer,23.1.1 (15)*
G04*
G04 Layer_Physical_Order=4*
G04 Layer_Color=16711680*
%FSLAX25Y25*%
%MOIN*%
G70*
G04*
G04 #@! TF.SameCoordinates,379D8D2B-01B5-4923-9211-1CC0BA53C839*
G04*
G04*
G04 #@! TF.FilePolarity,Positive*
G04*
G01*
G75*
%ADD11C,0.00787*%
G04:AMPARAMS|DCode=16|XSize=21.65mil|YSize=19.68mil|CornerRadius=2.46mil|HoleSize=0mil|Usage=FLASHONLY|Rotation=270.000|XOffset=0mil|YOffset=0mil|HoleType=Round|Shape=RoundedRectangle|*
%AMROUNDEDRECTD16*
21,1,0.02165,0.01476,0,0,270.0*
21,1,0.01673,0.01968,0,0,270.0*
1,1,0.00492,-0.00738,-0.00837*
1,1,0.00492,-0.00738,0.00837*
1,1,0.00492,0.00738,0.00837*
1,1,0.00492,0.00738,-0.00837*
%
%ADD16ROUNDEDRECTD16*%
G04:AMPARAMS|DCode=17|XSize=21.65mil|YSize=19.68mil|CornerRadius=2.46mil|HoleSize=0mil|Usage=FLASHONLY|Rotation=0.000|XOffset=0mil|YOffset=0mil|HoleType=Round|Shape=RoundedRectangle|*
%AMROUNDEDRECTD17*
21,1,0.02165,0.01476,0,0,0.0*
21,1,0.01673,0.01968,0,0,0.0*
1,1,0.00492,0.00837,-0.00738*
1,1,0.00492,-0.00837,-0.00738*
1,1,0.00492,-0.00837,0.00738*
1,1,0.00492,0.00837,0.00738*
%
%ADD17ROUNDEDRECTD17*%
%ADD33C,0.02953*%
%ADD39C,0.01181*%
%ADD40C,0.01968*%
%ADD41C,0.01968*%
%ADD42C,0.03543*%
%ADD43C,0.02362*%
%ADD44R,0.05906X0.05906*%
%ADD45C,0.05906*%
%ADD46R,0.05906X0.05906*%
%ADD47C,0.19685*%
%ADD48C,0.03150*%
%ADD49C,0.01772*%
%ADD51R,0.03937X0.01181*%
%ADD52R,0.03740X0.03543*%
%ADD53R,0.06721X0.02425*%
G04:AMPARAMS|DCode=54|XSize=67.21mil|YSize=24.25mil|CornerRadius=12.12mil|HoleSize=0mil|Usage=FLASHONLY|Rotation=180.000|XOffset=0mil|YOffset=0mil|HoleType=Round|Shape=RoundedRectangle|*
%AMROUNDEDRECTD54*
21,1,0.06721,0.00000,0,0,180.0*
21,1,0.04296,0.02425,0,0,180.0*
1,1,0.02425,-0.02148,0.00000*
1,1,0.02425,0.02148,0.00000*
1,1,0.02425,0.02148,0.00000*
1,1,0.02425,-0.02148,0.00000*
%
%ADD54ROUNDEDRECTD54*%
%ADD55R,0.06299X0.03150*%
%ADD56R,0.03543X0.05906*%
%ADD57R,0.04488X0.02362*%
%ADD58R,0.04488X0.01181*%
%ADD59R,0.02559X0.04134*%
%ADD60R,0.05118X0.07874*%
G36*
X282263Y363197D02*
X280512Y362849D01*
X278648Y362077D01*
X276971Y360956D01*
X275544Y359529D01*
X274423Y357852D01*
X273651Y355988D01*
X273303Y354237D01*
X272803Y354286D01*
Y359913D01*
X272964Y360724D01*
X273281Y361488D01*
X273740Y362175D01*
X274324Y362760D01*
X275012Y363219D01*
X275776Y363536D01*
X276587Y363697D01*
X282214D01*
X282263Y363197D01*
D02*
G37*
G36*
X552724Y363536D02*
X553488Y363219D01*
X554176Y362760D01*
X554760Y362175D01*
X555220Y361488D01*
X555536Y360724D01*
X555697Y359913D01*
Y354286D01*
X555197Y354237D01*
X554849Y355988D01*
X554077Y357852D01*
X552956Y359529D01*
X551529Y360956D01*
X549852Y362077D01*
X547988Y362849D01*
X546237Y363197D01*
X546286Y363697D01*
X551913D01*
X552724Y363536D01*
D02*
G37*
G36*
X543763Y363197D02*
X542012Y362849D01*
X540148Y362077D01*
X538471Y360956D01*
X537044Y359529D01*
X535923Y357852D01*
X535151Y355988D01*
X534758Y354009D01*
Y351991D01*
X535151Y350012D01*
X535923Y348148D01*
X537044Y346471D01*
X538471Y345044D01*
X540148Y343923D01*
X542012Y343151D01*
X543991Y342758D01*
X546009D01*
X547988Y343151D01*
X549852Y343923D01*
X551529Y345044D01*
X552956Y346471D01*
X554077Y348148D01*
X554849Y350012D01*
X555197Y351764D01*
X555697Y351714D01*
Y207995D01*
X555197Y207945D01*
X554849Y209696D01*
X554077Y211560D01*
X552956Y213238D01*
X551529Y214665D01*
X549852Y215786D01*
X547988Y216558D01*
X546009Y216951D01*
X543991D01*
X542012Y216558D01*
X540148Y215786D01*
X538471Y214665D01*
X537044Y213238D01*
X535923Y211560D01*
X535151Y209696D01*
X534758Y207717D01*
Y205700D01*
X535151Y203721D01*
X535923Y201857D01*
X537044Y200179D01*
X538471Y198753D01*
X540148Y197632D01*
X542012Y196860D01*
X543763Y196511D01*
X543714Y196011D01*
X284786D01*
X284736Y196511D01*
X286488Y196860D01*
X288352Y197632D01*
X290029Y198753D01*
X291456Y200179D01*
X292577Y201857D01*
X293349Y203721D01*
X293742Y205700D01*
Y207717D01*
X293349Y209696D01*
X292577Y211560D01*
X291456Y213238D01*
X290029Y214665D01*
X288352Y215786D01*
X286488Y216558D01*
X284509Y216951D01*
X282491D01*
X280512Y216558D01*
X278648Y215786D01*
X276971Y214665D01*
X275544Y213238D01*
X274423Y211560D01*
X273651Y209696D01*
X273303Y207945D01*
X272803Y207995D01*
Y301500D01*
X279450D01*
Y301332D01*
X286550D01*
Y301500D01*
X296228D01*
X296666Y301319D01*
X297334D01*
X297772Y301500D01*
X304668D01*
X304797Y301288D01*
X304855Y301000D01*
X301859Y298004D01*
X296509D01*
X296509Y298004D01*
X296200Y297942D01*
X295937Y297767D01*
X295937Y297767D01*
X291023Y292853D01*
X287824D01*
Y286147D01*
X292168D01*
Y291708D01*
X296845Y296385D01*
X302194D01*
X302194Y296385D01*
X302504Y296447D01*
X302767Y296622D01*
X305835Y299691D01*
X311194D01*
X311402Y299191D01*
X310407Y298197D01*
X308743D01*
X308743Y298197D01*
X308433Y298135D01*
X308170Y297959D01*
X308170Y297959D01*
X305558Y295347D01*
X305382Y295084D01*
X305321Y294775D01*
X305321Y294775D01*
Y292553D01*
X305321Y292553D01*
X305382Y292243D01*
X305558Y291981D01*
X306088Y291450D01*
X306024Y291294D01*
Y290706D01*
X306248Y290164D01*
X306664Y289748D01*
X307206Y289524D01*
X307794D01*
X308336Y289748D01*
X308752Y290164D01*
X308821Y290331D01*
X309321Y290231D01*
Y277370D01*
X309321Y277370D01*
X309382Y277060D01*
X309558Y276798D01*
X317428Y268928D01*
X317428Y268928D01*
X317690Y268752D01*
X318000Y268691D01*
X339237D01*
X339248Y268664D01*
X339664Y268248D01*
X340206Y268024D01*
X340794D01*
X341336Y268248D01*
X341752Y268664D01*
X341976Y269206D01*
Y269794D01*
X341752Y270336D01*
X341336Y270752D01*
X340794Y270976D01*
X340206D01*
X339664Y270752D01*
X339248Y270336D01*
X339237Y270309D01*
X318335D01*
X310939Y277705D01*
Y279820D01*
X311439Y280134D01*
X311706Y280024D01*
X312078D01*
X312372Y279872D01*
X312524Y279578D01*
Y279206D01*
X312748Y278664D01*
X313164Y278248D01*
X313706Y278024D01*
X314294D01*
X314836Y278248D01*
X315252Y278664D01*
X315263Y278691D01*
X317665D01*
X322451Y273905D01*
X322713Y273729D01*
X323023Y273668D01*
X323023Y273668D01*
X331427D01*
X331679Y273168D01*
X331524Y272794D01*
Y272206D01*
X331748Y271664D01*
X332164Y271248D01*
X332706Y271024D01*
X333294D01*
X333836Y271248D01*
X334252Y271664D01*
X334476Y272206D01*
Y272794D01*
X334321Y273168D01*
X334573Y273668D01*
X339284D01*
X339284Y273668D01*
X339594Y273729D01*
X339857Y273905D01*
X340521Y274569D01*
X341083Y274424D01*
X341208Y274123D01*
X341623Y273708D01*
X342165Y273483D01*
X342753D01*
X342780Y273494D01*
X343691Y272583D01*
Y258169D01*
X343663D01*
X343411Y258118D01*
X343198Y257976D01*
X343055Y257762D01*
X343005Y257510D01*
Y256519D01*
X340928Y254442D01*
X340752Y254180D01*
X340691Y253870D01*
X340691Y253870D01*
Y251500D01*
X340691Y251500D01*
X340752Y251190D01*
X340928Y250928D01*
X352344Y239512D01*
X352606Y239337D01*
X352916Y239275D01*
X352916Y239275D01*
X381801D01*
X383864Y237212D01*
X383673Y236750D01*
X379230D01*
Y228076D01*
X385148D01*
Y235275D01*
X385610Y235467D01*
X386649Y234428D01*
X386649Y234428D01*
X386911Y234252D01*
X387221Y234191D01*
X387221Y234191D01*
X443746D01*
X443876Y233706D01*
X444317Y232941D01*
X444941Y232317D01*
X445706Y231876D01*
X446559Y231647D01*
X447441D01*
X448294Y231876D01*
X449059Y232317D01*
X449683Y232941D01*
X450124Y233706D01*
X450353Y234559D01*
Y235441D01*
X450124Y236294D01*
X449683Y237059D01*
X449059Y237683D01*
X448294Y238124D01*
X447441Y238353D01*
X446559D01*
X445706Y238124D01*
X444941Y237683D01*
X444317Y237059D01*
X443876Y236294D01*
X443746Y235809D01*
X387556D01*
X382709Y240656D01*
X382446Y240832D01*
X382137Y240894D01*
X382137Y240894D01*
X373928D01*
Y245205D01*
X371559D01*
X369191D01*
Y244447D01*
X369097D01*
X368710Y244370D01*
X368383Y244151D01*
X368208Y243976D01*
X367706D01*
X367164Y243752D01*
X366748Y243336D01*
X366524Y242794D01*
Y242206D01*
X366748Y241664D01*
X367019Y241393D01*
X366813Y240894D01*
X353251D01*
X342309Y251835D01*
Y253272D01*
X342505Y253418D01*
X343005Y253166D01*
Y252490D01*
X343055Y252238D01*
X343198Y252024D01*
X343411Y251882D01*
X343663Y251831D01*
X344851D01*
X345319Y251363D01*
X345398Y251244D01*
X345955Y250688D01*
X345955Y250688D01*
X346218Y250512D01*
X346528Y250451D01*
X346528Y250451D01*
X347309D01*
Y249088D01*
X351849D01*
Y253432D01*
X347309D01*
Y252200D01*
X346809Y252123D01*
X346622Y252309D01*
X346543Y252428D01*
X346543Y252428D01*
X345995Y252976D01*
Y253966D01*
X345945Y254219D01*
X345802Y254432D01*
X345589Y254575D01*
X345337Y254625D01*
X344340D01*
X344111Y255125D01*
X344303Y255375D01*
X345337D01*
X345589Y255425D01*
X345802Y255568D01*
X345945Y255781D01*
X345995Y256033D01*
Y257510D01*
X345945Y257762D01*
X345802Y257976D01*
X345589Y258118D01*
X345337Y258169D01*
X345309D01*
Y272918D01*
X345309Y272918D01*
X345248Y273228D01*
X345072Y273491D01*
X345072Y273491D01*
X343924Y274639D01*
X343936Y274665D01*
Y275253D01*
X343711Y275796D01*
X343296Y276211D01*
X342994Y276336D01*
X342849Y276898D01*
X355823Y289872D01*
X369191D01*
Y288913D01*
X371559D01*
X373928D01*
Y289606D01*
X374428Y289644D01*
X419786Y244286D01*
X420114Y244067D01*
X420500Y243990D01*
X443800D01*
X443876Y243706D01*
X444317Y242941D01*
X444941Y242317D01*
X445706Y241876D01*
X446559Y241647D01*
X447441D01*
X448294Y241876D01*
X449059Y242317D01*
X449683Y242941D01*
X450124Y243706D01*
X450353Y244559D01*
Y245441D01*
X450124Y246294D01*
X449683Y247059D01*
X449059Y247683D01*
X448294Y248124D01*
X447441Y248353D01*
X446559D01*
X445706Y248124D01*
X444941Y247683D01*
X444317Y247059D01*
X443876Y246294D01*
X443800Y246010D01*
X420918D01*
X375533Y291395D01*
X375205Y291614D01*
X374819Y291691D01*
X373928D01*
Y293608D01*
X376964D01*
X416286Y254286D01*
X416613Y254067D01*
X417000Y253990D01*
X443800D01*
X443876Y253706D01*
X444317Y252941D01*
X444941Y252317D01*
X445706Y251876D01*
X446559Y251647D01*
X447441D01*
X448294Y251876D01*
X449059Y252317D01*
X449683Y252941D01*
X450124Y253706D01*
X450353Y254559D01*
Y255441D01*
X450124Y256294D01*
X449683Y257059D01*
X449059Y257683D01*
X448294Y258124D01*
X447441Y258353D01*
X446559D01*
X445706Y258124D01*
X444941Y257683D01*
X444317Y257059D01*
X443876Y256294D01*
X443800Y256010D01*
X417418D01*
X378096Y295332D01*
X377768Y295551D01*
X377382Y295628D01*
X373928D01*
Y297545D01*
X380027D01*
X413286Y264286D01*
X413614Y264067D01*
X414000Y263990D01*
X443800D01*
X443876Y263706D01*
X444317Y262941D01*
X444941Y262317D01*
X445706Y261876D01*
X446559Y261647D01*
X447441D01*
X448294Y261876D01*
X449059Y262317D01*
X449683Y262941D01*
X450124Y263706D01*
X450353Y264559D01*
Y265441D01*
X450124Y266294D01*
X449683Y267059D01*
X449059Y267683D01*
X448294Y268124D01*
X447441Y268353D01*
X446559D01*
X445706Y268124D01*
X444941Y267683D01*
X444317Y267059D01*
X443876Y266294D01*
X443800Y266010D01*
X414418D01*
X381415Y299014D01*
X381622Y299514D01*
X384558D01*
X409786Y274286D01*
X410113Y274067D01*
X410500Y273990D01*
X443800D01*
X443876Y273706D01*
X444317Y272941D01*
X444941Y272317D01*
X445706Y271876D01*
X446559Y271647D01*
X447441D01*
X448294Y271876D01*
X449059Y272317D01*
X449683Y272941D01*
X450124Y273706D01*
X450353Y274559D01*
Y275441D01*
X450124Y276294D01*
X449683Y277059D01*
X449059Y277683D01*
X448294Y278124D01*
X447441Y278353D01*
X446559D01*
X445706Y278124D01*
X444941Y277683D01*
X444317Y277059D01*
X443876Y276294D01*
X443800Y276010D01*
X410918D01*
X385946Y300982D01*
X386153Y301482D01*
X388590D01*
X405786Y284286D01*
X406113Y284067D01*
X406500Y283990D01*
X443800D01*
X443876Y283706D01*
X444317Y282941D01*
X444941Y282317D01*
X445706Y281876D01*
X446559Y281647D01*
X447441D01*
X448294Y281876D01*
X449059Y282317D01*
X449683Y282941D01*
X450124Y283706D01*
X450353Y284559D01*
Y285441D01*
X450124Y286294D01*
X449683Y287059D01*
X449059Y287683D01*
X448294Y288124D01*
X447441Y288353D01*
X446559D01*
X445706Y288124D01*
X444941Y287683D01*
X444317Y287059D01*
X443876Y286294D01*
X443800Y286010D01*
X406918D01*
X389722Y303206D01*
X389394Y303425D01*
X389008Y303502D01*
X373928D01*
Y307407D01*
Y310166D01*
X371559D01*
Y310566D01*
X373928D01*
Y311325D01*
X385747D01*
X402786Y294286D01*
X403114Y294067D01*
X403500Y293990D01*
X443800D01*
X443876Y293706D01*
X444317Y292941D01*
X444941Y292317D01*
X445706Y291876D01*
X446559Y291647D01*
X447441D01*
X448294Y291876D01*
X449059Y292317D01*
X449683Y292941D01*
X450124Y293706D01*
X450353Y294559D01*
Y295441D01*
X450124Y296294D01*
X449683Y297059D01*
X449059Y297683D01*
X448294Y298124D01*
X447441Y298353D01*
X446559D01*
X445706Y298124D01*
X444941Y297683D01*
X444317Y297059D01*
X443876Y296294D01*
X443800Y296010D01*
X403918D01*
X387135Y312793D01*
X387342Y313293D01*
X389279D01*
X398286Y304286D01*
X398614Y304067D01*
X399000Y303990D01*
X443800D01*
X443876Y303706D01*
X444317Y302941D01*
X444941Y302317D01*
X445706Y301876D01*
X446559Y301647D01*
X447441D01*
X448294Y301876D01*
X449059Y302317D01*
X449683Y302941D01*
X450124Y303706D01*
X450353Y304559D01*
Y305441D01*
X450124Y306294D01*
X449683Y307059D01*
X449059Y307683D01*
X448294Y308124D01*
X447441Y308353D01*
X446559D01*
X445706Y308124D01*
X444941Y307683D01*
X444317Y307059D01*
X443876Y306294D01*
X443800Y306010D01*
X399418D01*
X390667Y314762D01*
X390874Y315262D01*
X443647D01*
Y314559D01*
X443876Y313706D01*
X444317Y312941D01*
X444941Y312317D01*
X445706Y311876D01*
X446559Y311647D01*
X447441D01*
X448294Y311876D01*
X449059Y312317D01*
X449683Y312941D01*
X450124Y313706D01*
X450353Y314559D01*
Y315441D01*
X450124Y316294D01*
X449683Y317059D01*
X449059Y317683D01*
X448294Y318124D01*
X447441Y318353D01*
X446559D01*
X445706Y318124D01*
X444941Y317683D01*
X444525Y317267D01*
X444450Y317282D01*
X383917D01*
X383710Y317782D01*
X389918Y323990D01*
X443647D01*
Y321647D01*
X450353D01*
Y328353D01*
X443647D01*
Y326010D01*
X389500D01*
X389113Y325933D01*
X388786Y325714D01*
X382322Y319250D01*
X371559D01*
X371462Y319231D01*
X369191D01*
Y318808D01*
X369107Y318791D01*
X368844Y318616D01*
X368844Y318616D01*
X339290Y289061D01*
X338790Y289268D01*
Y289370D01*
X338579Y289879D01*
X338190Y290268D01*
X337681Y290479D01*
X337606D01*
Y289094D01*
X337405D01*
Y288895D01*
X336021D01*
Y288819D01*
X336232Y288310D01*
X336621Y287921D01*
X337130Y287710D01*
X337232D01*
X337439Y287210D01*
X336337Y286108D01*
X335837Y286315D01*
Y286417D01*
X335626Y286926D01*
X335237Y287315D01*
X334728Y287526D01*
X334653D01*
Y286142D01*
X334453D01*
Y285942D01*
X333068D01*
Y285866D01*
X333279Y285358D01*
X333351Y285286D01*
X333144Y284786D01*
X329856D01*
X329649Y285286D01*
X329721Y285358D01*
X329931Y285866D01*
Y285942D01*
X328547D01*
Y286142D01*
X328347D01*
Y287526D01*
X328272D01*
X327763Y287315D01*
X327374Y286926D01*
X327163Y286417D01*
Y286315D01*
X326663Y286108D01*
X325561Y287210D01*
X325768Y287710D01*
X325870D01*
X326379Y287921D01*
X326768Y288310D01*
X326979Y288819D01*
Y288895D01*
X325594D01*
Y289094D01*
X325395D01*
Y290479D01*
X325319D01*
X324810Y290268D01*
X324421Y289879D01*
X324210Y289370D01*
Y289268D01*
X323710Y289061D01*
X317369Y295402D01*
X317107Y295577D01*
X316797Y295639D01*
X316797Y295639D01*
X315632D01*
X315621Y295666D01*
X315206Y296081D01*
X314663Y296306D01*
X314076D01*
X313976Y296373D01*
Y296794D01*
X313752Y297336D01*
X313397Y297691D01*
X313446Y297978D01*
X313550Y298191D01*
X324000D01*
X324000Y298191D01*
X324310Y298252D01*
X324572Y298428D01*
X328085Y301941D01*
X341250D01*
X341250Y301941D01*
X341560Y302002D01*
X341822Y302178D01*
X371835Y332191D01*
X533472D01*
X538022Y327640D01*
X538022Y327640D01*
X538285Y327465D01*
X538588Y327405D01*
Y324072D01*
X539459D01*
Y312668D01*
X538588D01*
Y307734D01*
X541947D01*
Y312668D01*
X541077D01*
Y324072D01*
X541947D01*
Y329006D01*
X539460D01*
X539382Y329022D01*
X539382Y329022D01*
X538930D01*
X534379Y333572D01*
X534117Y333748D01*
X533807Y333809D01*
X533807Y333809D01*
X371500D01*
X371500Y333809D01*
X371190Y333748D01*
X370928Y333572D01*
X340915Y303559D01*
X327750D01*
X327440Y303498D01*
X327178Y303322D01*
X323665Y299809D01*
X321532D01*
X321325Y300309D01*
X324663Y303648D01*
X324839Y303911D01*
X324901Y304220D01*
X324901Y304220D01*
Y304256D01*
X327679Y307035D01*
X327706Y307024D01*
X328294D01*
X328836Y307248D01*
X329250Y307662D01*
X329664Y307248D01*
X330206Y307024D01*
X330794D01*
X331336Y307248D01*
X331752Y307664D01*
X331763Y307691D01*
X343645D01*
X343645Y307691D01*
X343954Y307752D01*
X344217Y307928D01*
X371980Y335691D01*
X379000D01*
X379000Y335691D01*
X379310Y335752D01*
X379572Y335928D01*
X397271Y353627D01*
X397706Y353376D01*
X398559Y353147D01*
X399441D01*
X400294Y353376D01*
X401059Y353817D01*
X401683Y354441D01*
X402124Y355206D01*
X402353Y356059D01*
Y356941D01*
X402124Y357794D01*
X401683Y358559D01*
X401059Y359183D01*
X400294Y359624D01*
X399441Y359853D01*
X398559D01*
X397706Y359624D01*
X396941Y359183D01*
X396317Y358559D01*
X395876Y357794D01*
X395647Y356941D01*
Y356059D01*
X395876Y355206D01*
X396127Y354771D01*
X378665Y337309D01*
X371645D01*
X371645Y337309D01*
X371335Y337248D01*
X371073Y337072D01*
X343309Y309309D01*
X335550D01*
X335447Y309522D01*
X335397Y309809D01*
X335752Y310164D01*
X335976Y310706D01*
Y311294D01*
X335752Y311836D01*
X335336Y312252D01*
X334794Y312476D01*
X334206D01*
X333664Y312252D01*
X333248Y311836D01*
X333024Y311294D01*
Y310706D01*
X333248Y310164D01*
X333603Y309809D01*
X333554Y309522D01*
X333450Y309309D01*
X331763D01*
X331752Y309336D01*
X331336Y309752D01*
X330794Y309976D01*
X330206D01*
X329664Y309752D01*
X329250Y309338D01*
X328836Y309752D01*
X328294Y309976D01*
X327706D01*
X327164Y309752D01*
X326748Y309336D01*
X326524Y308794D01*
Y308206D01*
X326535Y308179D01*
X323519Y305164D01*
X323344Y304901D01*
X323282Y304591D01*
X323282Y304591D01*
Y304556D01*
X320036Y301309D01*
X319921D01*
X319500Y301500D01*
X319500Y301809D01*
Y305500D01*
X317000Y308000D01*
X306295D01*
X306088Y308500D01*
X306252Y308664D01*
X306476Y309206D01*
Y309794D01*
X306252Y310336D01*
X305836Y310752D01*
X305294Y310976D01*
X304706D01*
X304164Y310752D01*
X303748Y310336D01*
X303524Y309794D01*
Y309206D01*
X303748Y308664D01*
X303912Y308500D01*
X303705Y308000D01*
X289500Y308000D01*
X287500Y310000D01*
Y320500D01*
X272803D01*
Y351714D01*
X273303Y351764D01*
X273651Y350012D01*
X274423Y348148D01*
X275544Y346471D01*
X276971Y345044D01*
X278648Y343923D01*
X280512Y343151D01*
X282491Y342758D01*
X284509D01*
X286488Y343151D01*
X288352Y343923D01*
X290029Y345044D01*
X291456Y346471D01*
X292577Y348148D01*
X293349Y350012D01*
X293742Y351991D01*
Y354009D01*
X293349Y355988D01*
X292577Y357852D01*
X291456Y359529D01*
X290029Y360956D01*
X288352Y362077D01*
X286488Y362849D01*
X284736Y363197D01*
X284786Y363697D01*
X543714D01*
X543763Y363197D01*
D02*
G37*
G36*
X369191Y291490D02*
X356416D01*
X356225Y291952D01*
X358081Y293809D01*
X369191D01*
Y291490D01*
D02*
G37*
G36*
X555697Y205423D02*
Y199795D01*
X555536Y198984D01*
X555220Y198221D01*
X554760Y197533D01*
X554176Y196948D01*
X553488Y196489D01*
X552724Y196173D01*
X551913Y196011D01*
X546286D01*
X546237Y196511D01*
X547988Y196860D01*
X549852Y197632D01*
X551529Y198753D01*
X552956Y200179D01*
X554077Y201857D01*
X554849Y203721D01*
X555197Y205472D01*
X555697Y205423D01*
D02*
G37*
G36*
X273651Y203721D02*
X274423Y201857D01*
X275544Y200179D01*
X276971Y198753D01*
X278648Y197632D01*
X280512Y196860D01*
X282263Y196511D01*
X282214Y196011D01*
X276587D01*
X275776Y196173D01*
X275012Y196489D01*
X274324Y196948D01*
X273740Y197533D01*
X273281Y198221D01*
X272964Y198984D01*
X272803Y199795D01*
Y205423D01*
X273303Y205472D01*
X273651Y203721D01*
D02*
G37*
%LPC*%
G36*
X382353Y359853D02*
X379200D01*
Y356700D01*
X382353D01*
Y359853D01*
D02*
G37*
G36*
X378800D02*
X375647D01*
Y356700D01*
X378800D01*
Y359853D01*
D02*
G37*
G36*
X459441D02*
X458559D01*
X457706Y359624D01*
X456941Y359183D01*
X456317Y358559D01*
X455876Y357794D01*
X455647Y356941D01*
Y356059D01*
X455876Y355206D01*
X456317Y354441D01*
X456941Y353817D01*
X457706Y353376D01*
X458559Y353147D01*
X459441D01*
X460294Y353376D01*
X461059Y353817D01*
X461683Y354441D01*
X462124Y355206D01*
X462353Y356059D01*
Y356941D01*
X462124Y357794D01*
X461683Y358559D01*
X461059Y359183D01*
X460294Y359624D01*
X459441Y359853D01*
D02*
G37*
G36*
X449441D02*
X448559D01*
X447706Y359624D01*
X446941Y359183D01*
X446317Y358559D01*
X445876Y357794D01*
X445647Y356941D01*
Y356059D01*
X445876Y355206D01*
X446317Y354441D01*
X446941Y353817D01*
X447706Y353376D01*
X448559Y353147D01*
X449441D01*
X450294Y353376D01*
X451059Y353817D01*
X451683Y354441D01*
X452124Y355206D01*
X452353Y356059D01*
Y356941D01*
X452124Y357794D01*
X451683Y358559D01*
X451059Y359183D01*
X450294Y359624D01*
X449441Y359853D01*
D02*
G37*
G36*
X439441D02*
X438559D01*
X437706Y359624D01*
X436941Y359183D01*
X436317Y358559D01*
X435876Y357794D01*
X435647Y356941D01*
Y356059D01*
X435876Y355206D01*
X436317Y354441D01*
X436941Y353817D01*
X437706Y353376D01*
X438559Y353147D01*
X439441D01*
X440294Y353376D01*
X441059Y353817D01*
X441683Y354441D01*
X442124Y355206D01*
X442353Y356059D01*
Y356941D01*
X442124Y357794D01*
X441683Y358559D01*
X441059Y359183D01*
X440294Y359624D01*
X439441Y359853D01*
D02*
G37*
G36*
X429441D02*
X428559D01*
X427706Y359624D01*
X426941Y359183D01*
X426317Y358559D01*
X425876Y357794D01*
X425647Y356941D01*
Y356059D01*
X425876Y355206D01*
X426317Y354441D01*
X426941Y353817D01*
X427706Y353376D01*
X428559Y353147D01*
X429441D01*
X430294Y353376D01*
X431059Y353817D01*
X431683Y354441D01*
X432124Y355206D01*
X432353Y356059D01*
Y356941D01*
X432124Y357794D01*
X431683Y358559D01*
X431059Y359183D01*
X430294Y359624D01*
X429441Y359853D01*
D02*
G37*
G36*
X419441D02*
X418559D01*
X417706Y359624D01*
X416941Y359183D01*
X416317Y358559D01*
X415876Y357794D01*
X415647Y356941D01*
Y356059D01*
X415876Y355206D01*
X416317Y354441D01*
X416941Y353817D01*
X417706Y353376D01*
X418559Y353147D01*
X419441D01*
X420294Y353376D01*
X421059Y353817D01*
X421683Y354441D01*
X422124Y355206D01*
X422353Y356059D01*
Y356941D01*
X422124Y357794D01*
X421683Y358559D01*
X421059Y359183D01*
X420294Y359624D01*
X419441Y359853D01*
D02*
G37*
G36*
X409441D02*
X408559D01*
X407706Y359624D01*
X406941Y359183D01*
X406317Y358559D01*
X405876Y357794D01*
X405647Y356941D01*
Y356059D01*
X405876Y355206D01*
X406317Y354441D01*
X406941Y353817D01*
X407706Y353376D01*
X408559Y353147D01*
X409441D01*
X410294Y353376D01*
X411059Y353817D01*
X411683Y354441D01*
X412124Y355206D01*
X412353Y356059D01*
Y356941D01*
X412124Y357794D01*
X411683Y358559D01*
X411059Y359183D01*
X410294Y359624D01*
X409441Y359853D01*
D02*
G37*
G36*
X389441D02*
X388559D01*
X387706Y359624D01*
X386941Y359183D01*
X386317Y358559D01*
X385876Y357794D01*
X385647Y356941D01*
Y356059D01*
X385876Y355206D01*
X386317Y354441D01*
X386941Y353817D01*
X387706Y353376D01*
X388559Y353147D01*
X389441D01*
X390294Y353376D01*
X391059Y353817D01*
X391683Y354441D01*
X392124Y355206D01*
X392353Y356059D01*
Y356941D01*
X392124Y357794D01*
X391683Y358559D01*
X391059Y359183D01*
X390294Y359624D01*
X389441Y359853D01*
D02*
G37*
G36*
X382353Y356300D02*
X379200D01*
Y353147D01*
X382353D01*
Y356300D01*
D02*
G37*
G36*
X378800D02*
X375647D01*
Y353147D01*
X378800D01*
Y356300D01*
D02*
G37*
G36*
X550412Y329006D02*
X548932D01*
Y326739D01*
X550412D01*
Y329006D01*
D02*
G37*
G36*
X548532D02*
X547053D01*
Y326739D01*
X548532D01*
Y329006D01*
D02*
G37*
G36*
X385148Y331632D02*
X379230D01*
Y322958D01*
X385148D01*
Y331632D01*
D02*
G37*
G36*
X334794Y316476D02*
X334206D01*
X333664Y316252D01*
X333248Y315836D01*
X333024Y315294D01*
Y314706D01*
X333248Y314164D01*
X333664Y313748D01*
X334206Y313524D01*
X334794D01*
X335336Y313748D01*
X335752Y314164D01*
X335976Y314706D01*
Y315294D01*
X335752Y315836D01*
X335336Y316252D01*
X334794Y316476D01*
D02*
G37*
G36*
X317294Y313476D02*
X316706D01*
X316164Y313252D01*
X315748Y312836D01*
X315524Y312294D01*
Y311706D01*
X315748Y311164D01*
X316164Y310748D01*
X316706Y310524D01*
X317294D01*
X317836Y310748D01*
X318252Y311164D01*
X318476Y311706D01*
Y312294D01*
X318252Y312836D01*
X317836Y313252D01*
X317294Y313476D01*
D02*
G37*
G36*
X308294D02*
X307706D01*
X307164Y313252D01*
X306748Y312836D01*
X306524Y312294D01*
Y311706D01*
X306748Y311164D01*
X307164Y310748D01*
X307706Y310524D01*
X308294D01*
X308836Y310748D01*
X309252Y311164D01*
X309476Y311706D01*
Y312294D01*
X309252Y312836D01*
X308836Y313252D01*
X308294Y313476D01*
D02*
G37*
G36*
X550412Y326339D02*
X548732D01*
X547053D01*
Y324072D01*
X547321D01*
Y312668D01*
X547053D01*
Y310401D01*
X548732D01*
X550412D01*
Y312668D01*
X550144D01*
Y324072D01*
X550412D01*
Y326339D01*
D02*
G37*
G36*
Y310001D02*
X548932D01*
Y307734D01*
X550412D01*
Y310001D01*
D02*
G37*
G36*
X548532D02*
X547053D01*
Y307734D01*
X548532D01*
Y310001D01*
D02*
G37*
G36*
X550075Y299086D02*
X546925D01*
X546916Y299083D01*
X546907Y299086D01*
X546813Y299082D01*
X546812Y299082D01*
X546812Y299082D01*
X546721Y299078D01*
X546695Y299066D01*
X546666Y299072D01*
X546577Y299057D01*
X546484Y299041D01*
X546473Y299034D01*
X546459Y299036D01*
X546373Y299017D01*
X546359Y299007D01*
X546342Y299009D01*
X546252Y298981D01*
X546242Y298973D01*
X546230Y298974D01*
X546143Y298942D01*
X546137Y298936D01*
X546127Y298936D01*
X546041Y298901D01*
X546032Y298892D01*
X546019Y298891D01*
X545936Y298851D01*
X545930Y298845D01*
X545921Y298844D01*
X545838Y298801D01*
X545825Y298784D01*
X545803Y298780D01*
X545725Y298729D01*
X545725D01*
X545646Y298678D01*
X545635Y298662D01*
X545616Y298657D01*
X545545Y298602D01*
X545538Y298588D01*
X545523Y298583D01*
X545452Y298520D01*
X545450Y298515D01*
X545443Y298512D01*
X545376Y298449D01*
X545371Y298436D01*
X545358Y298431D01*
X545295Y298364D01*
X545293Y298358D01*
X545287Y298355D01*
X545232Y298293D01*
X535941D01*
X535887Y298355D01*
X535881Y298358D01*
X535878Y298364D01*
X535815Y298431D01*
X535803Y298436D01*
X535797Y298449D01*
X535730Y298512D01*
X535724Y298515D01*
X535721Y298520D01*
X535650Y298583D01*
X535636Y298588D01*
X535628Y298602D01*
X535557Y298657D01*
X535538Y298662D01*
X535527Y298678D01*
X535449Y298729D01*
X535449Y298729D01*
X535370Y298780D01*
X535349Y298784D01*
X535335Y298801D01*
X535252Y298844D01*
X535243Y298845D01*
X535237Y298851D01*
X535155Y298891D01*
X535142Y298892D01*
X535132Y298901D01*
X535046Y298936D01*
X535037Y298936D01*
X535030Y298942D01*
X534943Y298974D01*
X534931Y298973D01*
X534921Y298981D01*
X534831Y299009D01*
X534814Y299007D01*
X534801Y299017D01*
X534714Y299036D01*
X534701Y299034D01*
X534689Y299041D01*
X534596Y299057D01*
X534507Y299072D01*
X534479Y299066D01*
X534452Y299078D01*
X534361Y299082D01*
X534361Y299082D01*
X534361Y299082D01*
X534266Y299086D01*
X534257Y299083D01*
X534248Y299086D01*
X529917D01*
X529908Y299083D01*
X529899Y299086D01*
X529805Y299082D01*
X529804Y299082D01*
X529804Y299082D01*
X529713Y299078D01*
X529687Y299066D01*
X529658Y299072D01*
X529569Y299057D01*
X529476Y299041D01*
X529465Y299034D01*
X529451Y299036D01*
X529365Y299017D01*
X529351Y299007D01*
X529335Y299009D01*
X529244Y298981D01*
X529235Y298973D01*
X529222Y298974D01*
X529136Y298942D01*
X529129Y298936D01*
X529119Y298936D01*
X529033Y298901D01*
X529024Y298892D01*
X529011Y298891D01*
X528928Y298851D01*
X528922Y298845D01*
X528913Y298844D01*
X528831Y298801D01*
X528817Y298784D01*
X528795Y298780D01*
X528717Y298729D01*
X528717D01*
X528638Y298678D01*
X528627Y298662D01*
X528608Y298657D01*
X528537Y298602D01*
X528530Y298588D01*
X528515Y298583D01*
X528445Y298520D01*
X528442Y298515D01*
X528436Y298512D01*
X528369Y298449D01*
X528363Y298436D01*
X528350Y298431D01*
X528287Y298364D01*
X528285Y298358D01*
X528279Y298355D01*
X528216Y298284D01*
X528211Y298269D01*
X528198Y298262D01*
X528142Y298191D01*
X528137Y298172D01*
X528121Y298161D01*
X528070Y298082D01*
X528070Y298082D01*
X528019Y298004D01*
X528015Y297983D01*
X527998Y297969D01*
X527955Y297886D01*
X527954Y297877D01*
X527948Y297871D01*
X527908Y297789D01*
X527908Y297776D01*
X527899Y297766D01*
X527863Y297680D01*
X527863Y297671D01*
X527857Y297664D01*
X527825Y297577D01*
X527826Y297565D01*
X527818Y297555D01*
X527790Y297465D01*
X527792Y297448D01*
X527782Y297434D01*
X527763Y297348D01*
X527765Y297335D01*
X527758Y297323D01*
X527742Y297230D01*
X527727Y297141D01*
X527733Y297112D01*
X527721Y297086D01*
X527717Y296995D01*
X527717Y296995D01*
X527717Y296994D01*
X527713Y296900D01*
X527720Y296882D01*
X527713Y296864D01*
X527717Y296769D01*
X527717Y296769D01*
X527717Y296769D01*
X527721Y296678D01*
X527733Y296651D01*
X527727Y296623D01*
X527742Y296533D01*
X527758Y296441D01*
X527765Y296429D01*
X527763Y296416D01*
X527782Y296329D01*
X527792Y296316D01*
X527790Y296299D01*
X527818Y296209D01*
X527826Y296199D01*
X527825Y296187D01*
X527857Y296100D01*
X527863Y296093D01*
X527863Y296084D01*
X527899Y295998D01*
X527908Y295988D01*
X527908Y295975D01*
X527948Y295893D01*
X527954Y295887D01*
X527955Y295878D01*
X527998Y295795D01*
X528015Y295781D01*
X528019Y295760D01*
X528070Y295681D01*
Y295681D01*
X528121Y295603D01*
X528137Y295592D01*
X528142Y295573D01*
X528198Y295502D01*
X528211Y295494D01*
X528216Y295480D01*
X528279Y295409D01*
X528285Y295406D01*
X528287Y295400D01*
X528350Y295333D01*
X528363Y295327D01*
X528369Y295315D01*
X528436Y295252D01*
X528442Y295249D01*
X528445Y295243D01*
X528515Y295180D01*
X528530Y295175D01*
X528537Y295162D01*
X528608Y295107D01*
X528627Y295102D01*
X528638Y295086D01*
X528717Y295035D01*
X528717Y295035D01*
X528796Y294983D01*
X528817Y294980D01*
X528831Y294963D01*
X528913Y294920D01*
X528922Y294919D01*
X528928Y294912D01*
X529011Y294873D01*
X529024Y294872D01*
X529033Y294863D01*
X529119Y294828D01*
X529129Y294828D01*
X529136Y294822D01*
X529222Y294790D01*
X529235Y294791D01*
X529244Y294783D01*
X529335Y294755D01*
X529351Y294757D01*
X529365Y294747D01*
X529451Y294727D01*
X529465Y294730D01*
X529476Y294723D01*
X529569Y294707D01*
X529658Y294692D01*
X529687Y294698D01*
X529713Y294686D01*
X529804Y294682D01*
X529804Y294682D01*
X529805Y294682D01*
X529899Y294678D01*
X530370Y294663D01*
Y294041D01*
X530363Y294034D01*
X529999D01*
Y292453D01*
X529799D01*
Y292253D01*
X527155D01*
Y290911D01*
X526101D01*
X526052Y290944D01*
X525512Y291052D01*
X515640D01*
X515100Y290944D01*
X514642Y290638D01*
X512583Y288579D01*
X512277Y288121D01*
X512170Y287581D01*
Y285207D01*
X509820D01*
Y281982D01*
X511303D01*
X511352Y281482D01*
X510804Y281373D01*
X510512Y281178D01*
X509033D01*
X508493Y281071D01*
X508150Y280842D01*
X507960Y280804D01*
X507502Y280498D01*
X507196Y280040D01*
X507089Y279500D01*
X507196Y278960D01*
X507502Y278502D01*
X507960Y278196D01*
X508500Y278089D01*
X508766D01*
X509306Y278196D01*
X509545Y278356D01*
X510774D01*
X510804Y278336D01*
X511289Y278239D01*
Y277729D01*
X510804Y277633D01*
X510270Y277276D01*
X509914Y276743D01*
X509789Y276114D01*
X509914Y275485D01*
X510270Y274952D01*
X510804Y274595D01*
X511433Y274470D01*
X515729D01*
X516358Y274595D01*
X516891Y274952D01*
X517248Y275485D01*
X517302Y275760D01*
X519324Y277781D01*
X519630Y278239D01*
X519737Y278779D01*
Y280998D01*
X519630Y281538D01*
X519324Y281996D01*
X517341Y283978D01*
Y285207D01*
X514992D01*
Y286996D01*
X516225Y288229D01*
X522325D01*
X522505Y288010D01*
Y287472D01*
X524000D01*
X525495D01*
Y287610D01*
X525634Y288032D01*
X525982Y288089D01*
X527155D01*
Y285764D01*
X526878Y285709D01*
X526551Y285490D01*
X525886Y284825D01*
X525350Y284861D01*
X525302Y284932D01*
X525089Y285075D01*
X524837Y285125D01*
X523163D01*
X522911Y285075D01*
X522698Y284932D01*
X522555Y284719D01*
X522505Y284467D01*
Y282990D01*
X522555Y282738D01*
X522698Y282524D01*
X522717Y282512D01*
X522826Y281981D01*
X522808Y281895D01*
X522748Y281836D01*
X522524Y281294D01*
Y280706D01*
X522748Y280164D01*
X523164Y279748D01*
X523706Y279524D01*
X524294D01*
X524836Y279748D01*
X524965Y279877D01*
X525555D01*
Y279838D01*
X525632Y279451D01*
X525850Y279124D01*
X526562Y278412D01*
X526355Y277911D01*
X522676D01*
X522336Y278252D01*
X521794Y278476D01*
X521206D01*
X520664Y278252D01*
X520248Y277836D01*
X520024Y277294D01*
Y276706D01*
X520248Y276164D01*
X520664Y275748D01*
X521206Y275524D01*
X521794D01*
X522336Y275748D01*
X522479Y275892D01*
X527155D01*
Y273974D01*
X525803D01*
X525802Y273976D01*
X525589Y274118D01*
X525337Y274169D01*
X523663D01*
X523411Y274118D01*
X523198Y273976D01*
X523055Y273762D01*
X523005Y273510D01*
Y272034D01*
X523055Y271781D01*
X523198Y271568D01*
X523411Y271425D01*
X523663Y271375D01*
X525337D01*
X525589Y271425D01*
X525802Y271568D01*
X525945Y271781D01*
X525980Y271955D01*
X527155D01*
Y268824D01*
Y267456D01*
X529799D01*
Y267256D01*
X529999D01*
Y265675D01*
X530363D01*
X530370Y265668D01*
Y265046D01*
X529899Y265031D01*
X529805Y265027D01*
X529804Y265027D01*
X529804Y265027D01*
X529713Y265023D01*
X529687Y265011D01*
X529658Y265017D01*
X529569Y265002D01*
X529476Y264986D01*
X529465Y264979D01*
X529451Y264981D01*
X529365Y264962D01*
X529351Y264952D01*
X529335Y264954D01*
X529244Y264926D01*
X529235Y264918D01*
X529222Y264919D01*
X529136Y264887D01*
X529129Y264881D01*
X529119Y264881D01*
X529033Y264846D01*
X529024Y264837D01*
X529011Y264836D01*
X528928Y264796D01*
X528922Y264790D01*
X528913Y264789D01*
X528831Y264746D01*
X528817Y264729D01*
X528795Y264725D01*
X528717Y264674D01*
X528717D01*
X528638Y264623D01*
X528627Y264607D01*
X528608Y264602D01*
X528537Y264546D01*
X528530Y264533D01*
X528515Y264528D01*
X528445Y264465D01*
X528442Y264459D01*
X528436Y264457D01*
X528369Y264394D01*
X528363Y264381D01*
X528350Y264375D01*
X528287Y264309D01*
X528285Y264302D01*
X528279Y264299D01*
X528216Y264229D01*
X528211Y264214D01*
X528198Y264207D01*
X528142Y264136D01*
X528137Y264117D01*
X528121Y264106D01*
X528070Y264027D01*
X528070Y264027D01*
X528019Y263948D01*
X528015Y263927D01*
X527998Y263913D01*
X527955Y263831D01*
X527954Y263822D01*
X527948Y263816D01*
X527908Y263733D01*
X527908Y263720D01*
X527899Y263711D01*
X527863Y263625D01*
X527863Y263615D01*
X527857Y263609D01*
X527825Y263522D01*
X527826Y263510D01*
X527818Y263500D01*
X527790Y263409D01*
X527792Y263393D01*
X527782Y263379D01*
X527763Y263293D01*
X527765Y263280D01*
X527758Y263268D01*
X527742Y263175D01*
X527727Y263086D01*
X527733Y263057D01*
X527721Y263031D01*
X527717Y262940D01*
X527717Y262940D01*
X527717Y262939D01*
X527713Y262845D01*
X527720Y262827D01*
X527713Y262809D01*
X527717Y262714D01*
X527717Y262714D01*
X527717Y262714D01*
X527721Y262623D01*
X527733Y262596D01*
X527727Y262567D01*
X527742Y262478D01*
X527758Y262386D01*
X527765Y262374D01*
X527763Y262361D01*
X527782Y262274D01*
X527792Y262261D01*
X527790Y262244D01*
X527818Y262154D01*
X527826Y262144D01*
X527825Y262132D01*
X527857Y262045D01*
X527863Y262038D01*
X527863Y262029D01*
X527899Y261942D01*
X527908Y261933D01*
X527908Y261920D01*
X527948Y261838D01*
X527954Y261831D01*
X527955Y261823D01*
X527998Y261740D01*
X528015Y261726D01*
X528019Y261705D01*
X528070Y261626D01*
Y261626D01*
X528121Y261547D01*
X528137Y261537D01*
X528142Y261518D01*
X528198Y261447D01*
X528211Y261439D01*
X528216Y261425D01*
X528279Y261354D01*
X528285Y261351D01*
X528287Y261345D01*
X528350Y261278D01*
X528363Y261272D01*
X528369Y261260D01*
X528436Y261196D01*
X528442Y261194D01*
X528445Y261188D01*
X528515Y261125D01*
X528530Y261120D01*
X528537Y261107D01*
X528608Y261052D01*
X528627Y261047D01*
X528638Y261031D01*
X528717Y260980D01*
X528717Y260980D01*
X528796Y260928D01*
X528817Y260924D01*
X528831Y260908D01*
X528913Y260864D01*
X528922Y260864D01*
X528928Y260857D01*
X529011Y260818D01*
X529024Y260817D01*
X529033Y260808D01*
X529119Y260772D01*
X529129Y260772D01*
X529136Y260766D01*
X529222Y260735D01*
X529235Y260735D01*
X529244Y260728D01*
X529335Y260700D01*
X529351Y260702D01*
X529365Y260692D01*
X529451Y260672D01*
X529465Y260675D01*
X529476Y260667D01*
X529569Y260652D01*
X529658Y260636D01*
X529687Y260643D01*
X529713Y260630D01*
X529804Y260627D01*
X529804Y260627D01*
X529805Y260627D01*
X529899Y260623D01*
X529908Y260626D01*
X529917Y260622D01*
X534248D01*
X534257Y260626D01*
X534266Y260623D01*
X534361Y260627D01*
X534361Y260627D01*
X534361Y260627D01*
X534452Y260630D01*
X534479Y260643D01*
X534507Y260636D01*
X534596Y260652D01*
X534689Y260667D01*
X534701Y260675D01*
X534714Y260672D01*
X534801Y260692D01*
X534814Y260702D01*
X534831Y260700D01*
X534921Y260728D01*
X534931Y260735D01*
X534943Y260735D01*
X535030Y260766D01*
X535037Y260772D01*
X535046Y260772D01*
X535132Y260808D01*
X535142Y260817D01*
X535155Y260818D01*
X535237Y260857D01*
X535243Y260864D01*
X535252Y260864D01*
X535335Y260908D01*
X535349Y260924D01*
X535370Y260928D01*
X535449Y260980D01*
X535449D01*
X535527Y261031D01*
X535538Y261047D01*
X535557Y261052D01*
X535628Y261107D01*
X535636Y261120D01*
X535650Y261125D01*
X535721Y261188D01*
X535724Y261194D01*
X535730Y261196D01*
X535797Y261260D01*
X535803Y261272D01*
X535815Y261278D01*
X535878Y261345D01*
X535881Y261351D01*
X535887Y261354D01*
X535941Y261415D01*
X545232D01*
X545287Y261354D01*
X545293Y261351D01*
X545295Y261345D01*
X545358Y261278D01*
X545371Y261272D01*
X545376Y261260D01*
X545443Y261196D01*
X545450Y261194D01*
X545452Y261188D01*
X545523Y261125D01*
X545538Y261120D01*
X545545Y261107D01*
X545616Y261052D01*
X545635Y261047D01*
X545646Y261031D01*
X545725Y260980D01*
X545725Y260980D01*
X545803Y260928D01*
X545825Y260924D01*
X545838Y260908D01*
X545921Y260864D01*
X545930Y260864D01*
X545936Y260857D01*
X546019Y260818D01*
X546032Y260817D01*
X546041Y260808D01*
X546127Y260772D01*
X546137Y260772D01*
X546143Y260766D01*
X546230Y260735D01*
X546242Y260735D01*
X546252Y260728D01*
X546342Y260700D01*
X546359Y260702D01*
X546373Y260692D01*
X546459Y260672D01*
X546473Y260675D01*
X546484Y260667D01*
X546577Y260652D01*
X546666Y260636D01*
X546695Y260643D01*
X546721Y260630D01*
X546812Y260627D01*
X546812Y260627D01*
X546813Y260627D01*
X546907Y260623D01*
X546916Y260626D01*
X546925Y260622D01*
X550075D01*
X550084Y260626D01*
X550093Y260623D01*
X550187Y260627D01*
X550188Y260627D01*
X550188Y260627D01*
X550279Y260630D01*
X550305Y260643D01*
X550334Y260636D01*
X550423Y260652D01*
X550516Y260667D01*
X550527Y260675D01*
X550541Y260672D01*
X550627Y260692D01*
X550641Y260702D01*
X550658Y260700D01*
X550748Y260728D01*
X550758Y260735D01*
X550770Y260735D01*
X550857Y260766D01*
X550863Y260772D01*
X550873Y260772D01*
X550959Y260808D01*
X550968Y260817D01*
X550981Y260818D01*
X551064Y260857D01*
X551070Y260864D01*
X551079Y260864D01*
X551161Y260908D01*
X551175Y260924D01*
X551197Y260928D01*
X551275Y260980D01*
X551275D01*
X551354Y261031D01*
X551365Y261047D01*
X551384Y261052D01*
X551455Y261107D01*
X551462Y261120D01*
X551477Y261125D01*
X551547Y261188D01*
X551550Y261194D01*
X551557Y261196D01*
X551623Y261260D01*
X551629Y261272D01*
X551642Y261278D01*
X551705Y261345D01*
X551707Y261351D01*
X551713Y261354D01*
X551776Y261425D01*
X551781Y261439D01*
X551794Y261447D01*
X551850Y261518D01*
X551855Y261537D01*
X551871Y261547D01*
X551922Y261626D01*
Y261626D01*
X551922Y261626D01*
X551973Y261705D01*
X551977Y261726D01*
X551994Y261740D01*
X552037Y261823D01*
X552038Y261832D01*
X552044Y261838D01*
X552084Y261920D01*
X552084Y261933D01*
X552094Y261942D01*
X552129Y262029D01*
X552129Y262038D01*
X552135Y262045D01*
X552167Y262132D01*
X552166Y262144D01*
X552174Y262154D01*
X552202Y262244D01*
X552200Y262261D01*
X552210Y262274D01*
X552229Y262361D01*
X552227Y262374D01*
X552234Y262386D01*
X552250Y262479D01*
X552265Y262567D01*
X552259Y262596D01*
X552271Y262623D01*
X552275Y262714D01*
X552275Y262714D01*
X552275Y262714D01*
X552279Y262809D01*
X552272Y262827D01*
X552279Y262845D01*
X552275Y262939D01*
X552275Y262940D01*
X552275Y262940D01*
X552271Y263031D01*
X552259Y263057D01*
X552265Y263086D01*
X552249Y263176D01*
X552234Y263268D01*
X552227Y263280D01*
X552229Y263293D01*
X552210Y263379D01*
X552200Y263393D01*
X552202Y263409D01*
X552174Y263500D01*
X552166Y263510D01*
X552167Y263522D01*
X552135Y263609D01*
X552129Y263615D01*
X552129Y263625D01*
X552094Y263711D01*
X552084Y263720D01*
X552084Y263733D01*
X552044Y263816D01*
X552038Y263822D01*
X552037Y263831D01*
X551994Y263913D01*
X551977Y263927D01*
X551973Y263949D01*
X551922Y264027D01*
X551922Y264027D01*
X551871Y264106D01*
X551855Y264117D01*
X551850Y264136D01*
X551794Y264207D01*
X551781Y264214D01*
X551776Y264229D01*
X551713Y264300D01*
X551707Y264302D01*
X551705Y264309D01*
X551642Y264375D01*
X551629Y264381D01*
X551623Y264394D01*
X551557Y264457D01*
X551550Y264459D01*
X551547Y264465D01*
X551477Y264528D01*
X551462Y264533D01*
X551455Y264546D01*
X551384Y264602D01*
X551365Y264607D01*
X551354Y264623D01*
X551275Y264674D01*
X551275Y264674D01*
X551197Y264725D01*
X551175Y264729D01*
X551161Y264746D01*
X551079Y264789D01*
X551070Y264790D01*
X551064Y264796D01*
X550981Y264836D01*
X550968Y264837D01*
X550959Y264846D01*
X550873Y264881D01*
X550863Y264881D01*
X550857Y264887D01*
X550770Y264919D01*
X550758Y264918D01*
X550748Y264926D01*
X550658Y264954D01*
X550641Y264952D01*
X550627Y264962D01*
X550541Y264981D01*
X550527Y264979D01*
X550516Y264986D01*
X550423Y265002D01*
X550334Y265017D01*
X550305Y265011D01*
X550279Y265023D01*
X550188Y265027D01*
X550188Y265027D01*
X550187Y265027D01*
X550093Y265031D01*
X550084Y265028D01*
X550075Y265031D01*
X546925D01*
X546916Y265028D01*
X546907Y265031D01*
X546813Y265027D01*
X546812Y265027D01*
X546812Y265027D01*
X546721Y265023D01*
X546695Y265011D01*
X546666Y265017D01*
X546577Y265002D01*
X546484Y264986D01*
X546473Y264979D01*
X546459Y264981D01*
X546373Y264962D01*
X546359Y264952D01*
X546342Y264954D01*
X546252Y264926D01*
X546242Y264918D01*
X546230Y264919D01*
X546143Y264887D01*
X546137Y264881D01*
X546127Y264881D01*
X546041Y264846D01*
X546032Y264837D01*
X546019Y264836D01*
X545936Y264796D01*
X545930Y264790D01*
X545921Y264789D01*
X545838Y264746D01*
X545825Y264729D01*
X545803Y264725D01*
X545725Y264674D01*
X545725D01*
X545646Y264623D01*
X545635Y264607D01*
X545616Y264602D01*
X545545Y264546D01*
X545538Y264533D01*
X545523Y264528D01*
X545452Y264465D01*
X545450Y264459D01*
X545443Y264457D01*
X545376Y264394D01*
X545371Y264381D01*
X545358Y264375D01*
X545295Y264309D01*
X545293Y264302D01*
X545287Y264300D01*
X545232Y264238D01*
X535941D01*
X535887Y264299D01*
X535881Y264302D01*
X535878Y264309D01*
X535815Y264375D01*
X535803Y264381D01*
X535797Y264394D01*
X535730Y264457D01*
X535724Y264459D01*
X535721Y264465D01*
X535650Y264528D01*
X535636Y264533D01*
X535628Y264546D01*
X535557Y264602D01*
X535538Y264607D01*
X535527Y264623D01*
X535449Y264674D01*
X535449Y264674D01*
X535370Y264725D01*
X535349Y264729D01*
X535335Y264746D01*
X535252Y264789D01*
X535243Y264790D01*
X535237Y264796D01*
X535155Y264836D01*
X535142Y264837D01*
X535132Y264846D01*
X535046Y264881D01*
X535037Y264881D01*
X535030Y264887D01*
X534943Y264919D01*
X534931Y264918D01*
X534921Y264926D01*
X534831Y264954D01*
X534814Y264952D01*
X534801Y264962D01*
X534714Y264981D01*
X534701Y264979D01*
X534689Y264986D01*
X534596Y265002D01*
X534507Y265017D01*
X534479Y265011D01*
X534452Y265023D01*
X534361Y265027D01*
X534361Y265027D01*
X534361Y265027D01*
X534266Y265031D01*
X534257Y265028D01*
X534248Y265031D01*
X533193D01*
Y265931D01*
X533568Y266298D01*
X533675Y266311D01*
X534443D01*
X535238Y266641D01*
X535848Y267250D01*
X536177Y268046D01*
Y268907D01*
X535848Y269703D01*
X535238Y270312D01*
X534443Y270642D01*
X533847D01*
X533640Y271142D01*
X535329Y272831D01*
X535548Y273158D01*
X535625Y273545D01*
Y286164D01*
X535548Y286550D01*
X535329Y286878D01*
X533640Y288567D01*
X533847Y289067D01*
X534443D01*
X535238Y289397D01*
X535848Y290006D01*
X536177Y290802D01*
Y291663D01*
X535848Y292459D01*
X535238Y293068D01*
X534443Y293398D01*
X533675D01*
X533568Y293411D01*
X533193Y293778D01*
Y294677D01*
X534248D01*
X534257Y294681D01*
X534266Y294678D01*
X534361Y294682D01*
X534361Y294682D01*
X534361Y294682D01*
X534452Y294686D01*
X534479Y294698D01*
X534507Y294692D01*
X534596Y294707D01*
X534689Y294723D01*
X534701Y294730D01*
X534714Y294727D01*
X534801Y294747D01*
X534814Y294757D01*
X534831Y294755D01*
X534921Y294783D01*
X534931Y294791D01*
X534943Y294790D01*
X535030Y294822D01*
X535037Y294828D01*
X535046Y294828D01*
X535132Y294863D01*
X535142Y294872D01*
X535155Y294873D01*
X535237Y294912D01*
X535243Y294919D01*
X535252Y294920D01*
X535335Y294963D01*
X535349Y294980D01*
X535370Y294983D01*
X535449Y295035D01*
X535449D01*
X535527Y295086D01*
X535538Y295102D01*
X535557Y295107D01*
X535628Y295162D01*
X535636Y295175D01*
X535650Y295180D01*
X535721Y295243D01*
X535724Y295249D01*
X535730Y295252D01*
X535797Y295315D01*
X535803Y295327D01*
X535815Y295333D01*
X535878Y295400D01*
X535881Y295406D01*
X535887Y295409D01*
X535941Y295470D01*
X545232D01*
X545287Y295409D01*
X545293Y295406D01*
X545295Y295400D01*
X545358Y295333D01*
X545371Y295327D01*
X545376Y295315D01*
X545443Y295252D01*
X545450Y295249D01*
X545452Y295243D01*
X545523Y295180D01*
X545538Y295175D01*
X545545Y295162D01*
X545616Y295107D01*
X545635Y295102D01*
X545646Y295086D01*
X545725Y295035D01*
X545725Y295035D01*
X545803Y294983D01*
X545825Y294980D01*
X545838Y294963D01*
X545921Y294920D01*
X545930Y294919D01*
X545936Y294912D01*
X546019Y294873D01*
X546032Y294872D01*
X546041Y294863D01*
X546127Y294828D01*
X546137Y294828D01*
X546143Y294822D01*
X546230Y294790D01*
X546242Y294791D01*
X546252Y294783D01*
X546342Y294755D01*
X546359Y294757D01*
X546373Y294747D01*
X546459Y294727D01*
X546473Y294730D01*
X546484Y294723D01*
X546577Y294707D01*
X546666Y294692D01*
X546695Y294698D01*
X546721Y294686D01*
X546812Y294682D01*
X546812Y294682D01*
X546813Y294682D01*
X546907Y294678D01*
X546916Y294681D01*
X546925Y294677D01*
X550075D01*
X550084Y294681D01*
X550093Y294678D01*
X550187Y294682D01*
X550188Y294682D01*
X550188Y294682D01*
X550279Y294686D01*
X550305Y294698D01*
X550334Y294692D01*
X550423Y294707D01*
X550516Y294723D01*
X550527Y294730D01*
X550541Y294727D01*
X550627Y294747D01*
X550641Y294757D01*
X550658Y294755D01*
X550748Y294783D01*
X550758Y294791D01*
X550770Y294790D01*
X550857Y294822D01*
X550863Y294828D01*
X550873Y294828D01*
X550959Y294863D01*
X550968Y294872D01*
X550981Y294873D01*
X551064Y294912D01*
X551070Y294919D01*
X551079Y294920D01*
X551161Y294963D01*
X551175Y294980D01*
X551197Y294983D01*
X551275Y295035D01*
X551275D01*
X551354Y295086D01*
X551365Y295102D01*
X551384Y295107D01*
X551455Y295162D01*
X551462Y295175D01*
X551477Y295180D01*
X551547Y295243D01*
X551550Y295249D01*
X551557Y295252D01*
X551623Y295315D01*
X551629Y295327D01*
X551642Y295333D01*
X551705Y295400D01*
X551707Y295406D01*
X551713Y295409D01*
X551776Y295480D01*
X551781Y295494D01*
X551794Y295502D01*
X551850Y295573D01*
X551855Y295592D01*
X551871Y295603D01*
X551922Y295681D01*
Y295681D01*
X551922Y295681D01*
X551973Y295760D01*
X551977Y295781D01*
X551994Y295795D01*
X552037Y295878D01*
X552038Y295887D01*
X552044Y295893D01*
X552084Y295975D01*
X552084Y295988D01*
X552094Y295997D01*
X552129Y296084D01*
X552129Y296093D01*
X552135Y296100D01*
X552167Y296187D01*
X552166Y296199D01*
X552174Y296209D01*
X552202Y296299D01*
X552200Y296316D01*
X552210Y296329D01*
X552229Y296416D01*
X552227Y296429D01*
X552234Y296441D01*
X552250Y296534D01*
X552265Y296623D01*
X552259Y296651D01*
X552271Y296678D01*
X552275Y296769D01*
X552275Y296769D01*
X552275Y296769D01*
X552279Y296864D01*
X552272Y296882D01*
X552279Y296900D01*
X552275Y296994D01*
X552275Y296995D01*
X552275Y296995D01*
X552271Y297086D01*
X552259Y297112D01*
X552265Y297141D01*
X552249Y297231D01*
X552234Y297323D01*
X552227Y297335D01*
X552229Y297348D01*
X552210Y297435D01*
X552200Y297448D01*
X552202Y297465D01*
X552174Y297555D01*
X552166Y297565D01*
X552167Y297577D01*
X552135Y297664D01*
X552129Y297671D01*
X552129Y297680D01*
X552094Y297766D01*
X552084Y297776D01*
X552084Y297789D01*
X552044Y297871D01*
X552038Y297877D01*
X552037Y297886D01*
X551994Y297969D01*
X551977Y297982D01*
X551973Y298004D01*
X551922Y298082D01*
X551922Y298082D01*
X551871Y298161D01*
X551855Y298172D01*
X551850Y298191D01*
X551794Y298262D01*
X551781Y298269D01*
X551776Y298284D01*
X551713Y298355D01*
X551707Y298358D01*
X551705Y298364D01*
X551642Y298431D01*
X551629Y298436D01*
X551623Y298449D01*
X551557Y298512D01*
X551550Y298515D01*
X551547Y298520D01*
X551477Y298583D01*
X551462Y298588D01*
X551455Y298602D01*
X551384Y298657D01*
X551365Y298662D01*
X551354Y298678D01*
X551275Y298729D01*
X551275Y298729D01*
X551197Y298780D01*
X551175Y298784D01*
X551161Y298801D01*
X551079Y298844D01*
X551070Y298845D01*
X551064Y298851D01*
X550981Y298891D01*
X550968Y298892D01*
X550959Y298901D01*
X550873Y298936D01*
X550863Y298936D01*
X550857Y298942D01*
X550770Y298974D01*
X550758Y298973D01*
X550748Y298981D01*
X550658Y299009D01*
X550641Y299007D01*
X550627Y299017D01*
X550541Y299036D01*
X550527Y299034D01*
X550516Y299041D01*
X550423Y299057D01*
X550334Y299072D01*
X550305Y299066D01*
X550279Y299078D01*
X550188Y299082D01*
X550188Y299082D01*
X550187Y299082D01*
X550093Y299086D01*
X550084Y299083D01*
X550075Y299086D01*
D02*
G37*
G36*
X334728Y299337D02*
X334653D01*
Y298153D01*
X335837D01*
Y298228D01*
X335626Y298737D01*
X335237Y299126D01*
X334728Y299337D01*
D02*
G37*
G36*
X334253D02*
X334177D01*
X333669Y299126D01*
X333279Y298737D01*
X333068Y298228D01*
Y298153D01*
X334253D01*
Y299337D01*
D02*
G37*
G36*
X328823D02*
X328747D01*
Y298153D01*
X329931D01*
Y298228D01*
X329721Y298737D01*
X329331Y299126D01*
X328823Y299337D01*
D02*
G37*
G36*
X328347D02*
X328272D01*
X327763Y299126D01*
X327374Y298737D01*
X327163Y298228D01*
Y298153D01*
X328347D01*
Y299337D01*
D02*
G37*
G36*
X335837Y297753D02*
X334653D01*
Y296568D01*
X334728D01*
X335237Y296779D01*
X335626Y297169D01*
X335837Y297677D01*
Y297753D01*
D02*
G37*
G36*
X334253D02*
X333068D01*
Y297677D01*
X333279Y297169D01*
X333669Y296779D01*
X334177Y296568D01*
X334253D01*
Y297753D01*
D02*
G37*
G36*
X329931D02*
X328747D01*
Y296568D01*
X328823D01*
X329331Y296779D01*
X329721Y297169D01*
X329931Y297677D01*
Y297753D01*
D02*
G37*
G36*
X328347D02*
X327163D01*
Y297677D01*
X327374Y297169D01*
X327763Y296779D01*
X328272Y296568D01*
X328347D01*
Y297753D01*
D02*
G37*
G36*
X337681Y296384D02*
X337606D01*
Y295200D01*
X338790D01*
Y295275D01*
X338579Y295784D01*
X338190Y296174D01*
X337681Y296384D01*
D02*
G37*
G36*
X337206D02*
X337130D01*
X336621Y296174D01*
X336232Y295784D01*
X336021Y295275D01*
Y295200D01*
X337206D01*
Y296384D01*
D02*
G37*
G36*
X331775D02*
X331700D01*
Y295200D01*
X332884D01*
Y295275D01*
X332674Y295784D01*
X332284Y296174D01*
X331775Y296384D01*
D02*
G37*
G36*
X331300D02*
X331225D01*
X330716Y296174D01*
X330327Y295784D01*
X330116Y295275D01*
Y295200D01*
X331300D01*
Y296384D01*
D02*
G37*
G36*
X325870D02*
X325795D01*
Y295200D01*
X326979D01*
Y295275D01*
X326768Y295784D01*
X326379Y296174D01*
X325870Y296384D01*
D02*
G37*
G36*
X325395D02*
X325319D01*
X324810Y296174D01*
X324421Y295784D01*
X324210Y295275D01*
Y295200D01*
X325395D01*
Y296384D01*
D02*
G37*
G36*
X338790Y294800D02*
X337606D01*
Y293616D01*
X337681D01*
X338190Y293827D01*
X338579Y294216D01*
X338790Y294725D01*
Y294800D01*
D02*
G37*
G36*
X337206D02*
X336021D01*
Y294725D01*
X336232Y294216D01*
X336621Y293827D01*
X337130Y293616D01*
X337206D01*
Y294800D01*
D02*
G37*
G36*
X332884D02*
X331700D01*
Y293616D01*
X331775D01*
X332284Y293827D01*
X332674Y294216D01*
X332884Y294725D01*
Y294800D01*
D02*
G37*
G36*
X331300D02*
X330116D01*
Y294725D01*
X330327Y294216D01*
X330716Y293827D01*
X331225Y293616D01*
X331300D01*
Y294800D01*
D02*
G37*
G36*
X326979D02*
X325795D01*
Y293616D01*
X325870D01*
X326379Y293827D01*
X326768Y294216D01*
X326979Y294725D01*
Y294800D01*
D02*
G37*
G36*
X325395D02*
X324210D01*
Y294725D01*
X324421Y294216D01*
X324810Y293827D01*
X325319Y293616D01*
X325395D01*
Y294800D01*
D02*
G37*
G36*
X529599Y294034D02*
X527155D01*
Y292653D01*
X529599D01*
Y294034D01*
D02*
G37*
G36*
X334728Y293431D02*
X334653D01*
Y292247D01*
X335837D01*
Y292323D01*
X335626Y292831D01*
X335237Y293221D01*
X334728Y293431D01*
D02*
G37*
G36*
X334253D02*
X334177D01*
X333669Y293221D01*
X333279Y292831D01*
X333068Y292323D01*
Y292247D01*
X334253D01*
Y293431D01*
D02*
G37*
G36*
X328823D02*
X328747D01*
Y292247D01*
X329931D01*
Y292323D01*
X329721Y292831D01*
X329331Y293221D01*
X328823Y293431D01*
D02*
G37*
G36*
X328347D02*
X328272D01*
X327763Y293221D01*
X327374Y292831D01*
X327163Y292323D01*
Y292247D01*
X328347D01*
Y293431D01*
D02*
G37*
G36*
X335837Y291847D02*
X334653D01*
Y290663D01*
X334728D01*
X335237Y290874D01*
X335626Y291263D01*
X335837Y291772D01*
Y291847D01*
D02*
G37*
G36*
X334253D02*
X333068D01*
Y291772D01*
X333279Y291263D01*
X333669Y290874D01*
X334177Y290663D01*
X334253D01*
Y291847D01*
D02*
G37*
G36*
X329931D02*
X328747D01*
Y290663D01*
X328823D01*
X329331Y290874D01*
X329721Y291263D01*
X329931Y291772D01*
Y291847D01*
D02*
G37*
G36*
X328347D02*
X327163D01*
Y291772D01*
X327374Y291263D01*
X327763Y290874D01*
X328272Y290663D01*
X328347D01*
Y291847D01*
D02*
G37*
G36*
X279176Y292853D02*
X277204D01*
Y289700D01*
X279176D01*
Y292853D01*
D02*
G37*
G36*
X276804D02*
X274832D01*
Y289700D01*
X276804D01*
Y292853D01*
D02*
G37*
G36*
X337206Y290479D02*
X337130D01*
X336621Y290268D01*
X336232Y289879D01*
X336021Y289370D01*
Y289295D01*
X337206D01*
Y290479D01*
D02*
G37*
G36*
X331775D02*
X331700D01*
Y289295D01*
X332884D01*
Y289370D01*
X332674Y289879D01*
X332284Y290268D01*
X331775Y290479D01*
D02*
G37*
G36*
X331300D02*
X331225D01*
X330716Y290268D01*
X330327Y289879D01*
X330116Y289370D01*
Y289295D01*
X331300D01*
Y290479D01*
D02*
G37*
G36*
X325870D02*
X325795D01*
Y289295D01*
X326979D01*
Y289370D01*
X326768Y289879D01*
X326379Y290268D01*
X325870Y290479D01*
D02*
G37*
G36*
X332884Y288895D02*
X331700D01*
Y287710D01*
X331775D01*
X332284Y287921D01*
X332674Y288310D01*
X332884Y288819D01*
Y288895D01*
D02*
G37*
G36*
X331300D02*
X330116D01*
Y288819D01*
X330327Y288310D01*
X330716Y287921D01*
X331225Y287710D01*
X331300D01*
Y288895D01*
D02*
G37*
G36*
X373928Y288513D02*
X371559D01*
X369191D01*
Y287722D01*
Y286944D01*
X371559D01*
X373928D01*
Y288513D01*
D02*
G37*
G36*
X334253Y287526D02*
X334177D01*
X333669Y287315D01*
X333279Y286926D01*
X333068Y286417D01*
Y286342D01*
X334253D01*
Y287526D01*
D02*
G37*
G36*
X328823D02*
X328747D01*
Y286342D01*
X329931D01*
Y286417D01*
X329721Y286926D01*
X329331Y287315D01*
X328823Y287526D01*
D02*
G37*
G36*
X279176Y289300D02*
X277204D01*
Y286147D01*
X279176D01*
Y289300D01*
D02*
G37*
G36*
X276804D02*
X274832D01*
Y286147D01*
X276804D01*
Y289300D01*
D02*
G37*
G36*
X525495Y287072D02*
X524200D01*
Y285875D01*
X524837D01*
X525089Y285925D01*
X525302Y286068D01*
X525445Y286281D01*
X525495Y286533D01*
Y287072D01*
D02*
G37*
G36*
X523800D02*
X522505D01*
Y286533D01*
X522555Y286281D01*
X522698Y286068D01*
X522911Y285925D01*
X523163Y285875D01*
X523800D01*
Y287072D01*
D02*
G37*
G36*
X298294Y288476D02*
X297706D01*
X297164Y288252D01*
X296748Y287836D01*
X296524Y287294D01*
Y286706D01*
X296748Y286164D01*
X297164Y285748D01*
X297706Y285524D01*
X298294D01*
X298836Y285748D01*
X299252Y286164D01*
X299476Y286706D01*
Y287294D01*
X299252Y287836D01*
X298836Y288252D01*
X298294Y288476D01*
D02*
G37*
G36*
X373928Y286544D02*
X371559D01*
X369191D01*
Y284976D01*
X371559D01*
X373928D01*
Y285753D01*
Y286544D01*
D02*
G37*
G36*
X506276Y285238D02*
X501980D01*
X501350Y285113D01*
X501018Y284891D01*
X500676Y284959D01*
X498194D01*
X498010Y284995D01*
X496533D01*
X496281Y284945D01*
X496068Y284802D01*
X495925Y284589D01*
X495875Y284337D01*
Y283620D01*
X495860Y283547D01*
Y283402D01*
X495875Y283329D01*
Y282663D01*
X495925Y282411D01*
X496068Y282198D01*
X496281Y282055D01*
X496533Y282005D01*
X497199D01*
X497272Y281990D01*
X497344Y282005D01*
X498010D01*
X498262Y282055D01*
X498383Y282136D01*
X499089D01*
Y281451D01*
X499024Y281294D01*
Y280706D01*
X499089Y280549D01*
Y279451D01*
X499024Y279294D01*
Y278706D01*
X499248Y278164D01*
X499664Y277748D01*
X500206Y277524D01*
X500381D01*
X500648Y277024D01*
X500461Y276743D01*
X500336Y276114D01*
X500461Y275485D01*
X500817Y274952D01*
X501350Y274595D01*
X501980Y274470D01*
X506276D01*
X506905Y274595D01*
X507438Y274952D01*
X507795Y275485D01*
X507920Y276114D01*
X507795Y276743D01*
X507438Y277276D01*
X506905Y277633D01*
X506276Y277758D01*
X504999D01*
X504791Y278258D01*
X504976Y278706D01*
Y279294D01*
X504911Y279451D01*
Y280549D01*
X504976Y280706D01*
Y281294D01*
X504911Y281451D01*
Y281951D01*
X506276D01*
X506905Y282076D01*
X507438Y282432D01*
X507795Y282965D01*
X507920Y283594D01*
X507795Y284224D01*
X507438Y284757D01*
X506905Y285113D01*
X506276Y285238D01*
D02*
G37*
G36*
X494466Y284995D02*
X493928D01*
Y283700D01*
X495125D01*
Y284337D01*
X495075Y284589D01*
X494932Y284802D01*
X494719Y284945D01*
X494466Y284995D01*
D02*
G37*
G36*
X493528D02*
X492990D01*
X492738Y284945D01*
X492524Y284802D01*
X492382Y284589D01*
X492331Y284337D01*
Y283700D01*
X493528D01*
Y284995D01*
D02*
G37*
G36*
X373928Y284576D02*
X371559D01*
X369191D01*
Y283785D01*
Y283007D01*
X371559D01*
X373928D01*
Y284576D01*
D02*
G37*
G36*
X495125Y283300D02*
X493928D01*
Y282005D01*
X494466D01*
X494719Y282055D01*
X494932Y282198D01*
X495075Y282411D01*
X495125Y282663D01*
Y283300D01*
D02*
G37*
G36*
X493528D02*
X492331D01*
Y282663D01*
X492382Y282411D01*
X492524Y282198D01*
X492738Y282055D01*
X492990Y282005D01*
X493528D01*
Y283300D01*
D02*
G37*
G36*
X373928Y282607D02*
X371559D01*
X369191D01*
Y281039D01*
X371559D01*
X373928D01*
Y281817D01*
Y282607D01*
D02*
G37*
G36*
Y280639D02*
X371559D01*
X369191D01*
Y279848D01*
Y279070D01*
X371559D01*
X373928D01*
Y280639D01*
D02*
G37*
G36*
Y278670D02*
X371559D01*
X369191D01*
Y277101D01*
X371559D01*
X373928D01*
Y277880D01*
Y278670D01*
D02*
G37*
G36*
Y276701D02*
X371559D01*
X369191D01*
Y275911D01*
Y275133D01*
X371559D01*
X373928D01*
Y276701D01*
D02*
G37*
G36*
Y274733D02*
X371559D01*
X369191D01*
Y273165D01*
X371559D01*
X373928D01*
Y273942D01*
Y274733D01*
D02*
G37*
G36*
Y272764D02*
X371559D01*
X369191D01*
Y271974D01*
Y271196D01*
X371559D01*
X373928D01*
Y272764D01*
D02*
G37*
G36*
X525337Y270625D02*
X524700D01*
Y269428D01*
X525995D01*
Y269967D01*
X525945Y270219D01*
X525802Y270432D01*
X525589Y270575D01*
X525337Y270625D01*
D02*
G37*
G36*
X524300D02*
X523663D01*
X523411Y270575D01*
X523198Y270432D01*
X523055Y270219D01*
X523005Y269967D01*
Y269428D01*
X524300D01*
Y270625D01*
D02*
G37*
G36*
X373928Y270796D02*
X371559D01*
X369191D01*
Y269228D01*
X371559D01*
X373928D01*
Y270005D01*
Y270796D01*
D02*
G37*
G36*
X292168Y273561D02*
X287824D01*
Y266856D01*
X292168D01*
Y269302D01*
X292232Y269340D01*
X292668Y269455D01*
X293048Y269075D01*
X293666Y268819D01*
X294334D01*
X294952Y269075D01*
X295425Y269548D01*
X295681Y270166D01*
Y270834D01*
X295425Y271452D01*
X294952Y271925D01*
X294334Y272181D01*
X293666D01*
X293048Y271925D01*
X292668Y271545D01*
X292232Y271660D01*
X292168Y271698D01*
Y273561D01*
D02*
G37*
G36*
X525995Y269028D02*
X524700D01*
Y267831D01*
X525337D01*
X525589Y267882D01*
X525802Y268024D01*
X525945Y268238D01*
X525995Y268490D01*
Y269028D01*
D02*
G37*
G36*
X524300D02*
X523005D01*
Y268490D01*
X523055Y268238D01*
X523198Y268024D01*
X523411Y267882D01*
X523663Y267831D01*
X524300D01*
Y269028D01*
D02*
G37*
G36*
X373928Y268828D02*
X371559D01*
X369191D01*
Y268037D01*
Y267259D01*
X371559D01*
X373928D01*
Y268828D01*
D02*
G37*
G36*
X279176Y273561D02*
X274832D01*
Y266856D01*
X279176D01*
Y273561D01*
D02*
G37*
G36*
X529599Y267056D02*
X527155D01*
Y265675D01*
X529599D01*
Y267056D01*
D02*
G37*
G36*
X373928Y266859D02*
X371559D01*
X369191D01*
Y265290D01*
X371559D01*
X373928D01*
Y266069D01*
Y266859D01*
D02*
G37*
G36*
Y264891D02*
X371559D01*
X369191D01*
Y264100D01*
Y263322D01*
X371559D01*
X373928D01*
Y264891D01*
D02*
G37*
G36*
Y262922D02*
X371559D01*
X369191D01*
Y261353D01*
X371559D01*
X373928D01*
Y262132D01*
Y262922D01*
D02*
G37*
G36*
X360356Y261577D02*
X356521D01*
X356134Y261500D01*
X355806Y261281D01*
X354275Y259750D01*
X351849D01*
Y260912D01*
X347309D01*
Y256569D01*
X351849D01*
Y257730D01*
X354694D01*
X355080Y257807D01*
X355408Y258026D01*
X356939Y259557D01*
X357816D01*
X358133Y259057D01*
X358024Y258794D01*
Y258206D01*
X358248Y257664D01*
X358033Y257172D01*
X357151D01*
Y252828D01*
X361691D01*
Y256304D01*
X362153Y256495D01*
X363430Y255219D01*
X363505Y255169D01*
Y254534D01*
X363555Y254281D01*
X363698Y254068D01*
X363911Y253925D01*
X364163Y253875D01*
X365837D01*
X366089Y253925D01*
X366302Y254068D01*
X366432Y254262D01*
X367759D01*
X367878Y254238D01*
X369191D01*
Y253480D01*
X371559D01*
X373928D01*
Y254257D01*
Y257016D01*
X371559D01*
X369191D01*
Y256258D01*
X367973D01*
X367854Y256282D01*
X366432D01*
X366302Y256476D01*
X366089Y256618D01*
X365837Y256669D01*
X364922D01*
X364664Y256841D01*
X363260Y258245D01*
Y258673D01*
X363183Y259060D01*
X362964Y259387D01*
X361070Y261281D01*
X360743Y261500D01*
X360356Y261577D01*
D02*
G37*
G36*
X373928Y260953D02*
X371559D01*
X369191D01*
Y260163D01*
Y259385D01*
X371559D01*
X373928D01*
Y260953D01*
D02*
G37*
G36*
Y258985D02*
X371559D01*
X369191D01*
Y257417D01*
X371559D01*
X373928D01*
Y258194D01*
Y258985D01*
D02*
G37*
G36*
X365000Y253140D02*
X364927Y253125D01*
X364163D01*
X363911Y253075D01*
X363698Y252932D01*
X363555Y252719D01*
X363505Y252467D01*
Y251928D01*
X365000D01*
X366495D01*
Y252467D01*
X366445Y252719D01*
X366302Y252932D01*
X366089Y253075D01*
X365837Y253125D01*
X365073D01*
X365000Y253140D01*
D02*
G37*
G36*
X373928Y253080D02*
X371559D01*
X369191D01*
Y252289D01*
Y251511D01*
X371559D01*
X373928D01*
Y253080D01*
D02*
G37*
G36*
Y251111D02*
X371559D01*
X369191D01*
Y249542D01*
X371559D01*
X373928D01*
Y250321D01*
Y251111D01*
D02*
G37*
G36*
X541947Y250266D02*
X538588D01*
Y249153D01*
X538088Y248854D01*
X537794Y248976D01*
X537206D01*
X536664Y248752D01*
X536248Y248336D01*
X536024Y247794D01*
Y247206D01*
X536248Y246664D01*
X536664Y246248D01*
X537206Y246024D01*
X537794D01*
X538088Y246146D01*
X538588Y245847D01*
Y245332D01*
X539459D01*
Y233928D01*
X538588D01*
Y228994D01*
X541947D01*
Y233928D01*
X541077D01*
Y245332D01*
X541947D01*
Y250266D01*
D02*
G37*
G36*
X550412D02*
X548932D01*
Y247999D01*
X550412D01*
Y250266D01*
D02*
G37*
G36*
X548532D02*
X547053D01*
Y247999D01*
X548532D01*
Y250266D01*
D02*
G37*
G36*
X366495Y251528D02*
X365000D01*
X363505D01*
Y250990D01*
X363555Y250738D01*
X363589Y250688D01*
Y249000D01*
X363696Y248460D01*
X364002Y248002D01*
X364460Y247696D01*
X365000Y247589D01*
X365540Y247696D01*
X365998Y248002D01*
X366304Y248460D01*
X366411Y249000D01*
Y250688D01*
X366445Y250738D01*
X366495Y250990D01*
Y251528D01*
D02*
G37*
G36*
X373928Y249143D02*
X371559D01*
X369191D01*
Y248352D01*
Y247574D01*
X371559D01*
X373928D01*
Y249143D01*
D02*
G37*
G36*
Y247174D02*
X371559D01*
X369191D01*
Y245605D01*
X371559D01*
X373928D01*
Y246384D01*
Y247174D01*
D02*
G37*
G36*
X550412Y247599D02*
X548732D01*
X547053D01*
Y245332D01*
X547321D01*
Y233928D01*
X547053D01*
Y231661D01*
X548732D01*
X550412D01*
Y233928D01*
X550144D01*
Y245332D01*
X550412D01*
Y247599D01*
D02*
G37*
G36*
Y231261D02*
X548932D01*
Y228994D01*
X550412D01*
Y231261D01*
D02*
G37*
G36*
X548532D02*
X547053D01*
Y228994D01*
X548532D01*
Y231261D01*
D02*
G37*
G36*
X376853Y207353D02*
X373700D01*
Y204200D01*
X376853D01*
Y207353D01*
D02*
G37*
G36*
X373300D02*
X370147D01*
Y204200D01*
X373300D01*
Y207353D01*
D02*
G37*
G36*
X453941D02*
X453059D01*
X452206Y207124D01*
X451441Y206683D01*
X450817Y206059D01*
X450376Y205294D01*
X450147Y204441D01*
Y203559D01*
X450376Y202706D01*
X450817Y201941D01*
X451441Y201317D01*
X452206Y200876D01*
X453059Y200647D01*
X453941D01*
X454794Y200876D01*
X455559Y201317D01*
X456183Y201941D01*
X456624Y202706D01*
X456853Y203559D01*
Y204441D01*
X456624Y205294D01*
X456183Y206059D01*
X455559Y206683D01*
X454794Y207124D01*
X453941Y207353D01*
D02*
G37*
G36*
X443941D02*
X443059D01*
X442206Y207124D01*
X441441Y206683D01*
X440817Y206059D01*
X440376Y205294D01*
X440147Y204441D01*
Y203559D01*
X440376Y202706D01*
X440817Y201941D01*
X441441Y201317D01*
X442206Y200876D01*
X443059Y200647D01*
X443941D01*
X444794Y200876D01*
X445559Y201317D01*
X446183Y201941D01*
X446624Y202706D01*
X446853Y203559D01*
Y204441D01*
X446624Y205294D01*
X446183Y206059D01*
X445559Y206683D01*
X444794Y207124D01*
X443941Y207353D01*
D02*
G37*
G36*
X433941D02*
X433059D01*
X432206Y207124D01*
X431441Y206683D01*
X430817Y206059D01*
X430376Y205294D01*
X430147Y204441D01*
Y203559D01*
X430376Y202706D01*
X430817Y201941D01*
X431441Y201317D01*
X432206Y200876D01*
X433059Y200647D01*
X433941D01*
X434794Y200876D01*
X435559Y201317D01*
X436183Y201941D01*
X436624Y202706D01*
X436853Y203559D01*
Y204441D01*
X436624Y205294D01*
X436183Y206059D01*
X435559Y206683D01*
X434794Y207124D01*
X433941Y207353D01*
D02*
G37*
G36*
X423941D02*
X423059D01*
X422206Y207124D01*
X421441Y206683D01*
X420817Y206059D01*
X420376Y205294D01*
X420147Y204441D01*
Y203559D01*
X420376Y202706D01*
X420817Y201941D01*
X421441Y201317D01*
X422206Y200876D01*
X423059Y200647D01*
X423941D01*
X424794Y200876D01*
X425559Y201317D01*
X426183Y201941D01*
X426624Y202706D01*
X426853Y203559D01*
Y204441D01*
X426624Y205294D01*
X426183Y206059D01*
X425559Y206683D01*
X424794Y207124D01*
X423941Y207353D01*
D02*
G37*
G36*
X413941D02*
X413059D01*
X412206Y207124D01*
X411441Y206683D01*
X410817Y206059D01*
X410376Y205294D01*
X410147Y204441D01*
Y203559D01*
X410376Y202706D01*
X410817Y201941D01*
X411441Y201317D01*
X412206Y200876D01*
X413059Y200647D01*
X413941D01*
X414794Y200876D01*
X415559Y201317D01*
X416183Y201941D01*
X416624Y202706D01*
X416853Y203559D01*
Y204441D01*
X416624Y205294D01*
X416183Y206059D01*
X415559Y206683D01*
X414794Y207124D01*
X413941Y207353D01*
D02*
G37*
G36*
X403941D02*
X403059D01*
X402206Y207124D01*
X401441Y206683D01*
X400817Y206059D01*
X400376Y205294D01*
X400147Y204441D01*
Y203559D01*
X400376Y202706D01*
X400817Y201941D01*
X401441Y201317D01*
X402206Y200876D01*
X403059Y200647D01*
X403941D01*
X404794Y200876D01*
X405559Y201317D01*
X406183Y201941D01*
X406624Y202706D01*
X406853Y203559D01*
Y204441D01*
X406624Y205294D01*
X406183Y206059D01*
X405559Y206683D01*
X404794Y207124D01*
X403941Y207353D01*
D02*
G37*
G36*
X393941D02*
X393059D01*
X392206Y207124D01*
X391441Y206683D01*
X390817Y206059D01*
X390376Y205294D01*
X390147Y204441D01*
Y203559D01*
X390376Y202706D01*
X390817Y201941D01*
X391441Y201317D01*
X392206Y200876D01*
X393059Y200647D01*
X393941D01*
X394794Y200876D01*
X395559Y201317D01*
X396183Y201941D01*
X396624Y202706D01*
X396853Y203559D01*
Y204441D01*
X396624Y205294D01*
X396183Y206059D01*
X395559Y206683D01*
X394794Y207124D01*
X393941Y207353D01*
D02*
G37*
G36*
X383941D02*
X383059D01*
X382206Y207124D01*
X381441Y206683D01*
X380817Y206059D01*
X380376Y205294D01*
X380147Y204441D01*
Y203559D01*
X380376Y202706D01*
X380817Y201941D01*
X381441Y201317D01*
X382206Y200876D01*
X383059Y200647D01*
X383941D01*
X384794Y200876D01*
X385559Y201317D01*
X386183Y201941D01*
X386624Y202706D01*
X386853Y203559D01*
Y204441D01*
X386624Y205294D01*
X386183Y206059D01*
X385559Y206683D01*
X384794Y207124D01*
X383941Y207353D01*
D02*
G37*
G36*
X376853Y203800D02*
X373700D01*
Y200647D01*
X376853D01*
Y203800D01*
D02*
G37*
G36*
X373300D02*
X370147D01*
Y200647D01*
X373300D01*
Y203800D01*
D02*
G37*
%LPD*%
G36*
X550169Y298650D02*
X550260Y298646D01*
X550350Y298630D01*
X550445Y298614D01*
X550531Y298594D01*
X550622Y298567D01*
X550709Y298535D01*
X550795Y298500D01*
X550878Y298461D01*
X550961Y298417D01*
X551039Y298366D01*
X551118Y298315D01*
X551189Y298260D01*
X551260Y298197D01*
X551327Y298134D01*
X551390Y298067D01*
X551453Y297996D01*
X551508Y297925D01*
X551559Y297847D01*
X551610Y297768D01*
X551653Y297685D01*
X551693Y297602D01*
X551728Y297516D01*
X551760Y297429D01*
X551787Y297339D01*
X551807Y297252D01*
X551823Y297158D01*
X551839Y297067D01*
X551842Y296976D01*
X551847Y296882D01*
X551842Y296787D01*
X551839Y296697D01*
X551823Y296606D01*
X551807Y296512D01*
X551787Y296425D01*
X551760Y296335D01*
X551728Y296248D01*
X551693Y296161D01*
X551653Y296079D01*
X551610Y295996D01*
X551559Y295917D01*
X551508Y295839D01*
X551453Y295768D01*
X551390Y295697D01*
X551327Y295630D01*
X551260Y295567D01*
X551189Y295504D01*
X551118Y295449D01*
X551039Y295398D01*
X550961Y295346D01*
X550878Y295303D01*
X550795Y295264D01*
X550709Y295228D01*
X550622Y295197D01*
X550531Y295169D01*
X550445Y295150D01*
X550350Y295134D01*
X550260Y295118D01*
X550169Y295114D01*
X550075Y295110D01*
X546925D01*
X546831Y295114D01*
X546740Y295118D01*
X546650Y295134D01*
X546555Y295150D01*
X546468Y295169D01*
X546378Y295197D01*
X546291Y295228D01*
X546205Y295264D01*
X546122Y295303D01*
X546039Y295346D01*
X545961Y295398D01*
X545882Y295449D01*
X545811Y295504D01*
X545740Y295567D01*
X545673Y295630D01*
X545610Y295697D01*
X545547Y295768D01*
X545492Y295839D01*
X545441Y295917D01*
X545390Y295996D01*
X545346Y296079D01*
X545307Y296161D01*
X545272Y296248D01*
X545240Y296335D01*
X545213Y296425D01*
X545193Y296512D01*
X545177Y296606D01*
X545161Y296697D01*
X545157Y296787D01*
X545154Y296882D01*
X545157Y296976D01*
X545161Y297067D01*
X545177Y297158D01*
X545193Y297252D01*
X545213Y297339D01*
X545240Y297429D01*
X545272Y297516D01*
X545307Y297602D01*
X545346Y297685D01*
X545390Y297768D01*
X545441Y297847D01*
X545492Y297925D01*
X545547Y297996D01*
X545610Y298067D01*
X545673Y298134D01*
X545740Y298197D01*
X545811Y298260D01*
X545882Y298315D01*
X545961Y298366D01*
X546039Y298417D01*
X546122Y298461D01*
X546205Y298500D01*
X546291Y298535D01*
X546378Y298567D01*
X546468Y298594D01*
X546555Y298614D01*
X546650Y298630D01*
X546740Y298646D01*
X546831Y298650D01*
X546925Y298654D01*
X550075D01*
X550169Y298650D01*
D02*
G37*
G36*
X534342D02*
X534433Y298646D01*
X534524Y298630D01*
X534618Y298614D01*
X534705Y298594D01*
X534795Y298567D01*
X534882Y298535D01*
X534969Y298500D01*
X535051Y298461D01*
X535134Y298417D01*
X535213Y298366D01*
X535291Y298315D01*
X535362Y298260D01*
X535433Y298197D01*
X535500Y298134D01*
X535563Y298067D01*
X535626Y297996D01*
X535681Y297925D01*
X535732Y297847D01*
X535783Y297768D01*
X535827Y297685D01*
X535866Y297602D01*
X535902Y297516D01*
X535933Y297429D01*
X535961Y297339D01*
X535980Y297252D01*
X535996Y297158D01*
X536012Y297067D01*
X536016Y296976D01*
X536020Y296882D01*
X536016Y296787D01*
X536012Y296697D01*
X535996Y296606D01*
X535980Y296512D01*
X535961Y296425D01*
X535933Y296335D01*
X535902Y296248D01*
X535866Y296161D01*
X535827Y296079D01*
X535783Y295996D01*
X535732Y295917D01*
X535681Y295839D01*
X535626Y295768D01*
X535563Y295697D01*
X535500Y295630D01*
X535433Y295567D01*
X535362Y295504D01*
X535291Y295449D01*
X535213Y295398D01*
X535134Y295346D01*
X535051Y295303D01*
X534969Y295264D01*
X534882Y295228D01*
X534795Y295197D01*
X534705Y295169D01*
X534618Y295150D01*
X534524Y295134D01*
X534433Y295118D01*
X534342Y295114D01*
X534248Y295110D01*
X529917D01*
X529823Y295114D01*
X529732Y295118D01*
X529642Y295134D01*
X529547Y295150D01*
X529461Y295169D01*
X529370Y295197D01*
X529284Y295228D01*
X529197Y295264D01*
X529114Y295303D01*
X529032Y295346D01*
X528953Y295398D01*
X528874Y295449D01*
X528803Y295504D01*
X528732Y295567D01*
X528665Y295630D01*
X528602Y295697D01*
X528539Y295768D01*
X528484Y295839D01*
X528433Y295917D01*
X528382Y295996D01*
X528339Y296079D01*
X528299Y296161D01*
X528264Y296248D01*
X528232Y296335D01*
X528205Y296425D01*
X528185Y296512D01*
X528169Y296606D01*
X528154Y296697D01*
X528150Y296787D01*
X528146Y296882D01*
X528150Y296976D01*
X528154Y297067D01*
X528169Y297158D01*
X528185Y297252D01*
X528205Y297339D01*
X528232Y297429D01*
X528264Y297516D01*
X528299Y297602D01*
X528339Y297685D01*
X528382Y297768D01*
X528433Y297847D01*
X528484Y297925D01*
X528539Y297996D01*
X528602Y298067D01*
X528665Y298134D01*
X528732Y298197D01*
X528803Y298260D01*
X528874Y298315D01*
X528953Y298366D01*
X529032Y298417D01*
X529114Y298461D01*
X529197Y298500D01*
X529284Y298535D01*
X529370Y298567D01*
X529461Y298594D01*
X529547Y298614D01*
X529642Y298630D01*
X529732Y298646D01*
X529823Y298650D01*
X529917Y298654D01*
X534248D01*
X534342Y298650D01*
D02*
G37*
G36*
X550169Y264595D02*
X550260Y264591D01*
X550350Y264575D01*
X550445Y264559D01*
X550531Y264539D01*
X550622Y264512D01*
X550709Y264480D01*
X550795Y264445D01*
X550878Y264405D01*
X550961Y264362D01*
X551039Y264311D01*
X551118Y264260D01*
X551189Y264205D01*
X551260Y264142D01*
X551327Y264079D01*
X551390Y264012D01*
X551453Y263941D01*
X551508Y263870D01*
X551559Y263791D01*
X551610Y263713D01*
X551653Y263630D01*
X551693Y263547D01*
X551728Y263461D01*
X551760Y263374D01*
X551787Y263283D01*
X551807Y263197D01*
X551823Y263102D01*
X551839Y263012D01*
X551842Y262921D01*
X551847Y262827D01*
X551842Y262732D01*
X551839Y262642D01*
X551823Y262551D01*
X551807Y262457D01*
X551787Y262370D01*
X551760Y262280D01*
X551728Y262193D01*
X551693Y262106D01*
X551653Y262024D01*
X551610Y261941D01*
X551559Y261862D01*
X551508Y261784D01*
X551453Y261713D01*
X551390Y261642D01*
X551327Y261575D01*
X551260Y261512D01*
X551189Y261449D01*
X551118Y261394D01*
X551039Y261343D01*
X550961Y261291D01*
X550878Y261248D01*
X550795Y261209D01*
X550709Y261173D01*
X550622Y261142D01*
X550531Y261114D01*
X550445Y261094D01*
X550350Y261079D01*
X550260Y261063D01*
X550169Y261059D01*
X550075Y261055D01*
X546925D01*
X546831Y261059D01*
X546740Y261063D01*
X546650Y261079D01*
X546555Y261094D01*
X546468Y261114D01*
X546378Y261142D01*
X546291Y261173D01*
X546205Y261209D01*
X546122Y261248D01*
X546039Y261291D01*
X545961Y261343D01*
X545882Y261394D01*
X545811Y261449D01*
X545740Y261512D01*
X545673Y261575D01*
X545610Y261642D01*
X545547Y261713D01*
X545492Y261784D01*
X545441Y261862D01*
X545390Y261941D01*
X545346Y262024D01*
X545307Y262106D01*
X545272Y262193D01*
X545240Y262280D01*
X545213Y262370D01*
X545193Y262457D01*
X545177Y262551D01*
X545161Y262642D01*
X545157Y262732D01*
X545154Y262827D01*
X545157Y262921D01*
X545161Y263012D01*
X545177Y263102D01*
X545193Y263197D01*
X545213Y263283D01*
X545240Y263374D01*
X545272Y263461D01*
X545307Y263547D01*
X545346Y263630D01*
X545390Y263713D01*
X545441Y263791D01*
X545492Y263870D01*
X545547Y263941D01*
X545610Y264012D01*
X545673Y264079D01*
X545740Y264142D01*
X545811Y264205D01*
X545882Y264260D01*
X545961Y264311D01*
X546039Y264362D01*
X546122Y264405D01*
X546205Y264445D01*
X546291Y264480D01*
X546378Y264512D01*
X546468Y264539D01*
X546555Y264559D01*
X546650Y264575D01*
X546740Y264591D01*
X546831Y264595D01*
X546925Y264598D01*
X550075D01*
X550169Y264595D01*
D02*
G37*
G36*
X534342D02*
X534433Y264591D01*
X534524Y264575D01*
X534618Y264559D01*
X534705Y264539D01*
X534795Y264512D01*
X534882Y264480D01*
X534969Y264445D01*
X535051Y264405D01*
X535134Y264362D01*
X535213Y264311D01*
X535291Y264260D01*
X535362Y264205D01*
X535433Y264142D01*
X535500Y264079D01*
X535563Y264012D01*
X535626Y263941D01*
X535681Y263870D01*
X535732Y263791D01*
X535783Y263713D01*
X535827Y263630D01*
X535866Y263547D01*
X535902Y263461D01*
X535933Y263374D01*
X535961Y263283D01*
X535980Y263197D01*
X535996Y263102D01*
X536012Y263012D01*
X536016Y262921D01*
X536020Y262827D01*
X536016Y262732D01*
X536012Y262642D01*
X535996Y262551D01*
X535980Y262457D01*
X535961Y262370D01*
X535933Y262280D01*
X535902Y262193D01*
X535866Y262106D01*
X535827Y262024D01*
X535783Y261941D01*
X535732Y261862D01*
X535681Y261784D01*
X535626Y261713D01*
X535563Y261642D01*
X535500Y261575D01*
X535433Y261512D01*
X535362Y261449D01*
X535291Y261394D01*
X535213Y261343D01*
X535134Y261291D01*
X535051Y261248D01*
X534969Y261209D01*
X534882Y261173D01*
X534795Y261142D01*
X534705Y261114D01*
X534618Y261094D01*
X534524Y261079D01*
X534433Y261063D01*
X534342Y261059D01*
X534248Y261055D01*
X529917D01*
X529823Y261059D01*
X529732Y261063D01*
X529642Y261079D01*
X529547Y261094D01*
X529461Y261114D01*
X529370Y261142D01*
X529284Y261173D01*
X529197Y261209D01*
X529114Y261248D01*
X529032Y261291D01*
X528953Y261343D01*
X528874Y261394D01*
X528803Y261449D01*
X528732Y261512D01*
X528665Y261575D01*
X528602Y261642D01*
X528539Y261713D01*
X528484Y261784D01*
X528433Y261862D01*
X528382Y261941D01*
X528339Y262024D01*
X528299Y262106D01*
X528264Y262193D01*
X528232Y262280D01*
X528205Y262370D01*
X528185Y262457D01*
X528169Y262551D01*
X528154Y262642D01*
X528150Y262732D01*
X528146Y262827D01*
X528150Y262921D01*
X528154Y263012D01*
X528169Y263102D01*
X528185Y263197D01*
X528205Y263283D01*
X528232Y263374D01*
X528264Y263461D01*
X528299Y263547D01*
X528339Y263630D01*
X528382Y263713D01*
X528433Y263791D01*
X528484Y263870D01*
X528539Y263941D01*
X528602Y264012D01*
X528665Y264079D01*
X528732Y264142D01*
X528803Y264205D01*
X528874Y264260D01*
X528953Y264311D01*
X529032Y264362D01*
X529114Y264405D01*
X529197Y264445D01*
X529284Y264480D01*
X529370Y264512D01*
X529461Y264539D01*
X529547Y264559D01*
X529642Y264575D01*
X529732Y264591D01*
X529823Y264595D01*
X529917Y264598D01*
X534248D01*
X534342Y264595D01*
D02*
G37*
D11*
X341500Y251500D02*
Y253870D01*
Y251500D02*
X352916Y240084D01*
X341500Y253870D02*
X344402Y256772D01*
X352916Y240084D02*
X382137D01*
X344402Y256772D02*
X344500D01*
X382137Y240084D02*
X387221Y235000D01*
X447000D01*
X345971Y251817D02*
X346528Y251260D01*
X344598Y253228D02*
X345971Y251856D01*
Y251817D02*
Y251856D01*
X346528Y251260D02*
X349579D01*
X344500Y253228D02*
X344598D01*
X342459Y274959D02*
X344500Y272918D01*
Y256772D02*
Y272918D01*
X343645Y308500D02*
X371645Y336500D01*
X379000D02*
X399000Y356500D01*
X371645Y336500D02*
X379000D01*
X330500Y308500D02*
X343645D01*
X371500Y333000D02*
X533807D01*
X341250Y302750D02*
X371500Y333000D01*
X327750Y302750D02*
X341250D01*
X324091Y304591D02*
X328000Y308500D01*
X324091Y304220D02*
Y304591D01*
X305500Y300500D02*
X320371D01*
X324091Y304220D01*
X324000Y299000D02*
X327750Y302750D01*
X327650Y283976D02*
X335350D01*
X369417Y318043D01*
X371362D01*
X371559Y318240D01*
X302194Y297194D02*
X305500Y300500D01*
X312355Y299000D02*
X324000D01*
X310743Y297387D02*
X312355Y299000D01*
X306130Y294775D02*
X308743Y297387D01*
X310743D01*
X310130Y294130D02*
X312500Y296500D01*
X296509Y297194D02*
X302194D01*
X289996Y290681D02*
X296509Y297194D01*
X289996Y289500D02*
Y290681D01*
X306130Y292553D02*
Y294775D01*
Y292553D02*
X307500Y291183D01*
X312500Y293000D02*
X312540Y292960D01*
X310130Y277370D02*
Y294130D01*
Y277370D02*
X318000Y269500D01*
X316797Y294830D02*
X327650Y283976D01*
X314282Y291000D02*
X317179D01*
X314370Y294830D02*
X316797D01*
X312540Y292960D02*
X316988D01*
X290287Y270500D02*
X294000D01*
X289996Y270209D02*
X290287Y270500D01*
X318000Y269500D02*
X340500D01*
X360582Y302492D02*
X371559D01*
X337317Y279227D02*
X360582Y302492D01*
X533807Y333000D02*
X538594Y328213D01*
X307500Y291000D02*
Y291183D01*
X539382Y328213D02*
X540268Y327327D01*
X538594Y328213D02*
X539382D01*
X540268Y326539D02*
Y327327D01*
X312110Y285390D02*
X317431D01*
X312330Y289670D02*
X312596D01*
X312000Y285500D02*
X312110Y285390D01*
X312000Y281500D02*
X317821D01*
X540268Y310201D02*
Y326539D01*
Y231461D02*
Y247799D01*
X539968Y247500D02*
X540268Y247799D01*
X537500Y247500D02*
X539968D01*
X312596Y289670D02*
X313136Y289130D01*
X368549Y312138D02*
X371362D01*
X368838Y314106D02*
X371362D01*
X327158Y282789D02*
X335841D01*
X326086Y280414D02*
X336825D01*
X369127Y316075D02*
X371362D01*
X336333Y281602D02*
X368838Y314106D01*
X326578Y281602D02*
X336333D01*
X335841Y282789D02*
X369127Y316075D01*
X336825Y280414D02*
X368549Y312138D01*
X371362D02*
X371559Y312335D01*
X371362Y314106D02*
X371559Y314303D01*
X371362Y316075D02*
X371559Y316272D01*
X314000Y279500D02*
X318000D01*
X323023Y274477D02*
X339284D01*
X318000Y279500D02*
X323023Y274477D01*
X314000Y283500D02*
X317500D01*
X324148Y276852D01*
X324781Y278039D02*
X337809D01*
X323656Y275665D02*
X338792D01*
X325273Y279227D02*
X337317D01*
X324148Y276852D02*
X338301D01*
X317821Y281500D02*
X323656Y275665D01*
X314000Y287260D02*
X317240D01*
X317431Y285390D02*
X324781Y278039D01*
X317240Y287260D02*
X325273Y279227D01*
X339284Y274477D02*
X355488Y290681D01*
X371559D01*
X360293Y300524D02*
X371559D01*
X360004Y298555D02*
X371559D01*
X338792Y275665D02*
X357746Y294618D01*
X338301Y276852D02*
X360004Y298555D01*
X337809Y278039D02*
X360293Y300524D01*
X357746Y294618D02*
X371559D01*
X316988Y292960D02*
X327158Y282789D01*
X317370Y289130D02*
X326086Y280414D01*
X317179Y291000D02*
X326578Y281602D01*
X313136Y289130D02*
X317370D01*
D16*
X493728Y283500D02*
D03*
X497272D02*
D03*
D17*
X344500Y256772D02*
D03*
Y253228D02*
D03*
X365000Y255272D02*
D03*
X524500Y272772D02*
D03*
Y269228D02*
D03*
X524000Y287272D02*
D03*
Y283728D02*
D03*
X365000Y251728D02*
D03*
D33*
X508500Y279500D02*
D03*
D39*
X359421Y255000D02*
X359500Y255079D01*
Y258500D01*
X349579Y258740D02*
X354694D01*
X356521Y260567D01*
X360356D01*
X362250Y258673D01*
Y257827D02*
Y258673D01*
Y257827D02*
X364144Y255933D01*
X364240D01*
X364902Y255272D01*
X365000D01*
X367854D01*
X367878Y255248D02*
X371559D01*
X367854Y255272D02*
X367878Y255248D01*
X283154Y303153D02*
X296847D01*
X297000Y303000D01*
X283000Y303307D02*
X283154Y303153D01*
X399000Y305000D02*
X447000D01*
X371559Y314303D02*
X389697D01*
X399000Y305000D01*
X369568Y310366D02*
X371559D01*
X368262Y309060D02*
X369568Y310366D01*
X368116Y309060D02*
X368262D01*
X368429Y306429D02*
X371559D01*
X367000Y305000D02*
X368429Y306429D01*
X414000Y265000D02*
X447000D01*
X371559Y298555D02*
X380445D01*
X414000Y265000D01*
X410500Y275000D02*
X447000D01*
X384976Y300524D02*
X410500Y275000D01*
X371559Y300524D02*
X384976D01*
X371559Y294618D02*
X377382D01*
X417000Y255000D02*
X447000D01*
X377382Y294618D02*
X417000Y255000D01*
X374819Y290681D02*
X420500Y245000D01*
X371559Y290681D02*
X374819D01*
X420500Y245000D02*
X447000D01*
X389008Y302492D02*
X406500Y285000D01*
X447000D01*
X371559Y302492D02*
X389008D01*
X403500Y295000D02*
X447000D01*
X386165Y312335D02*
X403500Y295000D01*
X368000Y242500D02*
X368160D01*
X369032Y241469D02*
X371559D01*
X368000Y242500D02*
X369032Y241469D01*
X369097Y243437D02*
X371559D01*
X368160Y242500D02*
X369097Y243437D01*
X371559Y306429D02*
Y308398D01*
Y312335D02*
X386165D01*
X529799Y289303D02*
X530390Y288713D01*
X532066D01*
X534615Y286164D01*
Y273545D02*
Y286164D01*
X524000Y283728D02*
X526218D01*
X527265Y284776D01*
X529799D01*
X524000Y281000D02*
X524113Y280887D01*
X526516D02*
X526565Y280839D01*
X524113Y280887D02*
X526516D01*
X526565Y280839D02*
Y281839D01*
Y279838D02*
Y280839D01*
X521500Y277000D02*
X521598Y276902D01*
X529799D01*
X532066Y270996D02*
X534615Y273545D01*
X529799Y270406D02*
X530390Y270996D01*
X532066D01*
X532066Y280839D02*
X533034Y279871D01*
Y277869D02*
Y279871D01*
X529799Y280839D02*
X532066D01*
X529799Y276902D02*
X532066D01*
X533034Y277869D01*
X527532Y282807D02*
X529799D01*
X526565Y281839D02*
X527532Y282807D01*
X526565Y279838D02*
X527532Y278870D01*
X529799D01*
X444450Y316272D02*
X445722Y315000D01*
X371559Y316272D02*
X444450D01*
X445722Y315000D02*
X447000D01*
X371559Y318240D02*
X382740D01*
X389500Y325000D02*
X447000D01*
X382740Y318240D02*
X389500Y325000D01*
X524693Y272965D02*
X529799D01*
X524500Y272772D02*
X524693Y272965D01*
D40*
X502000Y279000D02*
Y281000D01*
Y283384D01*
X365000Y249000D02*
Y251728D01*
X532083Y296882D02*
X548500D01*
X532083Y262827D02*
X548500D01*
X548732Y231461D02*
Y247799D01*
Y310201D02*
Y326539D01*
X502000Y281000D02*
X503500D01*
X500500D02*
X502000D01*
X500500Y279000D02*
Y281000D01*
X503500Y279000D02*
Y281000D01*
X502000Y279000D02*
X503500D01*
X500500D02*
X502000D01*
X502211Y283594D02*
X503711D01*
X497272Y283547D02*
X500676D01*
X502000Y283384D02*
X502211Y283594D01*
X503500Y283384D02*
X503711Y283594D01*
X504128D01*
X503500Y281000D02*
Y283384D01*
X497272Y283402D02*
Y283500D01*
X500500Y281000D02*
Y283371D01*
X500676Y283547D01*
X497272Y283500D02*
Y283547D01*
X508766Y279500D02*
X509033Y279767D01*
X513494D02*
X513581Y279854D01*
X509033Y279767D02*
X513494D01*
X508500Y279500D02*
X508766D01*
X525652Y289500D02*
X529602D01*
X515640Y289640D02*
X525512D01*
X513581Y287581D02*
X515640Y289640D01*
X529602Y289500D02*
X529799Y289303D01*
X525512Y289640D02*
X525652Y289500D01*
X513581Y283594D02*
Y287581D01*
Y276114D02*
X515661D01*
X518326Y278779D01*
Y280998D01*
X515729Y283594D02*
X518326Y280998D01*
X513581Y283594D02*
X515729D01*
X531059Y292734D02*
X531781Y293456D01*
X531059Y292650D02*
Y292734D01*
X530862Y292453D02*
X531059Y292650D01*
X529799Y292453D02*
X530862D01*
X531781Y296581D02*
X532083Y296882D01*
X531781Y293456D02*
Y296581D01*
X530862Y267256D02*
X531059Y267059D01*
X531781Y263128D02*
X532083Y262827D01*
X531781Y263128D02*
Y266253D01*
X531059Y266975D02*
X531781Y266253D01*
X531059Y266975D02*
Y267059D01*
X529799Y267256D02*
X530862D01*
D41*
X328547Y297953D02*
D03*
X334453D02*
D03*
X325594Y295000D02*
D03*
X331500D02*
D03*
X337405D02*
D03*
X328547Y292047D02*
D03*
X334453D02*
D03*
X325594Y289094D02*
D03*
X331500D02*
D03*
X337405D02*
D03*
X328547Y286142D02*
D03*
X334453D02*
D03*
D42*
X548500Y262827D02*
D03*
Y296882D02*
D03*
X532083Y262827D02*
D03*
Y296882D02*
D03*
D43*
X534012Y268476D02*
D03*
Y291232D02*
D03*
X297000Y303000D02*
D03*
X294000Y270500D02*
D03*
D44*
X447000Y325000D02*
D03*
D45*
Y315000D02*
D03*
Y295000D02*
D03*
Y285000D02*
D03*
Y275000D02*
D03*
Y265000D02*
D03*
Y255000D02*
D03*
Y245000D02*
D03*
Y235000D02*
D03*
Y305000D02*
D03*
X389000Y356500D02*
D03*
X459000D02*
D03*
X449000D02*
D03*
X439000D02*
D03*
X429000D02*
D03*
X419000D02*
D03*
X409000D02*
D03*
X399000D02*
D03*
X383500Y204000D02*
D03*
X453500D02*
D03*
X443500D02*
D03*
X433500D02*
D03*
X423500D02*
D03*
X413500D02*
D03*
X403500D02*
D03*
X393500D02*
D03*
D46*
X379000Y356500D02*
D03*
X373500Y204000D02*
D03*
D47*
X545000Y353000D02*
D03*
X283500Y206709D02*
D03*
X545000D02*
D03*
X283500Y353000D02*
D03*
D48*
X543307Y318898D02*
D03*
X549212Y283465D02*
D03*
X543307Y271654D02*
D03*
Y224409D02*
D03*
X531496Y342520D02*
D03*
Y318898D02*
D03*
X537401Y283465D02*
D03*
Y236220D02*
D03*
X531496Y224409D02*
D03*
Y200787D02*
D03*
X525590Y354331D02*
D03*
X519685Y342520D02*
D03*
Y318898D02*
D03*
X525590Y307086D02*
D03*
X519685Y295275D02*
D03*
X525590Y259842D02*
D03*
Y236220D02*
D03*
X519685Y224409D02*
D03*
X525590Y212598D02*
D03*
X519685Y200787D02*
D03*
X513779Y354331D02*
D03*
X507874Y342520D02*
D03*
Y318898D02*
D03*
X513779Y307086D02*
D03*
X507874Y295275D02*
D03*
X513779Y259842D02*
D03*
Y236220D02*
D03*
X507874Y224409D02*
D03*
X513779Y212598D02*
D03*
X507874Y200787D02*
D03*
X501968Y354331D02*
D03*
X496063Y342520D02*
D03*
Y318898D02*
D03*
X501968Y307086D02*
D03*
X496063Y295275D02*
D03*
X501968Y259842D02*
D03*
Y236220D02*
D03*
X496063Y224409D02*
D03*
X501968Y212598D02*
D03*
X496063Y200787D02*
D03*
X490157Y354331D02*
D03*
X484252Y342520D02*
D03*
Y318898D02*
D03*
X490157Y307086D02*
D03*
X484252Y295275D02*
D03*
X490157Y259842D02*
D03*
Y236220D02*
D03*
X484252Y224409D02*
D03*
X490157Y212598D02*
D03*
X484252Y200787D02*
D03*
X478346Y354331D02*
D03*
X472441Y342520D02*
D03*
Y318898D02*
D03*
X478346Y307086D02*
D03*
X472441Y295275D02*
D03*
X478346Y283465D02*
D03*
Y236220D02*
D03*
X472441Y224409D02*
D03*
X478346Y212598D02*
D03*
X472441Y200787D02*
D03*
X466535Y354331D02*
D03*
X460630Y342520D02*
D03*
Y318898D02*
D03*
X466535Y307086D02*
D03*
X460630Y295275D02*
D03*
X466535Y283465D02*
D03*
Y259842D02*
D03*
Y236220D02*
D03*
X460630Y224409D02*
D03*
X466535Y212598D02*
D03*
X460630Y200787D02*
D03*
X448819Y342520D02*
D03*
X454724Y307086D02*
D03*
Y283465D02*
D03*
Y259842D02*
D03*
X448819Y224409D02*
D03*
X454724Y212598D02*
D03*
X448819Y200787D02*
D03*
X437008Y248031D02*
D03*
Y224409D02*
D03*
X425197Y248031D02*
D03*
X431102Y212598D02*
D03*
X413386Y248031D02*
D03*
X419291Y212598D02*
D03*
X401575Y248031D02*
D03*
X389764Y342520D02*
D03*
Y248031D02*
D03*
X383858Y307086D02*
D03*
X377953Y248031D02*
D03*
X372047Y354331D02*
D03*
X366142Y342520D02*
D03*
Y318898D02*
D03*
Y200787D02*
D03*
X360236Y354331D02*
D03*
X354331Y342520D02*
D03*
X360236Y330709D02*
D03*
Y283465D02*
D03*
Y212598D02*
D03*
X354331Y200787D02*
D03*
X348425Y354331D02*
D03*
X342520Y342520D02*
D03*
Y224409D02*
D03*
X348425Y212598D02*
D03*
X342520Y200787D02*
D03*
X336614Y354331D02*
D03*
X330709Y342520D02*
D03*
X336614Y236220D02*
D03*
X330709Y224409D02*
D03*
X336614Y212598D02*
D03*
X330709Y200787D02*
D03*
X324803Y354331D02*
D03*
X318898Y342520D02*
D03*
Y248031D02*
D03*
X324803Y236220D02*
D03*
X318898Y224409D02*
D03*
X324803Y212598D02*
D03*
X318898Y200787D02*
D03*
X312992Y354331D02*
D03*
X307086Y342520D02*
D03*
X312992Y330709D02*
D03*
X307086Y271654D02*
D03*
X312992Y259842D02*
D03*
X307086Y248031D02*
D03*
X312992Y236220D02*
D03*
X307086Y224409D02*
D03*
X312992Y212598D02*
D03*
X307086Y200787D02*
D03*
X301181Y354331D02*
D03*
X295275Y342520D02*
D03*
X301181Y330709D02*
D03*
X295275Y318898D02*
D03*
X301181Y259842D02*
D03*
X295275Y248031D02*
D03*
X301181Y236220D02*
D03*
X295275Y224409D02*
D03*
X301181Y212598D02*
D03*
X295275Y200787D02*
D03*
X289370Y330709D02*
D03*
X283465Y295275D02*
D03*
X289370Y283465D02*
D03*
X283465Y271654D02*
D03*
X289370Y259842D02*
D03*
X283465Y248031D02*
D03*
X289370Y236220D02*
D03*
X283465Y224409D02*
D03*
D49*
X330500Y267500D02*
D03*
X359500Y258500D02*
D03*
X313500Y306500D02*
D03*
X328000Y308500D02*
D03*
X323000Y315000D02*
D03*
X330500Y308500D02*
D03*
X299500Y295000D02*
D03*
X298000Y287000D02*
D03*
X352323Y275823D02*
D03*
X333000Y272500D02*
D03*
X305000Y309500D02*
D03*
X312500Y296500D02*
D03*
X299500Y299064D02*
D03*
X308000Y294000D02*
D03*
X314370Y294830D02*
D03*
X314282Y291000D02*
D03*
X312500Y293000D02*
D03*
X343500Y315000D02*
D03*
X300500Y309000D02*
D03*
X298088Y291088D02*
D03*
X365000Y249000D02*
D03*
X368116Y309060D02*
D03*
X367000Y305000D02*
D03*
X343500Y311000D02*
D03*
X312000Y281500D02*
D03*
X312330Y289670D02*
D03*
X312000Y285500D02*
D03*
X307500Y291000D02*
D03*
X340500Y269500D02*
D03*
X537500Y247500D02*
D03*
X342459Y274959D02*
D03*
X334500Y311000D02*
D03*
Y315000D02*
D03*
X305000Y318500D02*
D03*
X308000Y312000D02*
D03*
X317000D02*
D03*
X353476Y286024D02*
D03*
X368000Y242500D02*
D03*
X314000Y279500D02*
D03*
Y283500D02*
D03*
Y287260D02*
D03*
X310500Y318500D02*
D03*
X314500D02*
D03*
X316500Y328000D02*
D03*
X335500D02*
D03*
X503500Y279000D02*
D03*
X500500D02*
D03*
Y281000D02*
D03*
X503500D02*
D03*
X524000D02*
D03*
X521500Y277000D02*
D03*
D51*
X371559Y255248D02*
D03*
Y241469D02*
D03*
Y243437D02*
D03*
Y245406D02*
D03*
Y247374D02*
D03*
Y249342D02*
D03*
Y251311D02*
D03*
Y253279D02*
D03*
Y257217D02*
D03*
Y259185D02*
D03*
Y261154D02*
D03*
Y263122D02*
D03*
Y265090D02*
D03*
Y267059D02*
D03*
Y269028D02*
D03*
Y270996D02*
D03*
Y272965D02*
D03*
Y274933D02*
D03*
Y276902D02*
D03*
Y278870D02*
D03*
Y280839D02*
D03*
Y282807D02*
D03*
Y284776D02*
D03*
Y286744D02*
D03*
Y288713D02*
D03*
Y290681D02*
D03*
Y292650D02*
D03*
Y294618D02*
D03*
Y296587D02*
D03*
Y298555D02*
D03*
Y300524D02*
D03*
Y302492D02*
D03*
Y304461D02*
D03*
Y306429D02*
D03*
Y308398D02*
D03*
Y310366D02*
D03*
Y312335D02*
D03*
Y314303D02*
D03*
Y316272D02*
D03*
Y318240D02*
D03*
D52*
X349579Y258740D02*
D03*
Y251260D02*
D03*
X359421Y255000D02*
D03*
D53*
X513581Y283594D02*
D03*
D54*
Y279854D02*
D03*
Y276114D02*
D03*
X504128D02*
D03*
Y283594D02*
D03*
D55*
X283000Y303307D02*
D03*
Y316693D02*
D03*
D56*
X289996Y289500D02*
D03*
X277004D02*
D03*
Y270209D02*
D03*
X289996D02*
D03*
D57*
X529799Y267256D02*
D03*
Y270406D02*
D03*
Y289303D02*
D03*
Y292453D02*
D03*
D58*
Y272965D02*
D03*
Y274933D02*
D03*
Y276902D02*
D03*
Y278870D02*
D03*
Y286744D02*
D03*
Y284776D02*
D03*
Y282807D02*
D03*
Y280839D02*
D03*
D59*
X540268Y326539D02*
D03*
Y310201D02*
D03*
X548732Y326539D02*
D03*
Y310201D02*
D03*
X540268Y247799D02*
D03*
Y231461D02*
D03*
X548732Y247799D02*
D03*
Y231461D02*
D03*
D60*
X382189Y232413D02*
D03*
Y327295D02*
D03*
M02*
