G04*
G04 #@! TF.GenerationSoftware,Altium Limited,Altium Designer,23.1.1 (15)*
G04*
G04 Layer_Color=2752767*
%FSLAX25Y25*%
%MOIN*%
G70*
G04*
G04 #@! TF.SameCoordinates,379D8D2B-01B5-4923-9211-1CC0BA53C839*
G04*
G04*
G04 #@! TF.FilePolarity,Positive*
G04*
G01*
G75*
%ADD13C,0.00500*%
%ADD71C,0.00667*%
D13*
X326547Y295953D02*
Y299953D01*
X330547D01*
Y295953D01*
X326547D01*
X332453D02*
Y299953D01*
X336453D01*
Y295953D01*
X332453D01*
X323594Y293000D02*
Y297000D01*
X327594D01*
Y293000D01*
X323594D01*
X329500D02*
Y297000D01*
X333500D01*
Y293000D01*
X329500D01*
X335405D02*
Y297000D01*
X339405D01*
Y293000D01*
X335405D01*
X326547Y290047D02*
Y294047D01*
X330547D01*
Y290047D01*
X326547D01*
X332453D02*
Y294047D01*
X336453D01*
Y290047D01*
X332453D01*
X323594Y287094D02*
Y291094D01*
X327594D01*
Y287094D01*
X323594D01*
X329500D02*
Y291094D01*
X333500D01*
Y287094D01*
X329500D01*
X335405D02*
Y291094D01*
X339405D01*
Y287094D01*
X335405D01*
X326547Y284142D02*
Y288142D01*
X330547D01*
Y284142D01*
X326547D01*
X332453D02*
Y288142D01*
X336453D01*
Y284142D01*
X332453D01*
X548500Y260827D02*
X549500Y261827D01*
X550500D01*
X549500Y262827D01*
X550500Y263827D01*
X549500D01*
X548500Y264827D01*
X547500Y263827D01*
X546500D01*
X547500Y262827D01*
X546500Y261827D01*
X547500D01*
X548500Y260827D01*
Y294882D02*
X549500Y295882D01*
X550500D01*
X549500Y296882D01*
X550500Y297882D01*
X549500D01*
X548500Y298882D01*
X547500Y297882D01*
X546500D01*
X547500Y296882D01*
X546500Y295882D01*
X547500D01*
X548500Y294882D01*
X532083Y260827D02*
X530083Y264827D01*
X534083D01*
X532083Y260827D01*
Y294882D02*
X530083Y298882D01*
X534083D01*
X532083Y294882D01*
X446000Y324000D02*
Y323000D01*
X448000D01*
Y324000D01*
X449000D01*
Y326000D01*
X448000D01*
Y327000D01*
X446000D01*
Y326000D01*
X445000D01*
Y324000D01*
X446000D01*
Y314000D02*
Y313000D01*
X448000D01*
Y314000D01*
X449000D01*
Y316000D01*
X448000D01*
Y317000D01*
X446000D01*
Y316000D01*
X445000D01*
Y314000D01*
X446000D01*
Y294000D02*
Y293000D01*
X448000D01*
Y294000D01*
X449000D01*
Y296000D01*
X448000D01*
Y297000D01*
X446000D01*
Y296000D01*
X445000D01*
Y294000D01*
X446000D01*
Y284000D02*
Y283000D01*
X448000D01*
Y284000D01*
X449000D01*
Y286000D01*
X448000D01*
Y287000D01*
X446000D01*
Y286000D01*
X445000D01*
Y284000D01*
X446000D01*
Y274000D02*
Y273000D01*
X448000D01*
Y274000D01*
X449000D01*
Y276000D01*
X448000D01*
Y277000D01*
X446000D01*
Y276000D01*
X445000D01*
Y274000D01*
X446000D01*
Y264000D02*
Y263000D01*
X448000D01*
Y264000D01*
X449000D01*
Y266000D01*
X448000D01*
Y267000D01*
X446000D01*
Y266000D01*
X445000D01*
Y264000D01*
X446000D01*
Y254000D02*
Y253000D01*
X448000D01*
Y254000D01*
X449000D01*
Y256000D01*
X448000D01*
Y257000D01*
X446000D01*
Y256000D01*
X445000D01*
Y254000D01*
X446000D01*
Y244000D02*
Y243000D01*
X448000D01*
Y244000D01*
X449000D01*
Y246000D01*
X448000D01*
Y247000D01*
X446000D01*
Y246000D01*
X445000D01*
Y244000D01*
X446000D01*
Y234000D02*
Y233000D01*
X448000D01*
Y234000D01*
X449000D01*
Y236000D01*
X448000D01*
Y237000D01*
X446000D01*
Y236000D01*
X445000D01*
Y234000D01*
X446000D01*
Y304000D02*
Y303000D01*
X448000D01*
Y304000D01*
X449000D01*
Y306000D01*
X448000D01*
Y307000D01*
X446000D01*
Y306000D01*
X445000D01*
Y304000D01*
X446000D01*
X388000Y355500D02*
Y354500D01*
X390000D01*
Y355500D01*
X391000D01*
Y357500D01*
X390000D01*
Y358500D01*
X388000D01*
Y357500D01*
X387000D01*
Y355500D01*
X388000D01*
X458000D02*
Y354500D01*
X460000D01*
Y355500D01*
X461000D01*
Y357500D01*
X460000D01*
Y358500D01*
X458000D01*
Y357500D01*
X457000D01*
Y355500D01*
X458000D01*
X448000D02*
Y354500D01*
X450000D01*
Y355500D01*
X451000D01*
Y357500D01*
X450000D01*
Y358500D01*
X448000D01*
Y357500D01*
X447000D01*
Y355500D01*
X448000D01*
X438000D02*
Y354500D01*
X440000D01*
Y355500D01*
X441000D01*
Y357500D01*
X440000D01*
Y358500D01*
X438000D01*
Y357500D01*
X437000D01*
Y355500D01*
X438000D01*
X428000D02*
Y354500D01*
X430000D01*
Y355500D01*
X431000D01*
Y357500D01*
X430000D01*
Y358500D01*
X428000D01*
Y357500D01*
X427000D01*
Y355500D01*
X428000D01*
X418000D02*
Y354500D01*
X420000D01*
Y355500D01*
X421000D01*
Y357500D01*
X420000D01*
Y358500D01*
X418000D01*
Y357500D01*
X417000D01*
Y355500D01*
X418000D01*
X408000D02*
Y354500D01*
X410000D01*
Y355500D01*
X411000D01*
Y357500D01*
X410000D01*
Y358500D01*
X408000D01*
Y357500D01*
X407000D01*
Y355500D01*
X408000D01*
X398000D02*
Y354500D01*
X400000D01*
Y355500D01*
X401000D01*
Y357500D01*
X400000D01*
Y358500D01*
X398000D01*
Y357500D01*
X397000D01*
Y355500D01*
X398000D01*
X378000D02*
Y354500D01*
X380000D01*
Y355500D01*
X381000D01*
Y357500D01*
X380000D01*
Y358500D01*
X378000D01*
Y357500D01*
X377000D01*
Y355500D01*
X378000D01*
X382500Y203000D02*
Y202000D01*
X384500D01*
Y203000D01*
X385500D01*
Y205000D01*
X384500D01*
Y206000D01*
X382500D01*
Y205000D01*
X381500D01*
Y203000D01*
X382500D01*
X452500D02*
Y202000D01*
X454500D01*
Y203000D01*
X455500D01*
Y205000D01*
X454500D01*
Y206000D01*
X452500D01*
Y205000D01*
X451500D01*
Y203000D01*
X452500D01*
X442500D02*
Y202000D01*
X444500D01*
Y203000D01*
X445500D01*
Y205000D01*
X444500D01*
Y206000D01*
X442500D01*
Y205000D01*
X441500D01*
Y203000D01*
X442500D01*
X432500D02*
Y202000D01*
X434500D01*
Y203000D01*
X435500D01*
Y205000D01*
X434500D01*
Y206000D01*
X432500D01*
Y205000D01*
X431500D01*
Y203000D01*
X432500D01*
X422500D02*
Y202000D01*
X424500D01*
Y203000D01*
X425500D01*
Y205000D01*
X424500D01*
Y206000D01*
X422500D01*
Y205000D01*
X421500D01*
Y203000D01*
X422500D01*
X412500D02*
Y202000D01*
X414500D01*
Y203000D01*
X415500D01*
Y205000D01*
X414500D01*
Y206000D01*
X412500D01*
Y205000D01*
X411500D01*
Y203000D01*
X412500D01*
X402500D02*
Y202000D01*
X404500D01*
Y203000D01*
X405500D01*
Y205000D01*
X404500D01*
Y206000D01*
X402500D01*
Y205000D01*
X401500D01*
Y203000D01*
X402500D01*
X392500D02*
Y202000D01*
X394500D01*
Y203000D01*
X395500D01*
Y205000D01*
X394500D01*
Y206000D01*
X392500D01*
Y205000D01*
X391500D01*
Y203000D01*
X392500D01*
X372500D02*
Y202000D01*
X374500D01*
Y203000D01*
X375500D01*
Y205000D01*
X374500D01*
Y206000D01*
X372500D01*
Y205000D01*
X371500D01*
Y203000D01*
X372500D01*
X543000Y351000D02*
X544000Y353000D01*
X543000Y355000D01*
X545000Y354000D01*
X547000Y355000D01*
X546000Y353000D01*
X547000Y351000D01*
X545000Y352000D01*
X543000Y351000D01*
X281500Y204709D02*
X282500Y206709D01*
X281500Y208709D01*
X283500Y207709D01*
X285500Y208709D01*
X284500Y206709D01*
X285500Y204709D01*
X283500Y205709D01*
X281500Y204709D01*
X543000D02*
X544000Y206709D01*
X543000Y208709D01*
X545000Y207709D01*
X547000Y208709D01*
X546000Y206709D01*
X547000Y204709D01*
X545000Y205709D01*
X543000Y204709D01*
X281500Y351000D02*
X282500Y353000D01*
X281500Y355000D01*
X283500Y354000D01*
X285500Y355000D01*
X284500Y353000D01*
X285500Y351000D01*
X283500Y352000D01*
X281500Y351000D01*
X541307Y316898D02*
Y320898D01*
X545307D01*
Y316898D01*
X541307D01*
X547212Y281465D02*
Y285465D01*
X551212D01*
Y281465D01*
X547212D01*
X541307Y269654D02*
Y273654D01*
X545307D01*
Y269654D01*
X541307D01*
Y222409D02*
Y226409D01*
X545307D01*
Y222409D01*
X541307D01*
X529496Y340520D02*
Y344520D01*
X533496D01*
Y340520D01*
X529496D01*
Y316898D02*
Y320898D01*
X533496D01*
Y316898D01*
X529496D01*
X535401Y281465D02*
Y285465D01*
X539401D01*
Y281465D01*
X535401D01*
Y234220D02*
Y238220D01*
X539401D01*
Y234220D01*
X535401D01*
X529496Y222409D02*
Y226409D01*
X533496D01*
Y222409D01*
X529496D01*
Y198787D02*
Y202787D01*
X533496D01*
Y198787D01*
X529496D01*
X523590Y352331D02*
Y356331D01*
X527590D01*
Y352331D01*
X523590D01*
X517685Y340520D02*
Y344520D01*
X521685D01*
Y340520D01*
X517685D01*
Y316898D02*
Y320898D01*
X521685D01*
Y316898D01*
X517685D01*
X523590Y305086D02*
Y309086D01*
X527590D01*
Y305086D01*
X523590D01*
X517685Y293275D02*
Y297275D01*
X521685D01*
Y293275D01*
X517685D01*
X523590Y257842D02*
Y261842D01*
X527590D01*
Y257842D01*
X523590D01*
Y234220D02*
Y238220D01*
X527590D01*
Y234220D01*
X523590D01*
X517685Y222409D02*
Y226409D01*
X521685D01*
Y222409D01*
X517685D01*
X523590Y210598D02*
Y214598D01*
X527590D01*
Y210598D01*
X523590D01*
X517685Y198787D02*
Y202787D01*
X521685D01*
Y198787D01*
X517685D01*
X511779Y352331D02*
Y356331D01*
X515779D01*
Y352331D01*
X511779D01*
X505874Y340520D02*
Y344520D01*
X509874D01*
Y340520D01*
X505874D01*
Y316898D02*
Y320898D01*
X509874D01*
Y316898D01*
X505874D01*
X511779Y305086D02*
Y309086D01*
X515779D01*
Y305086D01*
X511779D01*
X505874Y293275D02*
Y297275D01*
X509874D01*
Y293275D01*
X505874D01*
X511779Y257842D02*
Y261842D01*
X515779D01*
Y257842D01*
X511779D01*
Y234220D02*
Y238220D01*
X515779D01*
Y234220D01*
X511779D01*
X505874Y222409D02*
Y226409D01*
X509874D01*
Y222409D01*
X505874D01*
X511779Y210598D02*
Y214598D01*
X515779D01*
Y210598D01*
X511779D01*
X505874Y198787D02*
Y202787D01*
X509874D01*
Y198787D01*
X505874D01*
X499968Y352331D02*
Y356331D01*
X503968D01*
Y352331D01*
X499968D01*
X494063Y340520D02*
Y344520D01*
X498063D01*
Y340520D01*
X494063D01*
Y316898D02*
Y320898D01*
X498063D01*
Y316898D01*
X494063D01*
X499968Y305086D02*
Y309086D01*
X503968D01*
Y305086D01*
X499968D01*
X494063Y293275D02*
Y297275D01*
X498063D01*
Y293275D01*
X494063D01*
X499968Y257842D02*
Y261842D01*
X503968D01*
Y257842D01*
X499968D01*
Y234220D02*
Y238220D01*
X503968D01*
Y234220D01*
X499968D01*
X494063Y222409D02*
Y226409D01*
X498063D01*
Y222409D01*
X494063D01*
X499968Y210598D02*
Y214598D01*
X503968D01*
Y210598D01*
X499968D01*
X494063Y198787D02*
Y202787D01*
X498063D01*
Y198787D01*
X494063D01*
X488157Y352331D02*
Y356331D01*
X492157D01*
Y352331D01*
X488157D01*
X482252Y340520D02*
Y344520D01*
X486252D01*
Y340520D01*
X482252D01*
Y316898D02*
Y320898D01*
X486252D01*
Y316898D01*
X482252D01*
X488157Y305086D02*
Y309086D01*
X492157D01*
Y305086D01*
X488157D01*
X482252Y293275D02*
Y297275D01*
X486252D01*
Y293275D01*
X482252D01*
X488157Y257842D02*
Y261842D01*
X492157D01*
Y257842D01*
X488157D01*
Y234220D02*
Y238220D01*
X492157D01*
Y234220D01*
X488157D01*
X482252Y222409D02*
Y226409D01*
X486252D01*
Y222409D01*
X482252D01*
X488157Y210598D02*
Y214598D01*
X492157D01*
Y210598D01*
X488157D01*
X482252Y198787D02*
Y202787D01*
X486252D01*
Y198787D01*
X482252D01*
X476346Y352331D02*
Y356331D01*
X480346D01*
Y352331D01*
X476346D01*
X470441Y340520D02*
Y344520D01*
X474441D01*
Y340520D01*
X470441D01*
Y316898D02*
Y320898D01*
X474441D01*
Y316898D01*
X470441D01*
X476346Y305086D02*
Y309086D01*
X480346D01*
Y305086D01*
X476346D01*
X470441Y293275D02*
Y297275D01*
X474441D01*
Y293275D01*
X470441D01*
X476346Y281465D02*
Y285465D01*
X480346D01*
Y281465D01*
X476346D01*
Y234220D02*
Y238220D01*
X480346D01*
Y234220D01*
X476346D01*
X470441Y222409D02*
Y226409D01*
X474441D01*
Y222409D01*
X470441D01*
X476346Y210598D02*
Y214598D01*
X480346D01*
Y210598D01*
X476346D01*
X470441Y198787D02*
Y202787D01*
X474441D01*
Y198787D01*
X470441D01*
X464535Y352331D02*
Y356331D01*
X468535D01*
Y352331D01*
X464535D01*
X458630Y340520D02*
Y344520D01*
X462630D01*
Y340520D01*
X458630D01*
Y316898D02*
Y320898D01*
X462630D01*
Y316898D01*
X458630D01*
X464535Y305086D02*
Y309086D01*
X468535D01*
Y305086D01*
X464535D01*
X458630Y293275D02*
Y297275D01*
X462630D01*
Y293275D01*
X458630D01*
X464535Y281465D02*
Y285465D01*
X468535D01*
Y281465D01*
X464535D01*
Y257842D02*
Y261842D01*
X468535D01*
Y257842D01*
X464535D01*
Y234220D02*
Y238220D01*
X468535D01*
Y234220D01*
X464535D01*
X458630Y222409D02*
Y226409D01*
X462630D01*
Y222409D01*
X458630D01*
X464535Y210598D02*
Y214598D01*
X468535D01*
Y210598D01*
X464535D01*
X458630Y198787D02*
Y202787D01*
X462630D01*
Y198787D01*
X458630D01*
X446819Y340520D02*
Y344520D01*
X450819D01*
Y340520D01*
X446819D01*
X452724Y305086D02*
Y309086D01*
X456724D01*
Y305086D01*
X452724D01*
Y281465D02*
Y285465D01*
X456724D01*
Y281465D01*
X452724D01*
Y257842D02*
Y261842D01*
X456724D01*
Y257842D01*
X452724D01*
X446819Y222409D02*
Y226409D01*
X450819D01*
Y222409D01*
X446819D01*
X452724Y210598D02*
Y214598D01*
X456724D01*
Y210598D01*
X452724D01*
X446819Y198787D02*
Y202787D01*
X450819D01*
Y198787D01*
X446819D01*
X435008Y246031D02*
Y250031D01*
X439008D01*
Y246031D01*
X435008D01*
Y222409D02*
Y226409D01*
X439008D01*
Y222409D01*
X435008D01*
X423197Y246031D02*
Y250031D01*
X427197D01*
Y246031D01*
X423197D01*
X429102Y210598D02*
Y214598D01*
X433102D01*
Y210598D01*
X429102D01*
X411386Y246031D02*
Y250031D01*
X415386D01*
Y246031D01*
X411386D01*
X417291Y210598D02*
Y214598D01*
X421291D01*
Y210598D01*
X417291D01*
X399575Y246031D02*
Y250031D01*
X403575D01*
Y246031D01*
X399575D01*
X387764Y340520D02*
Y344520D01*
X391764D01*
Y340520D01*
X387764D01*
Y246031D02*
Y250031D01*
X391764D01*
Y246031D01*
X387764D01*
X381858Y305086D02*
Y309086D01*
X385858D01*
Y305086D01*
X381858D01*
X375953Y246031D02*
Y250031D01*
X379953D01*
Y246031D01*
X375953D01*
X370047Y352331D02*
Y356331D01*
X374047D01*
Y352331D01*
X370047D01*
X364142Y340520D02*
Y344520D01*
X368142D01*
Y340520D01*
X364142D01*
Y316898D02*
Y320898D01*
X368142D01*
Y316898D01*
X364142D01*
Y198787D02*
Y202787D01*
X368142D01*
Y198787D01*
X364142D01*
X358236Y352331D02*
Y356331D01*
X362236D01*
Y352331D01*
X358236D01*
X352331Y340520D02*
Y344520D01*
X356331D01*
Y340520D01*
X352331D01*
X358236Y328709D02*
Y332709D01*
X362236D01*
Y328709D01*
X358236D01*
Y281465D02*
Y285465D01*
X362236D01*
Y281465D01*
X358236D01*
Y210598D02*
Y214598D01*
X362236D01*
Y210598D01*
X358236D01*
X352331Y198787D02*
Y202787D01*
X356331D01*
Y198787D01*
X352331D01*
X346425Y352331D02*
Y356331D01*
X350425D01*
Y352331D01*
X346425D01*
X340520Y340520D02*
Y344520D01*
X344520D01*
Y340520D01*
X340520D01*
Y222409D02*
Y226409D01*
X344520D01*
Y222409D01*
X340520D01*
X346425Y210598D02*
Y214598D01*
X350425D01*
Y210598D01*
X346425D01*
X340520Y198787D02*
Y202787D01*
X344520D01*
Y198787D01*
X340520D01*
X334614Y352331D02*
Y356331D01*
X338614D01*
Y352331D01*
X334614D01*
X328709Y340520D02*
Y344520D01*
X332709D01*
Y340520D01*
X328709D01*
X334614Y234220D02*
Y238220D01*
X338614D01*
Y234220D01*
X334614D01*
X328709Y222409D02*
Y226409D01*
X332709D01*
Y222409D01*
X328709D01*
X334614Y210598D02*
Y214598D01*
X338614D01*
Y210598D01*
X334614D01*
X328709Y198787D02*
Y202787D01*
X332709D01*
Y198787D01*
X328709D01*
X322803Y352331D02*
Y356331D01*
X326803D01*
Y352331D01*
X322803D01*
X316898Y340520D02*
Y344520D01*
X320898D01*
Y340520D01*
X316898D01*
Y246031D02*
Y250031D01*
X320898D01*
Y246031D01*
X316898D01*
X322803Y234220D02*
Y238220D01*
X326803D01*
Y234220D01*
X322803D01*
X316898Y222409D02*
Y226409D01*
X320898D01*
Y222409D01*
X316898D01*
X322803Y210598D02*
Y214598D01*
X326803D01*
Y210598D01*
X322803D01*
X316898Y198787D02*
Y202787D01*
X320898D01*
Y198787D01*
X316898D01*
X310992Y352331D02*
Y356331D01*
X314992D01*
Y352331D01*
X310992D01*
X305086Y340520D02*
Y344520D01*
X309086D01*
Y340520D01*
X305086D01*
X310992Y328709D02*
Y332709D01*
X314992D01*
Y328709D01*
X310992D01*
X305086Y269654D02*
Y273654D01*
X309086D01*
Y269654D01*
X305086D01*
X310992Y257842D02*
Y261842D01*
X314992D01*
Y257842D01*
X310992D01*
X305086Y246031D02*
Y250031D01*
X309086D01*
Y246031D01*
X305086D01*
X310992Y234220D02*
Y238220D01*
X314992D01*
Y234220D01*
X310992D01*
X305086Y222409D02*
Y226409D01*
X309086D01*
Y222409D01*
X305086D01*
X310992Y210598D02*
Y214598D01*
X314992D01*
Y210598D01*
X310992D01*
X305086Y198787D02*
Y202787D01*
X309086D01*
Y198787D01*
X305086D01*
X299181Y352331D02*
Y356331D01*
X303181D01*
Y352331D01*
X299181D01*
X293275Y340520D02*
Y344520D01*
X297275D01*
Y340520D01*
X293275D01*
X299181Y328709D02*
Y332709D01*
X303181D01*
Y328709D01*
X299181D01*
X293275Y316898D02*
Y320898D01*
X297275D01*
Y316898D01*
X293275D01*
X299181Y257842D02*
Y261842D01*
X303181D01*
Y257842D01*
X299181D01*
X293275Y246031D02*
Y250031D01*
X297275D01*
Y246031D01*
X293275D01*
X299181Y234220D02*
Y238220D01*
X303181D01*
Y234220D01*
X299181D01*
X293275Y222409D02*
Y226409D01*
X297275D01*
Y222409D01*
X293275D01*
X299181Y210598D02*
Y214598D01*
X303181D01*
Y210598D01*
X299181D01*
X293275Y198787D02*
Y202787D01*
X297275D01*
Y198787D01*
X293275D01*
X287370Y328709D02*
Y332709D01*
X291370D01*
Y328709D01*
X287370D01*
X281465Y293275D02*
Y297275D01*
X285465D01*
Y293275D01*
X281465D01*
X287370Y281465D02*
Y285465D01*
X291370D01*
Y281465D01*
X287370D01*
X281465Y269654D02*
Y273654D01*
X285465D01*
Y269654D01*
X281465D01*
X287370Y257842D02*
Y261842D01*
X291370D01*
Y257842D01*
X287370D01*
X281465Y246031D02*
Y250031D01*
X285465D01*
Y246031D01*
X281465D01*
X287370Y234220D02*
Y238220D01*
X291370D01*
Y234220D01*
X287370D01*
X281465Y222409D02*
Y226409D01*
X285465D01*
Y222409D01*
X281465D01*
X328500Y265500D02*
X329500D01*
X330500Y266500D01*
X331500Y265500D01*
X332500D01*
Y266500D01*
X331500Y267500D01*
X332500Y268500D01*
Y269500D01*
X331500D01*
X330500Y268500D01*
X329500Y269500D01*
X328500D01*
Y268500D01*
X329500Y267500D01*
X328500Y266500D01*
Y265500D01*
X357500Y256500D02*
X358500D01*
X359500Y257500D01*
X360500Y256500D01*
X361500D01*
Y257500D01*
X360500Y258500D01*
X361500Y259500D01*
Y260500D01*
X360500D01*
X359500Y259500D01*
X358500Y260500D01*
X357500D01*
Y259500D01*
X358500Y258500D01*
X357500Y257500D01*
Y256500D01*
X295000Y301000D02*
Y305000D01*
X299000D01*
Y301000D01*
X295000D01*
X295800Y301800D02*
Y304200D01*
X298200D01*
Y301800D01*
X295800D01*
X311500Y304500D02*
X312500D01*
X313500Y305500D01*
X314500Y304500D01*
X315500D01*
Y305500D01*
X314500Y306500D01*
X315500Y307500D01*
Y308500D01*
X314500D01*
X313500Y307500D01*
X312500Y308500D01*
X311500D01*
Y307500D01*
X312500Y306500D01*
X311500Y305500D01*
Y304500D01*
X326000Y306500D02*
X327000D01*
X328000Y307500D01*
X329000Y306500D01*
X330000D01*
Y307500D01*
X329000Y308500D01*
X330000Y309500D01*
Y310500D01*
X329000D01*
X328000Y309500D01*
X327000Y310500D01*
X326000D01*
Y309500D01*
X327000Y308500D01*
X326000Y307500D01*
Y306500D01*
X321000Y313000D02*
X322000D01*
X323000Y314000D01*
X324000Y313000D01*
X325000D01*
Y314000D01*
X324000Y315000D01*
X325000Y316000D01*
Y317000D01*
X324000D01*
X323000Y316000D01*
X322000Y317000D01*
X321000D01*
Y316000D01*
X322000Y315000D01*
X321000Y314000D01*
Y313000D01*
X328500Y306500D02*
X329500D01*
X330500Y307500D01*
X331500Y306500D01*
X332500D01*
Y307500D01*
X331500Y308500D01*
X332500Y309500D01*
Y310500D01*
X331500D01*
X330500Y309500D01*
X329500Y310500D01*
X328500D01*
Y309500D01*
X329500Y308500D01*
X328500Y307500D01*
Y306500D01*
X297500Y293000D02*
X298500D01*
X299500Y294000D01*
X300500Y293000D01*
X301500D01*
Y294000D01*
X300500Y295000D01*
X301500Y296000D01*
Y297000D01*
X300500D01*
X299500Y296000D01*
X298500Y297000D01*
X297500D01*
Y296000D01*
X298500Y295000D01*
X297500Y294000D01*
Y293000D01*
X296000Y285000D02*
X297000D01*
X298000Y286000D01*
X299000Y285000D01*
X300000D01*
Y286000D01*
X299000Y287000D01*
X300000Y288000D01*
Y289000D01*
X299000D01*
X298000Y288000D01*
X297000Y289000D01*
X296000D01*
Y288000D01*
X297000Y287000D01*
X296000Y286000D01*
Y285000D01*
X350323Y273823D02*
X351323D01*
X352323Y274823D01*
X353323Y273823D01*
X354323D01*
Y274823D01*
X353323Y275823D01*
X354323Y276823D01*
Y277823D01*
X353323D01*
X352323Y276823D01*
X351323Y277823D01*
X350323D01*
Y276823D01*
X351323Y275823D01*
X350323Y274823D01*
Y273823D01*
X331000Y270500D02*
X332000D01*
X333000Y271500D01*
X334000Y270500D01*
X335000D01*
Y271500D01*
X334000Y272500D01*
X335000Y273500D01*
Y274500D01*
X334000D01*
X333000Y273500D01*
X332000Y274500D01*
X331000D01*
Y273500D01*
X332000Y272500D01*
X331000Y271500D01*
Y270500D01*
X303000Y307500D02*
X304000D01*
X305000Y308500D01*
X306000Y307500D01*
X307000D01*
Y308500D01*
X306000Y309500D01*
X307000Y310500D01*
Y311500D01*
X306000D01*
X305000Y310500D01*
X304000Y311500D01*
X303000D01*
Y310500D01*
X304000Y309500D01*
X303000Y308500D01*
Y307500D01*
X310500Y294500D02*
X311500D01*
X312500Y295500D01*
X313500Y294500D01*
X314500D01*
Y295500D01*
X313500Y296500D01*
X314500Y297500D01*
Y298500D01*
X313500D01*
X312500Y297500D01*
X311500Y298500D01*
X310500D01*
Y297500D01*
X311500Y296500D01*
X310500Y295500D01*
Y294500D01*
X297500Y297064D02*
X298500D01*
X299500Y298064D01*
X300500Y297064D01*
X301500D01*
Y298064D01*
X300500Y299064D01*
X301500Y300064D01*
Y301064D01*
X300500D01*
X299500Y300064D01*
X298500Y301064D01*
X297500D01*
Y300064D01*
X298500Y299064D01*
X297500Y298064D01*
Y297064D01*
X306000Y292000D02*
X307000D01*
X308000Y293000D01*
X309000Y292000D01*
X310000D01*
Y293000D01*
X309000Y294000D01*
X310000Y295000D01*
Y296000D01*
X309000D01*
X308000Y295000D01*
X307000Y296000D01*
X306000D01*
Y295000D01*
X307000Y294000D01*
X306000Y293000D01*
Y292000D01*
X312370Y292830D02*
X313370D01*
X314370Y293830D01*
X315370Y292830D01*
X316370D01*
Y293830D01*
X315370Y294830D01*
X316370Y295830D01*
Y296830D01*
X315370D01*
X314370Y295830D01*
X313370Y296830D01*
X312370D01*
Y295830D01*
X313370Y294830D01*
X312370Y293830D01*
Y292830D01*
X312282Y289000D02*
X313282D01*
X314282Y290000D01*
X315282Y289000D01*
X316282D01*
Y290000D01*
X315282Y291000D01*
X316282Y292000D01*
Y293000D01*
X315282D01*
X314282Y292000D01*
X313282Y293000D01*
X312282D01*
Y292000D01*
X313282Y291000D01*
X312282Y290000D01*
Y289000D01*
X310500Y291000D02*
X311500D01*
X312500Y292000D01*
X313500Y291000D01*
X314500D01*
Y292000D01*
X313500Y293000D01*
X314500Y294000D01*
Y295000D01*
X313500D01*
X312500Y294000D01*
X311500Y295000D01*
X310500D01*
Y294000D01*
X311500Y293000D01*
X310500Y292000D01*
Y291000D01*
X341500Y313000D02*
X342500D01*
X343500Y314000D01*
X344500Y313000D01*
X345500D01*
Y314000D01*
X344500Y315000D01*
X345500Y316000D01*
Y317000D01*
X344500D01*
X343500Y316000D01*
X342500Y317000D01*
X341500D01*
Y316000D01*
X342500Y315000D01*
X341500Y314000D01*
Y313000D01*
X292000Y268500D02*
Y272500D01*
X296000D01*
Y268500D01*
X292000D01*
X292800Y269300D02*
Y271700D01*
X295200D01*
Y269300D01*
X292800D01*
X298500Y307000D02*
X299500D01*
X300500Y308000D01*
X301500Y307000D01*
X302500D01*
Y308000D01*
X301500Y309000D01*
X302500Y310000D01*
Y311000D01*
X301500D01*
X300500Y310000D01*
X299500Y311000D01*
X298500D01*
Y310000D01*
X299500Y309000D01*
X298500Y308000D01*
Y307000D01*
X296088Y289088D02*
X297088D01*
X298088Y290088D01*
X299088Y289088D01*
X300088D01*
Y290088D01*
X299088Y291088D01*
X300088Y292088D01*
Y293088D01*
X299088D01*
X298088Y292088D01*
X297088Y293088D01*
X296088D01*
Y292088D01*
X297088Y291088D01*
X296088Y290088D01*
Y289088D01*
X363000Y247000D02*
X364000D01*
X365000Y248000D01*
X366000Y247000D01*
X367000D01*
Y248000D01*
X366000Y249000D01*
X367000Y250000D01*
Y251000D01*
X366000D01*
X365000Y250000D01*
X364000Y251000D01*
X363000D01*
Y250000D01*
X364000Y249000D01*
X363000Y248000D01*
Y247000D01*
X366116Y307060D02*
X367116D01*
X368116Y308060D01*
X369116Y307060D01*
X370116D01*
Y308060D01*
X369116Y309060D01*
X370116Y310060D01*
Y311060D01*
X369116D01*
X368116Y310060D01*
X367116Y311060D01*
X366116D01*
Y310060D01*
X367116Y309060D01*
X366116Y308060D01*
Y307060D01*
X365000Y303000D02*
X366000D01*
X367000Y304000D01*
X368000Y303000D01*
X369000D01*
Y304000D01*
X368000Y305000D01*
X369000Y306000D01*
Y307000D01*
X368000D01*
X367000Y306000D01*
X366000Y307000D01*
X365000D01*
Y306000D01*
X366000Y305000D01*
X365000Y304000D01*
Y303000D01*
X341500Y309000D02*
X342500D01*
X343500Y310000D01*
X344500Y309000D01*
X345500D01*
Y310000D01*
X344500Y311000D01*
X345500Y312000D01*
Y313000D01*
X344500D01*
X343500Y312000D01*
X342500Y313000D01*
X341500D01*
Y312000D01*
X342500Y311000D01*
X341500Y310000D01*
Y309000D01*
X310000Y279500D02*
X311000D01*
X312000Y280500D01*
X313000Y279500D01*
X314000D01*
Y280500D01*
X313000Y281500D01*
X314000Y282500D01*
Y283500D01*
X313000D01*
X312000Y282500D01*
X311000Y283500D01*
X310000D01*
Y282500D01*
X311000Y281500D01*
X310000Y280500D01*
Y279500D01*
X310330Y287670D02*
X311330D01*
X312330Y288670D01*
X313330Y287670D01*
X314330D01*
Y288670D01*
X313330Y289670D01*
X314330Y290670D01*
Y291670D01*
X313330D01*
X312330Y290670D01*
X311330Y291670D01*
X310330D01*
Y290670D01*
X311330Y289670D01*
X310330Y288670D01*
Y287670D01*
X310000Y283500D02*
X311000D01*
X312000Y284500D01*
X313000Y283500D01*
X314000D01*
Y284500D01*
X313000Y285500D01*
X314000Y286500D01*
Y287500D01*
X313000D01*
X312000Y286500D01*
X311000Y287500D01*
X310000D01*
Y286500D01*
X311000Y285500D01*
X310000Y284500D01*
Y283500D01*
X305500Y289000D02*
X306500D01*
X307500Y290000D01*
X308500Y289000D01*
X309500D01*
Y290000D01*
X308500Y291000D01*
X309500Y292000D01*
Y293000D01*
X308500D01*
X307500Y292000D01*
X306500Y293000D01*
X305500D01*
Y292000D01*
X306500Y291000D01*
X305500Y290000D01*
Y289000D01*
X338500Y267500D02*
X339500D01*
X340500Y268500D01*
X341500Y267500D01*
X342500D01*
Y268500D01*
X341500Y269500D01*
X342500Y270500D01*
Y271500D01*
X341500D01*
X340500Y270500D01*
X339500Y271500D01*
X338500D01*
Y270500D01*
X339500Y269500D01*
X338500Y268500D01*
Y267500D01*
X535500Y245500D02*
X536500D01*
X537500Y246500D01*
X538500Y245500D01*
X539500D01*
Y246500D01*
X538500Y247500D01*
X539500Y248500D01*
Y249500D01*
X538500D01*
X537500Y248500D01*
X536500Y249500D01*
X535500D01*
Y248500D01*
X536500Y247500D01*
X535500Y246500D01*
Y245500D01*
X340459Y272959D02*
X341459D01*
X342459Y273959D01*
X343459Y272959D01*
X344459D01*
Y273959D01*
X343459Y274959D01*
X344459Y275959D01*
Y276959D01*
X343459D01*
X342459Y275959D01*
X341459Y276959D01*
X340459D01*
Y275959D01*
X341459Y274959D01*
X340459Y273959D01*
Y272959D01*
X332500Y309000D02*
X333500D01*
X334500Y310000D01*
X335500Y309000D01*
X336500D01*
Y310000D01*
X335500Y311000D01*
X336500Y312000D01*
Y313000D01*
X335500D01*
X334500Y312000D01*
X333500Y313000D01*
X332500D01*
Y312000D01*
X333500Y311000D01*
X332500Y310000D01*
Y309000D01*
Y313000D02*
X333500D01*
X334500Y314000D01*
X335500Y313000D01*
X336500D01*
Y314000D01*
X335500Y315000D01*
X336500Y316000D01*
Y317000D01*
X335500D01*
X334500Y316000D01*
X333500Y317000D01*
X332500D01*
Y316000D01*
X333500Y315000D01*
X332500Y314000D01*
Y313000D01*
X303000Y316500D02*
X304000D01*
X305000Y317500D01*
X306000Y316500D01*
X307000D01*
Y317500D01*
X306000Y318500D01*
X307000Y319500D01*
Y320500D01*
X306000D01*
X305000Y319500D01*
X304000Y320500D01*
X303000D01*
Y319500D01*
X304000Y318500D01*
X303000Y317500D01*
Y316500D01*
X306000Y310000D02*
X307000D01*
X308000Y311000D01*
X309000Y310000D01*
X310000D01*
Y311000D01*
X309000Y312000D01*
X310000Y313000D01*
Y314000D01*
X309000D01*
X308000Y313000D01*
X307000Y314000D01*
X306000D01*
Y313000D01*
X307000Y312000D01*
X306000Y311000D01*
Y310000D01*
X315000D02*
X316000D01*
X317000Y311000D01*
X318000Y310000D01*
X319000D01*
Y311000D01*
X318000Y312000D01*
X319000Y313000D01*
Y314000D01*
X318000D01*
X317000Y313000D01*
X316000Y314000D01*
X315000D01*
Y313000D01*
X316000Y312000D01*
X315000Y311000D01*
Y310000D01*
X351476Y284024D02*
X352476D01*
X353476Y285024D01*
X354476Y284024D01*
X355476D01*
Y285024D01*
X354476Y286024D01*
X355476Y287024D01*
Y288024D01*
X354476D01*
X353476Y287024D01*
X352476Y288024D01*
X351476D01*
Y287024D01*
X352476Y286024D01*
X351476Y285024D01*
Y284024D01*
X366000Y240500D02*
X367000D01*
X368000Y241500D01*
X369000Y240500D01*
X370000D01*
Y241500D01*
X369000Y242500D01*
X370000Y243500D01*
Y244500D01*
X369000D01*
X368000Y243500D01*
X367000Y244500D01*
X366000D01*
Y243500D01*
X367000Y242500D01*
X366000Y241500D01*
Y240500D01*
X312000Y277500D02*
X313000D01*
X314000Y278500D01*
X315000Y277500D01*
X316000D01*
Y278500D01*
X315000Y279500D01*
X316000Y280500D01*
Y281500D01*
X315000D01*
X314000Y280500D01*
X313000Y281500D01*
X312000D01*
Y280500D01*
X313000Y279500D01*
X312000Y278500D01*
Y277500D01*
Y281500D02*
X313000D01*
X314000Y282500D01*
X315000Y281500D01*
X316000D01*
Y282500D01*
X315000Y283500D01*
X316000Y284500D01*
Y285500D01*
X315000D01*
X314000Y284500D01*
X313000Y285500D01*
X312000D01*
Y284500D01*
X313000Y283500D01*
X312000Y282500D01*
Y281500D01*
Y285260D02*
X313000D01*
X314000Y286260D01*
X315000Y285260D01*
X316000D01*
Y286260D01*
X315000Y287260D01*
X316000Y288260D01*
Y289260D01*
X315000D01*
X314000Y288260D01*
X313000Y289260D01*
X312000D01*
Y288260D01*
X313000Y287260D01*
X312000Y286260D01*
Y285260D01*
X308500Y316500D02*
X309500D01*
X310500Y317500D01*
X311500Y316500D01*
X312500D01*
Y317500D01*
X311500Y318500D01*
X312500Y319500D01*
Y320500D01*
X311500D01*
X310500Y319500D01*
X309500Y320500D01*
X308500D01*
Y319500D01*
X309500Y318500D01*
X308500Y317500D01*
Y316500D01*
X312500D02*
X313500D01*
X314500Y317500D01*
X315500Y316500D01*
X316500D01*
Y317500D01*
X315500Y318500D01*
X316500Y319500D01*
Y320500D01*
X315500D01*
X314500Y319500D01*
X313500Y320500D01*
X312500D01*
Y319500D01*
X313500Y318500D01*
X312500Y317500D01*
Y316500D01*
X314500Y326000D02*
X315500D01*
X316500Y327000D01*
X317500Y326000D01*
X318500D01*
Y327000D01*
X317500Y328000D01*
X318500Y329000D01*
Y330000D01*
X317500D01*
X316500Y329000D01*
X315500Y330000D01*
X314500D01*
Y329000D01*
X315500Y328000D01*
X314500Y327000D01*
Y326000D01*
X333500D02*
X334500D01*
X335500Y327000D01*
X336500Y326000D01*
X337500D01*
Y327000D01*
X336500Y328000D01*
X337500Y329000D01*
Y330000D01*
X336500D01*
X335500Y329000D01*
X334500Y330000D01*
X333500D01*
Y329000D01*
X334500Y328000D01*
X333500Y327000D01*
Y326000D01*
X501500Y277000D02*
X502500D01*
X503500Y278000D01*
X504500Y277000D01*
X505500D01*
Y278000D01*
X504500Y279000D01*
X505500Y280000D01*
Y281000D01*
X504500D01*
X503500Y280000D01*
X502500Y281000D01*
X501500D01*
Y280000D01*
X502500Y279000D01*
X501500Y278000D01*
Y277000D01*
X498500D02*
X499500D01*
X500500Y278000D01*
X501500Y277000D01*
X502500D01*
Y278000D01*
X501500Y279000D01*
X502500Y280000D01*
Y281000D01*
X501500D01*
X500500Y280000D01*
X499500Y281000D01*
X498500D01*
Y280000D01*
X499500Y279000D01*
X498500Y278000D01*
Y277000D01*
Y279000D02*
X499500D01*
X500500Y280000D01*
X501500Y279000D01*
X502500D01*
Y280000D01*
X501500Y281000D01*
X502500Y282000D01*
Y283000D01*
X501500D01*
X500500Y282000D01*
X499500Y283000D01*
X498500D01*
Y282000D01*
X499500Y281000D01*
X498500Y280000D01*
Y279000D01*
X506500Y279500D02*
X508500Y281500D01*
X510500Y279500D01*
X508500Y277500D01*
X506500Y279500D01*
X501500Y279000D02*
X502500D01*
X503500Y280000D01*
X504500Y279000D01*
X505500D01*
Y280000D01*
X504500Y281000D01*
X505500Y282000D01*
Y283000D01*
X504500D01*
X503500Y282000D01*
X502500Y283000D01*
X501500D01*
Y282000D01*
X502500Y281000D01*
X501500Y280000D01*
Y279000D01*
X522000D02*
X523000D01*
X524000Y280000D01*
X525000Y279000D01*
X526000D01*
Y280000D01*
X525000Y281000D01*
X526000Y282000D01*
Y283000D01*
X525000D01*
X524000Y282000D01*
X523000Y283000D01*
X522000D01*
Y282000D01*
X523000Y281000D01*
X522000Y280000D01*
Y279000D01*
X519500Y275000D02*
X520500D01*
X521500Y276000D01*
X522500Y275000D01*
X523500D01*
Y276000D01*
X522500Y277000D01*
X523500Y278000D01*
Y279000D01*
X522500D01*
X521500Y278000D01*
X520500Y279000D01*
X519500D01*
Y278000D01*
X520500Y277000D01*
X519500Y276000D01*
Y275000D01*
D71*
X536012Y268476D02*
G03*
X536012Y268476I-2000J0D01*
G01*
Y291232D02*
G03*
X536012Y291232I-2000J0D01*
G01*
M02*
