G04*
G04 #@! TF.GenerationSoftware,Altium Limited,Altium Designer,23.1.1 (15)*
G04*
G04 Layer_Color=32768*
%FSLAX25Y25*%
%MOIN*%
G70*
G04*
G04 #@! TF.SameCoordinates,379D8D2B-01B5-4923-9211-1CC0BA53C839*
G04*
G04*
G04 #@! TF.FilePolarity,Positive*
G04*
G01*
G75*
%ADD10C,0.00394*%
%ADD70C,0.00197*%
D10*
X324031Y323500D02*
X327969D01*
X326000Y321532D02*
Y325468D01*
X300500Y303413D02*
Y305776D01*
X299319Y304594D02*
X301681D01*
X304850Y303095D02*
X306150D01*
X305500Y302445D02*
Y303744D01*
X310500Y303413D02*
Y305776D01*
X309319Y304594D02*
X311681D01*
X309000Y297350D02*
Y298650D01*
X308350Y298000D02*
X309650D01*
D70*
X333480Y314051D02*
Y332949D01*
X318520Y314051D02*
Y332949D01*
X333480D01*
X318520Y314051D02*
X333480D01*
X299957Y296866D02*
X307043D01*
X299957Y293323D02*
X307043D01*
X299957D02*
Y296866D01*
X307043Y293323D02*
Y296866D01*
X302417Y295094D02*
X304583D01*
X303500Y294012D02*
Y296177D01*
X299153Y285228D02*
Y288772D01*
X305847Y285228D02*
Y288772D01*
X299153D02*
X305847D01*
X299153Y285228D02*
X305847D01*
X301417Y287000D02*
X303583D01*
X302500Y285917D02*
Y288083D01*
X348228Y274051D02*
Y281138D01*
X351772Y274051D02*
Y281138D01*
X348228Y274051D02*
X351772D01*
X348228Y281138D02*
X351772D01*
X350000Y276512D02*
Y278677D01*
X348917Y277594D02*
X351083D01*
X328728Y267957D02*
Y275043D01*
X332272Y267957D02*
Y275043D01*
X328728Y267957D02*
X332272D01*
X328728Y275043D02*
X332272D01*
X330500Y270417D02*
Y272583D01*
X329417Y271500D02*
X331583D01*
X351772Y281551D02*
Y288638D01*
X348228Y281551D02*
Y288638D01*
X351772D01*
X348228Y281551D02*
X351772D01*
X350000Y284012D02*
Y286177D01*
X348917Y285094D02*
X351083D01*
X315358Y275905D02*
X347642D01*
X315358Y308189D02*
X347642D01*
X315358Y275905D02*
Y308189D01*
X347642Y275905D02*
Y308189D01*
X298925Y301445D02*
X302075D01*
X298925Y307744D02*
X302075D01*
X298925Y301445D02*
Y307744D01*
X302075Y301445D02*
Y307744D01*
X302547Y301716D02*
Y304472D01*
X308453Y301716D02*
Y304472D01*
X302547D02*
X308453D01*
X302547Y301716D02*
X308453D01*
X308925Y301445D02*
X312075D01*
X308925Y307744D02*
X312075D01*
X308925Y301445D02*
Y307744D01*
X312075Y301445D02*
Y307744D01*
X316272Y310551D02*
Y317638D01*
X312728Y310551D02*
Y317638D01*
X316272D01*
X312728Y310551D02*
X316272D01*
X314500Y313012D02*
Y315177D01*
X313417Y314094D02*
X315583D01*
X312272Y310551D02*
Y317638D01*
X308728Y310551D02*
Y317638D01*
X312272D01*
X308728Y310551D02*
X312272D01*
X310500Y313012D02*
Y315177D01*
X309417Y314094D02*
X311583D01*
X315417Y323500D02*
X317583D01*
X316500Y322417D02*
Y324583D01*
X314728Y319957D02*
Y327043D01*
X318272Y319957D02*
Y327043D01*
X314728Y319957D02*
X318272D01*
X314728Y327043D02*
X318272D01*
X307622Y295047D02*
X310378D01*
X307622Y300953D02*
X310378D01*
X307622Y295047D02*
Y300953D01*
X310378Y295047D02*
Y300953D01*
X339000Y313917D02*
Y316083D01*
X337917Y315000D02*
X340083D01*
X335457Y313228D02*
Y316772D01*
X342543Y313228D02*
Y316772D01*
X335457D02*
X342543D01*
X335457Y313228D02*
X342543D01*
X298957Y292772D02*
X306043D01*
X298957Y289228D02*
X306043D01*
X298957D02*
Y292772D01*
X306043Y289228D02*
Y292772D01*
X301417Y291000D02*
X303583D01*
X302500Y289917D02*
Y292083D01*
X306772Y310457D02*
Y317543D01*
X303228Y310457D02*
Y317543D01*
X306772D01*
X303228Y310457D02*
X306772D01*
X305000Y312917D02*
Y315083D01*
X303917Y314000D02*
X306083D01*
X303500Y298012D02*
Y300177D01*
X302417Y299095D02*
X304583D01*
X307043Y297323D02*
Y300866D01*
X299957Y297323D02*
Y300866D01*
Y297323D02*
X307043D01*
X299957Y300866D02*
X307043D01*
X333728Y327043D02*
X337272D01*
X333728Y319957D02*
X337272D01*
Y327043D01*
X333728Y319957D02*
Y327043D01*
X335500Y322417D02*
Y324583D01*
X334417Y323500D02*
X336583D01*
X339000Y309917D02*
Y312083D01*
X337917Y311000D02*
X340083D01*
X335457Y309228D02*
Y312772D01*
X342543Y309228D02*
Y312772D01*
X335457D02*
X342543D01*
X335457Y309228D02*
X342543D01*
X322000Y309417D02*
Y311583D01*
X320917Y310500D02*
X323083D01*
X318653Y308728D02*
X325346D01*
X318653Y312272D02*
X325346D01*
Y308728D02*
Y312272D01*
X318653Y308728D02*
Y312272D01*
M02*
